# Blender 4.5.2 LTS
# www.blender.org
mtllib cube.mtl
o Cube
v 1.000000 0.589396 -0.589396
v 1.000000 -0.589396 -0.589396
v 1.000000 0.589396 0.589396
v 1.000000 -0.589396 0.589396
v -1.000000 1.000000 -1.000000
v -1.000000 -1.000000 -1.000000
v -1.000000 1.000000 1.000000
v -1.000000 -1.000000 1.000000
v 1.000000 1.000000 -1.000000
v 1.000000 -1.000000 -1.000000
v 1.000000 1.000000 1.000000
v 1.000000 -1.000000 1.000000
v 1.393637 0.589396 -0.589396
v 1.393637 -0.589396 -0.589396
v 1.393637 0.589396 0.589396
v 1.393637 -0.589396 0.589396
vn -0.0000 1.0000 -0.0000
vn -0.0000 -0.0000 1.0000
vn -1.0000 -0.0000 -0.0000
vn -0.0000 -1.0000 -0.0000
vn -0.0000 -0.0000 -1.0000
vn 1.0000 -0.0000 -0.0000
vt 0.875000 0.500000
vt 0.625000 0.750000
vt 0.625000 0.500000
vt 0.375000 1.000000
vt 0.375000 0.750000
vt 0.625000 0.000000
vt 0.375000 0.250000
vt 0.375000 0.000000
vt 0.375000 0.500000
vt 0.125000 0.750000
vt 0.125000 0.500000
vt 0.573675 0.698675
vt 0.573674 0.551325
vt 0.625000 0.250000
vt 0.426325 0.551326
vt 0.426325 0.698675
vt 0.875000 0.750000
vt 0.625000 1.000000
s 1
usemtl Material.001
f 5/1/1 11/2/1 9/3/1
f 11/2/2 8/4/2 12/5/2
f 7/6/3 6/7/3 8/8/3
f 10/9/4 8/10/4 6/11/4
f 3/12/1 13/13/1 1/13/1
f 5/14/5 10/9/5 6/7/5
f 2/15/6 9/3/6 1/13/6
f 3/12/6 12/5/6 4/16/6
f 3/12/6 9/3/6 11/2/6
f 2/15/6 12/5/6 10/9/6
f 13/13/6 16/16/6 14/15/6
f 1/13/5 14/15/5 2/15/5
f 2/15/4 16/16/4 4/16/4
f 4/16/2 15/12/2 3/12/2
f 5/1/1 7/17/1 11/2/1
f 11/2/2 7/18/2 8/4/2
f 7/6/3 5/14/3 6/7/3
f 10/9/4 12/5/4 8/10/4
f 3/12/1 15/12/1 13/13/1
f 5/14/5 9/3/5 10/9/5
f 2/15/6 10/9/6 9/3/6
f 3/12/6 11/2/6 12/5/6
f 3/12/6 1/13/6 9/3/6
f 2/15/6 4/16/6 12/5/6
f 13/13/6 15/12/6 16/16/6
f 1/13/5 13/13/5 14/15/5
f 2/15/4 14/15/4 16/16/4
f 4/16/2 16/16/2 15/12/2
