# Blender 4.5.2 LTS
# www.blender.org
o Circle.003
v 0.000000 6.314418 -0.785586
v 0.255178 6.314418 -0.717157
v -0.484003 6.314418 -0.585105
v 0.616054 6.314418 -0.356281
v -0.684484 6.314418 -0.101102
v 0.616054 6.314418 0.154075
v -0.484003 6.314418 0.382901
v 0.255178 6.314418 0.514951
v 0.000000 6.314418 0.583381
v -0.255178 6.314418 0.514951
v 0.484003 6.314418 0.382900
v -0.616054 6.314418 0.154075
v 0.684484 6.314418 -0.101103
v -0.616054 6.314418 -0.356280
v 0.484003 6.314418 -0.585106
v -0.255178 6.314418 -0.717156
v 0.000000 6.512147 -0.785586
v 0.255178 6.512147 -0.717157
v -0.484003 6.512147 -0.585105
v 0.616054 6.512147 -0.356281
v -0.684484 6.512147 -0.101102
v 0.616054 6.512147 0.154075
v -0.484003 6.512147 0.382901
v 0.255178 6.512147 0.514951
v 0.000000 6.512147 0.583381
v -0.255178 6.512147 0.514951
v 0.484003 6.512147 0.382900
v -0.616054 6.512147 0.154075
v 0.684484 6.512147 -0.101103
v -0.616054 6.512147 -0.356280
v 0.484003 6.512147 -0.585106
v -0.255178 6.512147 -0.717156
v 0.000000 6.687670 -1.158124
v 0.394061 6.687670 -1.052451
v -0.747427 6.687670 -0.848529
v 0.951347 6.687670 -0.495165
v -1.057021 6.687670 -0.101103
v 0.951348 6.687670 0.292957
v -0.747427 6.687670 0.646325
v 0.394062 6.687670 0.850245
v 0.000000 6.687670 0.955919
v -0.394061 6.687670 0.850245
v 0.747427 6.687670 0.646324
v -0.951348 6.687670 0.292958
v 1.057021 6.687670 -0.101104
v -0.951348 6.687670 -0.495164
v 0.747426 6.687670 -0.848530
v -0.394061 6.687670 -1.052450
v 0.000000 8.023057 -1.158125
v 0.394061 8.023057 -1.052452
v -0.747427 8.023057 -0.848530
v 0.951347 8.023057 -0.495165
v -1.057021 8.023057 -0.101103
v 0.951348 8.023057 0.292957
v -0.747427 8.023057 0.646324
v 0.394062 8.023057 0.850244
v 0.000000 8.023057 0.955918
v -0.394061 8.023057 0.850244
v 0.747427 8.023057 0.646323
v -0.951348 8.023057 0.292958
v 1.057021 8.023057 -0.101104
v -0.951348 8.023057 -0.495164
v 0.747426 8.023057 -0.848531
v -0.394061 8.023057 -1.052451
v 0.000000 8.208591 -0.993654
v 0.332746 8.208591 -0.904424
v -0.631129 8.208591 -0.732232
v 0.803320 8.208591 -0.433850
v -0.892551 8.208591 -0.101103
v 0.803320 8.208591 0.231642
v -0.631129 8.208591 0.530025
v 0.332746 8.208591 0.702216
v 0.000000 8.208591 0.791447
v -0.332746 8.208591 0.702217
v 0.631129 8.208591 0.530025
v -0.803320 8.208591 0.231643
v 0.892551 8.208591 -0.101104
v -0.803320 8.208591 -0.433849
v 0.631128 8.208591 -0.732233
v -0.332746 8.208591 -0.904423
v 0.000000 8.299738 -0.474256
v 0.139112 8.299738 -0.436951
v -0.263858 8.299738 -0.364962
v 0.335847 8.299738 -0.240216
v -0.373152 8.299738 -0.101104
v 0.335847 8.299738 0.038009
v -0.263858 8.299738 0.162755
v 0.139113 8.299738 0.234743
v 0.000000 8.299738 0.272048
v -0.139112 8.299738 0.234743
v 0.263858 8.299738 0.162755
v -0.335847 8.299738 0.038009
v 0.373152 8.299738 -0.101104
v -0.335847 8.299738 -0.240216
v 0.263858 8.299738 -0.364962
v -0.139112 8.299738 -0.436951
v 0.000000 8.537577 -0.474256
v 0.139112 8.537577 -0.436951
v -0.263858 8.537577 -0.364962
v 0.335847 8.537577 -0.240216
v -0.373152 8.537577 -0.101104
v 0.335847 8.537577 0.038009
v -0.263858 8.537577 0.162755
v 0.139113 8.537577 0.234743
v 0.000000 8.537577 0.272048
v -0.139112 8.537577 0.234743
v 0.263858 8.537577 0.162755
v -0.335847 8.537577 0.038009
v 0.373152 8.537577 -0.101104
v -0.335847 8.537577 -0.240216
v 0.263858 8.537577 -0.364962
v -0.139112 8.537577 -0.436951
v 0.000000 3.474552 1.319385
v 0.353553 3.394058 1.319385
v -0.660471 3.200976 1.319385
v 0.853553 2.894059 1.319385
v -0.859989 2.540505 1.319385
v 0.769549 2.186952 1.319385
v -0.847891 1.819912 1.319385
v 0.440229 1.827543 1.319385
v 0.895984 2.540506 1.319385
v -0.853553 2.894058 1.319385
v 0.660470 3.200977 1.319385
v -0.353553 3.394058 1.319385
v -0.841278 0.818298 1.319385
v 0.446841 0.827192 1.319385
v -0.841278 0.235495 1.319385
v 0.446841 0.244390 1.319385
v 1.015206 0.818471 1.319385
v 1.023330 0.253111 1.319385
v 0.000000 3.474552 0.018952
v 0.353553 3.394058 0.018952
v -0.660471 3.200976 0.018952
v 0.853553 2.894059 0.018952
v -0.859989 2.540505 0.018952
v 0.769549 2.186952 0.018952
v -0.847891 1.819912 0.018952
v 0.440229 1.827543 0.018952
v 0.895984 2.540506 0.018952
v -0.853553 2.894058 0.018952
v 0.660470 3.200977 0.018952
v -0.353553 3.394058 0.018952
v -0.841278 0.818298 0.018952
v 0.446841 0.827192 0.018952
v -0.841278 0.235495 0.018952
v 0.446841 0.244390 0.018952
v 1.015206 0.818471 0.018952
v 1.023330 0.253111 0.018952
v 0.000000 3.474552 -1.604520
v 0.353553 3.394058 -1.604520
v -0.660471 3.200976 -1.604520
v 0.853553 2.894059 -1.604520
v -0.859989 2.540505 -1.604520
v 0.769549 2.186952 -1.604520
v -0.847891 1.819912 -1.604520
v 0.440229 1.827543 -1.604520
v 0.895984 2.540506 -1.604520
v -0.853553 2.894058 -1.604520
v 0.660470 3.200976 -1.604520
v -0.353553 3.394058 -1.604520
v -0.841278 0.818298 -1.604520
v 0.446841 0.827192 -1.604520
v -0.841278 0.235495 -1.604520
v 0.446841 0.244390 -1.604520
v 1.015206 0.818471 -1.604520
v 1.023330 0.253111 -1.604520
v 0.000000 3.474552 -0.304087
v 0.353553 3.394058 -0.304087
v -0.660471 3.200976 -0.304087
v 0.853553 2.894059 -0.304087
v -0.859989 2.540505 -0.304087
v 0.769549 2.186952 -0.304087
v -0.847891 1.819912 -0.304087
v 0.440229 1.827543 -0.304087
v 0.895984 2.540506 -0.304087
v -0.853553 2.894058 -0.304087
v 0.660470 3.200977 -0.304087
v -0.353553 3.394058 -0.304087
v -0.841278 0.818298 -0.304087
v 0.446841 0.827192 -0.304087
v -0.841278 0.235495 -0.304087
v 0.446841 0.244390 -0.304087
v 1.015206 0.818471 -0.304087
v 1.023330 0.253111 -0.304087
v -0.917948 2.667565 -0.000000
v -0.853554 2.314012 -0.000000
v -0.776390 3.316653 -0.000000
v -0.353554 1.814012 -0.000000
v 0.353553 1.814012 -0.000000
v 0.776390 3.316653 -0.000000
v 0.853553 2.314011 -0.000000
v 0.917948 2.667565 -0.000000
v 0.853553 3.021118 -0.000000
v 0.649087 2.018477 -0.000000
v 0.889340 3.465824 -0.000000
v -0.000001 1.749617 -0.000000
v -0.889340 3.465824 -0.000000
v -0.649088 2.018478 -0.000000
v -0.853553 3.021119 -0.000000
v 0.889340 3.896525 -0.000000
v -0.889340 3.896525 -0.000000
v -0.917948 2.667565 -0.282419
v -0.853554 2.314012 -0.282419
v -0.776390 3.316653 -0.282419
v -0.353554 1.814012 -0.282419
v 0.353553 1.814012 -0.282419
v 0.776390 3.316653 -0.282419
v 0.853553 2.314011 -0.282419
v 0.917948 2.667565 -0.282419
v 0.853553 3.021118 -0.282419
v 0.649087 2.018477 -0.282419
v 0.889340 3.465824 -0.282419
v -0.000001 1.749617 -0.282419
v -0.889340 3.465824 -0.282419
v -0.649088 2.018478 -0.282419
v -0.853553 3.021119 -0.282419
v 0.889340 3.896525 -0.282419
v -0.889340 3.896525 -0.282419
v 0.889340 3.465824 -1.578718
v -0.889340 3.465824 -1.578718
v 0.889340 3.896525 -1.578718
v -0.889340 3.896525 -1.578718
v 0.889340 3.465824 1.352949
v -0.889340 3.465824 1.352949
v 0.889340 3.896525 1.352949
v -0.889340 3.896525 1.352949
v -1.000000 3.923677 1.383348
v -0.796845 6.330235 1.080217
v -1.000000 3.923677 -1.600875
v -0.796845 6.330235 -1.297745
v 1.000000 3.923677 1.383348
v 0.796845 6.330235 1.080217
v 1.000000 3.923677 -1.600875
v 0.796845 6.330235 -1.297745
v 0.875290 4.016863 -2.190383
v 0.643809 4.147357 -2.146912
v 0.804362 3.931266 -2.152319
v 0.597006 4.086904 -2.079643
v 0.775504 3.887977 -2.046964
v 0.597595 4.078032 -1.978197
v 0.805619 3.912352 -1.936034
v 0.645232 4.125939 -1.902001
v 0.877067 3.990115 -1.884511
v 0.712012 4.202561 -1.895688
v 0.947995 4.075712 -1.922575
v 0.758816 4.263014 -1.962957
v 0.976853 4.119002 -2.027930
v 0.758226 4.271885 -2.064404
v 0.946738 4.094626 -2.138860
v 0.710589 4.223979 -2.140600
v 0.995868 3.689207 -2.443397
v 1.269190 4.225775 -2.365963
v 1.126248 3.613497 -2.421079
v 1.588970 3.943197 -2.311054
v 0.758420 3.809824 -2.314975
v 1.117773 4.341025 -2.150973
v 1.280796 3.515599 -2.274514
v 0.667072 3.835935 -2.045622
v 1.119450 4.316388 -1.869703
v 1.288332 3.479836 -1.906122
v 1.592142 3.897299 -1.786902
v 0.767549 3.757772 -1.789833
v 1.273468 4.165506 -1.679753
v 1.137570 3.545895 -1.736319
v 1.386373 4.064851 -1.657913
v 1.009097 3.614867 -1.695597
v 1.499113 3.970404 -1.698245
v 0.878083 3.689946 -1.716654
v 1.179667 4.253795 -1.753286
v 1.226101 3.475132 -1.823662
v 1.629017 3.869226 -1.867188
v 0.695418 3.807819 -1.906392
v 1.096512 4.347892 -2.008538
v 1.627040 3.901385 -2.237396
v 0.690532 3.835776 -2.188533
v 1.176495 4.299722 -2.277144
v 1.234629 3.545996 -2.347866
v 1.494980 4.030563 -2.384452
v 0.866036 3.758119 -2.403647
v 1.381627 4.130667 -2.406383
v 1.010437 3.685783 -2.334897
v 1.305664 4.168190 -2.273092
v 1.094129 3.640323 -2.318847
v 1.513377 3.981669 -2.231562
v 0.850618 3.765189 -2.247974
v 1.199577 4.247008 -2.121709
v 1.214041 3.559826 -2.244628
v 0.784729 3.784035 -2.052301
v 1.200735 4.229062 -1.916042
v 1.220501 3.529576 -1.924677
v 1.515376 3.949123 -1.857211
v 0.857291 3.727284 -1.866682
v 1.308301 4.125444 -1.781844
v 1.100733 3.594302 -1.830612
v 1.380466 4.061967 -1.767096
v 1.019616 3.633062 -1.803043
v 1.451791 4.001270 -1.793435
v 0.933788 3.680802 -1.816335
v 1.244135 4.184893 -1.832409
v 1.176352 3.561997 -1.895035
v 1.553266 3.922913 -1.886927
v 0.805553 3.763442 -1.950511
v 1.183905 4.252020 -2.017554
v 1.551763 3.950474 -2.207351
v 0.801927 3.783961 -2.156837
v 1.242029 4.218005 -2.212251
v 1.169712 3.596882 -2.265775
v 1.449139 4.044044 -2.284662
v 0.925216 3.729758 -2.309267
v 1.377651 4.108253 -2.299352
v -0.403544 5.385147 -1.490685
v -0.346344 5.835600 -1.428322
v -0.417099 5.509004 -1.842408
v -0.354869 5.911825 -1.645527
v 0.222673 5.406179 -1.424441
v 0.075572 5.846655 -1.360791
v 0.210918 5.552658 -1.843553
v 0.067897 5.945947 -1.645358
v -0.253411 4.664410 -1.669617
v -0.267101 4.803878 -2.086564
v 0.370803 4.748208 -1.591268
v 0.356261 4.912925 -2.076217
v 0.477294 3.893641 -1.837607
v 0.489075 4.053545 -2.318488
v 0.855781 4.298017 -1.730368
v 0.867791 4.458498 -2.212137
v -0.549281 5.426614 -1.633478
v -0.392260 5.670452 -1.431535
v -0.392428 5.882387 -1.497294
v -0.403874 5.776130 -1.732347
v -0.107406 5.562953 -1.934011
v -0.148885 5.960361 -1.664567
v 0.147404 5.815622 -1.733805
v 0.358669 5.488245 -1.634320
v 0.110834 5.922464 -1.496133
v 0.157677 5.686479 -1.364202
v -0.090785 5.376046 -1.400053
v -0.141418 5.866743 -1.395533
v -0.398895 4.698840 -1.848059
v 0.040096 4.894153 -2.187232
v 0.506540 4.853502 -1.831077
v 0.059382 4.683043 -1.557672
v -0.381975 5.029455 -1.580882
v 0.289321 5.066591 -1.512680
v 0.276482 5.223153 -1.963278
v -0.396527 5.163306 -1.964902
v 0.477614 3.942468 -2.081172
v 0.707669 4.277966 -2.303793
v 0.925716 4.424477 -1.954103
v 0.694067 4.088913 -1.732973
v 0.079322 4.284422 -2.235399
v 0.076645 4.167598 -1.688971
v 0.530793 4.618178 -1.625266
v 0.532384 4.737275 -2.172518
v 0.636877 4.759843 -1.886591
v 0.318651 4.526554 -2.313193
v 0.315546 4.361829 -1.549565
v 0.763824 4.196927 -2.004178
v 0.439463 5.155168 -1.738171
v -0.543240 5.073017 -1.740372
v -0.064894 5.229517 -2.064945
v -0.000670 4.128066 -1.976382
v -0.150025 5.951632 -1.482064
v -0.046377 5.025519 -1.479038
v -0.119394 5.669935 -1.359440
v 0.263660 5.762088 -1.548046
v -0.132612 5.824963 -1.802527
v -0.505678 5.709532 -1.547482
v 0.875290 4.016863 1.984239
v 0.643809 4.147357 1.940768
v 0.804362 3.931266 1.946175
v 0.597006 4.086904 1.873499
v 0.775504 3.887977 1.840819
v 0.597596 4.078032 1.772053
v 0.805619 3.912352 1.729890
v 0.645233 4.125939 1.695856
v 0.877067 3.990115 1.678367
v 0.712013 4.202561 1.689544
v 0.947995 4.075712 1.716431
v 0.758816 4.263014 1.756813
v 0.976853 4.119001 1.821787
v 0.758226 4.271885 1.858259
v 0.946738 4.094626 1.932716
v 0.710590 4.223979 1.934456
v 0.995868 3.689207 2.237253
v 1.269190 4.225774 2.159818
v 1.126249 3.613496 2.214935
v 1.588970 3.943197 2.104911
v 0.758420 3.809824 2.108830
v 1.117773 4.341024 1.944829
v 1.280796 3.515599 2.068370
v 0.667073 3.835935 1.839478
v 1.119450 4.316387 1.663559
v 1.288332 3.479836 1.699978
v 1.592142 3.897298 1.580758
v 0.767549 3.757771 1.583689
v 1.273468 4.165506 1.473609
v 1.137570 3.545895 1.530175
v 1.386374 4.064850 1.451769
v 1.009097 3.614867 1.489453
v 1.499113 3.970403 1.492101
v 0.878083 3.689946 1.510509
v 1.179667 4.253795 1.547142
v 1.226101 3.475132 1.617518
v 1.629017 3.869226 1.661044
v 0.695418 3.807819 1.700248
v 1.096512 4.347892 1.802394
v 1.627040 3.901385 2.031251
v 0.690532 3.835776 1.982389
v 1.176495 4.299722 2.071000
v 1.234629 3.545996 2.141722
v 1.494981 4.030563 2.178308
v 0.866037 3.758119 2.197503
v 1.381627 4.130667 2.200239
v 1.010437 3.685783 2.128752
v 1.305664 4.168190 2.066948
v 1.094129 3.640323 2.112703
v 1.513377 3.981669 2.025417
v 0.850619 3.765188 2.041830
v 1.199577 4.247007 1.915565
v 1.214041 3.559826 2.038484
v 0.784729 3.784035 1.846156
v 1.200735 4.229061 1.709898
v 1.220501 3.529577 1.718533
v 1.515376 3.949123 1.651067
v 0.857291 3.727284 1.660538
v 1.308302 4.125443 1.575700
v 1.100733 3.594302 1.624468
v 1.380466 4.061966 1.560952
v 1.019616 3.633061 1.596898
v 1.451791 4.001269 1.587291
v 0.933788 3.680802 1.610191
v 1.244135 4.184893 1.626264
v 1.176352 3.561997 1.688891
v 1.553266 3.922912 1.680782
v 0.805553 3.763442 1.744367
v 1.183905 4.252020 1.811410
v 1.551763 3.950474 2.001207
v 0.801927 3.783961 1.950692
v 1.242029 4.218005 2.006107
v 1.169712 3.596881 2.059631
v 1.449139 4.044044 2.078518
v 0.925217 3.729759 2.103122
v 1.377652 4.108253 2.093209
v -0.403544 5.385147 1.284541
v -0.346344 5.835600 1.222178
v -0.417099 5.509004 1.636264
v -0.354868 5.911824 1.439383
v 0.222674 5.406178 1.218297
v 0.075573 5.846655 1.154646
v 0.210918 5.552657 1.637408
v 0.067897 5.945947 1.439214
v -0.253411 4.664410 1.463473
v -0.267101 4.803877 1.880418
v 0.370804 4.748208 1.385124
v 0.356261 4.912924 1.870072
v 0.477295 3.893642 1.631463
v 0.489076 4.053545 2.112344
v 0.855781 4.298017 1.524224
v 0.867791 4.458497 2.005993
v -0.549281 5.426614 1.427334
v -0.392259 5.670451 1.225391
v -0.392427 5.882387 1.291149
v -0.403874 5.776130 1.526203
v -0.107406 5.562953 1.727867
v -0.148885 5.960360 1.458423
v 0.147405 5.815622 1.527660
v 0.358670 5.488245 1.428175
v 0.110834 5.922463 1.289989
v 0.157677 5.686479 1.158058
v -0.090785 5.376046 1.193909
v -0.141418 5.866742 1.189389
v -0.398894 4.698839 1.641915
v 0.040097 4.894153 1.981088
v 0.506540 4.853501 1.624933
v 0.059382 4.683043 1.351528
v -0.381974 5.029454 1.374738
v 0.289321 5.066591 1.306536
v 0.276483 5.223152 1.757134
v -0.396526 5.163305 1.758758
v 0.477615 3.942467 1.875028
v 0.707670 4.277966 2.097648
v 0.925716 4.424477 1.747959
v 0.694067 4.088914 1.526828
v 0.079323 4.284421 2.029255
v 0.076645 4.167597 1.482827
v 0.530793 4.618177 1.419122
v 0.532384 4.737274 1.966373
v 0.636877 4.759843 1.680446
v 0.318651 4.526553 2.107049
v 0.315546 4.361829 1.343421
v 0.763825 4.196926 1.798034
v 0.439463 5.155168 1.532027
v -0.543239 5.073016 1.534228
v -0.064894 5.229516 1.858801
v -0.000670 4.128065 1.770238
v -0.150024 5.951631 1.275918
v -0.046376 5.025518 1.272894
v -0.119393 5.669934 1.153296
v 0.263660 5.762088 1.341900
v -0.132611 5.824962 1.596382
v -0.505678 5.709532 1.341336
vn -0.9965 0.0841 -0.0000
vn -0.0000 0.1250 -0.9922
vn 0.9965 0.0841 -0.0000
vn -0.0000 0.1250 0.9922
vn -0.0000 -1.0000 -0.0000
vn -0.0000 1.0000 -0.0000
vn 0.3827 -0.0000 0.9239
vn 0.5761 0.5798 0.5761
vn 0.7071 -0.0000 0.7071
vn 0.7071 -0.0000 -0.7071
vn 0.3191 0.5522 -0.7703
vn 0.3827 -0.0000 -0.9239
vn -0.3827 -0.0000 0.9239
vn -0.0000 0.5798 0.8147
vn -0.0000 -0.0000 1.0000
vn -0.7071 -0.0000 0.7071
vn -0.3191 0.5522 0.7703
vn -0.0000 0.5798 -0.8147
vn -0.0000 -0.0000 -1.0000
vn 0.3191 0.5522 0.7703
vn -0.3191 0.5522 -0.7703
vn -0.3827 -0.0000 -0.9239
vn -0.9239 -0.0000 0.3827
vn -0.5761 0.5798 0.5761
vn 0.9239 -0.0000 -0.3827
vn 0.5761 0.5798 -0.5761
vn 0.7703 0.5522 0.3191
vn 0.9239 -0.0000 0.3827
vn -0.7071 -0.0000 -0.7071
vn -0.7703 0.5522 -0.3191
vn -0.9239 -0.0000 -0.3827
vn -0.8147 0.5798 -0.0000
vn -1.0000 -0.0000 -0.0000
vn 0.8147 0.5798 -0.0000
vn 1.0000 -0.0000 -0.0000
vn 0.7703 0.5522 -0.3191
vn -0.7703 0.5522 0.3191
vn -0.5761 0.5798 -0.5761
vn -0.7934 0.5124 0.3286
vn -0.3286 0.5124 -0.7934
vn -0.6127 0.4991 -0.6127
vn 0.3286 0.5124 0.7934
vn 0.6127 0.4991 0.6127
vn 0.3286 0.5124 -0.7934
vn -0.3286 0.5124 0.7934
vn -0.0000 0.4991 0.8666
vn -0.0000 0.4991 -0.8666
vn -0.6127 0.4991 0.6127
vn 0.7934 0.5124 -0.3286
vn 0.6127 0.4991 -0.6127
vn 0.7934 0.5124 0.3286
vn -0.7934 0.5124 -0.3286
vn -0.8666 0.4991 -0.0000
vn 0.8666 0.4991 -0.0000
vn 0.8690 -0.3396 0.3599
vn -0.8690 -0.3396 -0.3599
vn -0.9416 -0.3367 -0.0000
vn 0.9416 -0.3367 -0.0000
vn 0.8690 -0.3396 -0.3599
vn -0.8690 -0.3396 0.3599
vn -0.6658 -0.3367 -0.6658
vn 0.6658 -0.3367 0.6658
vn 0.3599 -0.3396 -0.8690
vn -0.0000 -0.3367 0.9416
vn -0.3599 -0.3396 0.8690
vn -0.0000 -0.3367 -0.9416
vn 0.3599 -0.3396 0.8690
vn -0.3599 -0.3396 -0.8690
vn -0.6658 -0.3367 0.6658
vn 0.6658 -0.3367 -0.6658
vn -0.0000 -0.8496 -0.5274
vn -0.0000 -0.8496 0.5274
vn 0.1974 -0.8567 0.4766
vn -0.1974 -0.8567 -0.4766
vn -0.3730 -0.8496 0.3729
vn 0.3730 -0.8496 -0.3729
vn 0.3730 -0.8496 0.3729
vn 0.4766 -0.8567 0.1974
vn -0.3730 -0.8496 -0.3729
vn -0.4766 -0.8567 -0.1974
vn -0.5274 -0.8496 -0.0000
vn 0.5274 -0.8496 -0.0000
vn 0.4766 -0.8567 -0.1974
vn -0.4766 -0.8567 0.1974
vn 0.1974 -0.8567 -0.4766
vn -0.1974 -0.8567 0.4766
vn -0.7136 -0.7005 -0.0000
vn -0.6868 -0.6688 0.2845
vn -0.5046 -0.7005 -0.5046
vn 0.5046 -0.7005 0.5046
vn 0.5046 -0.7005 -0.5046
vn 0.2845 -0.6688 -0.6868
vn -0.0000 -0.7005 0.7136
vn -0.5046 -0.7005 0.5046
vn -0.2845 -0.6688 0.6868
vn -0.0000 -0.7005 -0.7136
vn 0.2845 -0.6688 0.6868
vn -0.2845 -0.6688 -0.6868
vn 0.6868 -0.6688 0.2845
vn -0.6868 -0.6688 -0.2845
vn 0.7136 -0.7005 -0.0000
vn 0.6868 -0.6688 -0.2845
vn -0.6783 -0.6789 -0.2810
vn -0.7572 -0.6532 -0.0000
vn 0.7572 -0.6532 -0.0000
vn 0.6783 -0.6789 -0.2810
vn -0.6783 -0.6789 0.2810
vn -0.5354 -0.6532 -0.5354
vn 0.5354 -0.6532 0.5354
vn 0.2810 -0.6789 -0.6783
vn -0.0000 -0.6532 0.7572
vn -0.2810 -0.6789 0.6783
vn -0.0000 -0.6532 -0.7572
vn 0.2810 -0.6789 0.6783
vn -0.2810 -0.6789 -0.6783
vn -0.5354 -0.6532 0.5354
vn 0.5354 -0.6532 -0.5354
vn 0.6783 -0.6789 0.2810
vn -0.5608 0.2159 -0.7993
vn 0.7064 0.0023 -0.7078
vn 0.7059 0.0083 -0.7082
vn -0.0078 0.7080 -0.7062
vn -0.3067 -0.3040 -0.9020
vn -0.7074 -0.2506 -0.6609
vn 0.2837 -0.6849 -0.6712
vn -0.5768 -0.5763 -0.5790
vn -0.5858 0.5687 -0.5774
vn -0.5607 0.2159 0.7993
vn 0.7064 0.0023 0.7079
vn -0.3067 -0.3040 0.9019
vn -0.0078 0.7080 0.7062
vn 0.7271 -0.2169 0.6514
vn -0.6394 0.3856 0.6652
vn -0.2837 -0.6849 0.6712
vn -0.5768 -0.5763 0.5790
vn -0.5858 0.5688 0.5774
vn 0.7271 -0.2169 -0.6514
vn 0.5310 -0.5310 0.6604
vn 0.5310 -0.5310 -0.6604
vn -0.2837 -0.6849 -0.6712
vn -0.5310 -0.5310 0.6604
vn -0.5310 -0.5310 -0.6604
vn -0.7475 0.0841 -0.6589
vn -0.6394 0.3855 -0.6652
vn 0.7059 0.0083 0.7082
vn 0.7110 -0.0005 0.7032
vn 0.7110 -0.0005 -0.7032
vn -0.0000 -0.7509 -0.6604
vn 0.5755 0.5795 0.5770
vn 0.5755 0.5795 -0.5770
vn -0.0000 -0.7509 0.6604
vn -0.7475 0.0841 0.6589
vn -0.7074 -0.2506 0.6609
vn 0.2837 -0.6849 0.6712
vn 0.5608 -0.2159 -0.7993
vn -0.7064 -0.0023 -0.7078
vn -0.7059 -0.0083 -0.7082
vn 0.0078 -0.7080 -0.7062
vn 0.3067 0.3040 -0.9020
vn 0.7074 0.2506 -0.6609
vn -0.2837 0.6849 -0.6712
vn 0.5768 0.5763 -0.5790
vn 0.5858 -0.5687 -0.5774
vn 0.5607 -0.2159 0.7993
vn -0.7064 -0.0023 0.7079
vn 0.3067 0.3040 0.9019
vn 0.0078 -0.7080 0.7062
vn -0.7271 0.2169 0.6514
vn 0.6394 -0.3856 0.6652
vn 0.2837 0.6849 0.6712
vn 0.5768 0.5763 0.5790
vn 0.5858 -0.5688 0.5774
vn -0.7271 0.2169 -0.6514
vn -0.5310 0.5310 0.6604
vn -0.5310 0.5310 -0.6604
vn 0.2837 0.6849 -0.6712
vn 0.5310 0.5310 0.6604
vn 0.5310 0.5310 -0.6604
vn 0.7475 -0.0841 -0.6589
vn 0.6394 -0.3855 -0.6652
vn -0.7059 -0.0083 0.7082
vn -0.7110 0.0005 0.7032
vn -0.7110 0.0005 -0.7032
vn -0.0000 0.7509 -0.6604
vn -0.5755 -0.5795 0.5770
vn -0.5755 -0.5795 -0.5770
vn -0.0000 0.7509 0.6604
vn 0.7475 -0.0841 0.6589
vn 0.7074 0.2506 0.6609
vn -0.2837 0.6849 0.6712
vn 0.5618 0.1117 -0.8197
vn -0.6920 0.2866 -0.6625
vn 0.2866 0.6920 -0.6625
vn -0.8535 0.4893 -0.1792
vn -0.5773 -0.5774 -0.5773
vn -0.7071 -0.7071 -0.0000
vn 0.2866 0.6920 0.6625
vn -0.5618 0.1117 0.8197
vn 0.5618 0.1117 0.8197
vn -0.5773 0.5774 0.5774
vn -0.8535 0.4893 0.1792
vn 0.7071 -0.7071 -0.0000
vn -0.6985 -0.1546 -0.6987
vn -0.7433 -0.0000 0.6689
vn -0.7433 -0.0000 -0.6689
vn 0.6920 0.2866 -0.6625
vn 0.7433 -0.0000 0.6689
vn 0.7433 -0.0000 -0.6689
vn 0.8535 0.4893 -0.1792
vn -0.6920 0.2866 0.6625
vn 0.6985 -0.1546 0.6987
vn 0.6985 -0.1546 -0.6987
vn -0.5618 0.1117 -0.8197
vn 0.5256 0.5256 0.6689
vn 0.5256 0.5256 -0.6689
vn -0.5256 0.5256 -0.6689
vn -0.2866 0.6920 0.6625
vn -0.2866 0.6920 -0.6625
vn 0.8535 0.4893 0.1792
vn -0.0000 0.7433 -0.6689
vn -0.0000 0.7433 0.6689
vn -0.5256 0.5256 0.6689
vn 0.6920 0.2866 0.6625
vn -0.6985 -0.1546 0.6987
vn 0.5774 0.5774 0.5773
vn -0.5774 -0.5774 0.5773
vn 0.5773 -0.5774 0.5774
vn 0.5773 0.5774 -0.5773
vn 0.5773 -0.5774 -0.5773
vn -0.5773 0.5774 -0.5773
vn -0.5155 -0.7968 0.3151
vn -0.6198 -0.7821 -0.0648
vn -0.5199 -0.7306 -0.4426
vn -0.4320 -0.5004 -0.7503
vn 0.0295 0.0565 -0.9980
vn -0.1704 -0.2791 -0.9450
vn 0.4944 0.5625 -0.6627
vn 0.6903 0.7211 0.0591
vn 0.6842 0.6510 -0.3288
vn 0.5025 0.4394 0.7445
vn 0.0410 -0.1175 0.9922
vn 0.3390 0.1332 0.9313
vn -0.1597 -0.4390 0.8842
vn 0.6886 0.5847 0.4289
vn 0.3284 0.2932 -0.8979
vn -0.4238 -0.6235 0.6570
vn 0.6659 0.4135 -0.6209
vn 0.0090 -0.8326 -0.5538
vn -0.1540 -0.7027 -0.6946
vn -0.3415 -0.6692 0.6600
vn 0.2604 0.6501 0.7138
vn -0.5722 -0.5079 0.6439
vn -0.0856 0.9924 0.0884
vn -0.9392 -0.1772 -0.2941
vn -0.9862 -0.1657 0.0017
vn 0.2540 0.7657 -0.5909
vn -0.3663 -0.5293 -0.7653
vn -0.5956 -0.3755 -0.7101
vn -0.9294 -0.2332 0.2861
vn -0.1565 -0.8069 0.5696
vn 0.4640 0.4650 0.7539
vn 0.8401 0.2503 -0.4813
vn 0.2878 -0.9346 0.2093
vn 0.8471 0.1623 0.5061
vn -0.0829 -0.9542 0.2876
vn -0.7833 -0.3464 0.5162
vn -0.0367 0.9341 0.3552
vn 0.0735 0.9011 -0.4274
vn -0.8016 -0.2427 -0.5464
vn -0.0381 0.9818 -0.1861
vn 0.0776 0.8124 0.5779
vn 0.3555 -0.8244 -0.4405
vn 0.4566 0.5909 -0.6651
vn -0.6489 -0.3499 0.6756
vn 0.2598 0.6537 0.7107
vn -0.5478 -0.5189 0.6562
vn -0.3497 -0.5582 -0.7524
vn 0.6655 0.4112 -0.6230
vn 0.4649 0.5988 -0.6521
vn 0.1385 -0.9809 0.1369
vn 0.9969 0.0792 0.0007
vn 0.1597 -0.9820 -0.1010
vn -0.3232 -0.6957 0.6415
vn 0.6719 0.2959 0.6790
vn -0.1133 -0.8348 0.5388
vn 0.1288 -0.9346 -0.3316
vn 0.9557 0.1300 -0.2640
vn -0.5677 -0.3768 -0.7319
vn 0.2549 0.7682 -0.5872
vn -0.4165 -0.5331 0.7364
vn 0.1108 0.6963 0.7092
vn -0.6766 -0.1332 -0.7242
vn 0.1058 0.8119 -0.5741
vn 0.0206 -0.8469 -0.5314
vn 0.8398 0.2549 -0.4794
vn 0.8451 0.1669 0.5079
vn 0.0378 -0.9345 0.3539
vn 0.9589 0.0815 0.2720
vn -0.1366 -0.7135 -0.6873
vn -0.3946 -0.3027 -0.8676
vn 0.2788 0.6107 -0.7411
vn 0.4709 0.4760 0.7428
vn 0.2877 0.4611 0.8394
vn 0.6723 0.2999 0.6767
vn 0.9524 -0.0229 -0.3039
vn 0.9540 -0.0822 0.2884
vn -0.6476 0.6774 0.3489
vn -0.6483 0.4575 -0.6086
vn -0.9418 0.2599 0.2132
vn -0.0454 0.5637 -0.8247
vn 0.3957 0.8646 -0.3097
vn 0.5601 0.5684 -0.6027
vn 0.8882 0.4445 0.1163
vn 0.2687 0.4987 0.8241
vn 0.4929 0.0732 0.8670
vn -0.1304 -0.0251 0.9911
vn -0.4313 0.3725 0.8217
vn -0.5160 -0.0112 0.8565
vn -0.0988 -0.2496 0.9633
vn -0.5667 -0.4262 0.7051
vn -0.1302 -0.1910 0.9729
vn -0.0743 0.9109 0.4059
vn -0.1109 0.4981 0.8600
vn -0.5209 -0.3520 -0.7776
vn 0.1366 -0.9353 -0.3263
vn -0.6787 -0.7168 -0.1597
vn 0.5694 0.3957 -0.7206
vn -0.0729 0.2802 -0.9572
vn -0.0512 0.3352 -0.9408
vn -0.6384 0.1244 -0.7596
vn -0.8990 -0.4357 -0.0431
vn -0.9791 -0.1986 0.0444
vn 0.9720 0.2296 0.0498
vn 0.4477 0.1183 0.8864
vn 0.8348 0.5311 0.1449
vn 0.7568 -0.6280 -0.1813
vn 0.7836 -0.1730 0.5967
vn 0.5506 -0.6179 0.5613
vn 0.0402 -0.2182 0.9751
vn 0.1282 -0.9507 0.2824
vn 0.3812 0.6518 -0.6556
vn 0.5313 -0.2364 -0.8135
vn -0.0464 0.2023 -0.9782
vn 0.6727 0.7257 0.1444
vn 0.9936 0.0930 0.0637
vn 0.7882 0.1756 -0.5899
vn 0.5004 0.5372 -0.6790
vn 0.5041 0.2861 0.8149
vn 0.0877 -0.6386 -0.7645
vn -0.6195 -0.0743 -0.7815
vn -0.4744 -0.6045 0.6400
vn 0.9645 0.2571 0.0610
vn 0.5755 0.4093 -0.7080
vn 0.5213 -0.0915 0.8484
vn -0.5329 -0.3174 0.7844
vn -0.5185 -0.1959 0.8324
vn -0.9914 0.0222 0.1287
vn -0.0359 0.3947 -0.9181
vn -0.6389 0.2774 -0.7175
vn 0.4857 0.8335 0.2634
vn -0.5421 0.7799 -0.3128
vn -0.0780 0.9278 -0.3647
vn 0.5221 -0.0807 0.8490
vn -0.1004 -0.2014 0.9743
vn 0.5155 0.7968 0.3151
vn 0.6198 0.7821 -0.0648
vn 0.5199 0.7306 -0.4426
vn 0.4320 0.5004 -0.7503
vn -0.0295 -0.0565 -0.9980
vn 0.1704 0.2791 -0.9450
vn -0.4944 -0.5625 -0.6627
vn -0.6903 -0.7211 0.0590
vn -0.6842 -0.6510 -0.3288
vn -0.5025 -0.4394 0.7445
vn -0.0410 0.1175 0.9922
vn -0.3390 -0.1332 0.9313
vn 0.1597 0.4390 0.8841
vn -0.6886 -0.5847 0.4289
vn -0.3284 -0.2932 -0.8979
vn 0.4238 0.6235 0.6570
vn -0.6659 -0.4135 -0.6209
vn -0.0090 0.8326 -0.5538
vn 0.1540 0.7027 -0.6946
vn 0.3415 0.6692 0.6600
vn -0.2604 -0.6501 0.7138
vn 0.5722 0.5079 0.6439
vn 0.0856 -0.9924 0.0884
vn 0.9392 0.1772 -0.2941
vn 0.9862 0.1657 0.0017
vn -0.2540 -0.7657 -0.5909
vn 0.3663 0.5293 -0.7653
vn 0.5956 0.3755 -0.7101
vn 0.9294 0.2332 0.2861
vn 0.1565 0.8069 0.5696
vn -0.4640 -0.4650 0.7539
vn -0.8401 -0.2503 -0.4813
vn -0.2878 0.9346 0.2093
vn -0.8471 -0.1623 0.5061
vn 0.0829 0.9542 0.2876
vn 0.7833 0.3464 0.5162
vn 0.0367 -0.9341 0.3552
vn -0.0735 -0.9011 -0.4274
vn 0.8016 0.2427 -0.5464
vn 0.0381 -0.9818 -0.1861
vn -0.0776 -0.8124 0.5779
vn -0.3555 0.8244 -0.4405
vn -0.4566 -0.5909 -0.6651
vn 0.6489 0.3499 0.6756
vn -0.2598 -0.6537 0.7107
vn 0.5478 0.5189 0.6562
vn 0.3497 0.5582 -0.7524
vn -0.6655 -0.4112 -0.6230
vn -0.4649 -0.5988 -0.6521
vn -0.1385 0.9809 0.1369
vn -0.9969 -0.0792 0.0007
vn -0.1597 0.9820 -0.1010
vn 0.3232 0.6957 0.6415
vn -0.6719 -0.2959 0.6790
vn 0.1133 0.8348 0.5388
vn -0.1288 0.9346 -0.3316
vn -0.9557 -0.1300 -0.2640
vn 0.5677 0.3768 -0.7319
vn -0.2549 -0.7682 -0.5872
vn 0.4165 0.5331 0.7364
vn -0.1108 -0.6963 0.7092
vn 0.6766 0.1332 -0.7242
vn -0.1058 -0.8119 -0.5741
vn -0.0206 0.8469 -0.5314
vn -0.8398 -0.2549 -0.4794
vn -0.8451 -0.1669 0.5079
vn -0.0378 0.9345 0.3539
vn -0.9589 -0.0815 0.2720
vn 0.1366 0.7135 -0.6873
vn 0.3946 0.3027 -0.8676
vn -0.2788 -0.6107 -0.7411
vn -0.4709 -0.4760 0.7428
vn -0.2877 -0.4611 0.8394
vn -0.6723 -0.2999 0.6767
vn -0.9524 0.0229 -0.3039
vn -0.9540 0.0822 0.2884
vn 0.6476 -0.6774 0.3489
vn 0.6483 -0.4575 -0.6086
vn 0.9418 -0.2599 0.2132
vn 0.0454 -0.5637 -0.8247
vn -0.3957 -0.8646 -0.3097
vn -0.5601 -0.5684 -0.6027
vn -0.8882 -0.4445 0.1163
vn -0.2687 -0.4987 0.8241
vn -0.4929 -0.0732 0.8670
vn 0.1304 0.0251 0.9911
vn 0.4313 -0.3725 0.8217
vn 0.5160 0.0112 0.8565
vn 0.0988 0.2496 0.9633
vn 0.5667 0.4262 0.7051
vn 0.1302 0.1910 0.9729
vn 0.0743 -0.9109 0.4059
vn 0.1109 -0.4981 0.8600
vn 0.5209 0.3520 -0.7776
vn -0.1366 0.9353 -0.3263
vn 0.6787 0.7168 -0.1597
vn -0.5694 -0.3957 -0.7206
vn 0.0729 -0.2802 -0.9572
vn 0.0512 -0.3352 -0.9408
vn 0.6384 -0.1244 -0.7596
vn 0.8990 0.4357 -0.0431
vn 0.9791 0.1986 0.0444
vn -0.9720 -0.2296 0.0498
vn -0.4477 -0.1183 0.8863
vn -0.8348 -0.5311 0.1449
vn -0.7568 0.6280 -0.1813
vn -0.7836 0.1730 0.5967
vn -0.5506 0.6179 0.5613
vn -0.0402 0.2182 0.9751
vn -0.1282 0.9507 0.2824
vn -0.3812 -0.6518 -0.6556
vn -0.5313 0.2364 -0.8135
vn 0.0464 -0.2023 -0.9782
vn -0.6726 -0.7257 0.1444
vn -0.9936 -0.0930 0.0637
vn -0.7882 -0.1756 -0.5899
vn -0.5004 -0.5372 -0.6790
vn -0.5041 -0.2861 0.8149
vn -0.0877 0.6386 -0.7645
vn 0.6195 0.0743 -0.7815
vn 0.4744 0.6045 0.6400
vn -0.9645 -0.2571 0.0610
vn -0.5755 -0.4093 -0.7080
vn -0.5213 0.0915 0.8484
vn 0.5329 0.3174 0.7844
vn 0.5185 0.1959 0.8324
vn 0.9914 -0.0222 0.1287
vn 0.0359 -0.3947 -0.9181
vn 0.6389 -0.2774 -0.7175
vn -0.4857 -0.8335 0.2634
vn 0.5421 -0.7799 -0.3128
vn 0.0780 -0.9278 -0.3647
vn -0.5221 0.0807 0.8490
vn 0.1004 0.2014 0.9743
vt 0.464712 0.026348
vt 0.246936 0.265427
vt 0.246936 0.000000
vt 0.310094 0.504843
vt 0.380645 0.477294
vt 0.477892 0.504843
vt 0.246936 0.027823
vt 0.038628 0.267161
vt 0.038628 0.001285
vt 0.464712 0.213941
vt 0.626930 0.000000
vt 0.645271 0.213941
vt 0.000000 0.265875
vt 0.000000 0.000000
vt 0.246936 0.477294
vt 0.380845 0.265427
vt 0.415381 0.747693
vt 0.433426 0.768080
vt 0.415577 0.768080
vt 0.437802 0.926216
vt 0.458515 0.939953
vt 0.441142 0.938466
vt 0.415381 0.702222
vt 0.433128 0.724957
vt 0.415279 0.724957
vt 0.415577 0.681834
vt 0.433229 0.702222
vt 0.462866 0.946617
vt 0.445493 0.945130
vt 0.433229 0.747693
vt 0.817080 0.849773
vt 0.796758 0.841417
vt 0.814433 0.842218
vt 0.814433 0.762749
vt 0.799405 0.742390
vt 0.817080 0.743190
vt 0.437087 0.905603
vt 0.455175 0.927703
vt 0.445493 0.840308
vt 0.458515 0.861796
vt 0.441142 0.860310
vt 0.812401 0.829164
vt 0.794290 0.807276
vt 0.811966 0.808076
vt 0.794725 0.784216
vt 0.812401 0.785016
vt 0.455175 0.884284
vt 0.437802 0.882797
vt 0.454460 0.907089
vt 0.796758 0.761949
vt 0.794725 0.828364
vt 0.793562 0.634603
vt 0.819274 0.663780
vt 0.794414 0.658024
vt 0.765324 0.597764
vt 0.740778 0.561377
vt 0.774351 0.570723
vt 0.711451 0.702876
vt 0.724731 0.742390
vt 0.691158 0.733043
vt 0.687295 0.619991
vt 0.677249 0.579473
vt 0.702445 0.603430
vt 0.755469 0.708928
vt 0.788260 0.724294
vt 0.759132 0.742390
vt 0.789480 0.680649
vt 0.774330 0.697210
vt 0.721306 0.591711
vt 0.706377 0.561377
vt 0.733192 0.708928
vt 0.743583 0.591711
vt 0.811655 0.698719
vt 0.646235 0.639987
vt 0.653854 0.605047
vt 0.665902 0.707469
vt 0.695097 0.686315
vt 0.799607 0.596298
vt 0.781678 0.614325
vt 0.817959 0.627613
vt 0.683213 0.666037
vt 0.647550 0.676154
vt 0.682361 0.642616
vt 0.649589 0.178231
vt 0.687622 0.067860
vt 0.681079 0.183904
vt 0.612611 0.562079
vt 0.579678 0.682165
vt 0.579678 0.564234
vt 0.543602 0.683135
vt 0.543602 0.565204
vt 0.722953 0.071874
vt 0.716410 0.187918
vt 0.758655 0.071874
vt 0.752112 0.187918
vt 0.508651 0.681617
vt 0.508651 0.563685
vt 0.632871 0.558062
vt 0.612611 0.680011
vt 0.762389 0.908196
vt 0.794290 0.788935
vt 0.794290 0.907897
vt 0.784319 0.185845
vt 0.809860 0.064128
vt 0.803318 0.180172
vt 0.691238 0.908196
vt 0.726813 0.789389
vt 0.726813 0.908351
vt 0.659336 0.907896
vt 0.691238 0.789234
vt 0.820075 0.057182
vt 0.813533 0.173226
vt 0.762389 0.789234
vt 0.644494 0.553497
vt 0.632871 0.675993
vt 0.477892 0.678971
vt 0.477892 0.561039
vt 0.790861 0.069801
vt 0.806161 0.040222
vt 0.726813 0.772620
vt 0.756853 0.772489
vt 0.629671 0.687699
vt 0.619857 0.691553
vt 0.488992 0.694067
vt 0.781492 0.050877
vt 0.667726 0.044448
vt 0.694317 0.049238
vt 0.602749 0.694946
vt 0.574941 0.696765
vt 0.544478 0.697584
vt 0.724150 0.052628
vt 0.754297 0.052628
vt 0.514966 0.696302
vt 0.783791 0.772236
vt 0.797535 0.046087
vt 0.669836 0.772236
vt 0.696773 0.772489
vt 0.654290 0.771798
vt 0.693125 0.763191
vt 0.696493 0.763395
vt 0.798702 0.033447
vt 0.750407 0.024088
vt 0.783706 0.026903
vt 0.652730 0.037904
vt 0.701918 0.031423
vt 0.749481 0.034111
vt 0.756188 0.032108
vt 0.726813 0.763738
vt 0.702992 0.763578
vt 0.714254 0.763683
vt 0.759794 0.029656
vt 0.692531 0.025855
vt 0.695649 0.028687
vt 0.756676 0.026824
vt 0.713035 0.033425
vt 0.757115 0.022113
vt 0.739290 0.022085
vt 0.547245 0.699519
vt 0.725508 0.034842
vt 0.738111 0.034842
vt 0.571607 0.698416
vt 0.559981 0.720181
vt 0.559981 0.699177
vt 0.547245 0.720523
vt 0.726673 0.014174
vt 0.739277 0.014174
vt 0.534907 0.719987
vt 0.534907 0.698983
vt 0.578759 0.696998
vt 0.571607 0.719420
vt 0.739372 0.763683
vt 0.750634 0.742390
vt 0.750634 0.763578
vt 0.757353 0.011440
vt 0.726813 0.742550
vt 0.714254 0.742496
vt 0.760960 0.008988
vt 0.739372 0.742496
vt 0.582862 0.695387
vt 0.578759 0.718002
vt 0.524048 0.719053
vt 0.524048 0.698049
vt 0.750646 0.013443
vt 0.714200 0.012757
vt 0.757841 0.006156
vt 0.696814 0.008019
vt 0.120239 0.693077
vt 0.127117 0.588867
vt 0.127109 0.677244
vt 0.120272 0.553343
vt 0.120247 0.604811
vt 0.117988 0.792127
vt 0.124404 0.822078
vt 0.117216 0.610730
vt 0.117197 0.560897
vt 0.298423 0.651879
vt 0.414852 0.740857
vt 0.298559 0.740996
vt 0.298986 0.792913
vt 0.414439 0.555937
vt 0.268430 0.620101
vt 0.305100 0.512269
vt 0.247255 0.742184
vt 0.246936 0.792553
vt 0.244541 0.604190
vt 0.127215 0.573831
vt 0.244614 0.573798
vt 0.632809 0.836384
vt 0.643017 0.720890
vt 0.643017 0.836750
vt 0.120633 0.830399
vt 0.001808 0.815999
vt 0.119005 0.816960
vt 0.117777 0.761404
vt 0.001270 0.727732
vt 0.118467 0.728693
vt 0.820075 0.000000
vt 0.937478 0.047556
vt 0.820077 0.047446
vt 0.000000 0.559936
vt 0.244897 0.784616
vt 0.127326 0.697601
vt 0.244725 0.697568
vt 0.127197 0.635117
vt 0.244596 0.635084
vt 0.003050 0.603850
vt 0.003042 0.692116
vt 0.122515 0.833347
vt 0.003436 0.829439
vt 0.937478 0.153918
vt 0.820077 0.153808
vt 0.127142 0.604223
vt 0.244780 0.551143
vt 0.127596 0.537431
vt 0.244995 0.537398
vt 0.244995 0.835340
vt 0.127498 0.784649
vt 0.000580 0.760443
vt 0.000791 0.791167
vt 0.127381 0.551176
vt 0.649276 0.421106
vt 0.656154 0.316896
vt 0.656146 0.405273
vt 0.649309 0.281372
vt 0.649284 0.332841
vt 0.647026 0.520157
vt 0.653441 0.550107
vt 0.646253 0.338759
vt 0.646235 0.288926
vt 0.529378 0.412463
vt 0.645807 0.501441
vt 0.529514 0.501580
vt 0.529941 0.553497
vt 0.645394 0.316521
vt 0.499385 0.380685
vt 0.536055 0.272854
vt 0.478211 0.502768
vt 0.477892 0.553137
vt 0.656130 0.500067
vt 0.772284 0.530405
vt 0.655087 0.529444
vt 0.525867 0.884095
vt 0.477892 1.000000
vt 0.477892 0.884137
vt 0.000059 0.891895
vt 0.117447 0.923660
vt 0.000045 0.923660
vt 0.890776 0.423104
vt 0.773408 0.389923
vt 0.890807 0.389923
vt 0.176844 0.951233
vt 0.188747 0.835742
vt 0.188747 0.951602
vt 0.127142 0.951318
vt 0.176844 0.835373
vt 0.773343 0.406234
vt 0.773376 0.469729
vt 0.656179 0.468768
vt 0.890971 0.352365
vt 0.773425 0.265427
vt 0.890824 0.265427
vt 0.773572 0.352365
vt 0.000048 0.859973
vt 0.117461 0.891895
vt 0.214410 0.836568
vt 0.214410 0.952428
vt 0.773327 0.501028
vt 0.000004 0.833347
vt 0.117449 0.859973
vt 0.656179 0.265427
vt 0.773351 0.317857
vt 0.890854 0.453066
vt 0.773376 0.423104
vt 0.117402 0.949745
vt 0.000000 0.949745
vt 0.770639 0.551068
vt 0.130930 0.388481
vt 0.060719 0.397592
vt 0.001531 0.391703
vt 0.164214 0.396981
vt 0.202755 0.276348
vt 0.202755 0.396684
vt 0.483704 0.833809
vt 0.619343 0.733136
vt 0.619343 0.871482
vt 0.202755 0.421803
vt 0.164214 0.537398
vt 0.164214 0.422101
vt 0.857258 0.702030
vt 0.891611 0.678011
vt 0.891611 0.703173
vt 0.123993 0.397104
vt 0.093127 0.422800
vt 0.093127 0.397681
vt 0.973235 0.561377
vt 0.947678 0.531807
vt 0.973174 0.531833
vt 0.819274 0.702091
vt 0.857258 0.676869
vt 0.060719 0.422712
vt 0.947703 0.499809
vt 0.973199 0.499835
vt 0.149514 0.421620
vt 0.149514 0.396501
vt 0.239907 0.893222
vt 0.214426 0.862026
vt 0.239923 0.862025
vt 0.031827 0.396740
vt 0.009994 0.420474
vt 0.009994 0.395355
vt 0.518766 0.264122
vt 0.533215 0.238980
vt 0.533215 0.264142
vt 0.239923 0.924615
vt 0.214410 0.893223
vt 0.239964 0.951770
vt 0.214426 0.924616
vt 0.947740 0.472617
vt 0.973235 0.472643
vt 0.031827 0.421860
vt 0.214468 0.835373
vt 0.239964 0.835373
vt 0.123993 0.422223
vt 0.437087 0.840308
vt 0.475965 0.681834
vt 0.475965 0.840308
vt 0.891611 0.562519
vt 0.936303 0.971093
vt 0.819274 0.823712
vt 0.936303 0.823820
vt 0.819275 0.676929
vt 0.857258 0.561377
vt 0.142926 0.267458
vt 0.181466 0.267161
vt 0.857258 0.822569
vt 0.369079 0.940298
vt 0.246936 0.792913
vt 0.369079 0.793025
vt 0.819274 0.822630
vt 0.521715 0.215615
vt 0.531028 0.221841
vt 0.518766 0.224181
vt 0.531028 0.232204
vt 0.537316 0.238960
vt 0.521715 0.232210
vt 0.484079 0.235661
vt 0.473912 0.235661
vt 0.476470 0.213941
vt 0.223310 0.517570
vt 0.213320 0.517366
vt 0.218108 0.494136
vt 0.208925 0.494136
vt 0.467386 0.215129
vt 0.246152 0.438753
vt 0.246152 0.454138
vt 0.244959 0.446629
vt 0.537316 0.213941
vt 0.483668 0.215129
vt 0.489258 0.238193
vt 0.464712 0.238193
vt 0.224923 0.494462
vt 0.203733 0.517570
vt 0.202755 0.494462
vt 0.808303 0.897795
vt 0.801486 0.851035
vt 0.808449 0.854332
vt 0.906963 0.532112
vt 0.920356 0.479304
vt 0.920373 0.534443
vt 0.675854 0.187918
vt 0.688433 0.238430
vt 0.675430 0.238220
vt 0.708707 0.197864
vt 0.712738 0.248657
vt 0.708601 0.243951
vt 0.662978 0.239917
vt 0.894023 0.529575
vt 0.906730 0.479755
vt 0.801176 0.892502
vt 0.794713 0.849773
vt 0.882654 0.479678
vt 0.883711 0.529487
vt 0.652759 0.243115
vt 0.663398 0.189978
vt 0.700374 0.192121
vt 0.700139 0.240346
vt 0.688785 0.188744
vt 0.931892 0.478672
vt 0.931892 0.536166
vt 0.539279 0.257561
vt 0.546788 0.214721
vt 0.546788 0.258577
vt 0.810869 0.904173
vt 0.810869 0.858267
vt 0.912829 0.235110
vt 0.920094 0.188710
vt 0.920505 0.236641
vt 0.243781 0.494136
vt 0.242078 0.445767
vt 0.243781 0.449800
vt 0.211079 0.487589
vt 0.220095 0.438753
vt 0.220502 0.487202
vt 0.928890 0.238466
vt 0.937233 0.188680
vt 0.937332 0.240435
vt 0.229789 0.487902
vt 0.229376 0.439736
vt 0.657897 0.253810
vt 0.654977 0.209070
vt 0.657596 0.213686
vt 0.907634 0.235004
vt 0.912077 0.189116
vt 0.664044 0.255994
vt 0.663565 0.217760
vt 0.237540 0.489485
vt 0.237171 0.442175
vt 0.944579 0.188958
vt 0.944579 0.242321
vt 0.202964 0.488908
vt 0.210741 0.439595
vt 0.242328 0.491719
vt 0.666880 0.258441
vt 0.666388 0.219731
vt 0.928753 0.188559
vt 0.694511 0.242996
vt 0.813051 0.187918
vt 0.804901 0.199260
vt 0.800305 0.190321
vt 0.900434 0.234133
vt 0.907637 0.188958
vt 0.812962 0.254640
vt 0.821102 0.243502
vt 0.825728 0.252229
vt 0.646619 0.247579
vt 0.660110 0.245016
vt 0.655889 0.248066
vt 0.828388 0.238509
vt 0.836273 0.245309
vt 0.711271 0.253753
vt 0.697487 0.254206
vt 0.701951 0.251423
vt 0.797710 0.204024
vt 0.789744 0.197253
vt 0.703040 0.248435
vt 0.645271 0.252616
vt 0.655055 0.251240
vt 0.800231 0.251492
vt 0.797699 0.237884
vt 0.804898 0.243050
vt 0.825785 0.191058
vt 0.828389 0.205139
vt 0.821108 0.199714
vt 0.700363 0.245459
vt 0.537639 0.213941
vt 0.539729 0.217017
vt 0.649488 0.257346
vt 0.705117 0.258213
vt 0.695738 0.256893
vt 0.782999 0.207871
vt 0.791042 0.220767
vt 0.780490 0.220337
vt 0.782978 0.232945
vt 0.792871 0.229986
vt 0.667461 0.242700
vt 0.686076 0.241606
vt 0.657673 0.262851
vt 0.665465 0.261983
vt 0.836317 0.198585
vt 0.832539 0.207639
vt 0.789699 0.243951
vt 0.792879 0.211652
vt 0.676564 0.241457
vt 0.832565 0.236200
vt 0.840612 0.238589
vt 0.813017 0.197655
vt 0.813018 0.245100
vt 0.994711 0.169126
vt 0.975530 0.156089
vt 0.993669 0.152080
vt 0.388687 0.823441
vt 0.406118 0.831224
vt 0.401820 0.843975
vt 0.421294 0.849823
vt 0.431783 0.827280
vt 0.435164 0.838883
vt 0.950203 0.727300
vt 0.938531 0.749458
vt 0.928149 0.738130
vt 0.929975 0.672898
vt 0.898542 0.652141
vt 0.924620 0.641295
vt 0.959033 0.750800
vt 0.956355 0.743808
vt 0.949745 0.023558
vt 0.965666 0.000460
vt 0.975651 0.013122
vt 0.391223 0.878958
vt 0.369191 0.876679
vt 0.373722 0.854564
vt 0.964025 0.099189
vt 0.981370 0.060545
vt 0.986365 0.093253
vt 0.858522 0.505289
vt 0.882654 0.536166
vt 0.858454 0.531575
vt 0.548950 0.910505
vt 0.529202 0.892374
vt 0.549069 0.884095
vt 0.932323 0.605501
vt 0.926268 0.561377
vt 0.951729 0.568422
vt 0.384539 0.920052
vt 0.382250 0.951850
vt 0.369079 0.913601
vt 0.411579 0.919881
vt 0.435164 0.947452
vt 0.416440 0.955026
vt 0.392425 0.956341
vt 0.412112 0.905159
vt 0.386605 0.898042
vt 0.432768 0.908920
vt 0.937478 0.045993
vt 0.942861 0.006556
vt 0.945166 0.076974
vt 0.957678 0.067388
vt 0.960009 0.617236
vt 0.973235 0.578631
vt 0.952371 0.634020
vt 0.905096 0.599375
vt 0.577413 0.905820
vt 0.572514 0.884234
vt 0.576862 0.929161
vt 0.533531 0.937395
vt 0.554299 0.937395
vt 0.836584 0.536166
vt 0.838205 0.508853
vt 0.858743 0.476355
vt 0.839805 0.479498
vt 0.881112 0.509156
vt 1.000000 0.093675
vt 0.996665 0.061888
vt 0.915668 0.715776
vt 0.891611 0.696158
vt 0.902975 0.686464
vt 0.990594 0.125640
vt 0.951752 0.106952
vt 0.958681 0.137566
vt 0.969863 0.130975
vt 0.396595 0.860206
vt 0.380607 0.837205
vt 0.988012 0.000000
vt 1.000000 0.021871
vt 0.420284 0.831328
vt 0.423072 0.810466
vt 0.414566 0.809451
vt 0.395681 0.798946
vt 0.398805 0.814186
vt 0.958712 0.662735
vt 0.967114 0.692560
vt 0.940609 0.702695
vt 0.973235 0.717559
vt 0.973083 0.733598
vt 0.859154 0.453066
vt 0.879738 0.479854
vt 0.388305 0.801682
vt 0.920495 0.745615
vt 0.905484 0.724705
vt 0.936656 0.754933
vt 0.480867 0.240607
vt 0.477721 0.263761
vt 0.471709 0.241009
vt 0.468192 0.262860
vt 0.464712 0.259826
vt 0.465608 0.239164
vt 0.489258 0.228886
vt 0.492896 0.219216
vt 0.502262 0.231698
vt 0.244410 0.517171
vt 0.234344 0.517651
vt 0.237430 0.494205
vt 0.228289 0.494906
vt 0.508087 0.224688
vt 0.508087 0.245150
vt 0.492896 0.237287
vt 0.502262 0.240174
vt 0.487716 0.262002
vt 0.501677 0.213941
vt 0.244410 0.494136
vt 0.487716 0.238193
vt 0.224922 0.518664
vt 0.777004 0.234588
vt 0.769464 0.189273
vt 0.777169 0.193114
vt 0.915683 0.808473
vt 0.929110 0.755717
vt 0.929130 0.810773
vt 0.876233 0.249380
vt 0.863378 0.196215
vt 0.876298 0.196546
vt 0.844339 0.240141
vt 0.840612 0.187918
vt 0.844075 0.191653
vt 0.888938 0.195384
vt 0.902824 0.805830
vt 0.915442 0.756201
vt 0.769122 0.228829
vt 0.762388 0.187918
vt 0.891611 0.755805
vt 0.892677 0.805533
vt 0.899568 0.193027
vt 0.888864 0.247819
vt 0.852130 0.245280
vt 0.851994 0.194575
vt 0.863394 0.248427
vt 0.940786 0.754933
vt 0.940786 0.812344
vt 0.728985 0.188599
vt 0.721678 0.230142
vt 0.721789 0.188253
vt 0.780490 0.241744
vt 0.780490 0.197919
vt 0.590667 0.931240
vt 0.598030 0.884807
vt 0.598444 0.932663
vt 0.722451 0.199761
vt 0.724793 0.246695
vt 0.722506 0.242169
vt 0.756606 0.206731
vt 0.747752 0.253875
vt 0.747312 0.207582
vt 0.606858 0.934464
vt 0.615146 0.884825
vt 0.615248 0.936499
vt 0.737894 0.207062
vt 0.738348 0.253096
vt 0.510480 0.260269
vt 0.508552 0.213941
vt 0.510665 0.218041
vt 0.585431 0.931175
vt 0.589908 0.885321
vt 0.516223 0.262091
vt 0.516187 0.221809
vt 0.729797 0.205378
vt 0.730213 0.250604
vt 0.622374 0.885248
vt 0.622374 0.938531
vt 0.764375 0.204765
vt 0.756963 0.252576
vt 0.724490 0.202754
vt 0.518766 0.264276
vt 0.518766 0.223573
vt 0.606717 0.884635
vt 0.794405 0.455886
vt 0.792108 0.469652
vt 0.783230 0.463191
vt 0.712738 0.243598
vt 0.716221 0.250809
vt 0.578291 0.930228
vt 0.585422 0.885211
vt 0.768391 0.236213
vt 0.794286 0.517192
vt 0.792043 0.503678
vt 0.799750 0.508591
vt 0.762712 0.232074
vt 0.821103 0.455784
vt 0.824529 0.469827
vt 0.817014 0.464682
vt 0.724124 0.256649
vt 0.808569 0.462790
vt 0.807771 0.453066
vt 0.807656 0.519799
vt 0.808463 0.510251
vt 0.778336 0.249104
vt 0.764592 0.249642
vt 0.769255 0.245445
vt 0.714891 0.236300
vt 0.728831 0.233028
vt 0.723931 0.237461
vt 0.799840 0.464603
vt 0.731062 0.230897
vt 0.728420 0.227324
vt 0.820916 0.516887
vt 0.816685 0.508237
vt 0.832067 0.462915
vt 0.829372 0.471980
vt 0.735460 0.260218
vt 0.748321 0.261294
vt 0.760919 0.259514
vt 0.783130 0.510054
vt 0.786920 0.495918
vt 0.786954 0.477505
vt 0.776054 0.474086
vt 0.831119 0.509652
vt 0.829338 0.500532
vt 0.836584 0.502585
vt 0.771542 0.255342
vt 0.784993 0.486728
vt 0.773376 0.486694
vt 0.775998 0.499263
vt 0.760058 0.230057
vt 0.761926 0.226378
vt 0.770679 0.240812
vt 0.824414 0.502908
vt 0.233905 0.426630
vt 0.217564 0.410246
vt 0.236010 0.408989
vt 0.433504 0.522113
vt 0.445475 0.506185
vt 0.440459 0.518079
vt 0.458172 0.517708
vt 0.472512 0.509260
vt 0.475580 0.522085
vt 0.948008 0.430770
vt 0.935681 0.452717
vt 0.925690 0.441063
vt 0.929773 0.376053
vt 0.899293 0.354784
vt 0.925584 0.344502
vt 0.956193 0.454874
vt 0.953644 0.447567
vt 0.985537 0.907716
vt 0.963941 0.948846
vt 0.962741 0.902210
vt 0.432258 0.571824
vt 0.418412 0.607388
vt 0.422302 0.577513
vt 0.217333 0.353125
vt 0.241898 0.319109
vt 0.240209 0.350430
vt 0.453841 0.571364
vt 0.474621 0.604511
vt 0.451776 0.598260
vt 0.450132 0.654841
vt 0.472490 0.639793
vt 0.475965 0.659899
vt 0.934479 0.308958
vt 0.930273 0.265427
vt 0.955351 0.273026
vt 0.424064 0.614401
vt 0.422006 0.654235
vt 0.415279 0.637915
vt 0.449068 0.605730
vt 0.450474 0.632246
vt 0.426931 0.634926
vt 0.428631 0.599675
vt 0.968859 0.342021
vt 0.961848 0.321797
vt 0.976053 0.329664
vt 0.202755 0.302762
vt 0.215997 0.267161
vt 0.218785 0.281394
vt 0.203829 0.331781
vt 0.217491 0.322292
vt 0.976499 0.283929
vt 0.953606 0.338231
vt 0.907646 0.302314
vt 0.447631 0.681834
vt 0.470042 0.681439
vt 0.424572 0.676608
vt 0.456215 0.541729
vt 0.436140 0.542004
vt 0.475058 0.576628
vt 0.938604 0.835780
vt 0.960603 0.849270
vt 0.942408 0.859460
vt 0.914043 0.418469
vt 0.890971 0.398737
vt 0.902457 0.388997
vt 0.238058 0.382480
vt 0.204301 0.361108
vt 0.205089 0.391653
vt 0.216856 0.384780
vt 0.427153 0.546851
vt 0.942002 0.946598
vt 0.936303 0.902747
vt 0.246152 0.275611
vt 0.976499 0.442824
vt 0.970664 0.437820
vt 0.215939 0.435113
vt 0.231159 0.436997
vt 0.228923 0.438753
vt 0.220207 0.424918
vt 0.215507 0.431863
vt 0.958879 0.366929
vt 0.966161 0.396778
vt 0.939298 0.405972
vt 0.971361 0.421804
vt 0.475965 0.546549
vt 0.459190 0.504843
vt 0.208054 0.416718
vt 0.917932 0.448602
vt 0.903741 0.427439
vt 0.246152 0.411530
vt 0.464712 0.237853
vt 0.246936 0.239684
vt 0.483053 0.000000
vt 0.247137 0.265427
vt 0.433426 0.681834
vt 0.799405 0.848973
vt 0.462866 0.841795
vt 0.656131 0.062187
vt 0.659336 0.788935
vt 0.644494 0.671428
vt 0.646235 0.771310
vt 0.645271 0.031130
vt 0.702992 0.742390
vt 0.582862 0.716391
vt 0.703083 0.010755
vt 0.693696 0.005187
vt 0.697302 0.002735
vt 0.704009 0.000732
vt 0.715379 0.000000
vt 0.727982 0.000000
vt 0.740455 0.001417
vt 0.751572 0.003420
vt 0.127142 0.537398
vt 0.127142 0.740739
vt 0.127092 0.772038
vt 0.126049 0.801415
vt 0.414715 0.651627
vt 0.415279 0.792773
vt 0.336958 0.504843
vt 0.368935 0.511758
vt 0.396783 0.528736
vt 0.415279 0.587427
vt 0.256756 0.588697
vt 0.260328 0.557171
vt 0.277534 0.529691
vt 0.632809 0.720523
vt 0.937477 0.000110
vt 0.000019 0.609769
vt 0.005318 0.832386
vt 0.127596 0.835373
vt 0.651552 0.561377
vt 0.649670 0.558429
vt 0.648042 0.544989
vt 0.646815 0.489433
vt 0.647504 0.456722
vt 0.645670 0.412211
vt 0.646234 0.553358
vt 0.567913 0.265427
vt 0.599890 0.272342
vt 0.627739 0.289320
vt 0.646234 0.348011
vt 0.487712 0.349281
vt 0.491283 0.317756
vt 0.508489 0.290276
vt 0.525867 0.999958
vt 0.127142 0.835457
vt 0.117406 0.833347
vt 0.773377 0.266388
vt 0.773455 0.453066
vt 0.040288 0.388775
vt 0.071154 0.388198
vt 0.103561 0.388286
vt 0.142926 0.387794
vt 0.016290 0.390035
vt 0.000000 0.393573
vt 0.164214 0.276645
vt 0.592666 0.878357
vt 0.560752 0.884095
vt 0.528838 0.878357
vt 0.502161 0.860140
vt 0.477892 0.802309
vt 0.483704 0.770809
vt 0.502161 0.744478
vt 0.528838 0.726261
vt 0.560752 0.720523
vt 0.592666 0.726261
vt 0.632809 0.723072
vt 0.632809 0.881546
vt 0.202755 0.537101
vt 0.947740 0.561351
vt 0.518766 0.238960
vt 0.214468 0.951771
vt 0.437087 0.681834
vt 0.819274 0.970985
vt 0.819275 0.561437
vt 0.891611 0.823712
vt 0.246936 0.940186
vt 0.712738 0.205086
vt 0.893415 0.479860
vt 0.794290 0.890097
vt 0.653093 0.194423
vt 0.202755 0.441917
vt 0.899568 0.187918
vt 0.537316 0.254669
vt 0.698693 0.260120
vt 0.840612 0.205588
vt 0.980845 0.169782
vt 0.525867 0.915562
vt 0.430335 0.891296
vt 0.939218 0.028668
vt 0.407771 0.792913
vt 0.877576 0.456198
vt 0.842361 0.455885
vt 0.966604 0.162157
vt 0.840982 0.233797
vt 0.902204 0.756200
vt 0.899568 0.244145
vt 0.508087 0.258250
vt 0.577413 0.884095
vt 0.731447 0.191936
vt 0.836584 0.469707
vt 0.442943 0.508046
vt 0.933708 0.458311
vt 0.985537 0.949891
vt 0.474601 0.614333
vt 0.208473 0.289698
vt 0.955401 0.823712
vt 0.240845 0.425854
s 1
f 228/1/1 229/2/1 227/3/1
f 229/4/2 234/5/2 233/6/2
f 234/7/3 231/8/3 233/9/3
f 231/10/4 228/11/4 227/12/4
f 233/9/5 227/13/5 229/14/5
f 230/15/6 232/16/6 234/5/6
f 16/17/7 19/18/8 3/19/9
f 7/20/10 26/21/11 10/22/12
f 2/23/13 17/24/14 1/25/15
f 15/26/16 18/27/17 2/23/13
f 10/22/12 25/28/18 9/29/19
f 1/25/15 32/30/20 16/17/7
f 9/31/19 24/32/21 8/33/22
f 4/34/23 31/35/24 15/36/16
f 12/37/25 23/38/26 7/20/10
f 3/39/9 30/40/27 14/41/28
f 11/42/29 22/43/30 6/44/31
f 6/44/31 29/45/32 13/46/33
f 14/41/28 21/47/34 5/48/35
f 5/48/35 28/49/36 12/37/25
f 13/46/33 20/50/37 4/34/23
f 8/33/22 27/51/38 11/42/29
f 29/52/32 36/53/39 20/54/37
f 27/55/38 40/56/40 43/57/41
f 19/58/8 48/59/42 35/60/43
f 23/61/26 42/62/44 26/63/11
f 17/64/14 34/65/45 33/66/46
f 31/67/24 34/65/45 18/68/17
f 25/69/18 42/62/44 41/70/47
f 17/64/14 48/59/42 32/71/20
f 25/69/18 40/56/40 24/72/21
f 31/67/24 36/53/39 47/73/48
f 23/61/26 44/74/49 39/75/50
f 19/58/8 46/76/51 30/77/27
f 27/55/38 38/78/52 22/79/30
f 29/52/32 38/78/52 45/80/53
f 21/81/34 46/76/51 37/82/54
f 21/81/34 44/74/49 28/83/36
f 35/84/43 62/85/55 46/86/51
f 43/87/41 54/88/56 38/89/52
f 38/89/52 61/90/57 45/91/53
f 46/86/51 53/92/58 37/93/54
f 37/93/54 60/94/59 44/95/49
f 45/91/53 52/96/60 36/97/39
f 40/98/40 59/99/61 43/87/41
f 48/100/42 51/101/62 35/102/43
f 39/103/50 58/104/63 42/105/44
f 34/106/45 49/107/64 33/108/46
f 47/109/48 50/110/65 34/106/45
f 42/105/44 57/111/66 41/112/47
f 33/108/46 64/113/67 48/100/42
f 41/114/47 56/115/68 40/98/40
f 36/97/39 63/116/69 47/117/48
f 44/95/49 55/118/70 39/103/50
f 58/104/63 73/119/71 57/111/66
f 64/113/67 65/120/72 80/121/73
f 56/115/68 73/122/71 72/123/74
f 52/96/60 79/124/75 63/116/69
f 60/94/59 71/125/76 55/118/70
f 62/85/55 67/126/77 78/127/78
f 54/88/56 75/128/79 70/129/80
f 54/88/56 77/130/81 61/90/57
f 62/85/55 69/131/82 53/92/58
f 60/94/59 69/131/82 76/132/83
f 52/96/60 77/130/81 68/133/84
f 56/115/68 75/128/79 59/99/61
f 64/113/67 67/134/77 51/101/62
f 58/104/63 71/125/76 74/135/85
f 50/110/65 65/120/72 49/107/64
f 50/110/65 79/136/75 66/137/86
f 68/138/84 93/139/87 84/140/88
f 72/141/74 91/142/89 75/143/79
f 80/144/73 83/145/90 67/126/77
f 74/135/85 87/146/91 90/147/92
f 66/137/86 81/148/93 65/120/72
f 66/137/86 95/149/94 82/150/95
f 74/135/85 89/151/96 73/119/71
f 80/144/73 81/152/93 96/153/97
f 72/141/74 89/151/96 88/154/98
f 68/138/84 95/149/94 79/136/75
f 76/132/83 87/146/91 71/125/76
f 78/127/78 83/145/90 94/155/99
f 70/156/80 91/142/89 86/157/100
f 70/129/80 93/158/87 77/130/81
f 78/127/78 85/159/101 69/131/82
f 76/132/83 85/159/101 92/160/102
f 91/161/89 102/162/103 86/163/100
f 86/163/100 109/164/104 93/158/87
f 94/155/99 101/165/105 85/159/101
f 85/159/101 108/166/106 92/160/102
f 93/158/87 100/167/107 84/168/88
f 88/169/98 107/170/108 91/161/89
f 96/171/97 99/172/109 83/173/90
f 87/146/91 106/174/110 90/147/92
f 82/150/95 97/175/111 81/148/93
f 95/149/94 98/176/112 82/150/95
f 90/147/92 105/177/113 89/151/96
f 81/148/93 112/178/114 96/171/97
f 89/179/96 104/180/115 88/169/98
f 84/168/88 111/181/116 95/182/94
f 92/160/102 103/183/117 87/146/91
f 83/145/90 110/184/118 94/155/99
f 104/185/115 108/166/106 112/186/114
f 120/187/119 125/188/120 119/189/121
f 128/190/122 125/188/120 126/191/123
f 116/192/124 119/189/121 124/193/125
f 128/190/122 129/194/126 130/195/127
f 138/196/128 143/197/129 144/198/130
f 143/197/129 146/199/131 144/198/130
f 140/200/132 136/201/133 132/202/134
f 147/203/135 146/199/131 148/204/136
f 122/205/137 133/206/138 115/207/139
f 126/208/123 147/209/135 129/210/126
f 114/211/140 141/212/141 123/213/142
f 121/214/143 136/215/133 118/216/144
f 130/217/127 146/218/131 128/219/122
f 129/194/126 148/220/136 130/195/127
f 125/221/120 137/222/145 119/223/121
f 119/223/121 135/224/146 117/225/147
f 120/187/119 144/226/130 126/191/123
f 118/216/144 138/227/128 120/187/119
f 113/228/148 132/229/134 114/211/140
f 128/219/122 145/230/149 127/231/150
f 117/225/147 140/232/132 122/205/137
f 124/233/125 131/234/151 113/235/148
f 127/236/150 143/237/129 125/221/120
f 116/192/124 139/238/152 121/214/143
f 123/213/142 134/239/153 116/192/124
f 115/207/139 142/240/154 124/233/125
f 156/241/155 161/242/156 155/243/157
f 164/244/158 161/242/156 162/245/159
f 152/246/160 155/243/157 160/247/161
f 164/244/158 165/248/162 166/249/163
f 174/250/164 179/251/165 180/252/166
f 179/251/165 182/253/167 180/252/166
f 176/254/168 172/255/169 168/256/170
f 183/257/171 182/253/167 184/258/172
f 158/259/173 169/260/174 151/261/175
f 162/262/159 183/263/171 165/264/162
f 150/265/176 177/266/177 159/267/178
f 157/268/179 172/269/169 154/270/180
f 166/271/163 182/272/167 164/273/158
f 165/274/162 184/275/172 166/271/163
f 161/242/156 173/276/181 155/243/157
f 155/243/157 171/277/182 153/278/183
f 156/279/155 180/280/166 162/281/159
f 154/270/180 174/282/164 156/279/155
f 149/283/184 168/284/170 150/265/176
f 164/273/158 181/285/185 163/286/186
f 153/278/183 176/287/168 158/259/173
f 160/288/161 167/289/187 149/283/184
f 163/290/186 179/291/165 161/242/156
f 152/292/160 175/293/188 157/268/179
f 159/267/178 170/294/189 152/295/160
f 151/261/175 178/296/190 160/247/161
f 187/297/191 191/298/192 188/299/193
f 195/300/194 225/301/195 200/302/196
f 205/303/197 207/304/198 204/305/199
f 217/306/196 219/307/200 212/308/201
f 201/309/202 217/310/196 200/311/196
f 193/312/203 209/313/204 192/314/205
f 186/315/206 202/316/207 185/317/208
f 197/318/209 218/319/202 201/309/202
f 192/314/205 208/320/210 191/298/192
f 185/317/208 216/321/211 199/322/212
f 200/302/196 212/308/201 195/300/194
f 195/300/194 207/323/198 190/324/213
f 188/325/193 215/326/214 198/327/215
f 194/328/216 206/329/217 189/330/218
f 187/331/191 214/332/219 197/333/209
f 196/334/220 205/335/197 188/325/193
f 189/336/218 213/337/221 196/334/220
f 199/322/212 204/338/199 187/339/191
f 191/298/192 211/340/222 194/328/216
f 198/327/215 203/341/223 186/342/206
f 190/324/213 210/343/224 193/312/203
f 220/344/225 221/345/226 222/346/227
f 218/319/202 221/347/226 217/310/196
f 212/348/201 220/349/225 214/350/219
f 214/351/219 222/352/227 218/319/202
f 225/301/195 224/353/228 226/354/229
f 200/311/196 226/355/229 201/309/202
f 197/356/209 223/357/230 195/358/194
f 201/309/202 224/359/228 197/318/209
f 248/360/231 247/361/232 246/362/233
f 245/363/234 243/364/235 244/365/236
f 241/366/237 239/367/238 240/368/239
f 237/369/240 235/370/241 236/371/242
f 235/370/241 250/372/243 236/371/242
f 238/373/244 240/368/239 239/367/238
f 244/374/236 243/375/235 242/376/245
f 249/377/246 247/361/232 248/360/231
f 241/366/237 242/378/245 243/379/235
f 237/380/240 238/373/244 239/367/238
f 236/371/242 238/381/244 237/369/240
f 240/368/239 242/378/245 241/366/237
f 246/362/233 245/363/234 244/365/236
f 249/382/246 248/383/231 250/372/243
f 247/361/232 245/363/234 246/362/233
f 235/370/241 249/382/246 250/372/243
f 278/384/247 277/385/248 253/386/249
f 266/387/250 263/388/251 268/389/252
f 273/390/253 275/391/254 258/392/255
f 252/393/256 251/394/257 279/395/258
f 272/396/259 273/390/253 258/392/255
f 264/397/260 265/398/261 266/387/250
f 254/399/262 257/400/263 277/385/248
f 261/401/264 264/397/260 270/402/265
f 262/403/266 259/404/267 272/396/259
f 276/405/268 279/395/258 255/406/269
f 256/407/270 255/406/269 275/391/254
f 268/389/252 269/408/271 262/409/266
f 260/410/272 261/411/264 270/412/265
f 280/413/273 253/386/249 251/414/257
f 307/415/274 308/416/275 283/417/276
f 296/418/277 293/419/278 295/420/279
f 305/421/280 303/422/281 288/423/282
f 281/424/283 282/425/284 309/426/285
f 302/427/286 303/422/281 289/428/287
f 294/429/288 295/430/279 297/431/289
f 287/432/290 284/433/291 307/415/274
f 300/434/292 297/431/289 291/435/293
f 292/436/294 289/428/287 299/437/295
f 309/426/285 306/438/296 285/439/297
f 285/440/297 286/441/298 305/421/280
f 298/442/299 299/437/295 293/419/278
f 290/443/300 291/435/293 301/444/301
f 283/417/276 310/445/302 281/424/283
f 279/395/258 285/446/297 255/406/269
f 265/447/261 293/448/278 263/449/251
f 257/450/263 304/451/303 287/432/290
f 280/452/273 308/453/275 278/454/247
f 268/455/252 292/456/294 298/457/299
f 278/454/247 284/458/291 254/459/262
f 253/460/249 307/461/274 283/462/276
f 263/449/251 299/463/295 269/464/271
f 253/460/249 281/465/283 251/394/257
f 266/466/250 298/457/299 296/467/277
f 252/468/256 306/469/296 282/470/284
f 267/471/304 291/472/293 297/473/289
f 251/394/257 309/474/285 279/395/258
f 260/410/272 301/475/301 271/476/305
f 264/477/260 296/467/277 294/429/288
f 277/478/248 287/479/290 307/461/274
f 259/480/267 303/481/281 273/482/253
f 256/483/270 303/481/281 286/484/298
f 262/403/266 302/485/286 292/456/294
f 255/406/269 305/486/280 275/391/254
f 270/487/265 290/443/300 260/488/272
f 261/489/264 301/490/301 291/472/293
f 276/491/268 286/484/298 306/469/296
f 269/464/271 289/492/287 259/480/267
f 275/391/254 288/493/282 258/392/255
f 272/396/259 288/493/282 302/485/286
f 254/459/262 304/494/303 274/495/306
f 265/447/261 297/473/289 295/496/279
f 280/452/273 282/470/284 310/497/302
f 264/477/260 300/434/292 270/487/265
f 329/498/307 330/499/308 368/500/309
f 367/501/310 318/502/311 333/503/312
f 366/504/313 316/505/314 336/506/315
f 365/507/316 312/508/317 328/509/318
f 364/510/319 319/511/320 342/512/321
f 363/513/322 312/508/317 338/514/323
f 351/515/324 347/516/325 362/517/326
f 345/518/327 340/519/328 361/520/329
f 346/521/330 339/522/331 360/523/332
f 359/524/333 321/525/334 341/526/335
f 358/527/336 325/528/337 350/529/338
f 357/530/339 323/531/340 350/532/338
f 354/533/341 348/534/342 356/535/343
f 355/536/344 325/537/337 349/538/345
f 355/536/344 326/539/346 354/533/341
f 341/540/335 354/533/341 322/541/347
f 341/540/335 353/542/348 355/536/344
f 356/543/343 324/544/349 351/515/324
f 340/545/328 351/515/324 320/546/350
f 322/541/347 356/535/343 340/519/328
f 353/547/348 350/532/338 325/548/337
f 321/549/334 357/530/339 353/547/348
f 342/512/321 352/550/351 357/530/339
f 347/551/325 350/529/338 323/552/340
f 324/553/349 358/527/336 347/551/325
f 326/554/346 358/527/336 348/555/342
f 359/524/333 322/556/347 345/557/327
f 334/558/352 345/557/327 317/559/353
f 334/558/352 344/560/354 359/524/333
f 343/561/355 339/522/331 319/562/320
f 311/563/356 360/564/332 343/565/355
f 327/566/357 346/521/330 360/523/332
f 361/567/329 320/546/350 346/521/330
f 331/568/358 346/521/330 313/569/359
f 317/570/353 361/520/329 331/571/358
f 362/517/326 323/572/340 352/573/351
f 319/562/320 362/517/326 352/573/351
f 320/546/350 362/517/326 339/522/331
f 335/574/360 338/575/323 316/505/314
f 318/502/311 363/576/322 335/574/360
f 314/577/361 363/576/322 332/578/362
f 344/579/354 342/512/321 321/549/334
f 315/580/363 364/510/319 344/579/354
f 337/581/364 343/565/355 364/510/319
f 337/581/364 328/509/318 311/563/356
f 336/582/315 337/581/364 315/580/363
f 316/583/314 365/507/316 336/582/315
f 366/584/313 315/585/363 334/558/352
f 317/559/353 366/584/313 334/558/352
f 333/503/312 335/574/360 366/504/313
f 331/571/358 333/503/312 317/570/353
f 330/499/308 331/568/358 313/569/359
f 314/577/361 367/501/310 330/586/308
f 368/500/309 313/569/359 327/566/357
f 311/563/356 368/587/309 327/588/357
f 328/509/318 329/589/307 368/587/309
f 382/590/365 381/591/366 380/592/367
f 379/593/368 377/594/369 378/595/370
f 375/596/371 373/597/372 374/598/373
f 371/599/374 369/600/375 370/601/376
f 369/600/375 384/602/377 370/601/376
f 372/603/378 374/598/373 373/597/372
f 378/604/370 377/605/369 376/606/379
f 383/607/380 381/591/366 382/590/365
f 375/596/371 376/606/379 377/605/369
f 371/608/374 372/603/378 373/597/372
f 370/601/376 372/609/378 371/599/374
f 374/598/373 376/606/379 375/596/371
f 380/592/367 379/593/368 378/595/370
f 383/607/380 382/590/365 384/610/377
f 381/591/366 379/593/368 380/592/367
f 369/600/375 383/611/380 384/602/377
f 412/612/381 411/613/382 387/614/383
f 400/615/384 397/616/385 402/617/386
f 407/618/387 409/619/388 392/620/389
f 386/621/390 385/622/391 413/623/392
f 406/624/393 407/618/387 392/620/389
f 398/625/394 399/626/395 400/615/384
f 388/627/396 391/628/397 411/613/382
f 395/629/398 398/625/394 404/630/399
f 396/631/400 393/632/401 406/624/393
f 410/633/402 413/623/392 389/634/403
f 390/635/404 389/634/403 409/619/388
f 402/617/386 403/636/405 396/637/400
f 394/638/406 395/639/398 404/640/399
f 414/641/407 387/614/383 385/642/391
f 441/643/408 442/644/409 417/645/410
f 430/646/411 427/647/412 429/648/413
f 439/649/414 437/650/415 422/651/416
f 415/652/417 416/653/418 443/654/419
f 436/655/420 437/650/415 423/656/421
f 428/657/422 429/658/413 431/659/423
f 421/660/424 418/661/425 441/643/408
f 434/662/426 431/659/423 425/663/427
f 426/664/428 423/656/421 433/665/429
f 443/654/419 440/666/430 419/667/431
f 419/668/431 420/669/432 439/649/414
f 432/670/433 433/665/429 427/647/412
f 424/671/434 425/663/427 435/672/435
f 417/645/410 444/673/436 415/652/417
f 413/674/392 419/675/431 389/676/403
f 399/677/395 427/647/412 397/678/385
f 391/679/397 438/680/437 421/660/424
f 414/641/407 442/681/409 412/612/381
f 402/682/386 426/683/428 432/684/433
f 412/612/381 418/685/425 388/627/396
f 387/686/383 441/687/408 417/688/410
f 397/678/385 433/665/429 403/689/405
f 387/686/383 415/690/417 385/691/391
f 400/692/384 432/684/433 430/693/411
f 386/694/390 440/695/430 416/696/418
f 401/697/438 425/698/427 431/699/423
f 385/691/391 443/700/419 413/674/392
f 394/638/406 435/701/435 405/702/439
f 398/703/394 430/693/411 428/704/422
f 411/705/382 421/706/424 441/687/408
f 393/707/401 437/650/415 407/708/387
f 390/709/404 437/650/415 420/669/432
f 396/710/400 436/711/420 426/683/428
f 389/676/403 439/712/414 409/713/388
f 404/714/399 424/715/434 394/716/406
f 395/639/398 435/701/435 425/698/427
f 410/717/402 420/669/432 440/695/430
f 403/689/405 423/656/421 393/707/401
f 409/713/388 422/718/416 392/719/389
f 406/720/393 422/718/416 436/711/420
f 388/627/396 438/721/437 408/722/440
f 399/677/395 431/699/423 429/648/413
f 414/641/407 416/696/418 444/723/436
f 398/703/394 434/724/426 404/714/399
f 463/725/441 464/726/442 502/727/443
f 501/728/444 452/729/445 467/730/446
f 500/731/447 450/732/448 470/733/449
f 499/734/450 446/735/451 462/736/452
f 498/737/453 453/738/454 476/739/455
f 497/740/456 446/735/451 472/741/457
f 485/742/458 481/743/459 496/744/460
f 479/745/461 474/746/462 495/747/463
f 480/748/464 473/749/465 494/750/466
f 493/751/467 455/752/468 475/753/469
f 492/754/470 459/755/471 484/756/472
f 491/757/473 457/758/474 484/759/472
f 488/760/475 482/761/476 490/762/477
f 489/763/478 459/755/471 483/764/479
f 489/763/478 460/765/480 488/760/475
f 475/753/469 488/760/475 456/766/481
f 475/767/469 487/768/482 489/769/478
f 490/770/477 458/771/483 485/772/458
f 474/773/462 485/772/458 454/774/484
f 456/766/481 490/762/477 474/746/462
f 487/768/482 484/759/472 459/775/471
f 455/776/468 491/757/473 487/768/482
f 476/739/455 486/777/485 491/757/473
f 481/778/459 484/756/472 457/779/474
f 458/780/483 492/754/470 481/778/459
f 460/765/480 492/754/470 482/761/476
f 493/751/467 456/766/481 479/745/461
f 468/781/486 479/745/461 451/782/487
f 468/781/486 478/783/488 493/751/467
f 477/784/489 473/785/465 453/786/454
f 445/787/490 494/788/466 477/789/489
f 461/790/491 480/748/464 494/750/466
f 495/791/463 454/774/484 480/748/464
f 465/792/492 480/748/464 447/793/493
f 451/782/487 495/747/463 465/794/492
f 496/744/460 457/795/474 486/796/485
f 453/786/454 496/744/460 486/796/485
f 454/774/484 496/797/460 473/749/465
f 469/798/494 472/741/457 450/799/448
f 452/800/445 497/801/456 469/802/494
f 448/803/495 497/801/456 466/804/496
f 478/805/488 476/739/455 455/776/468
f 449/806/497 498/737/453 478/805/488
f 471/807/498 477/789/489 498/737/453
f 471/807/498 462/736/452 445/787/490
f 470/808/449 471/807/498 449/806/497
f 450/799/448 499/734/450 470/808/449
f 500/731/447 449/809/497 468/781/486
f 451/782/487 500/731/447 468/781/486
f 467/730/446 469/810/494 500/731/447
f 465/794/492 467/730/446 451/782/487
f 464/726/442 465/792/492 447/793/493
f 448/803/495 501/811/444 464/726/442
f 502/727/443 447/793/493 461/790/491
f 445/787/490 502/812/443 461/813/491
f 462/814/452 463/725/441 502/727/443
f 228/1/1 230/815/1 229/2/1
f 229/4/2 230/15/2 234/5/2
f 234/7/3 232/816/3 231/8/3
f 231/10/4 232/817/4 228/11/4
f 233/9/5 231/8/5 227/13/5
f 230/15/6 228/818/6 232/16/6
f 16/17/7 32/30/20 19/18/8
f 7/20/10 23/38/26 26/21/11
f 2/23/13 18/27/17 17/24/14
f 15/26/16 31/819/24 18/27/17
f 10/22/12 26/21/11 25/28/18
f 1/25/15 17/24/14 32/30/20
f 9/31/19 25/820/18 24/32/21
f 4/34/23 20/50/37 31/35/24
f 12/37/25 28/49/36 23/38/26
f 3/39/9 19/821/8 30/40/27
f 11/42/29 27/51/38 22/43/30
f 6/44/31 22/43/30 29/45/32
f 14/41/28 30/40/27 21/47/34
f 5/48/35 21/47/34 28/49/36
f 13/46/33 29/45/32 20/50/37
f 8/33/22 24/32/21 27/51/38
f 29/52/32 45/80/53 36/53/39
f 27/55/38 24/72/21 40/56/40
f 19/58/8 32/71/20 48/59/42
f 23/61/26 39/75/50 42/62/44
f 17/64/14 18/68/17 34/65/45
f 31/67/24 47/73/48 34/65/45
f 25/69/18 26/63/11 42/62/44
f 17/64/14 33/66/46 48/59/42
f 25/69/18 41/70/47 40/56/40
f 31/67/24 20/54/37 36/53/39
f 23/61/26 28/83/36 44/74/49
f 19/58/8 35/60/43 46/76/51
f 27/55/38 43/57/41 38/78/52
f 29/52/32 22/79/30 38/78/52
f 21/81/34 30/77/27 46/76/51
f 21/81/34 37/82/54 44/74/49
f 35/84/43 51/822/62 62/85/55
f 43/87/41 59/99/61 54/88/56
f 38/89/52 54/88/56 61/90/57
f 46/86/51 62/85/55 53/92/58
f 37/93/54 53/92/58 60/94/59
f 45/91/53 61/90/57 52/96/60
f 40/98/40 56/115/68 59/99/61
f 48/100/42 64/113/67 51/101/62
f 39/103/50 55/118/70 58/104/63
f 34/106/45 50/110/65 49/107/64
f 47/109/48 63/823/69 50/110/65
f 42/105/44 58/104/63 57/111/66
f 33/108/46 49/107/64 64/113/67
f 41/114/47 57/824/66 56/115/68
f 36/97/39 52/96/60 63/116/69
f 44/95/49 60/94/59 55/118/70
f 58/104/63 74/135/85 73/119/71
f 64/113/67 49/107/64 65/120/72
f 56/115/68 57/824/66 73/122/71
f 52/96/60 68/133/84 79/124/75
f 60/94/59 76/132/83 71/125/76
f 62/85/55 51/822/62 67/126/77
f 54/88/56 59/99/61 75/128/79
f 54/88/56 70/129/80 77/130/81
f 62/85/55 78/127/78 69/131/82
f 60/94/59 53/92/58 69/131/82
f 52/96/60 61/90/57 77/130/81
f 56/115/68 72/123/74 75/128/79
f 64/113/67 80/121/73 67/134/77
f 58/104/63 55/118/70 71/125/76
f 50/110/65 66/137/86 65/120/72
f 50/110/65 63/823/69 79/136/75
f 68/138/84 77/825/81 93/139/87
f 72/141/74 88/154/98 91/142/89
f 80/144/73 96/153/97 83/145/90
f 74/135/85 71/125/76 87/146/91
f 66/137/86 82/150/95 81/148/93
f 66/137/86 79/136/75 95/149/94
f 74/135/85 90/147/92 89/151/96
f 80/144/73 65/826/72 81/152/93
f 72/141/74 73/119/71 89/151/96
f 68/138/84 84/140/88 95/149/94
f 76/132/83 92/160/102 87/146/91
f 78/127/78 67/126/77 83/145/90
f 70/156/80 75/143/79 91/142/89
f 70/129/80 86/163/100 93/158/87
f 78/127/78 94/155/99 85/159/101
f 76/132/83 69/131/82 85/159/101
f 91/161/89 107/170/108 102/162/103
f 86/163/100 102/162/103 109/164/104
f 94/155/99 110/184/118 101/165/105
f 85/159/101 101/165/105 108/166/106
f 93/158/87 109/164/104 100/167/107
f 88/169/98 104/180/115 107/170/108
f 96/171/97 112/178/114 99/172/109
f 87/146/91 103/183/117 106/174/110
f 82/150/95 98/176/112 97/175/111
f 95/149/94 111/827/116 98/176/112
f 90/147/92 106/174/110 105/177/113
f 81/148/93 97/175/111 112/178/114
f 89/179/96 105/828/113 104/180/115
f 84/168/88 100/167/107 111/181/116
f 92/160/102 108/166/106 103/183/117
f 83/145/90 99/829/109 110/184/118
f 112/186/114 97/830/111 98/831/112
f 98/831/112 111/832/116 100/833/107
f 100/833/107 109/834/104 102/835/103
f 102/835/103 107/836/108 104/185/115
f 104/185/115 105/177/113 106/174/110
f 106/174/110 103/183/117 108/166/106
f 108/166/106 101/165/105 110/184/118
f 110/184/118 99/829/109 112/186/114
f 112/186/114 98/831/112 100/833/107
f 100/833/107 102/835/103 104/185/115
f 104/185/115 106/174/110 108/166/106
f 108/166/106 110/184/118 112/186/114
f 112/186/114 100/833/107 104/185/115
f 120/187/119 126/191/123 125/188/120
f 128/190/122 127/837/150 125/188/120
f 124/193/125 113/228/148 114/211/140
f 114/211/140 123/213/142 116/192/124
f 116/192/124 121/214/143 118/216/144
f 118/216/144 120/187/119 119/189/121
f 119/189/121 117/838/147 122/839/137
f 122/839/137 115/840/139 124/193/125
f 124/193/125 114/211/140 116/192/124
f 116/192/124 118/216/144 119/189/121
f 119/189/121 122/839/137 124/193/125
f 128/190/122 126/191/123 129/194/126
f 138/196/128 137/841/145 143/197/129
f 143/197/129 145/842/149 146/199/131
f 132/202/134 131/843/151 142/844/154
f 142/844/154 133/845/138 140/200/132
f 140/200/132 135/846/146 137/841/145
f 137/841/145 138/196/128 136/201/133
f 136/201/133 139/847/152 134/848/153
f 134/848/153 141/849/141 132/202/134
f 132/202/134 142/844/154 140/200/132
f 140/200/132 137/841/145 136/201/133
f 136/201/133 134/848/153 132/202/134
f 147/203/135 144/198/130 146/199/131
f 122/205/137 140/232/132 133/206/138
f 126/208/123 144/850/130 147/209/135
f 114/211/140 132/229/134 141/212/141
f 121/214/143 139/238/152 136/215/133
f 130/217/127 148/851/136 146/218/131
f 129/194/126 147/852/135 148/220/136
f 125/221/120 143/237/129 137/222/145
f 119/223/121 137/222/145 135/224/146
f 120/187/119 138/227/128 144/226/130
f 118/216/144 136/215/133 138/227/128
f 113/228/148 131/853/151 132/229/134
f 128/219/122 146/218/131 145/230/149
f 117/225/147 135/224/146 140/232/132
f 124/233/125 142/240/154 131/234/151
f 127/236/150 145/854/149 143/237/129
f 116/192/124 134/239/153 139/238/152
f 123/213/142 141/212/141 134/239/153
f 115/207/139 133/206/138 142/240/154
f 156/241/155 162/245/159 161/242/156
f 164/244/158 163/290/186 161/242/156
f 160/247/161 149/855/184 150/856/176
f 150/856/176 159/857/178 152/246/160
f 152/246/160 157/858/179 154/859/180
f 154/859/180 156/241/155 155/243/157
f 155/243/157 153/278/183 158/259/173
f 158/259/173 151/261/175 160/247/161
f 160/247/161 150/856/176 152/246/160
f 152/246/160 154/859/180 155/243/157
f 155/243/157 158/259/173 160/247/161
f 164/244/158 162/245/159 165/248/162
f 174/250/164 173/860/181 179/251/165
f 179/251/165 181/861/185 182/253/167
f 168/256/170 167/862/187 178/863/190
f 178/863/190 169/864/174 176/254/168
f 176/254/168 171/865/182 173/860/181
f 173/860/181 174/250/164 172/255/169
f 172/255/169 175/866/188 170/867/189
f 170/867/189 177/868/177 168/256/170
f 168/256/170 178/863/190 176/254/168
f 176/254/168 173/860/181 172/255/169
f 172/255/169 170/867/189 168/256/170
f 183/257/171 180/252/166 182/253/167
f 158/259/173 176/287/168 169/260/174
f 162/262/159 180/869/166 183/263/171
f 150/265/176 168/284/170 177/266/177
f 157/268/179 175/293/188 172/269/169
f 166/271/163 184/275/172 182/272/167
f 165/274/162 183/870/171 184/275/172
f 161/242/156 179/291/165 173/276/181
f 155/243/157 173/276/181 171/277/182
f 156/279/155 174/282/164 180/280/166
f 154/270/180 172/269/169 174/282/164
f 149/283/184 167/289/187 168/284/170
f 164/273/158 182/272/167 181/285/185
f 153/278/183 171/277/182 176/287/168
f 160/288/161 178/871/190 167/289/187
f 163/290/186 181/872/185 179/291/165
f 152/292/160 170/873/189 175/293/188
f 159/267/178 177/266/177 170/294/189
f 151/261/175 169/260/174 178/296/190
f 186/874/206 185/875/208 199/876/212
f 187/297/191 197/877/209 195/300/194
f 186/874/206 199/876/212 187/297/191
f 188/299/193 198/878/215 186/874/206
f 189/330/218 196/879/220 188/299/193
f 191/298/192 194/328/216 189/330/218
f 193/312/203 192/314/205 191/298/192
f 187/297/191 195/300/194 190/324/213
f 190/324/213 193/312/203 191/298/192
f 191/298/192 189/330/218 188/299/193
f 188/299/193 186/874/206 187/297/191
f 187/297/191 190/324/213 191/298/192
f 195/300/194 223/880/230 225/301/195
f 216/881/211 202/882/207 203/883/223
f 203/883/223 215/884/214 205/303/197
f 205/303/197 213/885/221 206/886/217
f 206/886/217 211/887/222 208/888/210
f 208/888/210 209/889/204 210/890/224
f 207/304/198 212/891/201 214/892/219
f 208/888/210 210/890/224 207/304/198
f 205/303/197 206/886/217 208/888/210
f 216/881/211 203/883/223 205/303/197
f 207/304/198 214/892/219 204/305/199
f 204/305/199 216/881/211 205/303/197
f 205/303/197 208/888/210 207/304/198
f 217/306/196 221/893/226 219/307/200
f 201/309/202 218/319/202 217/310/196
f 193/312/203 210/343/224 209/313/204
f 186/315/206 203/894/223 202/316/207
f 197/318/209 214/351/219 218/319/202
f 192/314/205 209/313/204 208/320/210
f 185/317/208 202/316/207 216/321/211
f 200/302/196 217/306/196 212/308/201
f 195/300/194 212/308/201 207/323/198
f 188/325/193 205/335/197 215/326/214
f 194/328/216 211/340/222 206/329/217
f 187/331/191 204/895/199 214/332/219
f 196/334/220 213/337/221 205/335/197
f 189/336/218 206/896/217 213/337/221
f 199/322/212 216/321/211 204/338/199
f 191/298/192 208/320/210 211/340/222
f 198/327/215 215/326/214 203/341/223
f 190/324/213 207/323/198 210/343/224
f 220/344/225 219/897/200 221/345/226
f 218/319/202 222/352/227 221/347/226
f 212/348/201 219/898/200 220/349/225
f 214/351/219 220/899/225 222/352/227
f 225/301/195 223/880/230 224/353/228
f 200/311/196 225/900/195 226/355/229
f 197/356/209 224/901/228 223/357/230
f 201/309/202 226/355/229 224/359/228
f 278/384/247 254/399/262 277/385/248
f 266/387/250 265/398/261 263/388/251
f 273/390/253 256/407/270 275/391/254
f 252/393/256 280/902/273 251/394/257
f 272/396/259 259/404/267 273/390/253
f 264/397/260 267/903/304 265/398/261
f 254/399/262 274/904/306 257/400/263
f 261/401/264 267/903/304 264/397/260
f 262/403/266 269/905/271 259/404/267
f 276/405/268 252/393/256 279/395/258
f 256/407/270 276/405/268 255/406/269
f 268/389/252 263/388/251 269/408/271
f 260/410/272 271/476/305 261/411/264
f 280/413/273 278/384/247 253/386/249
f 307/415/274 284/433/291 308/416/275
f 296/418/277 298/442/299 293/419/278
f 305/421/280 286/441/298 303/422/281
f 281/424/283 310/445/302 282/425/284
f 302/427/286 288/423/282 303/422/281
f 294/429/288 296/467/277 295/430/279
f 287/432/290 304/451/303 284/433/291
f 300/434/292 294/429/288 297/431/289
f 292/436/294 302/427/286 289/428/287
f 309/426/285 282/425/284 306/438/296
f 285/440/297 306/906/296 286/441/298
f 298/442/299 292/436/294 299/437/295
f 290/443/300 300/434/292 291/435/293
f 283/417/276 308/416/275 310/445/302
f 279/395/258 309/474/285 285/446/297
f 265/447/261 295/496/279 293/448/278
f 257/450/263 274/907/306 304/451/303
f 280/452/273 310/497/302 308/453/275
f 268/455/252 262/403/266 292/456/294
f 278/454/247 308/453/275 284/458/291
f 253/460/249 277/478/248 307/461/274
f 263/449/251 293/448/278 299/463/295
f 253/460/249 283/462/276 281/465/283
f 266/466/250 268/455/252 298/457/299
f 252/468/256 276/491/268 306/469/296
f 267/471/304 261/489/264 291/472/293
f 251/394/257 281/465/283 309/474/285
f 260/410/272 290/908/300 301/475/301
f 264/477/260 266/466/250 296/467/277
f 277/478/248 257/909/263 287/479/290
f 259/480/267 289/492/287 303/481/281
f 256/483/270 273/482/253 303/481/281
f 262/403/266 272/396/259 302/485/286
f 255/406/269 285/446/297 305/486/280
f 270/487/265 300/434/292 290/443/300
f 261/489/264 271/910/305 301/490/301
f 276/491/268 256/483/270 286/484/298
f 269/464/271 299/463/295 289/492/287
f 275/391/254 305/486/280 288/493/282
f 272/396/259 258/392/255 288/493/282
f 254/459/262 284/458/291 304/494/303
f 265/447/261 267/471/304 297/473/289
f 280/452/273 252/468/256 282/470/284
f 264/477/260 294/429/288 300/434/292
f 329/498/307 314/911/361 330/499/308
f 367/501/310 332/578/362 318/502/311
f 366/504/313 335/574/360 316/505/314
f 365/507/316 338/514/323 312/508/317
f 364/510/319 343/565/355 319/511/320
f 363/513/322 329/589/307 312/508/317
f 351/515/324 324/544/349 347/516/325
f 345/518/327 322/541/347 340/519/328
f 346/521/330 320/546/350 339/522/331
f 359/524/333 344/560/354 321/525/334
f 358/527/336 349/912/345 325/528/337
f 357/530/339 352/550/351 323/531/340
f 354/533/341 326/539/346 348/534/342
f 355/536/344 353/542/348 325/537/337
f 355/536/344 349/538/345 326/539/346
f 341/540/335 355/536/344 354/533/341
f 341/540/335 321/913/334 353/542/348
f 356/543/343 348/914/342 324/544/349
f 340/545/328 356/543/343 351/515/324
f 322/541/347 354/533/341 356/535/343
f 353/547/348 357/530/339 350/532/338
f 321/549/334 342/512/321 357/530/339
f 342/512/321 319/511/320 352/550/351
f 347/551/325 358/527/336 350/529/338
f 324/553/349 348/555/342 358/527/336
f 326/554/346 349/912/345 358/527/336
f 359/524/333 341/526/335 322/556/347
f 334/558/352 359/524/333 345/557/327
f 334/558/352 315/585/363 344/560/354
f 343/561/355 360/523/332 339/522/331
f 311/563/356 327/588/357 360/564/332
f 327/566/357 313/569/359 346/521/330
f 361/567/329 340/545/328 320/546/350
f 331/568/358 361/567/329 346/521/330
f 317/570/353 345/518/327 361/520/329
f 362/517/326 347/516/325 323/572/340
f 319/562/320 339/522/331 362/517/326
f 320/546/350 351/515/324 362/517/326
f 335/574/360 363/576/322 338/575/323
f 318/502/311 332/578/362 363/576/322
f 314/577/361 329/915/307 363/576/322
f 344/579/354 364/510/319 342/512/321
f 315/580/363 337/581/364 364/510/319
f 337/581/364 311/563/356 343/565/355
f 337/581/364 365/507/316 328/509/318
f 336/582/315 365/507/316 337/581/364
f 316/583/314 338/514/323 365/507/316
f 366/584/313 336/916/315 315/585/363
f 317/559/353 333/917/312 366/584/313
f 333/503/312 318/502/311 335/574/360
f 331/571/358 367/501/310 333/503/312
f 330/499/308 367/918/310 331/568/358
f 314/577/361 332/578/362 367/501/310
f 368/500/309 330/499/308 313/569/359
f 311/563/356 328/509/318 368/587/309
f 328/509/318 312/508/317 329/589/307
f 412/612/381 388/627/396 411/613/382
f 400/615/384 399/626/395 397/616/385
f 407/618/387 390/635/404 409/619/388
f 386/621/390 414/919/407 385/622/391
f 406/624/393 393/632/401 407/618/387
f 398/625/394 401/920/438 399/626/395
f 388/627/396 408/722/440 391/628/397
f 395/629/398 401/920/438 398/625/394
f 396/631/400 403/921/405 393/632/401
f 410/633/402 386/621/390 413/623/392
f 390/635/404 410/633/402 389/634/403
f 402/617/386 397/616/385 403/636/405
f 394/638/406 405/702/439 395/639/398
f 414/641/407 412/612/381 387/614/383
f 441/643/408 418/661/425 442/644/409
f 430/646/411 432/670/433 427/647/412
f 439/649/414 420/669/432 437/650/415
f 415/652/417 444/673/436 416/653/418
f 436/655/420 422/651/416 437/650/415
f 428/657/422 430/922/411 429/658/413
f 421/660/424 438/680/437 418/661/425
f 434/662/426 428/657/422 431/659/423
f 426/664/428 436/655/420 423/656/421
f 443/654/419 416/653/418 440/666/430
f 419/668/431 440/695/430 420/669/432
f 432/670/433 426/664/428 433/665/429
f 424/671/434 434/662/426 425/663/427
f 417/645/410 442/644/409 444/673/436
f 413/674/392 443/700/419 419/675/431
f 399/677/395 429/648/413 427/647/412
f 391/679/397 408/923/440 438/680/437
f 414/641/407 444/723/436 442/681/409
f 402/682/386 396/710/400 426/683/428
f 412/612/381 442/681/409 418/685/425
f 387/686/383 411/705/382 441/687/408
f 397/678/385 427/647/412 433/665/429
f 387/686/383 417/688/410 415/690/417
f 400/692/384 402/682/386 432/684/433
f 386/694/390 410/717/402 440/695/430
f 401/697/438 395/639/398 425/698/427
f 385/691/391 415/690/417 443/700/419
f 394/638/406 424/924/434 435/701/435
f 398/703/394 400/692/384 430/693/411
f 411/705/382 391/925/397 421/706/424
f 393/707/401 423/656/421 437/650/415
f 390/709/404 407/708/387 437/650/415
f 396/710/400 406/720/393 436/711/420
f 389/676/403 419/675/431 439/712/414
f 404/714/399 434/724/426 424/715/434
f 395/639/398 405/702/439 435/701/435
f 410/717/402 390/709/404 420/669/432
f 403/689/405 433/665/429 423/656/421
f 409/713/388 439/712/414 422/718/416
f 406/720/393 392/719/389 422/718/416
f 388/627/396 418/685/425 438/721/437
f 399/677/395 401/697/438 431/699/423
f 414/641/407 386/694/390 416/696/418
f 398/703/394 428/704/422 434/724/426
f 463/725/441 448/803/495 464/726/442
f 501/728/444 466/926/496 452/729/445
f 500/731/447 469/810/494 450/732/448
f 499/734/450 472/741/457 446/735/451
f 498/737/453 477/789/489 453/738/454
f 497/740/456 463/927/441 446/735/451
f 485/742/458 458/928/483 481/743/459
f 479/745/461 456/766/481 474/746/462
f 480/748/464 454/774/484 473/749/465
f 493/751/467 478/783/488 455/752/468
f 492/754/470 483/764/479 459/755/471
f 491/757/473 486/777/485 457/758/474
f 488/760/475 460/765/480 482/761/476
f 489/763/478 487/929/482 459/755/471
f 489/763/478 483/764/479 460/765/480
f 475/753/469 489/763/478 488/760/475
f 475/767/469 455/776/468 487/768/482
f 490/770/477 482/930/476 458/771/483
f 474/773/462 490/770/477 485/772/458
f 456/766/481 488/760/475 490/762/477
f 487/768/482 491/757/473 484/759/472
f 455/776/468 476/739/455 491/757/473
f 476/739/455 453/738/454 486/777/485
f 481/778/459 492/754/470 484/756/472
f 458/780/483 482/761/476 492/754/470
f 460/765/480 483/764/479 492/754/470
f 493/751/467 475/753/469 456/766/481
f 468/781/486 493/751/467 479/745/461
f 468/781/486 449/809/497 478/783/488
f 477/784/489 494/931/466 473/785/465
f 445/787/490 461/813/491 494/788/466
f 461/790/491 447/793/493 480/748/464
f 495/791/463 474/773/462 454/774/484
f 465/792/492 495/791/463 480/748/464
f 451/782/487 479/745/461 495/747/463
f 496/744/460 481/743/459 457/795/474
f 453/786/454 473/785/465 496/744/460
f 454/774/484 485/772/458 496/797/460
f 469/798/494 497/740/456 472/741/457
f 452/800/445 466/804/496 497/801/456
f 448/803/495 463/725/441 497/801/456
f 478/805/488 498/737/453 476/739/455
f 449/806/497 471/807/498 498/737/453
f 471/807/498 445/787/490 477/789/489
f 471/807/498 499/734/450 462/736/452
f 470/808/449 499/734/450 471/807/498
f 450/799/448 472/741/457 499/734/450
f 500/731/447 470/733/449 449/809/497
f 451/782/487 467/730/446 500/731/447
f 467/730/446 452/729/445 469/810/494
f 465/794/492 501/728/444 467/730/446
f 464/726/442 501/811/444 465/792/492
f 448/803/495 466/804/496 501/811/444
f 502/727/443 464/726/442 447/793/493
f 445/787/490 462/736/452 502/812/443
f 462/814/452 446/932/451 463/725/441
