# Blender v2.90.1 OBJ File: ''
# www.blender.org
mtllib minifig.mtl
o Circle.003
v -0.000000 6.314418 -0.785586
v 0.255178 6.314418 -0.717157
v -0.484003 6.314418 -0.585105
v 0.616054 6.314418 -0.356281
v -0.684484 6.314418 -0.101102
v 0.616054 6.314418 0.154075
v -0.484003 6.314418 0.382901
v 0.255178 6.314418 0.514951
v 0.000000 6.314418 0.583381
v -0.255178 6.314418 0.514951
v 0.484003 6.314418 0.382900
v -0.616054 6.314418 0.154075
v 0.684484 6.314418 -0.101103
v -0.616054 6.314418 -0.356280
v 0.484003 6.314418 -0.585106
v -0.255178 6.314418 -0.717156
v -0.000000 6.512147 -0.785586
v 0.255178 6.512147 -0.717157
v -0.484003 6.512147 -0.585105
v 0.616054 6.512147 -0.356281
v -0.684484 6.512147 -0.101102
v 0.616054 6.512147 0.154075
v -0.484003 6.512147 0.382901
v 0.255178 6.512147 0.514951
v 0.000000 6.512147 0.583381
v -0.255178 6.512147 0.514951
v 0.484003 6.512147 0.382900
v -0.616054 6.512147 0.154075
v 0.684484 6.512147 -0.101103
v -0.616054 6.512147 -0.356280
v 0.484003 6.512147 -0.585106
v -0.255178 6.512147 -0.717156
v -0.000000 6.687670 -1.158124
v 0.394061 6.687670 -1.052451
v -0.747427 6.687670 -0.848529
v 0.951347 6.687670 -0.495164
v -1.057021 6.687670 -0.101102
v 0.951348 6.687670 0.292958
v -0.747427 6.687670 0.646325
v 0.394062 6.687670 0.850245
v 0.000000 6.687670 0.955919
v -0.394061 6.687670 0.850245
v 0.747427 6.687670 0.646324
v -0.951348 6.687670 0.292959
v 1.057021 6.687670 -0.101103
v -0.951348 6.687670 -0.495163
v 0.747426 6.687670 -0.848530
v -0.394061 6.687670 -1.052450
v -0.000000 8.023057 -1.158124
v 0.394061 8.023057 -1.052451
v -0.747427 8.023057 -0.848529
v 0.951347 8.023057 -0.495164
v -1.057021 8.023057 -0.101102
v 0.951348 8.023057 0.292958
v -0.747427 8.023057 0.646325
v 0.394062 8.023057 0.850245
v 0.000000 8.023057 0.955919
v -0.394061 8.023057 0.850245
v 0.747427 8.023057 0.646324
v -0.951348 8.023057 0.292959
v 1.057021 8.023057 -0.101103
v -0.951348 8.023057 -0.495163
v 0.747426 8.023057 -0.848530
v -0.394061 8.023057 -1.052450
v -0.000000 8.208591 -0.993653
v 0.332746 8.208591 -0.904423
v -0.631129 8.208591 -0.732231
v 0.803320 8.208591 -0.433849
v -0.892551 8.208591 -0.101102
v 0.803320 8.208591 0.231643
v -0.631129 8.208591 0.530026
v 0.332746 8.208591 0.702217
v 0.000000 8.208591 0.791448
v -0.332746 8.208591 0.702218
v 0.631129 8.208591 0.530026
v -0.803320 8.208591 0.231644
v 0.892551 8.208591 -0.101103
v -0.803320 8.208591 -0.433848
v 0.631128 8.208591 -0.732232
v -0.332746 8.208591 -0.904422
v -0.000000 8.299738 -0.474255
v 0.139112 8.299738 -0.436950
v -0.263858 8.299738 -0.364961
v 0.335847 8.299738 -0.240215
v -0.373152 8.299738 -0.101103
v 0.335847 8.299738 0.038010
v -0.263858 8.299738 0.162756
v 0.139113 8.299738 0.234744
v 0.000000 8.299738 0.272049
v -0.139112 8.299738 0.234744
v 0.263858 8.299738 0.162756
v -0.335847 8.299738 0.038010
v 0.373152 8.299738 -0.101103
v -0.335847 8.299738 -0.240215
v 0.263858 8.299738 -0.364961
v -0.139112 8.299738 -0.436950
v -0.000000 8.537577 -0.474255
v 0.139112 8.537577 -0.436950
v -0.263858 8.537577 -0.364961
v 0.335847 8.537577 -0.240215
v -0.373152 8.537577 -0.101103
v 0.335847 8.537577 0.038010
v -0.263858 8.537577 0.162756
v 0.139113 8.537577 0.234744
v 0.000000 8.537577 0.272049
v -0.139112 8.537577 0.234744
v 0.263858 8.537577 0.162756
v -0.335847 8.537577 0.038010
v 0.373152 8.537577 -0.101103
v -0.335847 8.537577 -0.240215
v 0.263858 8.537577 -0.364961
v -0.139112 8.537577 -0.436950
v -0.000000 3.474552 1.319385
v 0.353553 3.394058 1.319385
v -0.660471 3.200976 1.319385
v 0.853553 2.894059 1.319385
v -0.859989 2.540505 1.319385
v 0.769549 2.186952 1.319385
v -0.847891 1.819912 1.319385
v 0.440229 1.827543 1.319385
v 0.895984 2.540506 1.319385
v -0.853553 2.894058 1.319385
v 0.660470 3.200977 1.319385
v -0.353553 3.394058 1.319385
v -0.841278 0.818298 1.319385
v 0.446841 0.827192 1.319385
v -0.841278 0.235495 1.319385
v 0.446841 0.244390 1.319385
v 1.015206 0.818471 1.319385
v 1.023330 0.253111 1.319385
v -0.000000 3.474552 0.018952
v 0.353553 3.394058 0.018952
v -0.660471 3.200976 0.018952
v 0.853553 2.894059 0.018952
v -0.859989 2.540505 0.018952
v 0.769549 2.186952 0.018952
v -0.847891 1.819912 0.018952
v 0.440229 1.827543 0.018952
v 0.895984 2.540506 0.018952
v -0.853553 2.894058 0.018952
v 0.660470 3.200977 0.018952
v -0.353553 3.394058 0.018952
v -0.841278 0.818298 0.018952
v 0.446841 0.827192 0.018952
v -0.841278 0.235495 0.018952
v 0.446841 0.244390 0.018952
v 1.015206 0.818471 0.018952
v 1.023330 0.253111 0.018952
v -0.000000 3.474552 -1.604520
v 0.353553 3.394058 -1.604520
v -0.660471 3.200976 -1.604520
v 0.853553 2.894059 -1.604520
v -0.859989 2.540505 -1.604520
v 0.769549 2.186952 -1.604520
v -0.847891 1.819912 -1.604520
v 0.440229 1.827543 -1.604520
v 0.895984 2.540506 -1.604520
v -0.853553 2.894058 -1.604520
v 0.660470 3.200976 -1.604520
v -0.353553 3.394058 -1.604520
v -0.841278 0.818298 -1.604520
v 0.446841 0.827192 -1.604520
v -0.841278 0.235495 -1.604520
v 0.446841 0.244390 -1.604520
v 1.015206 0.818471 -1.604520
v 1.023330 0.253111 -1.604520
v -0.000000 3.474552 -0.304087
v 0.353553 3.394058 -0.304087
v -0.660471 3.200976 -0.304087
v 0.853553 2.894059 -0.304087
v -0.859989 2.540505 -0.304087
v 0.769549 2.186952 -0.304087
v -0.847891 1.819912 -0.304087
v 0.440229 1.827543 -0.304087
v 0.895984 2.540506 -0.304087
v -0.853553 2.894058 -0.304087
v 0.660470 3.200977 -0.304087
v -0.353553 3.394058 -0.304087
v -0.841278 0.818298 -0.304087
v 0.446841 0.827192 -0.304087
v -0.841278 0.235495 -0.304087
v 0.446841 0.244390 -0.304087
v 1.015206 0.818471 -0.304087
v 1.023330 0.253111 -0.304087
v -0.917948 2.667565 0.000000
v -0.853554 2.314012 0.000000
v -0.776390 3.316653 0.000000
v -0.353554 1.814012 0.000000
v 0.353553 1.814012 -0.000000
v 0.776390 3.316653 -0.000000
v 0.853553 2.314011 -0.000000
v 0.917948 2.667565 -0.000000
v 0.853553 3.021118 -0.000000
v 0.649087 2.018477 -0.000000
v 0.889340 3.465824 -0.000000
v -0.000001 1.749617 0.000000
v -0.889340 3.465824 0.000000
v -0.649088 2.018478 0.000000
v -0.853553 3.021119 0.000000
v 0.889340 3.896525 -0.000000
v -0.889340 3.896525 0.000000
v -0.917948 2.667565 -0.282419
v -0.853554 2.314012 -0.282419
v -0.776390 3.316653 -0.282419
v -0.353554 1.814012 -0.282419
v 0.353553 1.814012 -0.282419
v 0.776390 3.316653 -0.282419
v 0.853553 2.314011 -0.282419
v 0.917948 2.667565 -0.282419
v 0.853553 3.021118 -0.282419
v 0.649087 2.018477 -0.282419
v 0.889340 3.465824 -0.282419
v -0.000001 1.749617 -0.282419
v -0.889340 3.465824 -0.282419
v -0.649088 2.018478 -0.282419
v -0.853553 3.021119 -0.282419
v 0.889340 3.896525 -0.282419
v -0.889340 3.896525 -0.282419
v 0.889340 3.465824 -1.578718
v -0.889340 3.465824 -1.578718
v 0.889340 3.896525 -1.578718
v -0.889340 3.896525 -1.578718
v 0.889340 3.465824 1.352949
v -0.889340 3.465824 1.352949
v 0.889340 3.896525 1.352949
v -0.889340 3.896525 1.352949
v -1.000000 3.923677 1.383348
v -0.796845 6.330235 1.080218
v -1.000000 3.923677 -1.600875
v -0.796845 6.330235 -1.297745
v 1.000000 3.923677 1.383348
v 0.796845 6.330235 1.080218
v 1.000000 3.923677 -1.600875
v 0.796845 6.330235 -1.297745
v 0.875290 4.016863 -2.190383
v 0.643809 4.147357 -2.146912
v 0.804362 3.931266 -2.152319
v 0.597006 4.086904 -2.079643
v 0.775504 3.887977 -2.046964
v 0.597595 4.078032 -1.978197
v 0.805619 3.912352 -1.936034
v 0.645232 4.125939 -1.902001
v 0.877067 3.990115 -1.884511
v 0.712012 4.202561 -1.895688
v 0.947995 4.075712 -1.922575
v 0.758816 4.263014 -1.962957
v 0.976853 4.119002 -2.027930
v 0.758226 4.271885 -2.064404
v 0.946738 4.094626 -2.138860
v 0.710589 4.223979 -2.140600
v 0.995868 3.689207 -2.443397
v 1.269190 4.225775 -2.365963
v 1.126248 3.613497 -2.421079
v 1.588970 3.943197 -2.311054
v 0.758420 3.809824 -2.314975
v 1.117773 4.341025 -2.150973
v 1.280796 3.515599 -2.274514
v 0.667072 3.835935 -2.045622
v 1.119450 4.316388 -1.869703
v 1.288332 3.479836 -1.906122
v 1.592142 3.897299 -1.786902
v 0.767549 3.757772 -1.789833
v 1.273468 4.165506 -1.679753
v 1.137570 3.545895 -1.736319
v 1.386373 4.064851 -1.657913
v 1.009097 3.614867 -1.695597
v 1.499113 3.970404 -1.698245
v 0.878083 3.689946 -1.716654
v 1.179667 4.253795 -1.753286
v 1.226101 3.475132 -1.823662
v 1.629017 3.869226 -1.867188
v 0.695418 3.807819 -1.906392
v 1.096512 4.347892 -2.008538
v 1.627040 3.901385 -2.237396
v 0.690532 3.835776 -2.188533
v 1.176495 4.299722 -2.277144
v 1.234629 3.545996 -2.347866
v 1.494980 4.030563 -2.384452
v 0.866036 3.758119 -2.403647
v 1.381627 4.130667 -2.406383
v 1.010437 3.685783 -2.334897
v 1.305664 4.168190 -2.273092
v 1.094129 3.640323 -2.318847
v 1.513377 3.981669 -2.231562
v 0.850618 3.765189 -2.247974
v 1.199577 4.247008 -2.121709
v 1.214041 3.559826 -2.244628
v 0.784729 3.784035 -2.052301
v 1.200735 4.229062 -1.916042
v 1.220501 3.529576 -1.924677
v 1.515376 3.949123 -1.857211
v 0.857291 3.727284 -1.866682
v 1.308301 4.125444 -1.781844
v 1.100733 3.594302 -1.830612
v 1.380466 4.061967 -1.767096
v 1.019616 3.633062 -1.803043
v 1.451791 4.001270 -1.793435
v 0.933788 3.680802 -1.816335
v 1.244135 4.184893 -1.832409
v 1.176352 3.561997 -1.895035
v 1.553266 3.922913 -1.886927
v 0.805553 3.763442 -1.950511
v 1.183905 4.252020 -2.017554
v 1.551763 3.950474 -2.207351
v 0.801927 3.783961 -2.156837
v 1.242029 4.218005 -2.212251
v 1.169712 3.596882 -2.265775
v 1.449139 4.044044 -2.284662
v 0.925216 3.729758 -2.309267
v 1.377651 4.108253 -2.299352
v -0.403544 5.385147 -1.490685
v -0.346344 5.835600 -1.428322
v -0.417099 5.509004 -1.842408
v -0.354869 5.911825 -1.645527
v 0.222673 5.406179 -1.424441
v 0.075572 5.846655 -1.360791
v 0.210918 5.552658 -1.843553
v 0.067897 5.945947 -1.645358
v -0.253411 4.664410 -1.669617
v -0.267101 4.803878 -2.086563
v 0.370803 4.748208 -1.591268
v 0.356261 4.912925 -2.076217
v 0.477294 3.893641 -1.837607
v 0.489075 4.053545 -2.318488
v 0.855781 4.298017 -1.730368
v 0.867791 4.458498 -2.212137
v -0.549281 5.426614 -1.633478
v -0.392260 5.670452 -1.431535
v -0.392428 5.882387 -1.497294
v -0.403874 5.776130 -1.732347
v -0.107406 5.562953 -1.934011
v -0.148885 5.960361 -1.664567
v 0.147404 5.815622 -1.733805
v 0.358669 5.488245 -1.634320
v 0.110834 5.922464 -1.496133
v 0.157677 5.686479 -1.364202
v -0.090785 5.376046 -1.400053
v -0.141418 5.866743 -1.395533
v -0.398895 4.698840 -1.848059
v 0.040096 4.894153 -2.187232
v 0.506540 4.853502 -1.831077
v 0.059382 4.683043 -1.557672
v -0.381975 5.029455 -1.580882
v 0.289321 5.066591 -1.512680
v 0.276482 5.223153 -1.963278
v -0.396527 5.163306 -1.964902
v 0.477614 3.942468 -2.081172
v 0.707669 4.277966 -2.303793
v 0.925716 4.424477 -1.954103
v 0.694067 4.088913 -1.732973
v 0.079322 4.284422 -2.235399
v 0.076645 4.167598 -1.688971
v 0.530793 4.618178 -1.625266
v 0.532384 4.737275 -2.172517
v 0.636877 4.759843 -1.886591
v 0.318651 4.526554 -2.313193
v 0.315546 4.361829 -1.549565
v 0.763824 4.196927 -2.004178
v 0.439463 5.155168 -1.738171
v -0.543240 5.073017 -1.740372
v -0.064894 5.229517 -2.064945
v -0.000670 4.128066 -1.976382
v -0.150025 5.951632 -1.482063
v -0.046377 5.025519 -1.479038
v -0.119394 5.669935 -1.359440
v 0.263660 5.762088 -1.548045
v -0.132612 5.824963 -1.802527
v -0.505678 5.709532 -1.547482
v 0.875290 4.016863 1.984239
v 0.643809 4.147357 1.940768
v 0.804362 3.931266 1.946175
v 0.597006 4.086904 1.873499
v 0.775504 3.887977 1.840819
v 0.597596 4.078032 1.772053
v 0.805619 3.912352 1.729890
v 0.645233 4.125939 1.695856
v 0.877067 3.990115 1.678367
v 0.712013 4.202561 1.689544
v 0.947995 4.075712 1.716431
v 0.758816 4.263014 1.756813
v 0.976853 4.119001 1.821787
v 0.758226 4.271885 1.858259
v 0.946738 4.094626 1.932716
v 0.710590 4.223979 1.934456
v 0.995868 3.689207 2.237253
v 1.269190 4.225774 2.159818
v 1.126249 3.613496 2.214935
v 1.588970 3.943197 2.104911
v 0.758420 3.809824 2.108830
v 1.117773 4.341024 1.944829
v 1.280796 3.515599 2.068370
v 0.667073 3.835935 1.839478
v 1.119450 4.316387 1.663559
v 1.288332 3.479836 1.699978
v 1.592142 3.897298 1.580758
v 0.767549 3.757771 1.583689
v 1.273468 4.165506 1.473609
v 1.137570 3.545895 1.530175
v 1.386374 4.064850 1.451769
v 1.009097 3.614867 1.489453
v 1.499113 3.970403 1.492101
v 0.878083 3.689946 1.510509
v 1.179667 4.253795 1.547142
v 1.226101 3.475132 1.617518
v 1.629017 3.869226 1.661044
v 0.695418 3.807819 1.700248
v 1.096512 4.347892 1.802394
v 1.627040 3.901385 2.031251
v 0.690532 3.835776 1.982389
v 1.176495 4.299722 2.071000
v 1.234629 3.545996 2.141722
v 1.494981 4.030563 2.178308
v 0.866037 3.758119 2.197503
v 1.381627 4.130667 2.200239
v 1.010437 3.685783 2.128752
v 1.305664 4.168190 2.066948
v 1.094129 3.640323 2.112703
v 1.513377 3.981669 2.025417
v 0.850619 3.765188 2.041830
v 1.199577 4.247007 1.915565
v 1.214041 3.559826 2.038484
v 0.784729 3.784035 1.846156
v 1.200735 4.229061 1.709898
v 1.220501 3.529577 1.718533
v 1.515376 3.949123 1.651067
v 0.857291 3.727284 1.660538
v 1.308302 4.125443 1.575700
v 1.100733 3.594302 1.624468
v 1.380466 4.061966 1.560952
v 1.019616 3.633061 1.596898
v 1.451791 4.001269 1.587291
v 0.933788 3.680802 1.610191
v 1.244135 4.184893 1.626264
v 1.176352 3.561997 1.688891
v 1.553266 3.922912 1.680782
v 0.805553 3.763442 1.744367
v 1.183905 4.252020 1.811410
v 1.551763 3.950474 2.001207
v 0.801927 3.783961 1.950692
v 1.242029 4.218005 2.006107
v 1.169712 3.596881 2.059631
v 1.449139 4.044044 2.078518
v 0.925217 3.729759 2.103122
v 1.377652 4.108253 2.093209
v -0.403544 5.385147 1.284541
v -0.346344 5.835600 1.222178
v -0.417099 5.509004 1.636264
v -0.354868 5.911824 1.439383
v 0.222674 5.406178 1.218297
v 0.075573 5.846655 1.154646
v 0.210918 5.552657 1.637409
v 0.067897 5.945947 1.439214
v -0.253411 4.664410 1.463473
v -0.267101 4.803877 1.880418
v 0.370804 4.748208 1.385124
v 0.356261 4.912924 1.870072
v 0.477295 3.893642 1.631463
v 0.489076 4.053545 2.112344
v 0.855781 4.298017 1.524224
v 0.867791 4.458497 2.005993
v -0.549281 5.426614 1.427334
v -0.392259 5.670451 1.225391
v -0.392427 5.882387 1.291150
v -0.403874 5.776130 1.526203
v -0.107406 5.562953 1.727867
v -0.148885 5.960360 1.458423
v 0.147405 5.815622 1.527660
v 0.358670 5.488245 1.428175
v 0.110834 5.922463 1.289989
v 0.157677 5.686479 1.158058
v -0.090785 5.376046 1.193909
v -0.141418 5.866742 1.189389
v -0.398894 4.698839 1.641915
v 0.040097 4.894153 1.981088
v 0.506540 4.853501 1.624933
v 0.059382 4.683043 1.351528
v -0.381974 5.029454 1.374738
v 0.289321 5.066591 1.306536
v 0.276483 5.223152 1.757134
v -0.396526 5.163305 1.758758
v 0.477615 3.942467 1.875028
v 0.707670 4.277966 2.097648
v 0.925716 4.424477 1.747959
v 0.694067 4.088914 1.526828
v 0.079323 4.284421 2.029255
v 0.076645 4.167597 1.482827
v 0.530793 4.618177 1.419122
v 0.532384 4.737274 1.966373
v 0.636877 4.759843 1.680446
v 0.318651 4.526553 2.107049
v 0.315546 4.361829 1.343421
v 0.763825 4.196926 1.798034
v 0.439463 5.155168 1.532027
v -0.543239 5.073016 1.534228
v -0.064894 5.229516 1.858801
v -0.000670 4.128065 1.770238
v -0.150024 5.951631 1.275919
v -0.046376 5.025518 1.272894
v -0.119393 5.669934 1.153296
v 0.263660 5.762088 1.341900
v -0.132611 5.824962 1.596382
v -0.505678 5.709532 1.341337
vt 0.246936 0.000000
vt 0.464712 0.026348
vt 0.464712 0.237853
vt 0.246936 0.265427
vt 0.310094 0.504843
vt 0.246936 0.477294
vt 0.380645 0.477294
vt 0.477892 0.504843
vt 0.038628 0.001285
vt 0.246936 0.027823
vt 0.246936 0.239684
vt 0.038628 0.267161
vt 0.464712 0.213941
vt 0.483053 0.000000
vt 0.626930 0.000000
vt 0.645271 0.213941
vt 0.000000 0.000000
vt 0.000000 0.265875
vt 0.247137 0.265427
vt 0.380845 0.265427
vt 0.415577 0.768080
vt 0.415381 0.747693
vt 0.433229 0.747693
vt 0.433426 0.768080
vt 0.441142 0.938466
vt 0.437802 0.926216
vt 0.455175 0.927703
vt 0.458515 0.939953
vt 0.415279 0.724957
vt 0.415381 0.702222
vt 0.433229 0.702222
vt 0.433128 0.724957
vt 0.415577 0.681834
vt 0.433426 0.681834
vt 0.445493 0.945130
vt 0.462866 0.946617
vt 0.814433 0.842218
vt 0.817080 0.849773
vt 0.799405 0.848973
vt 0.796758 0.841417
vt 0.817080 0.743190
vt 0.814433 0.762749
vt 0.796758 0.761949
vt 0.799405 0.742390
vt 0.437087 0.905603
vt 0.454460 0.907089
vt 0.441142 0.860310
vt 0.445493 0.840308
vt 0.462866 0.841795
vt 0.458515 0.861796
vt 0.811966 0.808076
vt 0.812401 0.829164
vt 0.794725 0.828364
vt 0.794290 0.807276
vt 0.812401 0.785016
vt 0.794725 0.784216
vt 0.437802 0.882797
vt 0.455175 0.884284
vt 0.794414 0.658024
vt 0.793562 0.634603
vt 0.817959 0.627613
vt 0.819274 0.663780
vt 0.765324 0.597764
vt 0.743583 0.591711
vt 0.740778 0.561377
vt 0.774351 0.570723
vt 0.711451 0.702876
vt 0.733192 0.708928
vt 0.724731 0.742390
vt 0.691158 0.733043
vt 0.702445 0.603430
vt 0.687295 0.619991
vt 0.653854 0.605047
vt 0.677249 0.579473
vt 0.755469 0.708928
vt 0.774330 0.697210
vt 0.788260 0.724294
vt 0.759132 0.742390
vt 0.789480 0.680649
vt 0.811655 0.698719
vt 0.721306 0.591711
vt 0.706377 0.561377
vt 0.682361 0.642616
vt 0.646235 0.639987
vt 0.695097 0.686315
vt 0.665902 0.707469
vt 0.781678 0.614325
vt 0.799607 0.596298
vt 0.683213 0.666037
vt 0.647550 0.676154
vt 0.681079 0.183904
vt 0.649589 0.178231
vt 0.656131 0.062187
vt 0.687622 0.067860
vt 0.579678 0.564234
vt 0.612611 0.562079
vt 0.612611 0.680011
vt 0.579678 0.682165
vt 0.543602 0.565204
vt 0.543602 0.683135
vt 0.716410 0.187918
vt 0.722953 0.071874
vt 0.752112 0.187918
vt 0.758655 0.071874
vt 0.508651 0.563685
vt 0.508651 0.681617
vt 0.632871 0.558062
vt 0.632871 0.675993
vt 0.794290 0.907897
vt 0.762389 0.908196
vt 0.762389 0.789234
vt 0.794290 0.788935
vt 0.803318 0.180172
vt 0.784319 0.185845
vt 0.790861 0.069801
vt 0.809860 0.064128
vt 0.726813 0.908351
vt 0.691238 0.908196
vt 0.691238 0.789234
vt 0.726813 0.789389
vt 0.659336 0.907896
vt 0.659336 0.788935
vt 0.813533 0.173226
vt 0.820075 0.057182
vt 0.644494 0.553497
vt 0.644494 0.671428
vt 0.477892 0.561039
vt 0.477892 0.678971
vt 0.797535 0.046087
vt 0.806161 0.040222
vt 0.726813 0.772620
vt 0.756853 0.772489
vt 0.629671 0.687699
vt 0.619857 0.691553
vt 0.514966 0.696302
vt 0.488992 0.694067
vt 0.754297 0.052628
vt 0.781492 0.050877
vt 0.667726 0.044448
vt 0.694317 0.049238
vt 0.602749 0.694946
vt 0.574941 0.696765
vt 0.544478 0.697584
vt 0.724150 0.052628
vt 0.783791 0.772236
vt 0.696773 0.772489
vt 0.669836 0.772236
vt 0.654290 0.771798
vt 0.646235 0.771310
vt 0.693125 0.763191
vt 0.696493 0.763395
vt 0.783706 0.026903
vt 0.798702 0.033447
vt 0.756676 0.026824
vt 0.750407 0.024088
vt 0.652730 0.037904
vt 0.695649 0.028687
vt 0.701918 0.031423
vt 0.749481 0.034111
vt 0.756188 0.032108
vt 0.714254 0.763683
vt 0.726813 0.763738
vt 0.702992 0.763578
vt 0.759794 0.029656
vt 0.645271 0.031130
vt 0.692531 0.025855
vt 0.738111 0.034842
vt 0.713035 0.033425
vt 0.757115 0.022113
vt 0.739290 0.022085
vt 0.559981 0.699177
vt 0.547245 0.699519
vt 0.725508 0.034842
vt 0.571607 0.698416
vt 0.571607 0.719420
vt 0.559981 0.720181
vt 0.547245 0.720523
vt 0.714200 0.012757
vt 0.726673 0.014174
vt 0.739277 0.014174
vt 0.534907 0.698983
vt 0.534907 0.719987
vt 0.578759 0.696998
vt 0.578759 0.718002
vt 0.750634 0.763578
vt 0.739372 0.763683
vt 0.739372 0.742496
vt 0.750634 0.742390
vt 0.750646 0.013443
vt 0.757353 0.011440
vt 0.714254 0.742496
vt 0.726813 0.742550
vt 0.702992 0.742390
vt 0.760960 0.008988
vt 0.582862 0.695387
vt 0.582862 0.716391
vt 0.524048 0.698049
vt 0.524048 0.719053
vt 0.703083 0.010755
vt 0.693696 0.005187
vt 0.697302 0.002735
vt 0.704009 0.000732
vt 0.715379 0.000000
vt 0.727982 0.000000
vt 0.740455 0.001417
vt 0.751572 0.003420
vt 0.757841 0.006156
vt 0.696814 0.008019
vt 0.120239 0.693077
vt 0.120247 0.604811
vt 0.127117 0.588867
vt 0.127109 0.677244
vt 0.120272 0.553343
vt 0.127142 0.537398
vt 0.122515 0.833347
vt 0.120633 0.830399
vt 0.119005 0.816960
vt 0.117988 0.792127
vt 0.117777 0.761404
vt 0.118467 0.728693
vt 0.127142 0.740739
vt 0.127092 0.772038
vt 0.126049 0.801415
vt 0.124404 0.822078
vt 0.117197 0.560897
vt 0.117216 0.610730
vt 0.298423 0.651879
vt 0.414715 0.651627
vt 0.414852 0.740857
vt 0.298559 0.740996
vt 0.415279 0.792773
vt 0.298986 0.792913
vt 0.336958 0.504843
vt 0.368935 0.511758
vt 0.396783 0.528736
vt 0.414439 0.555937
vt 0.415279 0.587427
vt 0.268430 0.620101
vt 0.256756 0.588697
vt 0.260328 0.557171
vt 0.277534 0.529691
vt 0.305100 0.512269
vt 0.246936 0.792553
vt 0.247255 0.742184
vt 0.244614 0.573798
vt 0.244541 0.604190
vt 0.127142 0.604223
vt 0.127215 0.573831
vt 0.643017 0.836750
vt 0.632809 0.836384
vt 0.632809 0.720523
vt 0.643017 0.720890
vt 0.003436 0.829439
vt 0.001808 0.815999
vt 0.000580 0.760443
vt 0.001270 0.727732
vt 0.820077 0.047446
vt 0.820075 0.000000
vt 0.937477 0.000110
vt 0.937478 0.047556
vt 0.000019 0.609769
vt 0.000000 0.559936
vt 0.244725 0.697568
vt 0.244897 0.784616
vt 0.127498 0.784649
vt 0.127326 0.697601
vt 0.244596 0.635084
vt 0.127197 0.635117
vt 0.003042 0.692116
vt 0.003050 0.603850
vt 0.005318 0.832386
vt 0.820077 0.153808
vt 0.937478 0.153918
vt 0.244995 0.537398
vt 0.244780 0.551143
vt 0.127381 0.551176
vt 0.127596 0.537431
vt 0.244995 0.835340
vt 0.127596 0.835373
vt 0.000791 0.791167
vt 0.649276 0.421106
vt 0.649284 0.332841
vt 0.656154 0.316896
vt 0.656146 0.405273
vt 0.649309 0.281372
vt 0.656179 0.265427
vt 0.651552 0.561377
vt 0.649670 0.558429
vt 0.648042 0.544989
vt 0.647026 0.520157
vt 0.646815 0.489433
vt 0.647504 0.456722
vt 0.656179 0.468768
vt 0.656130 0.500067
vt 0.655087 0.529444
vt 0.653441 0.550107
vt 0.646235 0.288926
vt 0.646253 0.338759
vt 0.529378 0.412463
vt 0.645670 0.412211
vt 0.645807 0.501441
vt 0.529514 0.501580
vt 0.646234 0.553358
vt 0.529941 0.553497
vt 0.567913 0.265427
vt 0.599890 0.272342
vt 0.627739 0.289320
vt 0.645394 0.316521
vt 0.646234 0.348011
vt 0.499385 0.380685
vt 0.487712 0.349281
vt 0.491283 0.317756
vt 0.508489 0.290276
vt 0.536055 0.272854
vt 0.477892 0.553137
vt 0.478211 0.502768
vt 0.773327 0.501028
vt 0.772284 0.530405
vt 0.477892 0.884137
vt 0.525867 0.884095
vt 0.525867 0.999958
vt 0.477892 1.000000
vt 0.000045 0.923660
vt 0.000059 0.891895
vt 0.117461 0.891895
vt 0.117447 0.923660
vt 0.890807 0.389923
vt 0.890776 0.423104
vt 0.773376 0.423104
vt 0.773408 0.389923
vt 0.188747 0.951602
vt 0.176844 0.951233
vt 0.176844 0.835373
vt 0.188747 0.835742
vt 0.127142 0.951318
vt 0.127142 0.835457
vt 0.773351 0.317857
vt 0.773343 0.406234
vt 0.773376 0.469729
vt 0.890824 0.265427
vt 0.890971 0.352365
vt 0.773572 0.352365
vt 0.773425 0.265427
vt 0.000048 0.859973
vt 0.117449 0.859973
vt 0.214410 0.952428
vt 0.214410 0.836568
vt 0.000004 0.833347
vt 0.117406 0.833347
vt 0.773377 0.266388
vt 0.890854 0.453066
vt 0.773455 0.453066
vt 0.000000 0.949745
vt 0.117402 0.949745
vt 0.770639 0.551068
vt 0.071154 0.388198
vt 0.103561 0.388286
vt 0.130930 0.388481
vt 0.142926 0.387794
vt 0.164214 0.396981
vt 0.149514 0.396501
vt 0.123993 0.397104
vt 0.093127 0.397681
vt 0.060719 0.397592
vt 0.031827 0.396740
vt 0.009994 0.395355
vt 0.000000 0.393573
vt 0.001531 0.391703
vt 0.016290 0.390035
vt 0.040288 0.388775
vt 0.202755 0.396684
vt 0.164214 0.276645
vt 0.202755 0.276348
vt 0.560752 0.884095
vt 0.528838 0.878357
vt 0.502161 0.860140
vt 0.483704 0.833809
vt 0.477892 0.802309
vt 0.483704 0.770809
vt 0.502161 0.744478
vt 0.528838 0.726261
vt 0.560752 0.720523
vt 0.592666 0.726261
vt 0.619343 0.733136
vt 0.632809 0.723072
vt 0.632809 0.881546
vt 0.619343 0.871482
vt 0.592666 0.878357
vt 0.164214 0.422101
vt 0.202755 0.421803
vt 0.202755 0.537101
vt 0.164214 0.537398
vt 0.891611 0.703173
vt 0.857258 0.702030
vt 0.857258 0.676869
vt 0.891611 0.678011
vt 0.123993 0.422223
vt 0.093127 0.422800
vt 0.973174 0.531833
vt 0.973235 0.561377
vt 0.947740 0.561351
vt 0.947678 0.531807
vt 0.819274 0.702091
vt 0.819275 0.676929
vt 0.060719 0.422712
vt 0.973199 0.499835
vt 0.947703 0.499809
vt 0.149514 0.421620
vt 0.239923 0.862025
vt 0.239907 0.893222
vt 0.214410 0.893223
vt 0.214426 0.862026
vt 0.031827 0.421860
vt 0.009994 0.420474
vt 0.533215 0.264142
vt 0.518766 0.264122
vt 0.518766 0.238960
vt 0.533215 0.238980
vt 0.239923 0.924615
vt 0.214426 0.924616
vt 0.239964 0.951770
vt 0.214468 0.951771
vt 0.973235 0.472643
vt 0.947740 0.472617
vt 0.239964 0.835373
vt 0.214468 0.835373
vt 0.475965 0.840308
vt 0.437087 0.840308
vt 0.437087 0.681834
vt 0.475965 0.681834
vt 0.857258 0.561377
vt 0.891611 0.562519
vt 0.936303 0.823820
vt 0.936303 0.971093
vt 0.819274 0.970985
vt 0.819274 0.823712
vt 0.819275 0.561437
vt 0.181466 0.267161
vt 0.142926 0.267458
vt 0.891611 0.823712
vt 0.857258 0.822569
vt 0.369079 0.793025
vt 0.369079 0.940298
vt 0.246936 0.940186
vt 0.246936 0.792913
vt 0.819274 0.822630
vt 0.521715 0.215615
vt 0.531028 0.221841
vt 0.518766 0.224181
vt 0.531028 0.232204
vt 0.537316 0.238960
vt 0.521715 0.232210
vt 0.484079 0.235661
vt 0.473912 0.235661
vt 0.476470 0.213941
vt 0.223310 0.517570
vt 0.213320 0.517366
vt 0.218108 0.494136
vt 0.208925 0.494136
vt 0.467386 0.215129
vt 0.246152 0.438753
vt 0.246152 0.454138
vt 0.244959 0.446629
vt 0.537316 0.213941
vt 0.483668 0.215129
vt 0.489258 0.238193
vt 0.464712 0.238193
vt 0.224923 0.494462
vt 0.203733 0.517570
vt 0.202755 0.494462
vt 0.808449 0.854332
vt 0.808303 0.897795
vt 0.801176 0.892502
vt 0.801486 0.851035
vt 0.906963 0.532112
vt 0.906730 0.479755
vt 0.920356 0.479304
vt 0.920373 0.534443
vt 0.675430 0.238220
vt 0.675854 0.187918
vt 0.688785 0.188744
vt 0.688433 0.238430
vt 0.708601 0.243951
vt 0.708707 0.197864
vt 0.712738 0.205086
vt 0.712738 0.248657
vt 0.662978 0.239917
vt 0.663398 0.189978
vt 0.894023 0.529575
vt 0.893415 0.479860
vt 0.794290 0.890097
vt 0.794713 0.849773
vt 0.883711 0.529487
vt 0.882654 0.479678
vt 0.652759 0.243115
vt 0.653093 0.194423
vt 0.700139 0.240346
vt 0.700374 0.192121
vt 0.931892 0.478672
vt 0.931892 0.536166
vt 0.539279 0.257561
vt 0.539729 0.217017
vt 0.546788 0.214721
vt 0.546788 0.258577
vt 0.810869 0.858267
vt 0.810869 0.904173
vt 0.920505 0.236641
vt 0.912829 0.235110
vt 0.912077 0.189116
vt 0.920094 0.188710
vt 0.243781 0.494136
vt 0.242328 0.491719
vt 0.242078 0.445767
vt 0.243781 0.449800
vt 0.220502 0.487202
vt 0.211079 0.487589
vt 0.210741 0.439595
vt 0.220095 0.438753
vt 0.937332 0.240435
vt 0.928890 0.238466
vt 0.928753 0.188559
vt 0.937233 0.188680
vt 0.229789 0.487902
vt 0.229376 0.439736
vt 0.657897 0.253810
vt 0.655055 0.251240
vt 0.654977 0.209070
vt 0.657596 0.213686
vt 0.907634 0.235004
vt 0.907637 0.188958
vt 0.664044 0.255994
vt 0.663565 0.217760
vt 0.237540 0.489485
vt 0.237171 0.442175
vt 0.944579 0.242321
vt 0.944579 0.188958
vt 0.202964 0.488908
vt 0.202755 0.441917
vt 0.666880 0.258441
vt 0.666388 0.219731
vt 0.700363 0.245459
vt 0.694511 0.242996
vt 0.800305 0.190321
vt 0.813051 0.187918
vt 0.813017 0.197655
vt 0.804901 0.199260
vt 0.900434 0.234133
vt 0.899568 0.187918
vt 0.825728 0.252229
vt 0.812962 0.254640
vt 0.813018 0.245100
vt 0.821102 0.243502
vt 0.646619 0.247579
vt 0.660110 0.245016
vt 0.655889 0.248066
vt 0.836273 0.245309
vt 0.828388 0.238509
vt 0.711271 0.253753
vt 0.705117 0.258213
vt 0.697487 0.254206
vt 0.701951 0.251423
vt 0.789744 0.197253
vt 0.797710 0.204024
vt 0.703040 0.248435
vt 0.645271 0.252616
vt 0.800231 0.251492
vt 0.789699 0.243951
vt 0.797699 0.237884
vt 0.804898 0.243050
vt 0.825785 0.191058
vt 0.836317 0.198585
vt 0.828389 0.205139
vt 0.821108 0.199714
vt 0.537316 0.254669
vt 0.537639 0.213941
vt 0.649488 0.257346
vt 0.698693 0.260120
vt 0.695738 0.256893
vt 0.780490 0.220337
vt 0.782999 0.207871
vt 0.792879 0.211652
vt 0.791042 0.220767
vt 0.782978 0.232945
vt 0.792871 0.229986
vt 0.667461 0.242700
vt 0.686076 0.241606
vt 0.665465 0.261983
vt 0.657673 0.262851
vt 0.840612 0.205588
vt 0.832539 0.207639
vt 0.676564 0.241457
vt 0.840612 0.238589
vt 0.832565 0.236200
vt 0.993669 0.152080
vt 0.994711 0.169126
vt 0.980845 0.169782
vt 0.975530 0.156089
vt 0.388687 0.823441
vt 0.398805 0.814186
vt 0.406118 0.831224
vt 0.401820 0.843975
vt 0.421294 0.849823
vt 0.420284 0.831328
vt 0.431783 0.827280
vt 0.435164 0.838883
vt 0.950203 0.727300
vt 0.956355 0.743808
vt 0.938531 0.749458
vt 0.928149 0.738130
vt 0.929975 0.672898
vt 0.902975 0.686464
vt 0.898542 0.652141
vt 0.924620 0.641295
vt 0.959033 0.750800
vt 0.936656 0.754933
vt 0.975651 0.013122
vt 0.949745 0.023558
vt 0.942861 0.006556
vt 0.965666 0.000460
vt 0.373722 0.854564
vt 0.391223 0.878958
vt 0.386605 0.898042
vt 0.369191 0.876679
vt 0.986365 0.093253
vt 0.964025 0.099189
vt 0.957678 0.067388
vt 0.981370 0.060545
vt 0.858522 0.505289
vt 0.881112 0.509156
vt 0.882654 0.536166
vt 0.858454 0.531575
vt 0.548950 0.910505
vt 0.525867 0.915562
vt 0.529202 0.892374
vt 0.549069 0.884095
vt 0.932323 0.605501
vt 0.905096 0.599375
vt 0.926268 0.561377
vt 0.951729 0.568422
vt 0.369079 0.913601
vt 0.384539 0.920052
vt 0.392425 0.956341
vt 0.382250 0.951850
vt 0.411579 0.919881
vt 0.432768 0.908920
vt 0.435164 0.947452
vt 0.416440 0.955026
vt 0.412112 0.905159
vt 0.430335 0.891296
vt 0.937478 0.045993
vt 0.939218 0.028668
vt 0.945166 0.076974
vt 0.960009 0.617236
vt 0.973235 0.578631
vt 0.952371 0.634020
vt 0.577413 0.905820
vt 0.572514 0.884234
vt 0.576862 0.929161
vt 0.554299 0.937395
vt 0.533531 0.937395
vt 0.838205 0.508853
vt 0.836584 0.536166
vt 0.839805 0.479498
vt 0.858743 0.476355
vt 0.879738 0.479854
vt 1.000000 0.093675
vt 0.996665 0.061888
vt 0.915668 0.715776
vt 0.905484 0.724705
vt 0.891611 0.696158
vt 0.990594 0.125640
vt 0.969863 0.130975
vt 0.951752 0.106952
vt 0.958681 0.137566
vt 0.380607 0.837205
vt 0.396595 0.860206
vt 1.000000 0.021871
vt 0.988012 0.000000
vt 0.414566 0.809451
vt 0.423072 0.810466
vt 0.395681 0.798946
vt 0.407771 0.792913
vt 0.958712 0.662735
vt 0.967114 0.692560
vt 0.940609 0.702695
vt 0.973235 0.717559
vt 0.973083 0.733598
vt 0.859154 0.453066
vt 0.877576 0.456198
vt 0.842361 0.455885
vt 0.966604 0.162157
vt 0.388305 0.801682
vt 0.920495 0.745615
vt 0.480867 0.240607
vt 0.477721 0.263761
vt 0.471709 0.241009
vt 0.468192 0.262860
vt 0.464712 0.259826
vt 0.465608 0.239164
vt 0.489258 0.228886
vt 0.492896 0.219216
vt 0.502262 0.231698
vt 0.244410 0.517171
vt 0.234344 0.517651
vt 0.237430 0.494205
vt 0.228289 0.494906
vt 0.508087 0.224688
vt 0.508087 0.245150
vt 0.492896 0.237287
vt 0.502262 0.240174
vt 0.487716 0.262002
vt 0.501677 0.213941
vt 0.244410 0.494136
vt 0.487716 0.238193
vt 0.224922 0.518664
vt 0.777169 0.193114
vt 0.777004 0.234588
vt 0.769122 0.228829
vt 0.769464 0.189273
vt 0.915683 0.808473
vt 0.915442 0.756201
vt 0.929110 0.755717
vt 0.929130 0.810773
vt 0.876298 0.196546
vt 0.876233 0.249380
vt 0.863394 0.248427
vt 0.863378 0.196215
vt 0.844075 0.191653
vt 0.844339 0.240141
vt 0.840982 0.233797
vt 0.840612 0.187918
vt 0.888938 0.195384
vt 0.888864 0.247819
vt 0.902824 0.805830
vt 0.902204 0.756200
vt 0.761926 0.226378
vt 0.762388 0.187918
vt 0.892677 0.805533
vt 0.891611 0.755805
vt 0.899568 0.193027
vt 0.899568 0.244145
vt 0.851994 0.194575
vt 0.852130 0.245280
vt 0.940786 0.754933
vt 0.940786 0.812344
vt 0.728985 0.188599
vt 0.728420 0.227324
vt 0.721678 0.230142
vt 0.721789 0.188253
vt 0.780490 0.197919
vt 0.780490 0.241744
vt 0.598444 0.932663
vt 0.590667 0.931240
vt 0.589908 0.885321
vt 0.598030 0.884807
vt 0.722451 0.199761
vt 0.724490 0.202754
vt 0.724793 0.246695
vt 0.722506 0.242169
vt 0.747312 0.207582
vt 0.756606 0.206731
vt 0.756963 0.252576
vt 0.747752 0.253875
vt 0.615248 0.936499
vt 0.606858 0.934464
vt 0.606717 0.884635
vt 0.615146 0.884825
vt 0.737894 0.207062
vt 0.738348 0.253096
vt 0.510480 0.260269
vt 0.508087 0.258250
vt 0.508552 0.213941
vt 0.510665 0.218041
vt 0.585431 0.931175
vt 0.585422 0.885211
vt 0.516223 0.262091
vt 0.516187 0.221809
vt 0.729797 0.205378
vt 0.730213 0.250604
vt 0.622374 0.938531
vt 0.622374 0.885248
vt 0.764375 0.204765
vt 0.764592 0.249642
vt 0.518766 0.264276
vt 0.518766 0.223573
vt 0.783230 0.463191
vt 0.794405 0.455886
vt 0.799840 0.464603
vt 0.792108 0.469652
vt 0.716221 0.250809
vt 0.712738 0.243598
vt 0.578291 0.930228
vt 0.577413 0.884095
vt 0.770679 0.240812
vt 0.768391 0.236213
vt 0.794286 0.517192
vt 0.783130 0.510054
vt 0.792043 0.503678
vt 0.799750 0.508591
vt 0.762712 0.232074
vt 0.821103 0.455784
vt 0.832067 0.462915
vt 0.824529 0.469827
vt 0.817014 0.464682
vt 0.724124 0.256649
vt 0.807771 0.453066
vt 0.808569 0.462790
vt 0.807656 0.519799
vt 0.808463 0.510251
vt 0.778336 0.249104
vt 0.771542 0.255342
vt 0.769255 0.245445
vt 0.714891 0.236300
vt 0.728831 0.233028
vt 0.723931 0.237461
vt 0.731447 0.191936
vt 0.731062 0.230897
vt 0.820916 0.516887
vt 0.816685 0.508237
vt 0.836584 0.469707
vt 0.829372 0.471980
vt 0.748321 0.261294
vt 0.735460 0.260218
vt 0.760919 0.259514
vt 0.775998 0.499263
vt 0.786920 0.495918
vt 0.776054 0.474086
vt 0.786954 0.477505
vt 0.836584 0.502585
vt 0.831119 0.509652
vt 0.824414 0.502908
vt 0.829338 0.500532
vt 0.773376 0.486694
vt 0.784993 0.486728
vt 0.760058 0.230057
vt 0.236010 0.408989
vt 0.233905 0.426630
vt 0.220207 0.424918
vt 0.217564 0.410246
vt 0.433504 0.522113
vt 0.442943 0.508046
vt 0.445475 0.506185
vt 0.440459 0.518079
vt 0.458172 0.517708
vt 0.459190 0.504843
vt 0.472512 0.509260
vt 0.475580 0.522085
vt 0.948008 0.430770
vt 0.953644 0.447567
vt 0.935681 0.452717
vt 0.925690 0.441063
vt 0.929773 0.376053
vt 0.902457 0.388997
vt 0.899293 0.354784
vt 0.925584 0.344502
vt 0.956193 0.454874
vt 0.933708 0.458311
vt 0.962741 0.902210
vt 0.985537 0.907716
vt 0.985537 0.949891
vt 0.963941 0.948846
vt 0.422302 0.577513
vt 0.432258 0.571824
vt 0.428631 0.599675
vt 0.418412 0.607388
vt 0.240209 0.350430
vt 0.217333 0.353125
vt 0.217491 0.322292
vt 0.241898 0.319109
vt 0.453841 0.571364
vt 0.475058 0.576628
vt 0.474621 0.604511
vt 0.451776 0.598260
vt 0.450132 0.654841
vt 0.450474 0.632246
vt 0.472490 0.639793
vt 0.475965 0.659899
vt 0.934479 0.308958
vt 0.907646 0.302314
vt 0.930273 0.265427
vt 0.955351 0.273026
vt 0.415279 0.637915
vt 0.424064 0.614401
vt 0.426931 0.634926
vt 0.422006 0.654235
vt 0.449068 0.605730
vt 0.474601 0.614333
vt 0.968859 0.342021
vt 0.953606 0.338231
vt 0.961848 0.321797
vt 0.976053 0.329664
vt 0.218785 0.281394
vt 0.202755 0.302762
vt 0.208473 0.289698
vt 0.215997 0.267161
vt 0.203829 0.331781
vt 0.976499 0.283929
vt 0.447631 0.681834
vt 0.470042 0.681439
vt 0.424572 0.676608
vt 0.436140 0.542004
vt 0.456215 0.541729
vt 0.475965 0.546549
vt 0.938604 0.835780
vt 0.955401 0.823712
vt 0.960603 0.849270
vt 0.942408 0.859460
vt 0.914043 0.418469
vt 0.903741 0.427439
vt 0.890971 0.398737
vt 0.238058 0.382480
vt 0.216856 0.384780
vt 0.204301 0.361108
vt 0.205089 0.391653
vt 0.427153 0.546851
vt 0.936303 0.902747
vt 0.942002 0.946598
vt 0.246152 0.275611
vt 0.976499 0.442824
vt 0.970664 0.437820
vt 0.215939 0.435113
vt 0.215507 0.431863
vt 0.231159 0.436997
vt 0.228923 0.438753
vt 0.958879 0.366929
vt 0.966161 0.396778
vt 0.939298 0.405972
vt 0.971361 0.421804
vt 0.208054 0.416718
vt 0.917932 0.448602
vt 0.246152 0.411530
vt 0.240845 0.425854
vn -0.9965 0.0841 0.0000
vn 0.0000 0.1250 -0.9922
vn 0.9965 0.0841 0.0000
vn 0.0000 0.1250 0.9922
vn 0.0000 -1.0000 0.0000
vn 0.0000 1.0000 0.0000
vn 0.7071 0.0000 0.7071
vn 0.3827 0.0000 0.9239
vn 0.3190 0.5521 0.7703
vn 0.5761 0.5798 0.5761
vn 0.3827 0.0000 -0.9239
vn 0.7071 0.0000 -0.7071
vn 0.5761 0.5798 -0.5761
vn 0.3190 0.5521 -0.7703
vn 0.0000 0.0000 1.0000
vn -0.3827 0.0000 0.9239
vn -0.3190 0.5521 0.7703
vn 0.0000 0.5798 0.8147
vn -0.7071 0.0000 0.7071
vn -0.5761 0.5798 0.5761
vn 0.0000 0.0000 -1.0000
vn 0.0000 0.5798 -0.8147
vn -0.3827 0.0000 -0.9239
vn -0.3190 0.5521 -0.7703
vn -0.9239 0.0000 0.3827
vn -0.7703 0.5521 0.3190
vn 0.9239 0.0000 -0.3827
vn 0.7703 0.5521 -0.3190
vn 0.9239 0.0000 0.3827
vn 0.7703 0.5521 0.3190
vn -0.9239 0.0000 -0.3827
vn -0.7071 0.0000 -0.7071
vn -0.5761 0.5798 -0.5761
vn -0.7703 0.5521 -0.3190
vn -1.0000 0.0000 0.0000
vn -0.8147 0.5798 0.0000
vn 1.0000 0.0000 0.0000
vn 0.8147 0.5798 0.0000
vn -0.8665 0.4991 0.0000
vn -0.7934 0.5123 0.3286
vn -0.3286 0.5123 -0.7934
vn -0.6127 0.4991 -0.6127
vn 0.3286 0.5123 0.7934
vn 0.6127 0.4991 0.6127
vn 0.6127 0.4991 -0.6127
vn 0.3286 0.5123 -0.7934
vn -0.3286 0.5123 0.7934
vn 0.0000 0.4991 0.8665
vn -0.6127 0.4991 0.6127
vn 0.0000 0.4991 -0.8665
vn 0.7934 0.5123 -0.3286
vn 0.7934 0.5123 0.3286
vn -0.7934 0.5123 -0.3286
vn 0.8665 0.4991 0.0000
vn 0.6658 -0.3367 0.6658
vn 0.8690 -0.3395 0.3599
vn -0.6658 -0.3367 -0.6658
vn -0.8690 -0.3395 -0.3599
vn -0.9416 -0.3367 0.0000
vn 0.9416 -0.3367 0.0000
vn 0.8690 -0.3395 -0.3599
vn -0.8690 -0.3395 0.3599
vn -0.3599 -0.3395 -0.8690
vn 0.3599 -0.3395 0.8690
vn 0.6658 -0.3367 -0.6658
vn 0.3599 -0.3395 -0.8690
vn -0.3599 -0.3395 0.8690
vn 0.0000 -0.3367 0.9416
vn -0.6658 -0.3367 0.6658
vn 0.0000 -0.3367 -0.9416
vn 0.1974 -0.8567 -0.4765
vn 0.0000 -0.8496 -0.5274
vn 0.0000 -0.8496 0.5274
vn 0.1974 -0.8567 0.4765
vn -0.1974 -0.8567 -0.4765
vn -0.4765 -0.8567 0.1974
vn -0.3729 -0.8496 0.3729
vn 0.4765 -0.8567 -0.1974
vn 0.3729 -0.8496 -0.3729
vn 0.3729 -0.8496 0.3729
vn 0.4765 -0.8567 0.1974
vn -0.3729 -0.8496 -0.3729
vn -0.4765 -0.8567 -0.1974
vn -0.5274 -0.8496 0.0000
vn 0.5274 -0.8496 0.0000
vn -0.1974 -0.8567 0.4765
vn -0.7136 -0.7005 0.0000
vn -0.6868 -0.6688 0.2845
vn -0.2845 -0.6688 -0.6868
vn -0.5046 -0.7005 -0.5046
vn 0.2845 -0.6688 0.6868
vn 0.5046 -0.7005 0.5046
vn 0.5046 -0.7005 -0.5046
vn 0.2845 -0.6688 -0.6868
vn -0.2845 -0.6688 0.6868
vn 0.0000 -0.7005 0.7136
vn -0.5046 -0.7005 0.5046
vn 0.0000 -0.7005 -0.7136
vn 0.6868 -0.6688 -0.2845
vn 0.6868 -0.6688 0.2845
vn -0.6868 -0.6688 -0.2845
vn 0.7136 -0.7005 0.0000
vn -0.5354 -0.6532 -0.5354
vn -0.6783 -0.6789 -0.2810
vn -0.7572 -0.6532 0.0000
vn 0.6783 -0.6789 0.2810
vn 0.7572 -0.6532 0.0000
vn 0.6783 -0.6789 -0.2810
vn -0.6783 -0.6789 0.2810
vn -0.2810 -0.6789 -0.6783
vn 0.2810 -0.6789 0.6783
vn 0.5354 -0.6532 0.5354
vn 0.5354 -0.6532 -0.5354
vn 0.2810 -0.6789 -0.6783
vn -0.2810 -0.6789 0.6783
vn 0.0000 -0.6532 0.7572
vn -0.5354 -0.6532 0.5354
vn 0.0000 -0.6532 -0.7572
vn -0.5607 0.2159 -0.7993
vn -0.3067 -0.3040 -0.9019
vn 0.7064 0.0023 -0.7078
vn 0.7059 0.0082 -0.7082
vn -0.0078 0.7080 -0.7062
vn 0.5755 0.5795 -0.5770
vn 0.0000 -0.7509 -0.6604
vn -0.2837 -0.6849 -0.6712
vn -0.5310 -0.5310 -0.6604
vn -0.7074 -0.2506 -0.6609
vn -0.7475 0.0840 -0.6589
vn -0.6394 0.3855 -0.6652
vn 0.7110 -0.0005 -0.7032
vn 0.7271 -0.2169 -0.6514
vn 0.5310 -0.5310 -0.6604
vn 0.2837 -0.6849 -0.6712
vn -0.5858 0.5687 -0.5774
vn -0.5768 -0.5763 -0.5789
vn -0.5607 0.2159 0.7993
vn 0.7059 0.0082 0.7082
vn 0.7064 0.0023 0.7078
vn -0.3067 -0.3040 0.9019
vn 0.5755 0.5795 0.5770
vn -0.0078 0.7080 0.7062
vn 0.0000 -0.7509 0.6604
vn 0.2837 -0.6849 0.6712
vn 0.5310 -0.5310 0.6604
vn 0.7271 -0.2169 0.6514
vn 0.7110 -0.0005 0.7032
vn -0.6394 0.3855 0.6652
vn -0.7475 0.0840 0.6589
vn -0.7074 -0.2506 0.6609
vn -0.5310 -0.5310 0.6604
vn -0.2837 -0.6849 0.6712
vn -0.5858 0.5687 0.5774
vn -0.5768 -0.5763 0.5789
vn 0.5607 -0.2159 -0.7993
vn 0.3067 0.3040 -0.9019
vn -0.7064 -0.0023 -0.7078
vn -0.7059 -0.0082 -0.7082
vn 0.0078 -0.7080 -0.7062
vn -0.5755 -0.5795 -0.5770
vn 0.0000 0.7509 -0.6604
vn 0.2837 0.6849 -0.6712
vn 0.5310 0.5310 -0.6604
vn 0.7074 0.2506 -0.6609
vn 0.7475 -0.0840 -0.6589
vn 0.6394 -0.3855 -0.6652
vn -0.7110 0.0005 -0.7032
vn -0.7271 0.2169 -0.6514
vn -0.5310 0.5310 -0.6604
vn -0.2837 0.6849 -0.6712
vn 0.5858 -0.5687 -0.5774
vn 0.5768 0.5763 -0.5789
vn 0.5607 -0.2159 0.7993
vn -0.7059 -0.0082 0.7082
vn -0.7064 -0.0023 0.7078
vn 0.3067 0.3040 0.9019
vn -0.5755 -0.5795 0.5770
vn 0.0078 -0.7080 0.7062
vn 0.0000 0.7509 0.6604
vn -0.2837 0.6849 0.6712
vn -0.5310 0.5310 0.6604
vn -0.7271 0.2169 0.6514
vn -0.7110 0.0005 0.7032
vn 0.6394 -0.3855 0.6652
vn 0.7475 -0.0840 0.6589
vn 0.7074 0.2506 0.6609
vn 0.5310 0.5310 0.6604
vn 0.2837 0.6849 0.6712
vn 0.5858 -0.5687 0.5774
vn 0.5768 0.5763 0.5789
vn 0.7433 0.0000 -0.6689
vn 0.6985 -0.1545 -0.6987
vn 0.7689 0.1529 -0.6208
vn 0.8535 0.4893 -0.1792
vn -0.8535 0.4893 -0.1792
vn -0.7689 0.1529 -0.6208
vn -0.6985 -0.1545 -0.6987
vn -0.7433 0.0000 -0.6689
vn -0.6920 0.2866 -0.6626
vn -0.5256 0.5256 -0.6689
vn -0.2866 0.6920 -0.6626
vn 0.0000 0.7433 -0.6689
vn 0.2866 0.6920 -0.6626
vn 0.5256 0.5256 -0.6689
vn 0.6920 0.2866 -0.6626
vn -0.7071 -0.7071 0.0000
vn -0.5773 0.5773 -0.5773
vn -0.5773 -0.5773 -0.5773
vn 0.7433 0.0000 0.6689
vn 0.6920 0.2866 0.6626
vn 0.5256 0.5256 0.6689
vn 0.2866 0.6920 0.6626
vn 0.0000 0.7433 0.6689
vn -0.2866 0.6920 0.6626
vn -0.5256 0.5256 0.6689
vn -0.6920 0.2866 0.6626
vn -0.7433 0.0000 0.6689
vn -0.6985 -0.1545 0.6987
vn -0.7689 0.1529 0.6208
vn -0.8535 0.4893 0.1792
vn 0.8535 0.4893 0.1792
vn 0.7689 0.1529 0.6208
vn 0.6985 -0.1545 0.6987
vn -0.5773 -0.5773 0.5773
vn -0.5773 0.5773 0.5773
vn 0.7071 -0.7071 0.0000
vn 0.5773 -0.5773 0.5773
vn 0.5773 0.5773 0.5773
vn 0.5773 -0.5773 -0.5773
vn 0.5773 0.5773 -0.5773
vn -0.5155 -0.7968 0.3150
vn -0.6198 -0.7821 -0.0648
vn -0.5199 -0.7306 -0.4426
vn -0.4320 -0.5004 -0.7503
vn 0.0295 0.0565 -0.9980
vn -0.1704 -0.2791 -0.9450
vn 0.4944 0.5625 -0.6627
vn 0.6903 0.7211 0.0590
vn 0.6842 0.6510 -0.3288
vn 0.5025 0.4394 0.7445
vn 0.0410 -0.1175 0.9922
vn 0.3390 0.1332 0.9313
vn -0.1597 -0.4390 0.8841
vn 0.6886 0.5847 0.4289
vn 0.3284 0.2932 -0.8979
vn -0.4238 -0.6235 0.6570
vn -0.1539 -0.7025 -0.6948
vn 0.6647 0.4139 -0.6219
vn 0.8407 0.2485 -0.4811
vn 0.0108 -0.8317 -0.5552
vn -0.3458 -0.6697 0.6572
vn 0.4693 0.4619 0.7526
vn 0.2632 0.6478 0.7149
vn -0.5752 -0.5070 0.6419
vn -0.9862 -0.1652 -0.0052
vn -0.0860 0.9919 0.0930
vn -0.0418 0.9829 -0.1793
vn -0.9369 -0.1772 -0.3012
vn -0.5900 -0.3790 -0.7129
vn 0.2485 0.7690 -0.5889
vn 0.4534 0.5933 -0.6651
vn -0.3621 -0.5338 -0.7641
vn -0.9308 -0.2322 0.2821
vn -0.0358 0.9330 0.3582
vn -0.1647 -0.8021 0.5740
vn 0.6773 0.2955 0.6737
vn 0.9553 -0.0844 0.2834
vn 0.2668 -0.9404 0.2109
vn -0.0606 -0.9539 0.2940
vn 0.8524 0.1582 0.4983
vn -0.7852 -0.3455 0.5138
vn 0.0790 0.8109 0.5798
vn -0.7967 -0.2448 -0.5524
vn 0.0679 0.9039 -0.4222
vn 0.3162 -0.8418 -0.4375
vn 0.9494 -0.0237 -0.3132
vn -0.5582 -0.5132 0.6519
vn -0.6501 -0.3504 0.6742
vn 0.1242 0.6865 0.7165
vn 0.2546 0.6561 0.7104
vn -0.3436 -0.5626 -0.7519
vn -0.1325 -0.7159 -0.6854
vn 0.6619 0.4130 -0.6254
vn 0.4555 0.6041 -0.6538
vn 0.1596 -0.9825 -0.0962
vn 0.1362 -0.9804 0.1419
vn 0.9605 0.0810 0.2660
vn 0.9968 0.0795 -0.0034
vn -0.1169 -0.8331 0.5405
vn -0.3265 -0.6948 0.6408
vn 0.4705 0.4746 0.7439
vn 0.6756 0.2928 0.6765
vn 0.1301 -0.9354 -0.3287
vn 0.9548 0.1304 -0.2672
vn -0.6014 -0.3385 -0.7237
vn 0.2411 0.7759 -0.5828
vn -0.4282 -0.5255 0.7352
vn 0.3075 0.4432 0.8420
vn -0.6574 -0.1482 -0.7388
vn 0.1125 0.8079 -0.5784
vn 0.0233 -0.8483 -0.5289
vn 0.8384 0.2551 -0.4816
vn 0.0348 -0.9332 0.3577
vn 0.8488 0.1642 0.5024
vn -0.3872 -0.3034 -0.8706
vn 0.2921 0.5983 -0.7461
vn -0.9470 0.2418 0.2114
vn -0.6344 0.6881 0.3522
vn -0.4989 0.8036 -0.3245
vn -0.6339 0.4780 -0.6080
vn -0.0438 0.5521 -0.8326
vn -0.0773 0.9246 -0.3729
vn 0.3522 0.8789 -0.3215
vn 0.5438 0.5850 -0.6016
vn 0.8928 0.4336 0.1222
vn 0.4941 0.8225 0.2815
vn 0.2745 0.4709 0.8384
vn 0.4743 0.1183 0.8724
vn -0.1228 -0.0434 0.9915
vn -0.1162 0.4865 0.8659
vn -0.3997 0.3744 0.8367
vn -0.5075 0.0012 0.8616
vn -0.0955 -0.2518 0.9630
vn -0.5387 -0.3138 0.7819
vn -0.5752 -0.4289 0.6965
vn -0.1165 -0.1951 0.9738
vn -0.0902 0.9221 0.3761
vn -0.6716 -0.7239 -0.1579
vn -0.4909 -0.3458 -0.7996
vn 0.0913 -0.6181 -0.7807
vn 0.1307 -0.9510 -0.2800
vn -0.0483 0.3331 -0.9416
vn 0.5752 0.3905 -0.7187
vn 0.4858 0.5470 -0.6817
vn -0.0839 0.2791 -0.9566
vn -0.9806 -0.1899 0.0478
vn -0.6439 0.1265 -0.7545
vn -0.6198 -0.0774 -0.7809
vn -0.9023 -0.4282 -0.0490
vn 0.9729 0.2259 0.0486
vn 0.5270 -0.0939 0.8447
vn 0.4438 0.1199 0.8881
vn 0.8276 0.5397 0.1540
vn 0.7577 -0.6263 -0.1832
vn 0.9937 0.1068 0.0345
vn 0.8097 -0.1478 0.5679
vn 0.5563 -0.6174 0.5562
vn 0.0223 -0.2237 0.9744
vn -0.4483 -0.6368 0.6273
vn 0.1053 -0.9390 0.3274
vn -0.0369 0.2021 -0.9786
vn 0.4391 0.6382 -0.6324
vn 0.7863 0.1852 -0.5893
vn 0.5080 -0.2582 -0.8217
vn 0.6925 0.7036 0.1592
vn 0.4808 0.2914 0.8270
vn 0.5714 0.4140 -0.7086
vn 0.9669 0.2486 0.0579
vn 0.5147 -0.0743 0.8541
vn -0.5175 -0.1921 0.8338
vn -0.9916 0.0146 0.1284
vn -0.6370 0.2836 -0.7167
vn -0.0350 0.3937 -0.9185
vn -0.0968 -0.2043 0.9741
vn 0.5155 0.7968 0.3150
vn 0.6198 0.7821 -0.0648
vn 0.5199 0.7306 -0.4426
vn 0.4320 0.5004 -0.7503
vn -0.0295 -0.0565 -0.9980
vn 0.1704 0.2791 -0.9450
vn -0.4943 -0.5625 -0.6627
vn -0.6903 -0.7211 0.0590
vn -0.6842 -0.6510 -0.3288
vn -0.5025 -0.4394 0.7445
vn -0.0410 0.1175 0.9922
vn -0.3390 -0.1332 0.9313
vn 0.1597 0.4390 0.8841
vn -0.6886 -0.5847 0.4289
vn -0.3284 -0.2932 -0.8979
vn 0.4238 0.6235 0.6570
vn 0.1539 0.7025 -0.6948
vn -0.6647 -0.4139 -0.6219
vn -0.8407 -0.2485 -0.4811
vn -0.0108 0.8317 -0.5552
vn 0.3458 0.6697 0.6572
vn -0.4693 -0.4619 0.7526
vn -0.2632 -0.6478 0.7149
vn 0.5752 0.5070 0.6419
vn 0.9862 0.1652 -0.0052
vn 0.0860 -0.9919 0.0930
vn 0.0418 -0.9829 -0.1793
vn 0.9369 0.1772 -0.3011
vn 0.5900 0.3790 -0.7129
vn -0.2485 -0.7690 -0.5889
vn -0.4534 -0.5933 -0.6651
vn 0.3621 0.5338 -0.7641
vn 0.9308 0.2322 0.2821
vn 0.0358 -0.9330 0.3582
vn 0.1647 0.8021 0.5740
vn -0.6773 -0.2955 0.6737
vn -0.9553 0.0844 0.2834
vn -0.2668 0.9404 0.2109
vn 0.0606 0.9539 0.2940
vn -0.8524 -0.1582 0.4983
vn 0.7852 0.3455 0.5138
vn -0.0790 -0.8109 0.5798
vn 0.7967 0.2448 -0.5524
vn -0.0679 -0.9039 -0.4222
vn -0.3162 0.8418 -0.4375
vn -0.9494 0.0237 -0.3132
vn 0.5582 0.5132 0.6519
vn 0.6501 0.3504 0.6742
vn -0.1242 -0.6865 0.7165
vn -0.2546 -0.6561 0.7104
vn 0.3436 0.5626 -0.7519
vn 0.1325 0.7159 -0.6854
vn -0.6619 -0.4130 -0.6254
vn -0.4555 -0.6041 -0.6538
vn -0.1595 0.9825 -0.0962
vn -0.1362 0.9804 0.1419
vn -0.9605 -0.0810 0.2660
vn -0.9968 -0.0795 -0.0034
vn 0.1169 0.8331 0.5405
vn 0.3265 0.6948 0.6408
vn -0.4705 -0.4746 0.7439
vn -0.6756 -0.2928 0.6765
vn -0.1301 0.9354 -0.3287
vn -0.9548 -0.1304 -0.2672
vn 0.6014 0.3385 -0.7237
vn -0.2411 -0.7759 -0.5828
vn 0.4282 0.5255 0.7352
vn -0.3075 -0.4432 0.8420
vn 0.6574 0.1482 -0.7388
vn -0.1125 -0.8079 -0.5784
vn -0.0233 0.8483 -0.5289
vn -0.8384 -0.2551 -0.4816
vn -0.0348 0.9332 0.3577
vn -0.8488 -0.1642 0.5024
vn 0.3872 0.3034 -0.8706
vn -0.2921 -0.5983 -0.7461
vn 0.9470 -0.2418 0.2114
vn 0.6344 -0.6881 0.3522
vn 0.4989 -0.8036 -0.3245
vn 0.6339 -0.4780 -0.6080
vn 0.0438 -0.5521 -0.8326
vn 0.0773 -0.9246 -0.3729
vn -0.3522 -0.8789 -0.3215
vn -0.5438 -0.5850 -0.6016
vn -0.8928 -0.4336 0.1222
vn -0.4941 -0.8225 0.2815
vn -0.2745 -0.4709 0.8384
vn -0.4743 -0.1183 0.8724
vn 0.1228 0.0434 0.9915
vn 0.1162 -0.4865 0.8659
vn 0.3997 -0.3744 0.8367
vn 0.5075 -0.0012 0.8616
vn 0.0955 0.2518 0.9630
vn 0.5387 0.3138 0.7819
vn 0.5752 0.4289 0.6965
vn 0.1165 0.1951 0.9738
vn 0.0902 -0.9221 0.3761
vn 0.6716 0.7239 -0.1579
vn 0.4909 0.3458 -0.7996
vn -0.0913 0.6181 -0.7807
vn -0.1307 0.9510 -0.2800
vn 0.0483 -0.3331 -0.9416
vn -0.5752 -0.3905 -0.7187
vn -0.4858 -0.5470 -0.6817
vn 0.0839 -0.2791 -0.9566
vn 0.9806 0.1899 0.0478
vn 0.6439 -0.1265 -0.7545
vn 0.6198 0.0774 -0.7809
vn 0.9023 0.4282 -0.0490
vn -0.9729 -0.2259 0.0486
vn -0.5270 0.0939 0.8447
vn -0.4438 -0.1199 0.8881
vn -0.8276 -0.5397 0.1540
vn -0.7577 0.6263 -0.1832
vn -0.9937 -0.1068 0.0345
vn -0.8097 0.1478 0.5679
vn -0.5563 0.6174 0.5562
vn -0.0223 0.2237 0.9744
vn 0.4483 0.6368 0.6273
vn -0.1053 0.9390 0.3274
vn 0.0369 -0.2021 -0.9786
vn -0.4391 -0.6382 -0.6324
vn -0.7863 -0.1852 -0.5893
vn -0.5080 0.2582 -0.8217
vn -0.6925 -0.7036 0.1592
vn -0.4808 -0.2914 0.8270
vn -0.5714 -0.4140 -0.7086
vn -0.9669 -0.2486 0.0579
vn -0.5147 0.0743 0.8541
vn 0.5175 0.1921 0.8338
vn 0.9916 -0.0146 0.1284
vn 0.6370 -0.2836 -0.7167
vn 0.0350 -0.3937 -0.9185
vn 0.0968 0.2043 0.9741
usemtl bod
s off
f 227/1/1 228/2/1 230/3/1 229/4/1
f 229/5/2 230/6/2 234/7/2 233/8/2
f 233/9/3 234/10/3 232/11/3 231/12/3
f 231/13/4 232/14/4 228/15/4 227/16/4
f 229/17/5 233/9/5 231/12/5 227/18/5
f 234/7/6 230/6/6 228/19/6 232/20/6
s 1
f 3/21/7 16/22/8 32/23/9 19/24/10
f 10/25/11 7/26/12 23/27/13 26/28/14
f 1/29/15 2/30/16 18/31/17 17/32/18
f 2/30/16 15/33/19 31/34/20 18/31/17
f 9/35/21 10/25/11 26/28/14 25/36/22
f 16/22/8 1/29/15 17/32/18 32/23/9
f 8/37/23 9/38/21 25/39/22 24/40/24
f 15/41/19 4/42/25 20/43/26 31/44/20
f 7/26/12 12/45/27 28/46/28 23/27/13
f 14/47/29 3/48/7 19/49/10 30/50/30
f 6/51/31 11/52/32 27/53/33 22/54/34
f 13/55/35 6/51/31 22/54/34 29/56/36
f 5/57/37 14/47/29 30/50/30 21/58/38
f 12/45/27 5/57/37 21/58/38 28/46/28
f 4/42/25 13/55/35 29/56/36 20/43/26
f 11/52/32 8/37/23 24/40/24 27/53/33
f 20/59/26 29/60/36 45/61/39 36/62/40
f 27/63/33 24/64/24 40/65/41 43/66/42
f 19/67/10 32/68/9 48/69/43 35/70/44
f 26/71/14 23/72/13 39/73/45 42/74/46
f 17/75/18 18/76/17 34/77/47 33/78/48
f 18/76/17 31/79/20 47/80/49 34/77/47
f 25/81/22 26/71/14 42/74/46 41/82/50
f 32/68/9 17/75/18 33/78/48 48/69/43
f 24/64/24 25/81/22 41/82/50 40/65/41
f 31/79/20 20/59/26 36/62/40 47/80/49
f 23/72/13 28/83/28 44/84/51 39/73/45
f 30/85/30 19/67/10 35/70/44 46/86/52
f 22/87/34 27/63/33 43/66/42 38/88/53
f 29/60/36 22/87/34 38/88/53 45/61/39
f 21/89/38 30/85/30 46/86/52 37/90/54
f 28/83/28 21/89/38 37/90/54 44/84/51
f 46/91/52 35/92/44 51/93/55 62/94/56
f 38/95/53 43/96/42 59/97/57 54/98/58
f 45/99/39 38/95/53 54/98/58 61/100/59
f 37/101/54 46/91/52 62/94/56 53/102/60
f 44/103/51 37/101/54 53/102/60 60/104/61
f 36/105/40 45/99/39 61/100/59 52/106/62
f 43/96/42 40/107/41 56/108/63 59/97/57
f 35/109/44 48/110/43 64/111/64 51/112/55
f 42/113/46 39/114/45 55/115/65 58/116/66
f 33/117/48 34/118/47 50/119/67 49/120/68
f 34/118/47 47/121/49 63/122/69 50/119/67
f 41/123/50 42/113/46 58/116/66 57/124/70
f 48/110/43 33/117/48 49/120/68 64/111/64
f 40/107/41 41/125/50 57/126/70 56/108/63
f 47/127/49 36/105/40 52/106/62 63/128/69
f 39/114/45 44/103/51 60/104/61 55/115/65
f 57/124/70 58/116/66 74/129/71 73/130/72
f 64/111/64 49/120/68 65/131/73 80/132/74
f 56/108/63 57/126/70 73/133/72 72/134/75
f 63/128/69 52/106/62 68/135/76 79/136/77
f 55/115/65 60/104/61 76/137/78 71/138/79
f 62/94/56 51/93/55 67/139/80 78/140/81
f 54/98/58 59/97/57 75/141/82 70/142/83
f 61/100/59 54/98/58 70/142/83 77/143/84
f 53/102/60 62/94/56 78/140/81 69/144/85
f 60/104/61 53/102/60 69/144/85 76/137/78
f 52/106/62 61/100/59 77/143/84 68/135/76
f 59/97/57 56/108/63 72/134/75 75/141/82
f 51/112/55 64/111/64 80/132/74 67/145/80
f 58/116/66 55/115/65 71/138/79 74/129/71
f 49/120/68 50/119/67 66/146/86 65/131/73
f 50/119/67 63/122/69 79/147/77 66/146/86
f 68/148/76 77/149/84 93/150/87 84/151/88
f 75/152/82 72/153/75 88/154/89 91/155/90
f 67/139/80 80/156/74 96/157/91 83/158/92
f 74/129/71 71/138/79 87/159/93 90/160/94
f 65/131/73 66/146/86 82/161/95 81/162/96
f 66/146/86 79/147/77 95/163/97 82/161/95
f 73/130/72 74/129/71 90/160/94 89/164/98
f 80/156/74 65/165/73 81/166/96 96/157/91
f 72/153/75 73/130/72 89/164/98 88/154/89
f 79/147/77 68/148/76 84/151/88 95/163/97
f 71/138/79 76/137/78 92/167/99 87/159/93
f 78/140/81 67/139/80 83/158/92 94/168/100
f 70/169/83 75/152/82 91/155/90 86/170/101
f 77/143/84 70/142/83 86/171/101 93/172/87
f 69/144/85 78/140/81 94/168/100 85/173/102
f 76/137/78 69/144/85 85/173/102 92/167/99
f 86/171/101 91/174/90 107/175/103 102/176/104
f 93/172/87 86/171/101 102/176/104 109/177/105
f 85/173/102 94/168/100 110/178/106 101/179/107
f 92/167/99 85/173/102 101/179/107 108/180/108
f 84/181/88 93/172/87 109/177/105 100/182/109
f 91/174/90 88/183/89 104/184/110 107/175/103
f 83/185/92 96/186/91 112/187/111 99/188/112
f 90/160/94 87/159/93 103/189/113 106/190/114
f 81/162/96 82/161/95 98/191/115 97/192/116
f 82/161/95 95/163/97 111/193/117 98/191/115
f 89/164/98 90/160/94 106/190/114 105/194/118
f 96/186/91 81/162/96 97/192/116 112/187/111
f 88/183/89 89/195/98 105/196/118 104/184/110
f 95/197/97 84/181/88 100/182/109 111/198/117
f 87/159/93 92/167/99 108/180/108 103/189/113
f 94/168/100 83/158/92 99/199/112 110/178/106
f 97/200/116 98/201/115 111/202/117 100/203/109 109/204/105 102/205/104 107/206/103 104/207/110 105/194/118 106/190/114 103/189/113 108/180/108 101/179/107 110/178/106 99/199/112 112/208/111
f 120/209/119 126/210/120 125/211/121 119/212/122
f 126/210/120 128/213/123 127/214/124 125/211/121
f 113/215/125 114/216/126 123/217/127 116/218/128 121/219/129 118/220/130 120/209/119 119/212/122 117/221/131 122/222/132 115/223/133 124/224/134
f 130/225/135 128/213/123 126/210/120 129/226/136
f 138/227/137 137/228/138 143/229/139 144/230/140
f 144/230/140 143/229/139 145/231/141 146/232/142
f 131/233/143 142/234/144 133/235/145 140/236/146 135/237/147 137/228/138 138/227/137 136/238/148 139/239/149 134/240/150 141/241/151 132/242/152
f 148/243/153 147/244/154 144/230/140 146/232/142
f 115/245/133 122/246/132 140/247/146 133/248/145
f 129/249/136 126/250/120 144/251/140 147/252/154
f 123/217/127 114/216/126 132/253/152 141/254/151
f 118/220/130 121/219/129 139/255/149 136/256/148
f 128/257/123 130/258/135 148/259/153 146/260/142
f 130/225/135 129/226/136 147/261/154 148/262/153
f 119/263/122 125/264/121 143/265/139 137/266/138
f 117/267/131 119/263/122 137/266/138 135/268/147
f 126/210/120 120/209/119 138/269/137 144/270/140
f 120/209/119 118/220/130 136/256/148 138/269/137
f 114/216/126 113/215/125 131/271/143 132/253/152
f 127/272/124 128/257/123 146/260/142 145/273/141
f 122/246/132 117/267/131 135/268/147 140/247/146
f 113/274/125 124/275/134 142/276/144 131/277/143
f 125/264/121 127/278/124 145/279/141 143/265/139
f 121/219/129 116/218/128 134/280/150 139/255/149
f 116/218/128 123/217/127 141/254/151 134/280/150
f 124/275/134 115/245/133 133/248/145 142/276/144
f 156/281/155 162/282/156 161/283/157 155/284/158
f 162/282/156 164/285/159 163/286/160 161/283/157
f 149/287/161 150/288/162 159/289/163 152/290/164 157/291/165 154/292/166 156/281/155 155/284/158 153/293/167 158/294/168 151/295/169 160/296/170
f 166/297/171 164/285/159 162/282/156 165/298/172
f 174/299/173 173/300/174 179/301/175 180/302/176
f 180/302/176 179/301/175 181/303/177 182/304/178
f 167/305/179 178/306/180 169/307/181 176/308/182 171/309/183 173/300/174 174/299/173 172/310/184 175/311/185 170/312/186 177/313/187 168/314/188
f 184/315/189 183/316/190 180/302/176 182/304/178
f 151/295/169 158/294/168 176/317/182 169/318/181
f 165/319/172 162/320/156 180/321/176 183/322/190
f 159/323/163 150/324/162 168/325/188 177/326/187
f 154/327/166 157/328/165 175/329/185 172/330/184
f 164/331/159 166/332/171 184/333/189 182/334/178
f 166/332/171 165/335/172 183/336/190 184/333/189
f 155/284/158 161/283/157 179/337/175 173/338/174
f 153/293/167 155/284/158 173/338/174 171/339/183
f 162/340/156 156/341/155 174/342/173 180/343/176
f 156/341/155 154/327/166 172/330/184 174/342/173
f 150/324/162 149/344/161 167/345/179 168/325/188
f 163/346/160 164/331/159 182/334/178 181/347/177
f 158/294/168 153/293/167 171/339/183 176/317/182
f 149/344/161 160/348/170 178/349/180 167/345/179
f 161/283/157 163/286/160 181/350/177 179/337/175
f 157/328/165 152/351/164 170/352/186 175/329/185
f 152/353/164 159/323/163 177/326/187 170/354/186
f 160/296/170 151/295/169 169/318/181 178/355/180
f 185/356/191 199/357/192 187/358/193 197/359/194 195/360/195 190/361/196 193/362/197 192/363/198 191/364/199 194/365/200 189/366/201 196/367/202 188/368/203 198/369/204 186/370/205
f 200/371/206 195/360/195 223/372/207 225/373/208
f 202/374/209 203/375/210 215/376/211 205/377/212 213/378/213 206/379/214 211/380/215 208/381/216 209/382/217 210/383/218 207/384/219 212/385/220 214/386/221 204/387/222 216/388/223
f 212/389/220 217/390/206 221/391/224 219/392/225
f 200/393/206 201/394/226 218/395/226 217/396/206
f 192/363/198 193/362/197 210/397/218 209/398/217
f 185/399/191 186/400/205 203/401/210 202/402/209
f 201/394/226 197/403/194 214/404/221 218/395/226
f 191/364/199 192/363/198 209/398/217 208/405/216
f 199/406/192 185/399/191 202/402/209 216/407/223
f 195/360/195 200/371/206 217/390/206 212/389/220
f 190/361/196 195/360/195 212/389/220 207/408/219
f 198/409/204 188/410/203 205/411/212 215/412/211
f 189/366/201 194/365/200 211/413/215 206/414/214
f 197/415/194 187/416/193 204/417/222 214/418/221
f 188/410/203 196/419/202 213/420/213 205/411/212
f 196/419/202 189/421/201 206/422/214 213/420/213
f 187/423/193 199/406/192 216/407/223 204/424/222
f 194/365/200 191/364/199 208/405/216 211/413/215
f 186/425/205 198/409/204 215/412/211 203/426/210
f 193/362/197 190/361/196 207/408/219 210/397/218
f 222/427/227 220/428/228 219/429/225 221/430/224
f 217/396/206 218/395/226 222/431/227 221/432/224
f 214/433/221 212/434/220 219/435/225 220/436/228
f 218/395/226 214/404/221 220/437/228 222/431/227
f 226/438/229 225/373/208 223/372/207 224/439/230
f 201/394/226 200/393/206 225/440/208 226/441/229
f 195/442/195 197/443/194 224/444/230 223/445/207
f 197/403/194 201/394/226 226/441/229 224/446/230
f 248/447/231 247/448/232 246/449/233
f 245/450/234 243/451/235 244/452/236
f 241/453/237 239/454/238 240/455/239
f 237/456/240 235/457/241 236/458/242
f 235/457/241 250/459/243 236/458/242
f 238/460/244 240/455/239 239/454/238
f 244/461/236 243/462/235 242/463/245
f 249/464/246 247/448/232 248/447/231
f 241/453/237 242/465/245 243/466/235
f 237/467/240 238/460/244 239/454/238
f 236/458/242 238/468/244 237/456/240
f 240/455/239 242/465/245 241/453/237
f 246/449/233 245/450/234 244/452/236
f 249/469/246 248/470/231 250/459/243
f 247/448/232 245/450/234 246/449/233
f 235/457/241 249/469/246 250/459/243
f 253/471/247 278/472/248 254/473/249 277/474/250
f 266/475/251 265/476/252 263/477/253 268/478/254
f 258/479/255 273/480/256 256/481/257 275/482/258
f 279/483/259 252/484/260 280/485/261 251/486/262
f 272/487/263 259/488/264 273/480/256 258/479/255
f 264/489/265 267/490/266 265/476/252 266/475/251
f 277/474/250 254/473/249 274/491/267 257/492/268
f 270/493/269 261/494/270 267/490/266 264/489/265
f 262/495/271 269/496/272 259/488/264 272/487/263
f 255/497/273 276/498/274 252/484/260 279/483/259
f 275/482/258 256/481/257 276/498/274 255/497/273
f 268/478/254 263/477/253 269/499/272 262/500/271
f 260/501/275 271/502/276 261/503/270 270/504/269
f 251/505/262 280/506/261 278/472/248 253/471/247
f 283/507/277 307/508/278 284/509/279 308/510/280
f 296/511/281 298/512/282 293/513/283 295/514/284
f 288/515/285 305/516/286 286/517/287 303/518/288
f 309/519/289 281/520/290 310/521/291 282/522/292
f 302/523/293 288/515/285 303/518/288 289/524/294
f 294/525/295 296/526/281 295/527/284 297/528/296
f 307/508/278 287/529/297 304/530/298 284/509/279
f 300/531/299 294/525/295 297/528/296 291/532/300
f 292/533/301 302/523/293 289/524/294 299/534/302
f 285/535/303 309/519/289 282/522/292 306/536/304
f 305/516/286 285/537/303 306/538/304 286/517/287
f 298/512/282 292/533/301 299/534/302 293/513/283
f 290/539/305 300/531/299 291/532/300 301/540/306
f 281/520/290 283/507/277 308/510/280 310/521/291
f 255/497/273 279/483/259 309/541/289 285/542/303
f 263/543/253 265/544/252 295/545/284 293/546/283
f 257/547/268 274/548/267 304/530/298 287/529/297
f 278/549/248 280/550/261 310/551/291 308/552/280
f 268/553/254 262/495/271 292/554/301 298/555/282
f 254/556/249 278/549/248 308/552/280 284/557/279
f 253/558/247 277/559/250 307/560/278 283/561/277
f 269/562/272 263/543/253 293/546/283 299/563/302
f 251/486/262 253/558/247 283/561/277 281/564/290
f 266/565/251 268/553/254 298/555/282 296/526/281
f 252/566/260 276/567/274 306/568/304 282/569/292
f 267/570/266 261/571/270 291/572/300 297/573/296
f 279/483/259 251/486/262 281/564/290 309/541/289
f 271/502/276 260/501/275 290/574/305 301/575/306
f 264/576/265 266/565/251 296/526/281 294/525/295
f 277/559/250 257/577/268 287/578/297 307/560/278
f 273/579/256 259/580/264 289/581/294 303/582/288
f 256/583/257 273/579/256 303/582/288 286/584/287
f 262/495/271 272/487/263 302/585/293 292/554/301
f 275/482/258 255/497/273 285/542/303 305/586/286
f 260/587/275 270/588/269 300/531/299 290/539/305
f 261/571/270 271/589/276 301/590/306 291/572/300
f 276/567/274 256/583/257 286/584/287 306/568/304
f 259/580/264 269/562/272 299/563/302 289/581/294
f 258/479/255 275/482/258 305/586/286 288/591/285
f 272/487/263 258/479/255 288/591/285 302/585/293
f 274/592/267 254/556/249 284/557/279 304/593/298
f 265/544/252 267/570/266 297/573/296 295/545/284
f 280/550/261 252/566/260 282/569/292 310/551/291
f 270/588/269 264/576/265 294/525/295 300/531/299
f 368/594/307 329/595/308 314/596/309 330/597/310
f 367/598/311 332/599/312 318/600/313 333/601/314
f 366/602/315 335/603/316 316/604/317 336/605/318
f 365/606/319 338/607/320 312/608/321 328/609/322
f 364/610/323 343/611/324 319/612/325 342/613/326
f 363/614/327 329/615/308 312/608/321 338/607/320
f 362/616/328 351/617/329 324/618/330 347/619/331
f 361/620/332 345/621/333 322/622/334 340/623/335
f 360/624/336 346/625/337 320/626/338 339/627/339
f 359/628/340 344/629/341 321/630/342 341/631/343
f 358/632/344 349/633/345 325/634/346 350/635/347
f 357/636/348 352/637/349 323/638/350 350/639/347
f 356/640/351 354/641/352 326/642/353 348/643/354
f 355/644/355 353/645/356 325/646/346 349/647/345
f 354/641/352 355/644/355 349/647/345 326/642/353
f 322/622/334 341/648/343 355/644/355 354/641/352
f 341/648/343 321/649/342 353/645/356 355/644/355
f 351/617/329 356/650/351 348/651/354 324/618/330
f 320/626/338 340/652/335 356/650/351 351/617/329
f 340/623/335 322/622/334 354/641/352 356/640/351
f 353/653/356 357/636/348 350/639/347 325/654/346
f 321/655/342 342/613/326 357/636/348 353/653/356
f 342/613/326 319/612/325 352/637/349 357/636/348
f 347/656/331 358/632/344 350/635/347 323/657/350
f 324/658/330 348/659/354 358/632/344 347/656/331
f 348/659/354 326/660/353 349/633/345 358/632/344
f 345/661/333 359/628/340 341/631/343 322/662/334
f 317/663/357 334/664/358 359/628/340 345/661/333
f 334/664/358 315/665/359 344/629/341 359/628/340
f 343/666/324 360/624/336 339/627/339 319/667/325
f 311/668/360 327/669/361 360/670/336 343/611/324
f 327/671/361 313/672/362 346/625/337 360/624/336
f 346/625/337 361/673/332 340/652/335 320/626/338
f 313/672/362 331/674/363 361/673/332 346/625/337
f 331/675/363 317/676/357 345/621/333 361/620/332
f 352/677/349 362/616/328 347/619/331 323/678/350
f 319/667/325 339/627/339 362/616/328 352/677/349
f 339/627/339 320/626/338 351/617/329 362/616/328
f 335/603/316 363/679/327 338/680/320 316/604/317
f 318/600/313 332/599/312 363/679/327 335/603/316
f 332/599/312 314/681/309 329/682/308 363/679/327
f 344/683/341 364/610/323 342/613/326 321/655/342
f 315/684/359 337/685/364 364/610/323 344/683/341
f 337/685/364 311/668/360 343/611/324 364/610/323
f 337/685/364 365/606/319 328/609/322 311/668/360
f 315/684/359 336/686/318 365/606/319 337/685/364
f 336/686/318 316/687/317 338/607/320 365/606/319
f 334/664/358 366/688/315 336/689/318 315/665/359
f 317/663/357 333/690/314 366/688/315 334/664/358
f 333/601/314 318/600/313 335/603/316 366/602/315
f 331/675/363 367/598/311 333/601/314 317/676/357
f 313/672/362 330/597/310 367/691/311 331/674/363
f 330/692/310 314/681/309 332/599/312 367/598/311
f 327/671/361 368/594/307 330/597/310 313/672/362
f 311/668/360 328/609/322 368/693/307 327/669/361
f 328/609/322 312/608/321 329/615/308 368/693/307
f 382/694/365 381/695/366 380/696/367
f 379/697/368 377/698/369 378/699/370
f 375/700/371 373/701/372 374/702/373
f 371/703/374 369/704/375 370/705/376
f 369/704/375 384/706/377 370/705/376
f 372/707/378 374/702/373 373/701/372
f 378/708/370 377/709/369 376/710/379
f 383/711/380 381/695/366 382/694/365
f 375/700/371 376/710/379 377/709/369
f 371/712/374 372/707/378 373/701/372
f 370/705/376 372/713/378 371/703/374
f 374/702/373 376/710/379 375/700/371
f 380/696/367 379/697/368 378/699/370
f 383/711/380 382/694/365 384/714/377
f 381/695/366 379/697/368 380/696/367
f 369/704/375 383/715/380 384/706/377
f 387/716/381 412/717/382 388/718/383 411/719/384
f 400/720/385 399/721/386 397/722/387 402/723/388
f 392/724/389 407/725/390 390/726/391 409/727/392
f 413/728/393 386/729/394 414/730/395 385/731/396
f 406/732/397 393/733/398 407/725/390 392/724/389
f 398/734/399 401/735/400 399/721/386 400/720/385
f 411/719/384 388/718/383 408/736/401 391/737/402
f 404/738/403 395/739/404 401/735/400 398/734/399
f 396/740/405 403/741/406 393/733/398 406/732/397
f 389/742/407 410/743/408 386/729/394 413/728/393
f 409/727/392 390/726/391 410/743/408 389/742/407
f 402/723/388 397/722/387 403/744/406 396/745/405
f 394/746/409 405/747/410 395/748/404 404/749/403
f 385/750/396 414/751/395 412/717/382 387/716/381
f 417/752/411 441/753/412 418/754/413 442/755/414
f 430/756/415 432/757/416 427/758/417 429/759/418
f 422/760/419 439/761/420 420/762/421 437/763/422
f 443/764/423 415/765/424 444/766/425 416/767/426
f 436/768/427 422/760/419 437/763/422 423/769/428
f 428/770/429 430/771/415 429/772/418 431/773/430
f 441/753/412 421/774/431 438/775/432 418/754/413
f 434/776/433 428/770/429 431/773/430 425/777/434
f 426/778/435 436/768/427 423/769/428 433/779/436
f 419/780/437 443/764/423 416/767/426 440/781/438
f 439/761/420 419/782/437 440/783/438 420/762/421
f 432/757/416 426/778/435 433/779/436 427/758/417
f 424/784/439 434/776/433 425/777/434 435/785/440
f 415/765/424 417/752/411 442/755/414 444/766/425
f 389/786/407 413/787/393 443/788/423 419/789/437
f 397/790/387 399/791/386 429/759/418 427/758/417
f 391/792/402 408/793/401 438/775/432 421/774/431
f 412/717/382 414/751/395 444/794/425 442/795/414
f 402/796/388 396/797/405 426/798/435 432/799/416
f 388/718/383 412/717/382 442/795/414 418/800/413
f 387/801/381 411/802/384 441/803/412 417/804/411
f 403/805/406 397/790/387 427/758/417 433/779/436
f 385/806/396 387/801/381 417/804/411 415/807/424
f 400/808/385 402/796/388 432/799/416 430/809/415
f 386/810/394 410/811/408 440/783/438 416/812/426
f 401/813/400 395/748/404 425/814/434 431/815/430
f 413/787/393 385/806/396 415/807/424 443/788/423
f 405/747/410 394/746/409 424/816/439 435/817/440
f 398/818/399 400/808/385 430/809/415 428/819/429
f 411/802/384 391/820/402 421/821/431 441/803/412
f 407/822/390 393/823/398 423/769/428 437/763/422
f 390/824/391 407/822/390 437/763/422 420/762/421
f 396/797/405 406/825/397 436/826/427 426/798/435
f 409/827/392 389/786/407 419/789/437 439/828/420
f 394/829/409 404/830/403 434/831/433 424/832/439
f 395/748/404 405/747/410 435/817/440 425/814/434
f 410/811/408 390/824/391 420/762/421 440/783/438
f 393/823/398 403/805/406 433/779/436 423/769/428
f 392/833/389 409/827/392 439/828/420 422/834/419
f 406/825/397 392/833/389 422/834/419 436/826/427
f 408/736/401 388/718/383 418/800/413 438/835/432
f 399/791/386 401/813/400 431/815/430 429/759/418
f 414/751/395 386/810/394 416/812/426 444/794/425
f 404/830/403 398/818/399 428/819/429 434/831/433
f 502/836/441 463/837/442 448/838/443 464/839/444
f 501/840/445 466/841/446 452/842/447 467/843/448
f 500/844/449 469/845/450 450/846/451 470/847/452
f 499/848/453 472/849/454 446/850/455 462/851/456
f 498/852/457 477/853/458 453/854/459 476/855/460
f 497/856/461 463/857/442 446/850/455 472/849/454
f 496/858/462 485/859/463 458/860/464 481/861/465
f 495/862/466 479/863/467 456/864/468 474/865/469
f 494/866/470 480/867/471 454/868/472 473/869/473
f 493/870/474 478/871/475 455/872/476 475/873/477
f 492/874/478 483/875/479 459/876/480 484/877/481
f 491/878/482 486/879/483 457/880/484 484/881/481
f 490/882/485 488/883/486 460/884/487 482/885/488
f 489/886/489 487/887/490 459/876/480 483/875/479
f 488/883/486 489/886/489 483/875/479 460/884/487
f 456/864/468 475/873/477 489/886/489 488/883/486
f 475/888/477 455/889/476 487/890/490 489/891/489
f 485/892/463 490/893/485 482/894/488 458/895/464
f 454/868/472 474/896/469 490/893/485 485/892/463
f 474/865/469 456/864/468 488/883/486 490/882/485
f 487/890/490 491/878/482 484/881/481 459/897/480
f 455/889/476 476/855/460 491/878/482 487/890/490
f 476/855/460 453/854/459 486/879/483 491/878/482
f 481/898/465 492/874/478 484/877/481 457/899/484
f 458/900/464 482/885/488 492/874/478 481/898/465
f 482/885/488 460/884/487 483/875/479 492/874/478
f 479/863/467 493/870/474 475/873/477 456/864/468
f 451/901/491 468/902/492 493/870/474 479/863/467
f 468/902/492 449/903/493 478/871/475 493/870/474
f 477/904/458 494/905/470 473/906/473 453/907/459
f 445/908/494 461/909/495 494/910/470 477/853/458
f 461/911/495 447/912/496 480/867/471 494/866/470
f 480/867/471 495/913/466 474/896/469 454/868/472
f 447/912/496 465/914/497 495/913/466 480/867/471
f 465/915/497 451/901/491 479/863/467 495/862/466
f 486/916/483 496/858/462 481/861/465 457/917/484
f 453/907/459 473/906/473 496/858/462 486/916/483
f 473/869/473 454/868/472 485/892/463 496/918/462
f 469/919/450 497/856/461 472/849/454 450/920/451
f 452/921/447 466/922/446 497/923/461 469/924/450
f 466/922/446 448/838/443 463/837/442 497/923/461
f 478/925/475 498/852/457 476/855/460 455/889/476
f 449/926/493 471/927/498 498/852/457 478/925/475
f 471/927/498 445/908/494 477/853/458 498/852/457
f 471/927/498 499/848/453 462/851/456 445/908/494
f 449/926/493 470/928/452 499/848/453 471/927/498
f 470/928/452 450/920/451 472/849/454 499/848/453
f 468/902/492 500/844/449 470/847/452 449/903/493
f 451/901/491 467/843/448 500/844/449 468/902/492
f 467/843/448 452/842/447 469/845/450 500/844/449
f 465/915/497 501/840/445 467/843/448 451/901/491
f 447/912/496 464/839/444 501/929/445 465/914/497
f 464/839/444 448/838/443 466/922/446 501/929/445
f 461/911/495 502/836/441 464/839/444 447/912/496
f 445/908/494 462/851/456 502/930/441 461/909/495
f 462/931/456 446/932/455 463/837/442 502/836/441
