# Blender 4.5.2 LTS
# www.blender.org
o Circle.003
v 0.000000 6.314418 -0.785586
v 0.255178 6.314418 -0.717157
v -0.484003 6.314418 -0.585105
v 0.616054 6.314418 -0.356281
v -0.684484 6.314418 -0.101102
v 0.616054 6.314418 0.154075
v -0.484003 6.314418 0.382901
v 0.255178 6.314418 0.514951
v 0.000000 6.314418 0.583381
v -0.255178 6.314418 0.514951
v 0.484003 6.314418 0.382900
v -0.616054 6.314418 0.154075
v 0.684484 6.314418 -0.101103
v -0.616054 6.314418 -0.356280
v 0.484003 6.314418 -0.585106
v -0.255178 6.314418 -0.717156
v 0.000000 6.512147 -0.785586
v 0.255178 6.512147 -0.717157
v -0.484003 6.512147 -0.585105
v 0.616054 6.512147 -0.356281
v -0.684484 6.512147 -0.101102
v 0.616054 6.512147 0.154075
v -0.484003 6.512147 0.382901
v 0.255178 6.512147 0.514951
v 0.000000 6.512147 0.583381
v -0.255178 6.512147 0.514951
v 0.484003 6.512147 0.382900
v -0.616054 6.512147 0.154075
v 0.684484 6.512147 -0.101103
v -0.616054 6.512147 -0.356280
v 0.484003 6.512147 -0.585106
v -0.255178 6.512147 -0.717156
v 0.000000 6.687670 -1.158124
v 0.394061 6.687670 -1.052451
v -0.747427 6.687670 -0.848529
v 0.951347 6.687670 -0.495165
v -1.057021 6.687670 -0.101103
v 0.951348 6.687670 0.292957
v -0.747427 6.687670 0.646325
v 0.394062 6.687670 0.850245
v 0.000000 6.687670 0.955919
v -0.394061 6.687670 0.850245
v 0.747427 6.687670 0.646324
v -0.951348 6.687670 0.292958
v 1.057021 6.687670 -0.101104
v -0.951348 6.687670 -0.495164
v 0.747426 6.687670 -0.848530
v -0.394061 6.687670 -1.052450
v 0.000000 8.023057 -1.158125
v 0.394061 8.023057 -1.052452
v -0.747427 8.023057 -0.848530
v 0.951347 8.023057 -0.495165
v -1.057021 8.023057 -0.101103
v 0.951348 8.023057 0.292957
v -0.747427 8.023057 0.646324
v 0.394062 8.023057 0.850244
v 0.000000 8.023057 0.955918
v -0.394061 8.023057 0.850244
v 0.747427 8.023057 0.646323
v -0.951348 8.023057 0.292958
v 1.057021 8.023057 -0.101104
v -0.951348 8.023057 -0.495164
v 0.747426 8.023057 -0.848531
v -0.394061 8.023057 -1.052451
v 0.000000 8.208591 -0.993654
v 0.332746 8.208591 -0.904424
v -0.631129 8.208591 -0.732232
v 0.803320 8.208591 -0.433850
v -0.892551 8.208591 -0.101103
v 0.803320 8.208591 0.231642
v -0.631129 8.208591 0.530025
v 0.332746 8.208591 0.702216
v 0.000000 8.208591 0.791447
v -0.332746 8.208591 0.702217
v 0.631129 8.208591 0.530025
v -0.803320 8.208591 0.231643
v 0.892551 8.208591 -0.101104
v -0.803320 8.208591 -0.433849
v 0.631128 8.208591 -0.732233
v -0.332746 8.208591 -0.904423
v 0.000000 8.299738 -0.474256
v 0.139112 8.299738 -0.436951
v -0.263858 8.299738 -0.364962
v 0.335847 8.299738 -0.240216
v -0.373152 8.299738 -0.101104
v 0.335847 8.299738 0.038009
v -0.263858 8.299738 0.162755
v 0.139113 8.299738 0.234743
v 0.000000 8.299738 0.272048
v -0.139112 8.299738 0.234743
v 0.263858 8.299738 0.162755
v -0.335847 8.299738 0.038009
v 0.373152 8.299738 -0.101104
v -0.335847 8.299738 -0.240216
v 0.263858 8.299738 -0.364962
v -0.139112 8.299738 -0.436951
v 0.000000 8.537577 -0.474256
v 0.139112 8.537577 -0.436951
v -0.263858 8.537577 -0.364962
v 0.335847 8.537577 -0.240216
v -0.373152 8.537577 -0.101104
v 0.335847 8.537577 0.038009
v -0.263858 8.537577 0.162755
v 0.139113 8.537577 0.234743
v 0.000000 8.537577 0.272048
v -0.139112 8.537577 0.234743
v 0.263858 8.537577 0.162755
v -0.335847 8.537577 0.038009
v 0.373152 8.537577 -0.101104
v -0.335847 8.537577 -0.240216
v 0.263858 8.537577 -0.364962
v -0.139112 8.537577 -0.436951
v 0.000000 3.474552 1.319385
v 0.353553 3.394058 1.319385
v -0.660471 3.200976 1.319385
v 0.853553 2.894059 1.319385
v -0.859989 2.540505 1.319385
v 0.769549 2.186952 1.319385
v -0.847891 1.819912 1.319385
v 0.440229 1.827543 1.319385
v 0.895984 2.540506 1.319385
v -0.853553 2.894058 1.319385
v 0.660470 3.200977 1.319385
v -0.353553 3.394058 1.319385
v -0.841278 0.818298 1.319385
v 0.446841 0.827192 1.319385
v -0.841278 0.235495 1.319385
v 0.446841 0.244390 1.319385
v 1.015206 0.818471 1.319385
v 1.023330 0.253111 1.319385
v 0.000000 3.474552 0.018952
v 0.353553 3.394058 0.018952
v -0.660471 3.200976 0.018952
v 0.853553 2.894059 0.018952
v -0.859989 2.540505 0.018952
v 0.769549 2.186952 0.018952
v -0.847891 1.819912 0.018952
v 0.440229 1.827543 0.018952
v 0.895984 2.540506 0.018952
v -0.853553 2.894058 0.018952
v 0.660470 3.200977 0.018952
v -0.353553 3.394058 0.018952
v -0.841278 0.818298 0.018952
v 0.446841 0.827192 0.018952
v -0.841278 0.235495 0.018952
v 0.446841 0.244390 0.018952
v 1.015206 0.818471 0.018952
v 1.023330 0.253111 0.018952
v 0.000000 3.474552 -1.604520
v 0.353553 3.394058 -1.604520
v -0.660471 3.200976 -1.604520
v 0.853553 2.894059 -1.604520
v -0.859989 2.540505 -1.604520
v 0.769549 2.186952 -1.604520
v -0.847891 1.819912 -1.604520
v 0.440229 1.827543 -1.604520
v 0.895984 2.540506 -1.604520
v -0.853553 2.894058 -1.604520
v 0.660470 3.200976 -1.604520
v -0.353553 3.394058 -1.604520
v -0.841278 0.818298 -1.604520
v 0.446841 0.827192 -1.604520
v -0.841278 0.235495 -1.604520
v 0.446841 0.244390 -1.604520
v 1.015206 0.818471 -1.604520
v 1.023330 0.253111 -1.604520
v 0.000000 3.474552 -0.304087
v 0.353553 3.394058 -0.304087
v -0.660471 3.200976 -0.304087
v 0.853553 2.894059 -0.304087
v -0.859989 2.540505 -0.304087
v 0.769549 2.186952 -0.304087
v -0.847891 1.819912 -0.304087
v 0.440229 1.827543 -0.304087
v 0.895984 2.540506 -0.304087
v -0.853553 2.894058 -0.304087
v 0.660470 3.200977 -0.304087
v -0.353553 3.394058 -0.304087
v -0.841278 0.818298 -0.304087
v 0.446841 0.827192 -0.304087
v -0.841278 0.235495 -0.304087
v 0.446841 0.244390 -0.304087
v 1.015206 0.818471 -0.304087
v 1.023330 0.253111 -0.304087
v -0.917948 2.667565 -0.000000
v -0.853554 2.314012 -0.000000
v -0.776390 3.316653 -0.000000
v -0.353554 1.814012 -0.000000
v 0.353553 1.814012 -0.000000
v 0.776390 3.316653 -0.000000
v 0.853553 2.314011 -0.000000
v 0.917948 2.667565 -0.000000
v 0.853553 3.021118 -0.000000
v 0.649087 2.018477 -0.000000
v 0.889340 3.465824 -0.000000
v -0.000001 1.749617 -0.000000
v -0.889340 3.465824 -0.000000
v -0.649088 2.018478 -0.000000
v -0.853553 3.021119 -0.000000
v 0.889340 3.896525 -0.000000
v -0.889340 3.896525 -0.000000
v -0.917948 2.667565 -0.282419
v -0.853554 2.314012 -0.282419
v -0.776390 3.316653 -0.282419
v -0.353554 1.814012 -0.282419
v 0.353553 1.814012 -0.282419
v 0.776390 3.316653 -0.282419
v 0.853553 2.314011 -0.282419
v 0.917948 2.667565 -0.282419
v 0.853553 3.021118 -0.282419
v 0.649087 2.018477 -0.282419
v 0.889340 3.465824 -0.282419
v -0.000001 1.749617 -0.282419
v -0.889340 3.465824 -0.282419
v -0.649088 2.018478 -0.282419
v -0.853553 3.021119 -0.282419
v 0.889340 3.896525 -0.282419
v -0.889340 3.896525 -0.282419
v 0.889340 3.465824 -1.578718
v -0.889340 3.465824 -1.578718
v 0.889340 3.896525 -1.578718
v -0.889340 3.896525 -1.578718
v 0.889340 3.465824 1.352949
v -0.889340 3.465824 1.352949
v 0.889340 3.896525 1.352949
v -0.889340 3.896525 1.352949
v -1.000000 3.923677 1.383348
v -0.796845 6.330235 1.080217
v -1.000000 3.923677 -1.600875
v -0.796845 6.330235 -1.297745
v 1.000000 3.923677 1.383348
v 0.796845 6.330235 1.080217
v 1.000000 3.923677 -1.600875
v 0.796845 6.330235 -1.297745
v 0.875290 4.016863 -2.190383
v 0.643809 4.147357 -2.146912
v 0.804362 3.931266 -2.152319
v 0.597006 4.086904 -2.079643
v 0.775504 3.887977 -2.046964
v 0.597595 4.078032 -1.978197
v 0.805619 3.912352 -1.936034
v 0.645232 4.125939 -1.902001
v 0.877067 3.990115 -1.884511
v 0.712012 4.202561 -1.895688
v 0.947995 4.075712 -1.922575
v 0.758816 4.263014 -1.962957
v 0.976853 4.119002 -2.027930
v 0.758226 4.271885 -2.064404
v 0.946738 4.094626 -2.138860
v 0.710589 4.223979 -2.140600
v 0.995868 3.689207 -2.443397
v 1.269190 4.225775 -2.365963
v 1.126248 3.613497 -2.421079
v 1.588970 3.943197 -2.311054
v 0.758420 3.809824 -2.314975
v 1.117773 4.341025 -2.150973
v 1.280796 3.515599 -2.274514
v 0.667072 3.835935 -2.045622
v 1.119450 4.316388 -1.869703
v 1.288332 3.479836 -1.906122
v 1.592142 3.897299 -1.786902
v 0.767549 3.757772 -1.789833
v 1.273468 4.165506 -1.679753
v 1.137570 3.545895 -1.736319
v 1.386373 4.064851 -1.657913
v 1.009097 3.614867 -1.695597
v 1.499113 3.970404 -1.698245
v 0.878083 3.689946 -1.716654
v 1.179667 4.253795 -1.753286
v 1.226101 3.475132 -1.823662
v 1.629017 3.869226 -1.867188
v 0.695418 3.807819 -1.906392
v 1.096512 4.347892 -2.008538
v 1.627040 3.901385 -2.237396
v 0.690532 3.835776 -2.188533
v 1.176495 4.299722 -2.277144
v 1.234629 3.545996 -2.347866
v 1.494980 4.030563 -2.384452
v 0.866036 3.758119 -2.403647
v 1.381627 4.130667 -2.406383
v 1.010437 3.685783 -2.334897
v 1.305664 4.168190 -2.273092
v 1.094129 3.640323 -2.318847
v 1.513377 3.981669 -2.231562
v 0.850618 3.765189 -2.247974
v 1.199577 4.247008 -2.121709
v 1.214041 3.559826 -2.244628
v 0.784729 3.784035 -2.052301
v 1.200735 4.229062 -1.916042
v 1.220501 3.529576 -1.924677
v 1.515376 3.949123 -1.857211
v 0.857291 3.727284 -1.866682
v 1.308301 4.125444 -1.781844
v 1.100733 3.594302 -1.830612
v 1.380466 4.061967 -1.767096
v 1.019616 3.633062 -1.803043
v 1.451791 4.001270 -1.793435
v 0.933788 3.680802 -1.816335
v 1.244135 4.184893 -1.832409
v 1.176352 3.561997 -1.895035
v 1.553266 3.922913 -1.886927
v 0.805553 3.763442 -1.950511
v 1.183905 4.252020 -2.017554
v 1.551763 3.950474 -2.207351
v 0.801927 3.783961 -2.156837
v 1.242029 4.218005 -2.212251
v 1.169712 3.596882 -2.265775
v 1.449139 4.044044 -2.284662
v 0.925216 3.729758 -2.309267
v 1.377651 4.108253 -2.299352
v -0.403544 5.385147 -1.490685
v -0.346344 5.835600 -1.428322
v -0.417099 5.509004 -1.842408
v -0.354869 5.911825 -1.645527
v 0.222673 5.406179 -1.424441
v 0.075572 5.846655 -1.360791
v 0.210918 5.552658 -1.843553
v 0.067897 5.945947 -1.645358
v -0.253411 4.664410 -1.669617
v -0.267101 4.803878 -2.086564
v 0.370803 4.748208 -1.591268
v 0.356261 4.912925 -2.076217
v 0.477294 3.893641 -1.837607
v 0.489075 4.053545 -2.318488
v 0.855781 4.298017 -1.730368
v 0.867791 4.458498 -2.212137
v -0.549281 5.426614 -1.633478
v -0.392260 5.670452 -1.431535
v -0.392428 5.882387 -1.497294
v -0.403874 5.776130 -1.732347
v -0.107406 5.562953 -1.934011
v -0.148885 5.960361 -1.664567
v 0.147404 5.815622 -1.733805
v 0.358669 5.488245 -1.634320
v 0.110834 5.922464 -1.496133
v 0.157677 5.686479 -1.364202
v -0.090785 5.376046 -1.400053
v -0.141418 5.866743 -1.395533
v -0.398895 4.698840 -1.848059
v 0.040096 4.894153 -2.187232
v 0.506540 4.853502 -1.831077
v 0.059382 4.683043 -1.557672
v -0.381975 5.029455 -1.580882
v 0.289321 5.066591 -1.512680
v 0.276482 5.223153 -1.963278
v -0.396527 5.163306 -1.964902
v 0.477614 3.942468 -2.081172
v 0.707669 4.277966 -2.303793
v 0.925716 4.424477 -1.954103
v 0.694067 4.088913 -1.732973
v 0.079322 4.284422 -2.235399
v 0.076645 4.167598 -1.688971
v 0.530793 4.618178 -1.625266
v 0.532384 4.737275 -2.172518
v 0.636877 4.759843 -1.886591
v 0.318651 4.526554 -2.313193
v 0.315546 4.361829 -1.549565
v 0.763824 4.196927 -2.004178
v 0.439463 5.155168 -1.738171
v -0.543240 5.073017 -1.740372
v -0.064894 5.229517 -2.064945
v -0.000670 4.128066 -1.976382
v -0.150025 5.951632 -1.482064
v -0.046377 5.025519 -1.479038
v -0.119394 5.669935 -1.359440
v 0.263660 5.762088 -1.548046
v -0.132612 5.824963 -1.802527
v -0.505678 5.709532 -1.547482
v 0.875290 4.016863 1.984239
v 0.643809 4.147357 1.940768
v 0.804362 3.931266 1.946175
v 0.597006 4.086904 1.873499
v 0.775504 3.887977 1.840819
v 0.597596 4.078032 1.772053
v 0.805619 3.912352 1.729890
v 0.645233 4.125939 1.695856
v 0.877067 3.990115 1.678367
v 0.712013 4.202561 1.689544
v 0.947995 4.075712 1.716431
v 0.758816 4.263014 1.756813
v 0.976853 4.119001 1.821787
v 0.758226 4.271885 1.858259
v 0.946738 4.094626 1.932716
v 0.710590 4.223979 1.934456
v 0.995868 3.689207 2.237253
v 1.269190 4.225774 2.159818
v 1.126249 3.613496 2.214935
v 1.588970 3.943197 2.104911
v 0.758420 3.809824 2.108830
v 1.117773 4.341024 1.944829
v 1.280796 3.515599 2.068370
v 0.667073 3.835935 1.839478
v 1.119450 4.316387 1.663559
v 1.288332 3.479836 1.699978
v 1.592142 3.897298 1.580758
v 0.767549 3.757771 1.583689
v 1.273468 4.165506 1.473609
v 1.137570 3.545895 1.530175
v 1.386374 4.064850 1.451769
v 1.009097 3.614867 1.489453
v 1.499113 3.970403 1.492101
v 0.878083 3.689946 1.510509
v 1.179667 4.253795 1.547142
v 1.226101 3.475132 1.617518
v 1.629017 3.869226 1.661044
v 0.695418 3.807819 1.700248
v 1.096512 4.347892 1.802394
v 1.627040 3.901385 2.031251
v 0.690532 3.835776 1.982389
v 1.176495 4.299722 2.071000
v 1.234629 3.545996 2.141722
v 1.494981 4.030563 2.178308
v 0.866037 3.758119 2.197503
v 1.381627 4.130667 2.200239
v 1.010437 3.685783 2.128752
v 1.305664 4.168190 2.066948
v 1.094129 3.640323 2.112703
v 1.513377 3.981669 2.025417
v 0.850619 3.765188 2.041830
v 1.199577 4.247007 1.915565
v 1.214041 3.559826 2.038484
v 0.784729 3.784035 1.846156
v 1.200735 4.229061 1.709898
v 1.220501 3.529577 1.718533
v 1.515376 3.949123 1.651067
v 0.857291 3.727284 1.660538
v 1.308302 4.125443 1.575700
v 1.100733 3.594302 1.624468
v 1.380466 4.061966 1.560952
v 1.019616 3.633061 1.596898
v 1.451791 4.001269 1.587291
v 0.933788 3.680802 1.610191
v 1.244135 4.184893 1.626264
v 1.176352 3.561997 1.688891
v 1.553266 3.922912 1.680782
v 0.805553 3.763442 1.744367
v 1.183905 4.252020 1.811410
v 1.551763 3.950474 2.001207
v 0.801927 3.783961 1.950692
v 1.242029 4.218005 2.006107
v 1.169712 3.596881 2.059631
v 1.449139 4.044044 2.078518
v 0.925217 3.729759 2.103122
v 1.377652 4.108253 2.093209
v -0.403544 5.385147 1.284541
v -0.346344 5.835600 1.222178
v -0.417099 5.509004 1.636264
v -0.354868 5.911824 1.439383
v 0.222674 5.406178 1.218297
v 0.075573 5.846655 1.154646
v 0.210918 5.552657 1.637408
v 0.067897 5.945947 1.439214
v -0.253411 4.664410 1.463473
v -0.267101 4.803877 1.880418
v 0.370804 4.748208 1.385124
v 0.356261 4.912924 1.870072
v 0.477295 3.893642 1.631463
v 0.489076 4.053545 2.112344
v 0.855781 4.298017 1.524224
v 0.867791 4.458497 2.005993
v -0.549281 5.426614 1.427334
v -0.392259 5.670451 1.225391
v -0.392427 5.882387 1.291149
v -0.403874 5.776130 1.526203
v -0.107406 5.562953 1.727867
v -0.148885 5.960360 1.458423
v 0.147405 5.815622 1.527660
v 0.358670 5.488245 1.428175
v 0.110834 5.922463 1.289989
v 0.157677 5.686479 1.158058
v -0.090785 5.376046 1.193909
v -0.141418 5.866742 1.189389
v -0.398894 4.698839 1.641915
v 0.040097 4.894153 1.981088
v 0.506540 4.853501 1.624933
v 0.059382 4.683043 1.351528
v -0.381974 5.029454 1.374738
v 0.289321 5.066591 1.306536
v 0.276483 5.223152 1.757134
v -0.396526 5.163305 1.758758
v 0.477615 3.942467 1.875028
v 0.707670 4.277966 2.097648
v 0.925716 4.424477 1.747959
v 0.694067 4.088914 1.526828
v 0.079323 4.284421 2.029255
v 0.076645 4.167597 1.482827
v 0.530793 4.618177 1.419122
v 0.532384 4.737274 1.966373
v 0.636877 4.759843 1.680446
v 0.318651 4.526553 2.107049
v 0.315546 4.361829 1.343421
v 0.763825 4.196926 1.798034
v 0.439463 5.155168 1.532027
v -0.543239 5.073016 1.534228
v -0.064894 5.229516 1.858801
v -0.000670 4.128065 1.770238
v -0.150024 5.951631 1.275918
v -0.046376 5.025518 1.272894
v -0.119393 5.669934 1.153296
v 0.263660 5.762088 1.341900
v -0.132611 5.824962 1.596382
v -0.505678 5.709532 1.341336
vn -0.9965 0.0841 -0.0000
vn -0.0000 0.1250 -0.9922
vn 0.9965 0.0841 -0.0000
vn -0.0000 0.1250 0.9922
vn -0.0000 -1.0000 -0.0000
vn -0.0000 1.0000 -0.0000
vn 0.4998 -0.0000 0.8661
vn 0.4998 -0.0000 -0.8661
vn -0.2590 -0.0000 0.9659
vn -0.4998 -0.0000 0.8661
vn 0.2590 -0.0000 -0.9659
vn 0.2590 -0.0000 0.9659
vn -0.2590 -0.0000 -0.9659
vn -0.8661 -0.0000 0.4998
vn 0.8661 -0.0000 -0.4998
vn 0.8661 -0.0000 0.4998
vn -0.8661 -0.0000 -0.4998
vn -0.9659 -0.0000 -0.2590
vn 0.9659 -0.0000 0.2590
vn 0.9659 -0.0000 -0.2590
vn -0.9659 -0.0000 0.2590
vn -0.4998 -0.0000 -0.8661
vn -0.4235 0.8988 0.1136
vn -0.2191 0.8988 -0.3797
vn 0.2191 0.8988 0.3797
vn 0.2191 0.8988 -0.3797
vn -0.1136 0.8988 0.4235
vn -0.2191 0.8988 0.3797
vn 0.1136 0.8988 -0.4235
vn 0.1136 0.8988 0.4235
vn -0.1136 0.8988 -0.4235
vn -0.3797 0.8988 0.2191
vn 0.3797 0.8988 -0.2191
vn 0.3797 0.8988 0.2191
vn -0.3797 0.8988 -0.2191
vn -0.4235 0.8988 -0.1136
vn 0.4235 0.8988 0.1136
vn 0.4235 0.8988 -0.1136
vn 0.1967 -0.6504 -0.7337
vn 0.1967 -0.6504 0.7337
vn -0.1967 -0.6504 -0.7337
vn -0.6579 -0.6504 0.3797
vn 0.6579 -0.6504 -0.3797
vn 0.6579 -0.6504 0.3797
vn -0.6579 -0.6504 -0.3797
vn -0.7337 -0.6504 -0.1967
vn 0.7337 -0.6504 0.1967
vn 0.7337 -0.6504 -0.1967
vn -0.7337 -0.6504 0.1967
vn -0.3797 -0.6504 -0.6579
vn 0.3797 -0.6504 0.6579
vn 0.3797 -0.6504 -0.6579
vn -0.1967 -0.6504 0.7337
vn -0.3797 -0.6504 0.6579
vn -0.1727 -0.9839 0.0463
vn -0.0893 -0.9839 -0.1548
vn 0.0893 -0.9839 0.1548
vn 0.0893 -0.9839 -0.1548
vn -0.0463 -0.9839 0.1727
vn -0.0893 -0.9839 0.1548
vn 0.0463 -0.9839 -0.1727
vn 0.0463 -0.9839 0.1727
vn -0.0463 -0.9839 -0.1727
vn -0.1548 -0.9839 0.0893
vn 0.1548 -0.9839 -0.0893
vn 0.1548 -0.9839 0.0894
vn -0.1548 -0.9839 -0.0894
vn -0.1727 -0.9839 -0.0463
vn 0.1727 -0.9839 0.0463
vn 0.1727 -0.9839 -0.0463
vn -0.0000 -0.0000 -1.0000
vn -0.0000 -0.0000 1.0000
vn 0.8464 -0.5325 -0.0000
vn -0.0153 -0.9999 -0.0000
vn -0.5325 -0.8464 -0.0000
vn -0.9416 0.3367 -0.0000
vn -0.0151 0.9999 -0.0000
vn -0.9999 -0.0144 -0.0000
vn 1.0000 0.0066 -0.0000
vn 0.9999 0.0168 -0.0000
vn -1.0000 -0.0066 -0.0000
vn -0.7373 0.6756 -0.0000
vn -0.2220 -0.9750 -0.0000
vn -0.0069 1.0000 -0.0000
vn 0.9998 -0.0182 -0.0000
vn 0.2220 -0.9750 -0.0000
vn 1.0000 -0.0000 -0.0000
vn -0.9929 -0.1192 -0.0000
vn -0.8464 -0.5325 -0.0000
vn 0.5325 -0.8464 -0.0000
vn -0.8464 0.5325 -0.0000
vn 0.0153 0.9999 -0.0000
vn 0.5325 0.8464 -0.0000
vn 0.9416 -0.3367 -0.0000
vn 0.0151 -0.9999 -0.0000
vn 0.9999 0.0144 -0.0000
vn -0.9999 -0.0168 -0.0000
vn 0.7373 -0.6756 -0.0000
vn 0.2220 0.9750 -0.0000
vn 0.0069 -1.0000 -0.0000
vn -0.9998 0.0182 -0.0000
vn -0.2220 0.9750 -0.0000
vn -1.0000 -0.0000 -0.0000
vn 0.9929 0.1192 -0.0000
vn 0.8464 0.5325 -0.0000
vn -0.5325 0.8464 -0.0000
vn -0.9838 -0.1792 -0.0000
vn 0.9838 0.1792 -0.0000
vn -0.9838 0.1792 -0.0000
vn 0.9838 -0.1792 -0.0000
vn -0.7972 0.6037 -0.0000
vn 0.5690 0.8224 -0.0000
vn -0.5690 0.8224 -0.0000
vn 0.7972 0.6037 -0.0000
vn 0.1792 0.9838 -0.0000
vn -0.1792 0.9838 -0.0000
vn 0.9676 -0.2526 -0.0000
vn -0.8224 0.5690 -0.0000
vn 0.8224 0.5690 -0.0000
vn -0.9676 -0.2526 -0.0000
vn -0.5640 -0.8229 -0.0687
vn -0.2309 -0.2292 -0.9456
vn 0.6285 0.7063 -0.3258
vn 0.2814 0.1855 0.9415
vn 0.0931 -0.1621 0.9824
vn 0.7387 0.6718 0.0545
vn 0.0816 0.0110 -0.9966
vn -0.5781 -0.7499 0.3217
vn 0.2707 0.3464 -0.8982
vn 0.6330 0.6396 0.4362
vn 0.5520 0.3917 0.7361
vn 0.5439 0.5141 -0.6633
vn -0.3773 -0.5428 -0.7503
vn -0.3692 -0.6652 0.6490
vn -0.5825 -0.6833 -0.4403
vn -0.2202 -0.3900 0.8941
vn 0.4084 -0.2849 -0.8672
vn -0.1376 0.0376 0.9898
vn -0.7557 0.6429 -0.1248
vn -0.1732 0.2266 -0.9585
vn -0.7464 0.6063 0.2744
vn 0.1794 -0.2305 0.9564
vn 0.6237 -0.5008 -0.6001
vn 0.4278 -0.4397 0.7898
vn -0.6345 0.4857 0.6012
vn -0.4388 0.4351 -0.7862
vn -0.6552 0.5892 -0.4727
vn -0.4079 0.2747 0.8707
vn 0.6518 -0.6050 0.4574
vn 0.1442 -0.0431 -0.9886
vn -0.4255 0.3019 0.8531
vn 0.1576 -0.0499 -0.9862
vn 0.7504 -0.6493 0.1239
vn 0.1710 -0.2274 0.9587
vn 0.7452 -0.6131 -0.2622
vn -0.1615 0.2270 -0.9604
vn -0.2961 0.1810 0.9379
vn -0.4231 0.4475 -0.7878
vn 0.6370 -0.4942 -0.5916
vn 0.4365 -0.4393 0.7852
vn 0.6514 -0.5951 0.4706
vn 0.4170 -0.2842 -0.8633
vn -0.3781 0.4000 -0.8349
vn -0.1590 0.0553 0.9857
vn -0.4345 -0.9007 -0.0021
vn 0.6708 0.7391 -0.0612
vn 0.2276 -0.2856 0.9309
vn 0.6296 0.7540 0.1874
vn -0.4331 -0.8869 -0.1607
vn 0.5903 0.7867 0.1806
vn -0.5272 -0.8478 0.0568
vn 0.7032 0.7096 -0.0450
vn -0.5070 -0.8610 0.0409
vn -0.4542 -0.8700 -0.1918
vn 0.6982 0.6981 0.1587
vn 0.6066 0.7938 -0.0442
vn -0.4629 -0.8861 0.0240
vn 0.1998 -0.0772 -0.9768
vn -0.4841 -0.8407 -0.2425
vn -0.6347 -0.7724 -0.0231
vn 0.7401 0.6718 0.0302
vn 0.7397 0.6683 0.0791
vn -0.4172 -0.8994 -0.1304
vn -0.4133 -0.9099 -0.0351
vn -0.4688 -0.7881 -0.3988
vn 0.5646 0.8253 -0.0081
vn 0.7245 0.6783 0.1224
vn 0.7294 0.6840 -0.0095
vn -0.4058 -0.9116 -0.0656
vn -0.4063 -0.9082 -0.1006
vn 0.5819 0.7988 0.1527
vn 0.6353 0.7703 -0.0547
vn 0.6670 0.7239 0.1764
vn -0.7411 -0.6253 -0.2445
vn -0.7843 0.5787 -0.2234
vn 0.2045 0.6320 -0.7475
vn 0.7342 0.3641 0.5730
vn -0.2550 0.0521 0.9655
vn -0.3053 -0.3017 0.9032
vn -0.2155 0.6863 0.6947
vn -0.4034 -0.7229 -0.5610
vn 0.2681 0.4030 -0.8750
vn -0.8015 -0.1420 -0.5808
vn 0.8627 0.0365 0.5044
vn 0.7906 -0.6110 -0.0400
vn 0.0468 -0.5116 0.8579
vn 0.2469 0.3522 -0.9028
vn 0.7021 0.5032 0.5039
vn 0.5947 0.7548 -0.2769
vn 0.6321 0.7469 -0.2064
vn 0.6287 0.5477 0.5521
vn -0.2387 -0.0752 -0.9682
vn -0.3252 0.0537 -0.9441
vn 0.2638 0.4855 -0.8335
vn 0.1721 -0.1452 0.9743
vn 0.2591 0.0669 0.9635
vn -0.3337 -0.2432 0.9108
vn 0.6991 -0.7012 -0.1397
vn 0.6786 -0.6773 -0.2842
vn 0.7843 -0.5460 -0.2947
vn 0.8008 0.3757 -0.4663
vn 0.8153 0.3341 -0.4729
vn 0.8274 0.0258 0.5610
vn -0.7483 -0.3934 0.5342
vn -0.7155 -0.2122 0.6656
vn -0.8536 0.1373 -0.5025
vn -0.3192 0.1987 -0.9266
vn -0.3182 0.2997 -0.8994
vn 0.2641 0.3815 -0.8858
vn -0.4834 -0.8402 0.2456
vn -0.7927 -0.5378 0.2872
vn -0.7285 -0.3801 -0.5699
vn 0.0024 0.8722 0.4892
vn 0.1168 0.9857 0.1215
vn -0.2252 0.9733 0.0451
vn 0.1466 -0.2015 0.9684
vn 0.1245 -0.2266 0.9660
vn -0.2842 -0.2449 0.9270
vn -0.2785 -0.1844 0.9426
vn 0.0942 -0.1883 0.9776
vn 0.0179 -0.0121 0.9998
vn 0.8157 0.1037 0.5691
vn 0.7986 0.4145 -0.4363
vn 0.6711 0.7093 -0.2156
vn 0.2602 0.4247 -0.8671
vn -0.3224 0.3742 -0.8695
vn -0.3002 0.5886 -0.7506
vn -0.8586 0.2656 -0.4385
vn -0.7109 -0.1020 0.6959
vn -0.6584 0.2226 0.7190
vn 0.5640 0.8229 -0.0687
vn 0.2309 0.2292 -0.9456
vn -0.6285 -0.7062 -0.3258
vn -0.2814 -0.1855 0.9415
vn -0.0931 0.1621 0.9824
vn -0.7387 -0.6718 0.0545
vn -0.0816 -0.0110 -0.9966
vn 0.5781 0.7499 0.3217
vn -0.2707 -0.3464 -0.8982
vn -0.6330 -0.6396 0.4362
vn -0.5520 -0.3917 0.7361
vn -0.5439 -0.5141 -0.6632
vn 0.3773 0.5428 -0.7503
vn 0.3692 0.6652 0.6490
vn 0.5825 0.6833 -0.4403
vn 0.2202 0.3900 0.8941
vn -0.4084 0.2849 -0.8672
vn 0.1376 -0.0376 0.9898
vn 0.7557 -0.6429 -0.1248
vn 0.1732 -0.2266 -0.9585
vn 0.7464 -0.6063 0.2744
vn -0.1794 0.2305 0.9564
vn -0.6237 0.5008 -0.6001
vn -0.4278 0.4397 0.7898
vn 0.6345 -0.4857 0.6012
vn 0.4388 -0.4351 -0.7862
vn 0.6552 -0.5892 -0.4727
vn 0.4079 -0.2747 0.8707
vn -0.6518 0.6050 0.4574
vn -0.1442 0.0431 -0.9886
vn 0.4255 -0.3019 0.8531
vn -0.1576 0.0500 -0.9862
vn -0.7504 0.6493 0.1239
vn -0.1710 0.2274 0.9587
vn -0.7452 0.6131 -0.2622
vn 0.1615 -0.2270 -0.9604
vn 0.2961 -0.1810 0.9379
vn 0.4231 -0.4475 -0.7878
vn -0.6370 0.4942 -0.5916
vn -0.4365 0.4393 0.7852
vn -0.6514 0.5951 0.4706
vn -0.4170 0.2842 -0.8633
vn 0.3781 -0.4000 -0.8349
vn 0.1590 -0.0553 0.9857
vn 0.4345 0.9007 -0.0021
vn -0.6708 -0.7391 -0.0612
vn -0.2276 0.2856 0.9309
vn -0.6296 -0.7540 0.1874
vn 0.4331 0.8869 -0.1607
vn -0.5903 -0.7867 0.1806
vn 0.5272 0.8478 0.0568
vn -0.7032 -0.7096 -0.0450
vn 0.5070 0.8610 0.0409
vn 0.4542 0.8700 -0.1918
vn -0.6982 -0.6981 0.1587
vn -0.6066 -0.7938 -0.0442
vn 0.4629 0.8861 0.0240
vn -0.1998 0.0772 -0.9768
vn 0.4841 0.8407 -0.2425
vn 0.6347 0.7724 -0.0231
vn -0.7401 -0.6718 0.0302
vn -0.7397 -0.6683 0.0791
vn 0.4172 0.8994 -0.1304
vn 0.4133 0.9099 -0.0351
vn 0.4689 0.7881 -0.3988
vn -0.5646 -0.8253 -0.0081
vn -0.7245 -0.6783 0.1224
vn -0.7294 -0.6840 -0.0095
vn 0.4058 0.9116 -0.0656
vn 0.4063 0.9082 -0.1006
vn -0.5819 -0.7988 0.1527
vn -0.6353 -0.7703 -0.0547
vn -0.6670 -0.7239 0.1764
vn 0.7411 0.6253 -0.2445
vn 0.7843 -0.5787 -0.2234
vn -0.2045 -0.6320 -0.7475
vn -0.7342 -0.3641 0.5730
vn 0.2550 -0.0521 0.9655
vn 0.3053 0.3017 0.9032
vn 0.2154 -0.6863 0.6947
vn 0.4034 0.7229 -0.5610
vn -0.2681 -0.4030 -0.8750
vn 0.8015 0.1420 -0.5808
vn -0.8627 -0.0365 0.5043
vn -0.7906 0.6110 -0.0400
vn -0.0468 0.5117 0.8579
vn -0.2469 -0.3522 -0.9028
vn -0.7021 -0.5032 0.5039
vn -0.5947 -0.7548 -0.2769
vn -0.6321 -0.7469 -0.2064
vn -0.6287 -0.5477 0.5521
vn 0.2387 0.0752 -0.9682
vn 0.3252 -0.0537 -0.9441
vn -0.2638 -0.4855 -0.8335
vn -0.1721 0.1452 0.9743
vn -0.2591 -0.0669 0.9635
vn 0.3337 0.2432 0.9108
vn -0.6991 0.7012 -0.1397
vn -0.6786 0.6773 -0.2842
vn -0.7843 0.5460 -0.2947
vn -0.8008 -0.3757 -0.4664
vn -0.8153 -0.3341 -0.4729
vn -0.8274 -0.0258 0.5610
vn 0.7483 0.3934 0.5342
vn 0.7155 0.2122 0.6656
vn 0.8536 -0.1373 -0.5025
vn 0.3192 -0.1987 -0.9266
vn 0.3182 -0.2997 -0.8994
vn -0.2641 -0.3815 -0.8858
vn 0.4834 0.8402 0.2456
vn 0.7927 0.5378 0.2872
vn 0.7285 0.3801 -0.5699
vn -0.0024 -0.8722 0.4892
vn -0.1168 -0.9857 0.1215
vn 0.2252 -0.9733 0.0452
vn -0.1466 0.2015 0.9684
vn -0.1245 0.2266 0.9660
vn 0.2842 0.2449 0.9270
vn 0.2785 0.1844 0.9426
vn -0.0942 0.1883 0.9776
vn -0.0179 0.0121 0.9998
vn -0.8157 -0.1037 0.5691
vn -0.7986 -0.4145 -0.4363
vn -0.6711 -0.7093 -0.2156
vn -0.2602 -0.4247 -0.8671
vn 0.3224 -0.3742 -0.8695
vn 0.3002 -0.5887 -0.7506
vn 0.8586 -0.2656 -0.4385
vn 0.7109 0.1020 0.6959
vn 0.6584 -0.2226 0.7190
vn -0.1548 -0.9839 0.0894
vn 0.1548 -0.9839 -0.0894
vn 0.1548 -0.9839 0.0893
vn -0.1548 -0.9839 -0.0893
vn 0.4104 -0.2859 -0.8659
vn -0.1515 0.0443 0.9875
vn -0.7505 0.6452 -0.1431
vn -0.1597 0.2202 -0.9623
vn -0.7505 0.6069 0.2617
vn 0.1587 -0.2215 0.9622
vn 0.6210 -0.4992 -0.6043
vn 0.4218 -0.4308 0.7978
vn -0.6400 0.4880 0.5935
vn -0.4228 0.4288 -0.7983
vn -0.6433 0.5870 -0.4915
vn -0.4161 0.2788 0.8655
vn 0.6275 -0.5988 0.4976
vn 0.1503 -0.0462 -0.9876
vn -0.4193 0.2982 0.8575
vn 0.1335 -0.0357 -0.9904
vn 0.7454 -0.6510 0.1435
vn 0.1643 -0.2236 0.9607
vn 0.7414 -0.6119 -0.2755
vn -0.2025 0.2497 -0.9469
vn -0.3732 0.2370 0.8970
vn -0.4533 0.4607 -0.7631
vn 0.6308 -0.4908 -0.6010
vn 0.4228 -0.4326 0.7963
vn 0.6401 -0.5919 0.4897
vn 0.4050 -0.2771 -0.8713
vn -0.3192 0.3650 -0.8746
vn -0.1552 0.0529 0.9865
vn -0.4301 -0.9028 -0.0016
vn 0.6658 0.7440 -0.0557
vn 0.1999 -0.2700 0.9419
vn 0.6364 0.7499 0.1807
vn -0.4374 -0.8850 -0.1596
vn 0.6078 0.7746 0.1746
vn -0.5604 -0.8254 0.0685
vn 0.6970 0.7157 -0.0430
vn -0.4871 -0.8701 0.0753
vn -0.4668 -0.8655 -0.1815
vn 0.7045 0.6916 0.1594
vn 0.5886 0.8070 -0.0478
vn -0.4506 -0.8921 0.0323
vn 0.2069 -0.0815 -0.9750
vn -0.5107 -0.8380 -0.1919
vn -0.5518 -0.8340 0.0017
vn 0.7394 0.6726 0.0295
vn 0.7404 0.6676 0.0783
vn -0.4149 -0.9005 -0.1299
vn -0.4151 -0.9091 -0.0345
vn -0.6898 -0.6526 -0.3135
vn 0.5812 0.8136 -0.0175
vn 0.7302 0.6726 0.1197
vn 0.7237 0.6900 -0.0112
vn -0.4053 -0.9118 -0.0660
vn -0.4063 -0.9082 -0.1007
vn 0.5666 0.8109 0.1464
vn 0.6281 0.7757 -0.0607
vn 0.6723 0.7178 0.1811
vn -0.5317 -0.8197 -0.2131
vn -0.8975 0.4167 -0.1447
vn 0.1087 0.7159 -0.6897
vn 0.7084 0.5209 0.4763
vn -0.1794 0.1580 0.9710
vn -0.2787 -0.3184 0.9061
vn -0.2460 0.7178 0.6513
vn -0.5111 -0.7687 -0.3845
vn 0.2840 0.3917 -0.8752
vn -0.8434 -0.1270 -0.5220
vn 0.8178 0.0683 0.5714
vn 0.8198 -0.5689 -0.0653
vn -0.0548 -0.5369 0.8419
vn 0.1628 0.3281 -0.9305
vn 0.6713 0.5025 0.5449
vn 0.7471 0.6597 -0.0807
vn 0.4942 0.8337 -0.2464
vn 0.5845 0.5675 0.5800
vn 0.0406 0.0258 -0.9988
vn -0.3549 0.0509 -0.9335
vn 0.0505 0.5186 -0.8535
vn 0.3977 -0.0636 0.9153
vn 0.0872 0.0946 0.9917
vn -0.3138 -0.2442 0.9175
vn 0.6771 -0.7268 -0.1153
vn 0.6918 -0.6538 -0.3065
vn 0.8139 -0.5236 -0.2517
vn 0.8400 0.3214 -0.4371
vn 0.8066 0.3452 -0.4797
vn 0.8352 0.0211 0.5495
vn -0.6903 -0.4331 0.5796
vn -0.7140 -0.2137 0.6667
vn -0.8599 0.1242 -0.4951
vn -0.3611 0.2176 -0.9068
vn -0.3306 0.3081 -0.8920
vn 0.2709 0.3759 -0.8862
vn -0.3901 -0.9027 -0.1815
vn -0.6838 -0.5774 0.4461
vn -0.7879 -0.3885 -0.4778
vn 0.1171 0.7147 0.6895
vn 0.0620 0.9969 0.0481
vn -0.2796 0.9528 0.1184
vn 0.1205 -0.1866 0.9750
vn 0.0957 -0.2073 0.9736
vn -0.2761 -0.2519 0.9275
vn -0.2526 -0.1565 0.9548
vn 0.0251 -0.1345 0.9906
vn -0.1412 0.1633 0.9764
vn 0.8479 0.0841 0.5234
vn 0.8311 0.3729 -0.4126
vn 0.8008 0.5827 -0.1387
vn 0.2266 0.4542 -0.8616
vn -0.2967 0.4054 -0.8647
vn -0.2250 0.6820 -0.6959
vn -0.8862 0.2133 -0.4112
vn -0.7289 -0.1112 0.6755
vn -0.7488 0.1959 0.6332
vn -0.4104 0.2859 -0.8659
vn 0.1515 -0.0443 0.9875
vn 0.7505 -0.6452 -0.1431
vn 0.1597 -0.2202 -0.9623
vn 0.7505 -0.6069 0.2617
vn -0.1587 0.2215 0.9622
vn -0.6210 0.4992 -0.6043
vn -0.4218 0.4308 0.7978
vn 0.6400 -0.4880 0.5934
vn 0.4228 -0.4288 -0.7983
vn 0.6433 -0.5870 -0.4915
vn 0.4161 -0.2788 0.8655
vn -0.6275 0.5988 0.4976
vn -0.1503 0.0462 -0.9876
vn 0.4193 -0.2982 0.8575
vn -0.1336 0.0357 -0.9904
vn -0.7454 0.6510 0.1435
vn -0.1643 0.2236 0.9607
vn -0.7414 0.6119 -0.2755
vn 0.2025 -0.2497 -0.9469
vn 0.3731 -0.2370 0.8970
vn 0.4533 -0.4607 -0.7631
vn -0.6308 0.4908 -0.6010
vn -0.4228 0.4326 0.7963
vn -0.6401 0.5919 0.4897
vn -0.4050 0.2771 -0.8713
vn 0.3192 -0.3650 -0.8746
vn 0.1552 -0.0529 0.9865
vn 0.4301 0.9028 -0.0016
vn -0.6658 -0.7440 -0.0557
vn -0.1999 0.2700 0.9419
vn -0.6364 -0.7499 0.1807
vn 0.4374 0.8850 -0.1596
vn -0.6078 -0.7746 0.1746
vn 0.5604 0.8254 0.0685
vn -0.6970 -0.7157 -0.0430
vn 0.4871 0.8701 0.0753
vn 0.4668 0.8655 -0.1815
vn -0.7045 -0.6916 0.1594
vn -0.5886 -0.8070 -0.0478
vn 0.4506 0.8921 0.0324
vn -0.2069 0.0815 -0.9750
vn 0.5107 0.8380 -0.1919
vn 0.5518 0.8340 0.0017
vn -0.7394 -0.6726 0.0295
vn -0.7404 -0.6676 0.0783
vn 0.4149 0.9005 -0.1299
vn 0.4151 0.9091 -0.0345
vn 0.6898 0.6526 -0.3135
vn -0.5812 -0.8136 -0.0175
vn -0.7302 -0.6726 0.1197
vn -0.7237 -0.6900 -0.0112
vn 0.4053 0.9118 -0.0660
vn 0.4063 0.9082 -0.1007
vn -0.5666 -0.8109 0.1464
vn -0.6281 -0.7757 -0.0607
vn -0.6723 -0.7178 0.1811
vn 0.5317 0.8197 -0.2131
vn 0.8975 -0.4167 -0.1447
vn -0.1087 -0.7159 -0.6897
vn -0.7084 -0.5209 0.4763
vn 0.1794 -0.1580 0.9710
vn 0.2787 0.3184 0.9061
vn 0.2460 -0.7178 0.6513
vn 0.5111 0.7687 -0.3845
vn -0.2841 -0.3917 -0.8752
vn 0.8434 0.1270 -0.5220
vn -0.8178 -0.0683 0.5714
vn -0.8198 0.5689 -0.0653
vn 0.0548 0.5369 0.8419
vn -0.1628 -0.3281 -0.9305
vn -0.6713 -0.5025 0.5449
vn -0.7471 -0.6597 -0.0807
vn -0.4942 -0.8337 -0.2464
vn -0.5845 -0.5675 0.5800
vn -0.0406 -0.0258 -0.9988
vn 0.3549 -0.0509 -0.9335
vn -0.0505 -0.5186 -0.8535
vn -0.3977 0.0636 0.9153
vn -0.0872 -0.0946 0.9917
vn 0.3138 0.2442 0.9175
vn -0.6771 0.7268 -0.1153
vn -0.6918 0.6538 -0.3065
vn -0.8139 0.5236 -0.2517
vn -0.8400 -0.3214 -0.4371
vn -0.8066 -0.3452 -0.4797
vn -0.8352 -0.0211 0.5495
vn 0.6903 0.4331 0.5796
vn 0.7140 0.2137 0.6667
vn 0.8599 -0.1242 -0.4951
vn 0.3611 -0.2176 -0.9068
vn 0.3306 -0.3081 -0.8920
vn -0.2709 -0.3759 -0.8862
vn 0.3901 0.9027 -0.1815
vn 0.6838 0.5774 0.4461
vn 0.7879 0.3885 -0.4778
vn -0.1171 -0.7147 0.6895
vn -0.0620 -0.9969 0.0481
vn 0.2796 -0.9528 0.1184
vn -0.1205 0.1866 0.9750
vn -0.0957 0.2073 0.9736
vn 0.2761 0.2519 0.9275
vn 0.2526 0.1565 0.9548
vn -0.0251 0.1345 0.9906
vn 0.1412 -0.1633 0.9764
vn -0.8479 -0.0841 0.5234
vn -0.8311 -0.3729 -0.4126
vn -0.8008 -0.5827 -0.1387
vn -0.2266 -0.4542 -0.8616
vn 0.2967 -0.4054 -0.8647
vn 0.2250 -0.6820 -0.6959
vn 0.8862 -0.2133 -0.4112
vn 0.7289 0.1112 0.6755
vn 0.7488 -0.1959 0.6332
vt 0.464712 0.026348
vt 0.246936 0.265427
vt 0.246936 0.000000
vt 0.310094 0.504843
vt 0.380645 0.477294
vt 0.477892 0.504843
vt 0.246936 0.027823
vt 0.038628 0.267161
vt 0.038628 0.001285
vt 0.464712 0.213941
vt 0.626930 0.000000
vt 0.645271 0.213941
vt 0.000000 0.265875
vt 0.000000 0.000000
vt 0.246936 0.477294
vt 0.380845 0.265427
vt 0.415381 0.747693
vt 0.433426 0.768080
vt 0.415577 0.768080
vt 0.437802 0.926216
vt 0.458515 0.939953
vt 0.441142 0.938466
vt 0.415381 0.702222
vt 0.433128 0.724957
vt 0.415279 0.724957
vt 0.415577 0.681834
vt 0.433229 0.702222
vt 0.462866 0.946617
vt 0.445493 0.945130
vt 0.433229 0.747693
vt 0.817080 0.849773
vt 0.796758 0.841417
vt 0.814433 0.842218
vt 0.814433 0.762749
vt 0.799405 0.742390
vt 0.817080 0.743190
vt 0.437087 0.905603
vt 0.455175 0.927703
vt 0.445493 0.840308
vt 0.458515 0.861796
vt 0.441142 0.860310
vt 0.812401 0.829164
vt 0.794290 0.807276
vt 0.811966 0.808076
vt 0.794725 0.784216
vt 0.812401 0.785016
vt 0.455175 0.884284
vt 0.437802 0.882797
vt 0.454460 0.907089
vt 0.796758 0.761949
vt 0.794725 0.828364
vt 0.793562 0.634603
vt 0.819274 0.663780
vt 0.794414 0.658024
vt 0.765324 0.597764
vt 0.740778 0.561377
vt 0.774351 0.570723
vt 0.711451 0.702876
vt 0.724731 0.742390
vt 0.691158 0.733043
vt 0.687295 0.619991
vt 0.677249 0.579473
vt 0.702445 0.603430
vt 0.755469 0.708928
vt 0.788260 0.724294
vt 0.759132 0.742390
vt 0.789480 0.680649
vt 0.774330 0.697210
vt 0.721306 0.591711
vt 0.706377 0.561377
vt 0.733192 0.708928
vt 0.743583 0.591711
vt 0.811655 0.698719
vt 0.646235 0.639987
vt 0.653854 0.605047
vt 0.665902 0.707469
vt 0.695097 0.686315
vt 0.799607 0.596298
vt 0.781678 0.614325
vt 0.817959 0.627613
vt 0.683213 0.666037
vt 0.647550 0.676154
vt 0.682361 0.642616
vt 0.649589 0.178231
vt 0.687622 0.067860
vt 0.681079 0.183904
vt 0.612611 0.562079
vt 0.579678 0.682165
vt 0.579678 0.564234
vt 0.543602 0.683135
vt 0.543602 0.565204
vt 0.722953 0.071874
vt 0.716410 0.187918
vt 0.758655 0.071874
vt 0.752112 0.187918
vt 0.508651 0.681617
vt 0.508651 0.563685
vt 0.632871 0.558062
vt 0.612611 0.680011
vt 0.762389 0.908196
vt 0.794290 0.788935
vt 0.794290 0.907897
vt 0.784319 0.185845
vt 0.809860 0.064128
vt 0.803318 0.180172
vt 0.691238 0.908196
vt 0.726813 0.789389
vt 0.726813 0.908351
vt 0.659336 0.907896
vt 0.691238 0.789234
vt 0.820075 0.057182
vt 0.813533 0.173226
vt 0.762389 0.789234
vt 0.644494 0.553497
vt 0.632871 0.675993
vt 0.477892 0.678971
vt 0.477892 0.561039
vt 0.790861 0.069801
vt 0.806161 0.040222
vt 0.726813 0.772620
vt 0.756853 0.772489
vt 0.629671 0.687699
vt 0.619857 0.691553
vt 0.488992 0.694067
vt 0.781492 0.050877
vt 0.667726 0.044448
vt 0.694317 0.049238
vt 0.602749 0.694946
vt 0.574941 0.696765
vt 0.544478 0.697584
vt 0.724150 0.052628
vt 0.754297 0.052628
vt 0.514966 0.696302
vt 0.783791 0.772236
vt 0.797535 0.046087
vt 0.669836 0.772236
vt 0.696773 0.772489
vt 0.654290 0.771798
vt 0.693125 0.763191
vt 0.696493 0.763395
vt 0.798702 0.033447
vt 0.750407 0.024088
vt 0.783706 0.026903
vt 0.652730 0.037904
vt 0.701918 0.031423
vt 0.749481 0.034111
vt 0.756188 0.032108
vt 0.726813 0.763738
vt 0.702992 0.763578
vt 0.714254 0.763683
vt 0.759794 0.029656
vt 0.692531 0.025855
vt 0.695649 0.028687
vt 0.756676 0.026824
vt 0.713035 0.033425
vt 0.757115 0.022113
vt 0.739290 0.022085
vt 0.547245 0.699519
vt 0.725508 0.034842
vt 0.738111 0.034842
vt 0.571607 0.698416
vt 0.559981 0.720181
vt 0.559981 0.699177
vt 0.547245 0.720523
vt 0.726673 0.014174
vt 0.739277 0.014174
vt 0.534907 0.719987
vt 0.534907 0.698983
vt 0.578759 0.696998
vt 0.571607 0.719420
vt 0.739372 0.763683
vt 0.750634 0.742390
vt 0.750634 0.763578
vt 0.757353 0.011440
vt 0.726813 0.742550
vt 0.714254 0.742496
vt 0.760960 0.008988
vt 0.739372 0.742496
vt 0.582862 0.695387
vt 0.578759 0.718002
vt 0.524048 0.719053
vt 0.524048 0.698049
vt 0.750646 0.013443
vt 0.714200 0.012757
vt 0.757841 0.006156
vt 0.696814 0.008019
vt 0.120239 0.693077
vt 0.127117 0.588867
vt 0.127109 0.677244
vt 0.120272 0.553343
vt 0.120247 0.604811
vt 0.117988 0.792127
vt 0.124404 0.822078
vt 0.117216 0.610730
vt 0.117197 0.560897
vt 0.298423 0.651879
vt 0.414852 0.740857
vt 0.298559 0.740996
vt 0.298986 0.792913
vt 0.414439 0.555937
vt 0.268430 0.620101
vt 0.305100 0.512269
vt 0.247255 0.742184
vt 0.246936 0.792553
vt 0.244541 0.604190
vt 0.127215 0.573831
vt 0.244614 0.573798
vt 0.632809 0.836384
vt 0.643017 0.720890
vt 0.643017 0.836750
vt 0.120633 0.830399
vt 0.001808 0.815999
vt 0.119005 0.816960
vt 0.117777 0.761404
vt 0.001270 0.727732
vt 0.118467 0.728693
vt 0.820075 0.000000
vt 0.937478 0.047556
vt 0.820077 0.047446
vt 0.000000 0.559936
vt 0.244897 0.784616
vt 0.127326 0.697601
vt 0.244725 0.697568
vt 0.127197 0.635117
vt 0.244596 0.635084
vt 0.003050 0.603850
vt 0.003042 0.692116
vt 0.122515 0.833347
vt 0.003436 0.829439
vt 0.937478 0.153918
vt 0.820077 0.153808
vt 0.127142 0.604223
vt 0.244780 0.551143
vt 0.127596 0.537431
vt 0.244995 0.537398
vt 0.244995 0.835340
vt 0.127498 0.784649
vt 0.000580 0.760443
vt 0.000791 0.791167
vt 0.127381 0.551176
vt 0.649276 0.421106
vt 0.656154 0.316896
vt 0.656146 0.405273
vt 0.649309 0.281372
vt 0.649284 0.332841
vt 0.647026 0.520157
vt 0.653441 0.550107
vt 0.646253 0.338759
vt 0.646235 0.288926
vt 0.529378 0.412463
vt 0.645807 0.501441
vt 0.529514 0.501580
vt 0.529941 0.553497
vt 0.645394 0.316521
vt 0.499385 0.380685
vt 0.536055 0.272854
vt 0.478211 0.502768
vt 0.477892 0.553137
vt 0.656130 0.500067
vt 0.772284 0.530405
vt 0.655087 0.529444
vt 0.525867 0.884095
vt 0.477892 1.000000
vt 0.477892 0.884137
vt 0.000059 0.891895
vt 0.117447 0.923660
vt 0.000045 0.923660
vt 0.890776 0.423104
vt 0.773408 0.389923
vt 0.890807 0.389923
vt 0.176844 0.951233
vt 0.188747 0.835742
vt 0.188747 0.951602
vt 0.127142 0.951318
vt 0.176844 0.835373
vt 0.773343 0.406234
vt 0.773376 0.469729
vt 0.656179 0.468768
vt 0.890971 0.352365
vt 0.773425 0.265427
vt 0.890824 0.265427
vt 0.773572 0.352365
vt 0.000048 0.859973
vt 0.117461 0.891895
vt 0.214410 0.836568
vt 0.214410 0.952428
vt 0.773327 0.501028
vt 0.000004 0.833347
vt 0.117449 0.859973
vt 0.656179 0.265427
vt 0.773351 0.317857
vt 0.890854 0.453066
vt 0.773376 0.423104
vt 0.117402 0.949745
vt 0.000000 0.949745
vt 0.770639 0.551068
vt 0.130930 0.388481
vt 0.060719 0.397592
vt 0.001531 0.391703
vt 0.164214 0.396981
vt 0.202755 0.276348
vt 0.202755 0.396684
vt 0.483704 0.833809
vt 0.619343 0.733136
vt 0.619343 0.871482
vt 0.202755 0.421803
vt 0.164214 0.537398
vt 0.164214 0.422101
vt 0.857258 0.702030
vt 0.891611 0.678011
vt 0.891611 0.703173
vt 0.123993 0.397104
vt 0.093127 0.422800
vt 0.093127 0.397681
vt 0.973235 0.561377
vt 0.947678 0.531807
vt 0.973174 0.531833
vt 0.819274 0.702091
vt 0.857258 0.676869
vt 0.060719 0.422712
vt 0.947703 0.499809
vt 0.973199 0.499835
vt 0.149514 0.421620
vt 0.149514 0.396501
vt 0.239907 0.893222
vt 0.214426 0.862026
vt 0.239923 0.862025
vt 0.031827 0.396740
vt 0.009994 0.420474
vt 0.009994 0.395355
vt 0.518766 0.264122
vt 0.533215 0.238980
vt 0.533215 0.264142
vt 0.239923 0.924615
vt 0.214410 0.893223
vt 0.239964 0.951770
vt 0.214426 0.924616
vt 0.947740 0.472617
vt 0.973235 0.472643
vt 0.031827 0.421860
vt 0.214468 0.835373
vt 0.239964 0.835373
vt 0.123993 0.422223
vt 0.437087 0.840308
vt 0.475965 0.681834
vt 0.475965 0.840308
vt 0.891611 0.562519
vt 0.936303 0.971093
vt 0.819274 0.823712
vt 0.936303 0.823820
vt 0.819275 0.676929
vt 0.857258 0.561377
vt 0.142926 0.267458
vt 0.181466 0.267161
vt 0.857258 0.822569
vt 0.369079 0.940298
vt 0.246936 0.792913
vt 0.369079 0.793025
vt 0.819274 0.822630
vt 0.521715 0.215615
vt 0.531028 0.221841
vt 0.518766 0.224181
vt 0.531028 0.232204
vt 0.537316 0.238960
vt 0.521715 0.232210
vt 0.484079 0.235661
vt 0.473912 0.235661
vt 0.476470 0.213941
vt 0.223310 0.517570
vt 0.213320 0.517366
vt 0.218108 0.494136
vt 0.208925 0.494136
vt 0.467386 0.215129
vt 0.246152 0.438753
vt 0.246152 0.454138
vt 0.244959 0.446629
vt 0.537316 0.213941
vt 0.483668 0.215129
vt 0.489258 0.238193
vt 0.464712 0.238193
vt 0.224923 0.494462
vt 0.203733 0.517570
vt 0.202755 0.494462
vt 0.808303 0.897795
vt 0.801486 0.851035
vt 0.808449 0.854332
vt 0.906963 0.532112
vt 0.920356 0.479304
vt 0.920373 0.534443
vt 0.675854 0.187918
vt 0.688433 0.238430
vt 0.675430 0.238220
vt 0.708707 0.197864
vt 0.712738 0.248657
vt 0.708601 0.243951
vt 0.662978 0.239917
vt 0.894023 0.529575
vt 0.906730 0.479755
vt 0.801176 0.892502
vt 0.794713 0.849773
vt 0.882654 0.479678
vt 0.883711 0.529487
vt 0.652759 0.243115
vt 0.663398 0.189978
vt 0.700374 0.192121
vt 0.700139 0.240346
vt 0.688785 0.188744
vt 0.931892 0.478672
vt 0.931892 0.536166
vt 0.539279 0.257561
vt 0.546788 0.214721
vt 0.546788 0.258577
vt 0.810869 0.904173
vt 0.810869 0.858267
vt 0.912829 0.235110
vt 0.920094 0.188710
vt 0.920505 0.236641
vt 0.243781 0.494136
vt 0.242078 0.445767
vt 0.243781 0.449800
vt 0.211079 0.487589
vt 0.220095 0.438753
vt 0.220502 0.487202
vt 0.928890 0.238466
vt 0.937233 0.188680
vt 0.937332 0.240435
vt 0.229789 0.487902
vt 0.229376 0.439736
vt 0.657897 0.253810
vt 0.654977 0.209070
vt 0.657596 0.213686
vt 0.907634 0.235004
vt 0.912077 0.189116
vt 0.664044 0.255994
vt 0.663565 0.217760
vt 0.237540 0.489485
vt 0.237171 0.442175
vt 0.944579 0.188958
vt 0.944579 0.242321
vt 0.202964 0.488908
vt 0.210741 0.439595
vt 0.242328 0.491719
vt 0.666880 0.258441
vt 0.666388 0.219731
vt 0.928753 0.188559
vt 0.694511 0.242996
vt 0.813051 0.187918
vt 0.804901 0.199260
vt 0.800305 0.190321
vt 0.900434 0.234133
vt 0.907637 0.188958
vt 0.812962 0.254640
vt 0.821102 0.243502
vt 0.825728 0.252229
vt 0.646619 0.247579
vt 0.660110 0.245016
vt 0.655889 0.248066
vt 0.828388 0.238509
vt 0.836273 0.245309
vt 0.711271 0.253753
vt 0.697487 0.254206
vt 0.701951 0.251423
vt 0.797710 0.204024
vt 0.789744 0.197253
vt 0.703040 0.248435
vt 0.645271 0.252616
vt 0.655055 0.251240
vt 0.800231 0.251492
vt 0.797699 0.237884
vt 0.804898 0.243050
vt 0.825785 0.191058
vt 0.828389 0.205139
vt 0.821108 0.199714
vt 0.700363 0.245459
vt 0.537639 0.213941
vt 0.539729 0.217017
vt 0.649488 0.257346
vt 0.705117 0.258213
vt 0.695738 0.256893
vt 0.782999 0.207871
vt 0.791042 0.220767
vt 0.780490 0.220337
vt 0.782978 0.232945
vt 0.792871 0.229986
vt 0.667461 0.242700
vt 0.686076 0.241606
vt 0.657673 0.262851
vt 0.665465 0.261983
vt 0.836317 0.198585
vt 0.832539 0.207639
vt 0.789699 0.243951
vt 0.792879 0.211652
vt 0.676564 0.241457
vt 0.832565 0.236200
vt 0.840612 0.238589
vt 0.813017 0.197655
vt 0.813018 0.245100
vt 0.994711 0.169126
vt 0.975530 0.156089
vt 0.993669 0.152080
vt 0.388687 0.823441
vt 0.406118 0.831224
vt 0.401820 0.843975
vt 0.421294 0.849823
vt 0.431783 0.827280
vt 0.435164 0.838883
vt 0.950203 0.727300
vt 0.938531 0.749458
vt 0.928149 0.738130
vt 0.929975 0.672898
vt 0.898542 0.652141
vt 0.924620 0.641295
vt 0.959033 0.750800
vt 0.956355 0.743808
vt 0.949745 0.023558
vt 0.965666 0.000460
vt 0.975651 0.013122
vt 0.391223 0.878958
vt 0.369191 0.876679
vt 0.373722 0.854564
vt 0.964025 0.099189
vt 0.981370 0.060545
vt 0.986365 0.093253
vt 0.858522 0.505289
vt 0.882654 0.536166
vt 0.858454 0.531575
vt 0.548950 0.910505
vt 0.529202 0.892374
vt 0.549069 0.884095
vt 0.932323 0.605501
vt 0.926268 0.561377
vt 0.951729 0.568422
vt 0.384539 0.920052
vt 0.382250 0.951850
vt 0.369079 0.913601
vt 0.411579 0.919881
vt 0.435164 0.947452
vt 0.416440 0.955026
vt 0.392425 0.956341
vt 0.412112 0.905159
vt 0.386605 0.898042
vt 0.432768 0.908920
vt 0.937478 0.045993
vt 0.942861 0.006556
vt 0.945166 0.076974
vt 0.957678 0.067388
vt 0.960009 0.617236
vt 0.973235 0.578631
vt 0.952371 0.634020
vt 0.905096 0.599375
vt 0.577413 0.905820
vt 0.572514 0.884234
vt 0.576862 0.929161
vt 0.533531 0.937395
vt 0.554299 0.937395
vt 0.836584 0.536166
vt 0.838205 0.508853
vt 0.858743 0.476355
vt 0.839805 0.479498
vt 0.881112 0.509156
vt 1.000000 0.093675
vt 0.996665 0.061888
vt 0.915668 0.715776
vt 0.891611 0.696158
vt 0.902975 0.686464
vt 0.990594 0.125640
vt 0.951752 0.106952
vt 0.958681 0.137566
vt 0.969863 0.130975
vt 0.396595 0.860206
vt 0.380607 0.837205
vt 0.988012 0.000000
vt 1.000000 0.021871
vt 0.420284 0.831328
vt 0.423072 0.810466
vt 0.414566 0.809451
vt 0.395681 0.798946
vt 0.398805 0.814186
vt 0.958712 0.662735
vt 0.967114 0.692560
vt 0.940609 0.702695
vt 0.973235 0.717559
vt 0.973083 0.733598
vt 0.859154 0.453066
vt 0.879738 0.479854
vt 0.388305 0.801682
vt 0.920495 0.745615
vt 0.905484 0.724705
vt 0.936656 0.754933
vt 0.480867 0.240607
vt 0.477721 0.263761
vt 0.471709 0.241009
vt 0.468192 0.262860
vt 0.464712 0.259826
vt 0.465608 0.239164
vt 0.489258 0.228886
vt 0.492896 0.219216
vt 0.502262 0.231698
vt 0.244410 0.517171
vt 0.234344 0.517651
vt 0.237430 0.494205
vt 0.228289 0.494906
vt 0.508087 0.224688
vt 0.508087 0.245150
vt 0.492896 0.237287
vt 0.502262 0.240174
vt 0.487716 0.262002
vt 0.501677 0.213941
vt 0.244410 0.494136
vt 0.487716 0.238193
vt 0.224922 0.518664
vt 0.777004 0.234588
vt 0.769464 0.189273
vt 0.777169 0.193114
vt 0.915683 0.808473
vt 0.929110 0.755717
vt 0.929130 0.810773
vt 0.876233 0.249380
vt 0.863378 0.196215
vt 0.876298 0.196546
vt 0.844339 0.240141
vt 0.840612 0.187918
vt 0.844075 0.191653
vt 0.888938 0.195384
vt 0.902824 0.805830
vt 0.915442 0.756201
vt 0.769122 0.228829
vt 0.762388 0.187918
vt 0.891611 0.755805
vt 0.892677 0.805533
vt 0.899568 0.193027
vt 0.888864 0.247819
vt 0.852130 0.245280
vt 0.851994 0.194575
vt 0.863394 0.248427
vt 0.940786 0.754933
vt 0.940786 0.812344
vt 0.728985 0.188599
vt 0.721678 0.230142
vt 0.721789 0.188253
vt 0.780490 0.241744
vt 0.780490 0.197919
vt 0.590667 0.931240
vt 0.598030 0.884807
vt 0.598444 0.932663
vt 0.722451 0.199761
vt 0.724793 0.246695
vt 0.722506 0.242169
vt 0.756606 0.206731
vt 0.747752 0.253875
vt 0.747312 0.207582
vt 0.606858 0.934464
vt 0.615146 0.884825
vt 0.615248 0.936499
vt 0.737894 0.207062
vt 0.738348 0.253096
vt 0.510480 0.260269
vt 0.508552 0.213941
vt 0.510665 0.218041
vt 0.585431 0.931175
vt 0.589908 0.885321
vt 0.516223 0.262091
vt 0.516187 0.221809
vt 0.729797 0.205378
vt 0.730213 0.250604
vt 0.622374 0.885248
vt 0.622374 0.938531
vt 0.764375 0.204765
vt 0.756963 0.252576
vt 0.724490 0.202754
vt 0.518766 0.264276
vt 0.518766 0.223573
vt 0.606717 0.884635
vt 0.794405 0.455886
vt 0.792108 0.469652
vt 0.783230 0.463191
vt 0.712738 0.243598
vt 0.716221 0.250809
vt 0.578291 0.930228
vt 0.585422 0.885211
vt 0.768391 0.236213
vt 0.794286 0.517192
vt 0.792043 0.503678
vt 0.799750 0.508591
vt 0.762712 0.232074
vt 0.821103 0.455784
vt 0.824529 0.469827
vt 0.817014 0.464682
vt 0.724124 0.256649
vt 0.808569 0.462790
vt 0.807771 0.453066
vt 0.807656 0.519799
vt 0.808463 0.510251
vt 0.778336 0.249104
vt 0.764592 0.249642
vt 0.769255 0.245445
vt 0.714891 0.236300
vt 0.728831 0.233028
vt 0.723931 0.237461
vt 0.799840 0.464603
vt 0.731062 0.230897
vt 0.728420 0.227324
vt 0.820916 0.516887
vt 0.816685 0.508237
vt 0.832067 0.462915
vt 0.829372 0.471980
vt 0.735460 0.260218
vt 0.748321 0.261294
vt 0.760919 0.259514
vt 0.783130 0.510054
vt 0.786920 0.495918
vt 0.786954 0.477505
vt 0.776054 0.474086
vt 0.831119 0.509652
vt 0.829338 0.500532
vt 0.836584 0.502585
vt 0.771542 0.255342
vt 0.784993 0.486728
vt 0.773376 0.486694
vt 0.775998 0.499263
vt 0.760058 0.230057
vt 0.761926 0.226378
vt 0.770679 0.240812
vt 0.824414 0.502908
vt 0.233905 0.426630
vt 0.217564 0.410246
vt 0.236010 0.408989
vt 0.433504 0.522113
vt 0.445475 0.506185
vt 0.440459 0.518079
vt 0.458172 0.517708
vt 0.472512 0.509260
vt 0.475580 0.522085
vt 0.948008 0.430770
vt 0.935681 0.452717
vt 0.925690 0.441063
vt 0.929773 0.376053
vt 0.899293 0.354784
vt 0.925584 0.344502
vt 0.956193 0.454874
vt 0.953644 0.447567
vt 0.985537 0.907716
vt 0.963941 0.948846
vt 0.962741 0.902210
vt 0.432258 0.571824
vt 0.418412 0.607388
vt 0.422302 0.577513
vt 0.217333 0.353125
vt 0.241898 0.319109
vt 0.240209 0.350430
vt 0.453841 0.571364
vt 0.474621 0.604511
vt 0.451776 0.598260
vt 0.450132 0.654841
vt 0.472490 0.639793
vt 0.475965 0.659899
vt 0.934479 0.308958
vt 0.930273 0.265427
vt 0.955351 0.273026
vt 0.424064 0.614401
vt 0.422006 0.654235
vt 0.415279 0.637915
vt 0.449068 0.605730
vt 0.450474 0.632246
vt 0.426931 0.634926
vt 0.428631 0.599675
vt 0.968859 0.342021
vt 0.961848 0.321797
vt 0.976053 0.329664
vt 0.202755 0.302762
vt 0.215997 0.267161
vt 0.218785 0.281394
vt 0.203829 0.331781
vt 0.217491 0.322292
vt 0.976499 0.283929
vt 0.953606 0.338231
vt 0.907646 0.302314
vt 0.447631 0.681834
vt 0.470042 0.681439
vt 0.424572 0.676608
vt 0.456215 0.541729
vt 0.436140 0.542004
vt 0.475058 0.576628
vt 0.938604 0.835780
vt 0.960603 0.849270
vt 0.942408 0.859460
vt 0.914043 0.418469
vt 0.890971 0.398737
vt 0.902457 0.388997
vt 0.238058 0.382480
vt 0.204301 0.361108
vt 0.205089 0.391653
vt 0.216856 0.384780
vt 0.427153 0.546851
vt 0.942002 0.946598
vt 0.936303 0.902747
vt 0.246152 0.275611
vt 0.976499 0.442824
vt 0.970664 0.437820
vt 0.215939 0.435113
vt 0.231159 0.436997
vt 0.228923 0.438753
vt 0.220207 0.424918
vt 0.215507 0.431863
vt 0.958879 0.366929
vt 0.966161 0.396778
vt 0.939298 0.405972
vt 0.971361 0.421804
vt 0.475965 0.546549
vt 0.459190 0.504843
vt 0.208054 0.416718
vt 0.917932 0.448602
vt 0.903741 0.427439
vt 0.246152 0.411530
vt 0.464712 0.237853
vt 0.246936 0.239684
vt 0.483053 0.000000
vt 0.247137 0.265427
vt 0.433426 0.681834
vt 0.799405 0.848973
vt 0.462866 0.841795
vt 0.656131 0.062187
vt 0.659336 0.788935
vt 0.644494 0.671428
vt 0.646235 0.771310
vt 0.645271 0.031130
vt 0.702992 0.742390
vt 0.582862 0.716391
vt 0.703083 0.010755
vt 0.693696 0.005187
vt 0.697302 0.002735
vt 0.704009 0.000732
vt 0.715379 0.000000
vt 0.727982 0.000000
vt 0.740455 0.001417
vt 0.751572 0.003420
vt 0.127142 0.537398
vt 0.127142 0.740739
vt 0.127092 0.772038
vt 0.126049 0.801415
vt 0.414715 0.651627
vt 0.415279 0.792773
vt 0.336958 0.504843
vt 0.368935 0.511758
vt 0.396783 0.528736
vt 0.415279 0.587427
vt 0.256756 0.588697
vt 0.260328 0.557171
vt 0.277534 0.529691
vt 0.632809 0.720523
vt 0.937477 0.000110
vt 0.000019 0.609769
vt 0.005318 0.832386
vt 0.127596 0.835373
vt 0.651552 0.561377
vt 0.649670 0.558429
vt 0.648042 0.544989
vt 0.646815 0.489433
vt 0.647504 0.456722
vt 0.645670 0.412211
vt 0.646234 0.553358
vt 0.567913 0.265427
vt 0.599890 0.272342
vt 0.627739 0.289320
vt 0.646234 0.348011
vt 0.487712 0.349281
vt 0.491283 0.317756
vt 0.508489 0.290276
vt 0.525867 0.999958
vt 0.127142 0.835457
vt 0.117406 0.833347
vt 0.773377 0.266388
vt 0.773455 0.453066
vt 0.040288 0.388775
vt 0.071154 0.388198
vt 0.103561 0.388286
vt 0.142926 0.387794
vt 0.016290 0.390035
vt 0.000000 0.393573
vt 0.164214 0.276645
vt 0.592666 0.878357
vt 0.560752 0.884095
vt 0.528838 0.878357
vt 0.502161 0.860140
vt 0.477892 0.802309
vt 0.483704 0.770809
vt 0.502161 0.744478
vt 0.528838 0.726261
vt 0.560752 0.720523
vt 0.592666 0.726261
vt 0.632809 0.723072
vt 0.632809 0.881546
vt 0.202755 0.537101
vt 0.947740 0.561351
vt 0.518766 0.238960
vt 0.214468 0.951771
vt 0.437087 0.681834
vt 0.819274 0.970985
vt 0.819275 0.561437
vt 0.891611 0.823712
vt 0.246936 0.940186
vt 0.712738 0.205086
vt 0.893415 0.479860
vt 0.794290 0.890097
vt 0.653093 0.194423
vt 0.202755 0.441917
vt 0.899568 0.187918
vt 0.537316 0.254669
vt 0.698693 0.260120
vt 0.840612 0.205588
vt 0.980845 0.169782
vt 0.525867 0.915562
vt 0.430335 0.891296
vt 0.939218 0.028668
vt 0.407771 0.792913
vt 0.877576 0.456198
vt 0.842361 0.455885
vt 0.966604 0.162157
vt 0.840982 0.233797
vt 0.902204 0.756200
vt 0.899568 0.244145
vt 0.508087 0.258250
vt 0.577413 0.884095
vt 0.731447 0.191936
vt 0.836584 0.469707
vt 0.442943 0.508046
vt 0.933708 0.458311
vt 0.985537 0.949891
vt 0.474601 0.614333
vt 0.208473 0.289698
vt 0.955401 0.823712
vt 0.240845 0.425854
s 0
f 228/1/1 229/2/1 227/3/1
f 229/4/2 234/5/2 233/6/2
f 234/7/3 231/8/3 233/9/3
f 231/10/4 228/11/4 227/12/4
f 233/9/5 227/13/5 229/14/5
f 230/15/6 232/16/6 234/5/6
f 16/17/7 19/18/7 3/19/7
f 7/20/8 26/21/8 10/22/8
f 2/23/9 17/24/9 1/25/9
f 15/26/10 18/27/10 2/23/10
f 10/22/11 25/28/11 9/29/11
f 1/25/12 32/30/12 16/17/12
f 9/31/13 24/32/13 8/33/13
f 4/34/14 31/35/14 15/36/14
f 12/37/15 23/38/15 7/20/15
f 3/39/16 30/40/16 14/41/16
f 11/42/17 22/43/17 6/44/17
f 6/44/18 29/45/18 13/46/18
f 14/41/19 21/47/19 5/48/19
f 5/48/20 28/49/20 12/37/20
f 13/46/21 20/50/21 4/34/21
f 8/33/22 27/51/22 11/42/22
f 29/52/23 36/53/23 20/54/23
f 27/55/24 40/56/24 43/57/24
f 19/58/25 48/59/25 35/60/25
f 23/61/26 42/62/26 26/63/26
f 17/64/27 34/65/27 33/66/27
f 31/67/28 34/65/28 18/68/28
f 25/69/29 42/62/29 41/70/29
f 17/64/30 48/59/30 32/71/30
f 25/69/31 40/56/31 24/72/31
f 31/67/32 36/53/32 47/73/32
f 23/61/33 44/74/33 39/75/33
f 19/58/34 46/76/34 30/77/34
f 27/55/35 38/78/35 22/79/35
f 29/52/36 38/78/36 45/80/36
f 21/81/37 46/76/37 37/82/37
f 21/81/38 44/74/38 28/83/38
f 35/84/16 62/85/16 46/86/16
f 43/87/17 54/88/17 38/89/17
f 38/89/18 61/90/18 45/91/18
f 46/86/19 53/92/19 37/93/19
f 37/93/20 60/94/20 44/95/20
f 45/91/21 52/96/21 36/97/21
f 40/98/22 59/99/22 43/87/22
f 48/100/7 51/101/7 35/102/7
f 39/103/8 58/104/8 42/105/8
f 34/106/9 49/107/9 33/108/9
f 47/109/10 50/110/10 34/106/10
f 42/105/11 57/111/11 41/112/11
f 33/108/12 64/113/12 48/100/12
f 41/114/13 56/115/13 40/98/13
f 36/97/14 63/116/14 47/117/14
f 44/95/15 55/118/15 39/103/15
f 58/104/39 73/119/39 57/111/39
f 64/113/40 65/120/40 80/121/40
f 56/115/41 73/122/41 72/123/41
f 52/96/42 79/124/42 63/116/42
f 60/94/43 71/125/43 55/118/43
f 62/85/44 67/126/44 78/127/44
f 54/88/45 75/128/45 70/129/45
f 54/88/46 77/130/46 61/90/46
f 62/85/47 69/131/47 53/92/47
f 60/94/48 69/131/48 76/132/48
f 52/96/49 77/130/49 68/133/49
f 56/115/50 75/128/50 59/99/50
f 64/113/51 67/134/51 51/101/51
f 58/104/52 71/125/52 74/135/52
f 50/110/53 65/120/53 49/107/53
f 50/110/54 79/136/54 66/137/54
f 68/138/55 93/139/55 84/140/55
f 72/141/56 91/142/56 75/143/56
f 80/144/57 83/145/57 67/126/57
f 74/135/58 87/146/58 90/147/58
f 66/137/59 81/148/59 65/120/59
f 66/137/60 95/149/60 82/150/60
f 74/135/61 89/151/61 73/119/61
f 80/144/62 81/152/62 96/153/62
f 72/141/63 89/151/63 88/154/63
f 68/138/64 95/149/64 79/136/64
f 76/132/65 87/146/65 71/125/65
f 78/127/66 83/145/66 94/155/66
f 70/156/67 91/142/67 86/157/67
f 70/129/68 93/158/68 77/130/68
f 78/127/69 85/159/69 69/131/69
f 76/132/70 85/159/70 92/160/70
f 91/161/17 102/162/17 86/163/17
f 86/163/18 109/164/18 93/158/18
f 94/155/19 101/165/19 85/159/19
f 85/159/20 108/166/20 92/160/20
f 93/158/21 100/167/21 84/168/21
f 88/169/22 107/170/22 91/161/22
f 96/171/7 99/172/7 83/173/7
f 87/146/8 106/174/8 90/147/8
f 82/150/9 97/175/9 81/148/9
f 95/149/10 98/176/10 82/150/10
f 90/147/11 105/177/11 89/151/11
f 81/148/12 112/178/12 96/171/12
f 89/179/13 104/180/13 88/169/13
f 84/168/14 111/181/14 95/182/14
f 92/160/15 103/183/15 87/146/15
f 83/145/16 110/184/16 94/155/16
f 104/185/5 108/166/5 112/186/5
f 120/187/71 125/188/71 119/189/71
f 128/190/71 125/188/71 126/191/71
f 116/192/71 119/189/71 124/193/71
f 128/190/71 129/194/71 130/195/71
f 138/196/72 143/197/72 144/198/72
f 143/197/72 146/199/72 144/198/72
f 140/200/72 136/201/72 132/202/72
f 147/203/72 146/199/72 148/204/72
f 122/205/73 133/206/73 115/207/73
f 126/208/74 147/209/74 129/210/74
f 114/211/75 141/212/75 123/213/75
f 121/214/76 136/215/76 118/216/76
f 130/217/77 146/218/77 128/219/77
f 129/194/78 148/220/78 130/195/78
f 125/221/79 137/222/79 119/223/79
f 119/223/80 135/224/80 117/225/80
f 120/187/81 144/226/81 126/191/81
f 118/216/82 138/227/82 120/187/82
f 113/228/83 132/229/83 114/211/83
f 128/219/84 145/230/84 127/231/84
f 117/225/85 140/232/85 122/205/85
f 124/233/86 131/234/86 113/235/86
f 127/236/87 143/237/87 125/221/87
f 116/192/88 139/238/88 121/214/88
f 123/213/89 134/239/89 116/192/89
f 115/207/90 142/240/90 124/233/90
f 156/241/71 161/242/71 155/243/71
f 164/244/71 161/242/71 162/245/71
f 152/246/71 155/243/71 160/247/71
f 164/244/71 165/248/71 166/249/71
f 174/250/72 179/251/72 180/252/72
f 179/251/72 182/253/72 180/252/72
f 176/254/72 172/255/72 168/256/72
f 183/257/72 182/253/72 184/258/72
f 158/259/91 169/260/91 151/261/91
f 162/262/92 183/263/92 165/264/92
f 150/265/93 177/266/93 159/267/93
f 157/268/94 172/269/94 154/270/94
f 166/271/95 182/272/95 164/273/95
f 165/274/96 184/275/96 166/271/96
f 161/242/81 173/276/81 155/243/81
f 155/243/97 171/277/97 153/278/97
f 156/279/79 180/280/79 162/281/79
f 154/270/98 174/282/98 156/279/98
f 149/283/99 168/284/99 150/265/99
f 164/273/100 181/285/100 163/286/100
f 153/278/101 176/287/101 158/259/101
f 160/288/102 167/289/102 149/283/102
f 163/290/103 179/291/103 161/242/103
f 152/292/104 175/293/104 157/268/104
f 159/267/105 170/294/105 152/295/105
f 151/261/106 178/296/106 160/247/106
f 187/297/71 191/298/71 188/299/71
f 195/300/103 225/301/103 200/302/103
f 205/303/72 207/304/72 204/305/72
f 217/306/103 219/307/103 212/308/103
f 201/309/5 217/310/5 200/311/5
f 193/312/107 209/313/107 192/314/107
f 186/315/108 202/316/108 185/317/108
f 197/318/87 218/319/87 201/309/87
f 192/314/109 208/320/109 191/298/109
f 185/317/110 216/321/110 199/322/110
f 200/302/103 212/308/103 195/300/103
f 195/300/111 207/323/111 190/324/111
f 188/325/112 215/326/112 198/327/112
f 194/328/113 206/329/113 189/330/113
f 187/331/114 214/332/114 197/333/114
f 196/334/115 205/335/115 188/325/115
f 189/336/116 213/337/116 196/334/116
f 199/322/117 204/338/117 187/339/117
f 191/298/118 211/340/118 194/328/118
f 198/327/119 203/341/119 186/342/119
f 190/324/120 210/343/120 193/312/120
f 220/344/72 221/345/72 222/346/72
f 218/319/5 221/347/5 217/310/5
f 212/348/6 220/349/6 214/350/6
f 214/351/87 222/352/87 218/319/87
f 225/301/71 224/353/71 226/354/71
f 200/311/5 226/355/5 201/309/5
f 197/356/6 223/357/6 195/358/6
f 201/309/87 224/359/87 197/318/87
f 248/360/121 247/361/121 246/362/121
f 245/363/122 243/364/122 244/365/122
f 241/366/123 239/367/123 240/368/123
f 237/369/124 235/370/124 236/371/124
f 235/370/125 250/372/125 236/371/125
f 238/373/126 240/368/126 239/367/126
f 244/374/127 243/375/127 242/376/127
f 249/377/128 247/361/128 248/360/128
f 241/366/129 242/378/129 243/379/129
f 237/380/130 238/373/130 239/367/130
f 236/371/131 238/381/131 237/369/131
f 240/368/132 242/378/132 241/366/132
f 246/362/133 245/363/133 244/365/133
f 249/382/134 248/383/134 250/372/134
f 247/361/135 245/363/135 246/362/135
f 235/370/136 249/382/136 250/372/136
f 278/384/137 277/385/137 253/386/137
f 266/387/138 263/388/138 268/389/138
f 273/390/139 275/391/139 258/392/139
f 252/393/140 251/394/140 279/395/140
f 272/396/141 273/390/141 258/392/141
f 264/397/142 265/398/142 266/387/142
f 254/399/143 257/400/143 277/385/143
f 261/401/144 264/397/144 270/402/144
f 262/403/145 259/404/145 272/396/145
f 276/405/146 279/395/146 255/406/146
f 256/407/147 255/406/147 275/391/147
f 268/389/148 269/408/148 262/409/148
f 260/410/149 261/411/149 270/412/149
f 280/413/150 253/386/150 251/414/150
f 307/415/151 308/416/151 283/417/151
f 296/418/152 293/419/152 295/420/152
f 305/421/153 303/422/153 288/423/153
f 281/424/154 282/425/154 309/426/154
f 302/427/155 303/422/155 289/428/155
f 294/429/156 295/430/156 297/431/156
f 287/432/157 284/433/157 307/415/157
f 300/434/158 297/431/158 291/435/158
f 292/436/159 289/428/159 299/437/159
f 309/426/160 306/438/160 285/439/160
f 285/440/161 286/441/161 305/421/161
f 298/442/162 299/437/162 293/419/162
f 290/443/163 291/435/163 301/444/163
f 283/417/164 310/445/164 281/424/164
f 279/395/165 285/446/165 255/406/165
f 265/447/166 293/448/166 263/449/166
f 257/450/167 304/451/167 287/432/167
f 280/452/168 308/453/168 278/454/168
f 268/455/169 292/456/169 298/457/169
f 278/454/170 284/458/170 254/459/170
f 253/460/171 307/461/171 283/462/171
f 263/449/172 299/463/172 269/464/172
f 253/460/173 281/465/173 251/394/173
f 266/466/174 298/457/174 296/467/174
f 252/468/175 306/469/175 282/470/175
f 267/471/176 291/472/176 297/473/176
f 251/394/177 309/474/177 279/395/177
f 260/410/178 301/475/178 271/476/178
f 264/477/179 296/467/179 294/429/179
f 277/478/180 287/479/180 307/461/180
f 259/480/181 303/481/181 273/482/181
f 256/483/182 303/481/182 286/484/182
f 262/403/183 302/485/183 292/456/183
f 255/406/184 305/486/184 275/391/184
f 270/487/185 290/443/185 260/488/185
f 261/489/186 301/490/186 291/472/186
f 276/491/187 286/484/187 306/469/187
f 269/464/188 289/492/188 259/480/188
f 275/391/189 288/493/189 258/392/189
f 272/396/190 288/493/190 302/485/190
f 254/459/191 304/494/191 274/495/191
f 265/447/192 297/473/192 295/496/192
f 280/452/193 282/470/193 310/497/193
f 264/477/194 300/434/194 270/487/194
f 329/498/195 330/499/195 368/500/195
f 367/501/196 318/502/196 333/503/196
f 366/504/197 316/505/197 336/506/197
f 365/507/198 312/508/198 328/509/198
f 364/510/199 319/511/199 342/512/199
f 363/513/200 312/508/200 338/514/200
f 351/515/201 347/516/201 362/517/201
f 345/518/202 340/519/202 361/520/202
f 346/521/203 339/522/203 360/523/203
f 359/524/204 321/525/204 341/526/204
f 358/527/205 325/528/205 350/529/205
f 357/530/206 323/531/206 350/532/206
f 354/533/207 348/534/207 356/535/207
f 355/536/208 325/537/208 349/538/208
f 355/536/209 326/539/209 354/533/209
f 341/540/210 354/533/210 322/541/210
f 341/540/211 353/542/211 355/536/211
f 356/543/212 324/544/212 351/515/212
f 340/545/213 351/515/213 320/546/213
f 322/541/214 356/535/214 340/519/214
f 353/547/215 350/532/215 325/548/215
f 321/549/216 357/530/216 353/547/216
f 342/512/217 352/550/217 357/530/217
f 347/551/218 350/529/218 323/552/218
f 324/553/219 358/527/219 347/551/219
f 326/554/220 358/527/220 348/555/220
f 359/524/221 322/556/221 345/557/221
f 334/558/222 345/557/222 317/559/222
f 334/558/223 344/560/223 359/524/223
f 343/561/224 339/522/224 319/562/224
f 311/563/225 360/564/225 343/565/225
f 327/566/226 346/521/226 360/523/226
f 361/567/227 320/546/227 346/521/227
f 331/568/228 346/521/228 313/569/228
f 317/570/229 361/520/229 331/571/229
f 362/517/230 323/572/230 352/573/230
f 319/562/231 362/517/231 352/573/231
f 320/546/232 362/517/232 339/522/232
f 335/574/233 338/575/233 316/505/233
f 318/502/234 363/576/234 335/574/234
f 314/577/235 363/576/235 332/578/235
f 344/579/236 342/512/236 321/549/236
f 315/580/237 364/510/237 344/579/237
f 337/581/238 343/565/238 364/510/238
f 337/581/239 328/509/239 311/563/239
f 336/582/240 337/581/240 315/580/240
f 316/583/241 365/507/241 336/582/241
f 366/584/242 315/585/242 334/558/242
f 317/559/243 366/584/243 334/558/243
f 333/503/244 335/574/244 366/504/244
f 331/571/245 333/503/245 317/570/245
f 330/499/246 331/568/246 313/569/246
f 314/577/247 367/501/247 330/586/247
f 368/500/248 313/569/248 327/566/248
f 311/563/249 368/587/249 327/588/249
f 328/509/250 329/589/250 368/587/250
f 382/590/251 381/591/251 380/592/251
f 379/593/252 377/594/252 378/595/252
f 375/596/253 373/597/253 374/598/253
f 371/599/254 369/600/254 370/601/254
f 369/600/255 384/602/255 370/601/255
f 372/603/256 374/598/256 373/597/256
f 378/604/257 377/605/257 376/606/257
f 383/607/258 381/591/258 382/590/258
f 375/596/259 376/606/259 377/605/259
f 371/608/260 372/603/260 373/597/260
f 370/601/261 372/609/261 371/599/261
f 374/598/262 376/606/262 375/596/262
f 380/592/263 379/593/263 378/595/263
f 383/607/264 382/590/264 384/610/264
f 381/591/265 379/593/265 380/592/265
f 369/600/266 383/611/266 384/602/266
f 412/612/267 411/613/267 387/614/267
f 400/615/268 397/616/268 402/617/268
f 407/618/269 409/619/269 392/620/269
f 386/621/270 385/622/270 413/623/270
f 406/624/271 407/618/271 392/620/271
f 398/625/272 399/626/272 400/615/272
f 388/627/273 391/628/273 411/613/273
f 395/629/274 398/625/274 404/630/274
f 396/631/275 393/632/275 406/624/275
f 410/633/276 413/623/276 389/634/276
f 390/635/277 389/634/277 409/619/277
f 402/617/278 403/636/278 396/637/278
f 394/638/279 395/639/279 404/640/279
f 414/641/280 387/614/280 385/642/280
f 441/643/281 442/644/281 417/645/281
f 430/646/282 427/647/282 429/648/282
f 439/649/283 437/650/283 422/651/283
f 415/652/284 416/653/284 443/654/284
f 436/655/285 437/650/285 423/656/285
f 428/657/286 429/658/286 431/659/286
f 421/660/287 418/661/287 441/643/287
f 434/662/288 431/659/288 425/663/288
f 426/664/289 423/656/289 433/665/289
f 443/654/290 440/666/290 419/667/290
f 419/668/291 420/669/291 439/649/291
f 432/670/292 433/665/292 427/647/292
f 424/671/293 425/663/293 435/672/293
f 417/645/294 444/673/294 415/652/294
f 413/674/295 419/675/295 389/676/295
f 399/677/296 427/647/296 397/678/296
f 391/679/297 438/680/297 421/660/297
f 414/641/298 442/681/298 412/612/298
f 402/682/299 426/683/299 432/684/299
f 412/612/300 418/685/300 388/627/300
f 387/686/301 441/687/301 417/688/301
f 397/678/302 433/665/302 403/689/302
f 387/686/303 415/690/303 385/691/303
f 400/692/304 432/684/304 430/693/304
f 386/694/305 440/695/305 416/696/305
f 401/697/306 425/698/306 431/699/306
f 385/691/307 443/700/307 413/674/307
f 394/638/308 435/701/308 405/702/308
f 398/703/309 430/693/309 428/704/309
f 411/705/310 421/706/310 441/687/310
f 393/707/311 437/650/311 407/708/311
f 390/709/312 437/650/312 420/669/312
f 396/710/313 436/711/313 426/683/313
f 389/676/314 439/712/314 409/713/314
f 404/714/315 424/715/315 394/716/315
f 395/639/316 435/701/316 425/698/316
f 410/717/317 420/669/317 440/695/317
f 403/689/318 423/656/318 393/707/318
f 409/713/319 422/718/319 392/719/319
f 406/720/320 422/718/320 436/711/320
f 388/627/321 438/721/321 408/722/321
f 399/677/322 431/699/322 429/648/322
f 414/641/323 416/696/323 444/723/323
f 398/703/324 434/724/324 404/714/324
f 463/725/325 464/726/325 502/727/325
f 501/728/326 452/729/326 467/730/326
f 500/731/327 450/732/327 470/733/327
f 499/734/328 446/735/328 462/736/328
f 498/737/329 453/738/329 476/739/329
f 497/740/330 446/735/330 472/741/330
f 485/742/331 481/743/331 496/744/331
f 479/745/332 474/746/332 495/747/332
f 480/748/333 473/749/333 494/750/333
f 493/751/334 455/752/334 475/753/334
f 492/754/335 459/755/335 484/756/335
f 491/757/336 457/758/336 484/759/336
f 488/760/337 482/761/337 490/762/337
f 489/763/338 459/755/338 483/764/338
f 489/763/339 460/765/339 488/760/339
f 475/753/340 488/760/340 456/766/340
f 475/767/341 487/768/341 489/769/341
f 490/770/342 458/771/342 485/772/342
f 474/773/343 485/772/343 454/774/343
f 456/766/344 490/762/344 474/746/344
f 487/768/345 484/759/345 459/775/345
f 455/776/346 491/757/346 487/768/346
f 476/739/347 486/777/347 491/757/347
f 481/778/348 484/756/348 457/779/348
f 458/780/349 492/754/349 481/778/349
f 460/765/350 492/754/350 482/761/350
f 493/751/351 456/766/351 479/745/351
f 468/781/352 479/745/352 451/782/352
f 468/781/353 478/783/353 493/751/353
f 477/784/354 473/785/354 453/786/354
f 445/787/355 494/788/355 477/789/355
f 461/790/356 480/748/356 494/750/356
f 495/791/357 454/774/357 480/748/357
f 465/792/358 480/748/358 447/793/358
f 451/782/359 495/747/359 465/794/359
f 496/744/360 457/795/360 486/796/360
f 453/786/361 496/744/361 486/796/361
f 454/774/362 496/797/362 473/749/362
f 469/798/363 472/741/363 450/799/363
f 452/800/364 497/801/364 469/802/364
f 448/803/365 497/801/365 466/804/365
f 478/805/366 476/739/366 455/776/366
f 449/806/367 498/737/367 478/805/367
f 471/807/368 477/789/368 498/737/368
f 471/807/369 462/736/369 445/787/369
f 470/808/370 471/807/370 449/806/370
f 450/799/371 499/734/371 470/808/371
f 500/731/372 449/809/372 468/781/372
f 451/782/373 500/731/373 468/781/373
f 467/730/374 469/810/374 500/731/374
f 465/794/375 467/730/375 451/782/375
f 464/726/376 465/792/376 447/793/376
f 448/803/377 501/811/377 464/726/377
f 502/727/378 447/793/378 461/790/378
f 445/787/379 502/812/379 461/813/379
f 462/814/380 463/725/380 502/727/380
f 228/1/1 230/815/1 229/2/1
f 229/4/2 230/15/2 234/5/2
f 234/7/3 232/816/3 231/8/3
f 231/10/4 232/817/4 228/11/4
f 233/9/5 231/8/5 227/13/5
f 230/15/6 228/818/6 232/16/6
f 16/17/7 32/30/7 19/18/7
f 7/20/8 23/38/8 26/21/8
f 2/23/9 18/27/9 17/24/9
f 15/26/10 31/819/10 18/27/10
f 10/22/11 26/21/11 25/28/11
f 1/25/12 17/24/12 32/30/12
f 9/31/13 25/820/13 24/32/13
f 4/34/14 20/50/14 31/35/14
f 12/37/15 28/49/15 23/38/15
f 3/39/16 19/821/16 30/40/16
f 11/42/17 27/51/17 22/43/17
f 6/44/18 22/43/18 29/45/18
f 14/41/19 30/40/19 21/47/19
f 5/48/20 21/47/20 28/49/20
f 13/46/21 29/45/21 20/50/21
f 8/33/22 24/32/22 27/51/22
f 29/52/23 45/80/23 36/53/23
f 27/55/24 24/72/24 40/56/24
f 19/58/25 32/71/25 48/59/25
f 23/61/26 39/75/26 42/62/26
f 17/64/27 18/68/27 34/65/27
f 31/67/28 47/73/28 34/65/28
f 25/69/29 26/63/29 42/62/29
f 17/64/30 33/66/30 48/59/30
f 25/69/31 41/70/31 40/56/31
f 31/67/32 20/54/32 36/53/32
f 23/61/33 28/83/33 44/74/33
f 19/58/34 35/60/34 46/76/34
f 27/55/35 43/57/35 38/78/35
f 29/52/36 22/79/36 38/78/36
f 21/81/37 30/77/37 46/76/37
f 21/81/38 37/82/38 44/74/38
f 35/84/16 51/822/16 62/85/16
f 43/87/17 59/99/17 54/88/17
f 38/89/18 54/88/18 61/90/18
f 46/86/19 62/85/19 53/92/19
f 37/93/20 53/92/20 60/94/20
f 45/91/21 61/90/21 52/96/21
f 40/98/22 56/115/22 59/99/22
f 48/100/7 64/113/7 51/101/7
f 39/103/8 55/118/8 58/104/8
f 34/106/9 50/110/9 49/107/9
f 47/109/10 63/823/10 50/110/10
f 42/105/11 58/104/11 57/111/11
f 33/108/12 49/107/12 64/113/12
f 41/114/13 57/824/13 56/115/13
f 36/97/14 52/96/14 63/116/14
f 44/95/15 60/94/15 55/118/15
f 58/104/39 74/135/39 73/119/39
f 64/113/40 49/107/40 65/120/40
f 56/115/41 57/824/41 73/122/41
f 52/96/42 68/133/42 79/124/42
f 60/94/43 76/132/43 71/125/43
f 62/85/44 51/822/44 67/126/44
f 54/88/45 59/99/45 75/128/45
f 54/88/46 70/129/46 77/130/46
f 62/85/47 78/127/47 69/131/47
f 60/94/48 53/92/48 69/131/48
f 52/96/49 61/90/49 77/130/49
f 56/115/50 72/123/50 75/128/50
f 64/113/51 80/121/51 67/134/51
f 58/104/52 55/118/52 71/125/52
f 50/110/53 66/137/53 65/120/53
f 50/110/54 63/823/54 79/136/54
f 68/138/55 77/825/55 93/139/55
f 72/141/56 88/154/56 91/142/56
f 80/144/57 96/153/57 83/145/57
f 74/135/58 71/125/58 87/146/58
f 66/137/59 82/150/59 81/148/59
f 66/137/60 79/136/60 95/149/60
f 74/135/61 90/147/61 89/151/61
f 80/144/62 65/826/62 81/152/62
f 72/141/63 73/119/63 89/151/63
f 68/138/381 84/140/381 95/149/381
f 76/132/382 92/160/382 87/146/382
f 78/127/383 67/126/383 83/145/383
f 70/156/384 75/143/384 91/142/384
f 70/129/68 86/163/68 93/158/68
f 78/127/69 94/155/69 85/159/69
f 76/132/70 69/131/70 85/159/70
f 91/161/17 107/170/17 102/162/17
f 86/163/18 102/162/18 109/164/18
f 94/155/19 110/184/19 101/165/19
f 85/159/20 101/165/20 108/166/20
f 93/158/21 109/164/21 100/167/21
f 88/169/22 104/180/22 107/170/22
f 96/171/7 112/178/7 99/172/7
f 87/146/8 103/183/8 106/174/8
f 82/150/9 98/176/9 97/175/9
f 95/149/10 111/827/10 98/176/10
f 90/147/11 106/174/11 105/177/11
f 81/148/12 97/175/12 112/178/12
f 89/179/13 105/828/13 104/180/13
f 84/168/14 100/167/14 111/181/14
f 92/160/15 108/166/15 103/183/15
f 83/145/16 99/829/16 110/184/16
f 112/186/5 97/830/5 98/831/5
f 98/831/5 111/832/5 100/833/5
f 100/833/5 109/834/5 102/835/5
f 102/835/5 107/836/5 104/185/5
f 104/185/5 105/177/5 106/174/5
f 106/174/5 103/183/5 108/166/5
f 108/166/5 101/165/5 110/184/5
f 110/184/5 99/829/5 112/186/5
f 112/186/5 98/831/5 100/833/5
f 100/833/5 102/835/5 104/185/5
f 104/185/5 106/174/5 108/166/5
f 108/166/5 110/184/5 112/186/5
f 112/186/5 100/833/5 104/185/5
f 120/187/71 126/191/71 125/188/71
f 128/190/71 127/837/71 125/188/71
f 124/193/71 113/228/71 114/211/71
f 114/211/71 123/213/71 116/192/71
f 116/192/71 121/214/71 118/216/71
f 118/216/71 120/187/71 119/189/71
f 119/189/71 117/838/71 122/839/71
f 122/839/71 115/840/71 124/193/71
f 124/193/71 114/211/71 116/192/71
f 116/192/71 118/216/71 119/189/71
f 119/189/71 122/839/71 124/193/71
f 128/190/71 126/191/71 129/194/71
f 138/196/72 137/841/72 143/197/72
f 143/197/72 145/842/72 146/199/72
f 132/202/72 131/843/72 142/844/72
f 142/844/72 133/845/72 140/200/72
f 140/200/72 135/846/72 137/841/72
f 137/841/72 138/196/72 136/201/72
f 136/201/72 139/847/72 134/848/72
f 134/848/72 141/849/72 132/202/72
f 132/202/72 142/844/72 140/200/72
f 140/200/72 137/841/72 136/201/72
f 136/201/72 134/848/72 132/202/72
f 147/203/72 144/198/72 146/199/72
f 122/205/73 140/232/73 133/206/73
f 126/208/74 144/850/74 147/209/74
f 114/211/75 132/229/75 141/212/75
f 121/214/76 139/238/76 136/215/76
f 130/217/77 148/851/77 146/218/77
f 129/194/78 147/852/78 148/220/78
f 125/221/79 143/237/79 137/222/79
f 119/223/80 137/222/80 135/224/80
f 120/187/81 138/227/81 144/226/81
f 118/216/82 136/215/82 138/227/82
f 113/228/83 131/853/83 132/229/83
f 128/219/84 146/218/84 145/230/84
f 117/225/85 135/224/85 140/232/85
f 124/233/86 142/240/86 131/234/86
f 127/236/87 145/854/87 143/237/87
f 116/192/88 134/239/88 139/238/88
f 123/213/89 141/212/89 134/239/89
f 115/207/90 133/206/90 142/240/90
f 156/241/71 162/245/71 161/242/71
f 164/244/71 163/290/71 161/242/71
f 160/247/71 149/855/71 150/856/71
f 150/856/71 159/857/71 152/246/71
f 152/246/71 157/858/71 154/859/71
f 154/859/71 156/241/71 155/243/71
f 155/243/71 153/278/71 158/259/71
f 158/259/71 151/261/71 160/247/71
f 160/247/71 150/856/71 152/246/71
f 152/246/71 154/859/71 155/243/71
f 155/243/71 158/259/71 160/247/71
f 164/244/71 162/245/71 165/248/71
f 174/250/72 173/860/72 179/251/72
f 179/251/72 181/861/72 182/253/72
f 168/256/72 167/862/72 178/863/72
f 178/863/72 169/864/72 176/254/72
f 176/254/72 171/865/72 173/860/72
f 173/860/72 174/250/72 172/255/72
f 172/255/72 175/866/72 170/867/72
f 170/867/72 177/868/72 168/256/72
f 168/256/72 178/863/72 176/254/72
f 176/254/72 173/860/72 172/255/72
f 172/255/72 170/867/72 168/256/72
f 183/257/72 180/252/72 182/253/72
f 158/259/91 176/287/91 169/260/91
f 162/262/92 180/869/92 183/263/92
f 150/265/93 168/284/93 177/266/93
f 157/268/94 175/293/94 172/269/94
f 166/271/95 184/275/95 182/272/95
f 165/274/96 183/870/96 184/275/96
f 161/242/81 179/291/81 173/276/81
f 155/243/97 173/276/97 171/277/97
f 156/279/79 174/282/79 180/280/79
f 154/270/98 172/269/98 174/282/98
f 149/283/99 167/289/99 168/284/99
f 164/273/100 182/272/100 181/285/100
f 153/278/101 171/277/101 176/287/101
f 160/288/102 178/871/102 167/289/102
f 163/290/103 181/872/103 179/291/103
f 152/292/104 170/873/104 175/293/104
f 159/267/105 177/266/105 170/294/105
f 151/261/106 169/260/106 178/296/106
f 186/874/71 185/875/71 199/876/71
f 187/297/71 197/877/71 195/300/71
f 186/874/71 199/876/71 187/297/71
f 188/299/71 198/878/71 186/874/71
f 189/330/71 196/879/71 188/299/71
f 191/298/71 194/328/71 189/330/71
f 193/312/71 192/314/71 191/298/71
f 187/297/71 195/300/71 190/324/71
f 190/324/71 193/312/71 191/298/71
f 191/298/71 189/330/71 188/299/71
f 188/299/71 186/874/71 187/297/71
f 187/297/71 190/324/71 191/298/71
f 195/300/103 223/880/103 225/301/103
f 216/881/72 202/882/72 203/883/72
f 203/883/72 215/884/72 205/303/72
f 205/303/72 213/885/72 206/886/72
f 206/886/72 211/887/72 208/888/72
f 208/888/72 209/889/72 210/890/72
f 207/304/72 212/891/72 214/892/72
f 208/888/72 210/890/72 207/304/72
f 205/303/72 206/886/72 208/888/72
f 216/881/72 203/883/72 205/303/72
f 207/304/72 214/892/72 204/305/72
f 204/305/72 216/881/72 205/303/72
f 205/303/72 208/888/72 207/304/72
f 217/306/103 221/893/103 219/307/103
f 201/309/5 218/319/5 217/310/5
f 193/312/107 210/343/107 209/313/107
f 186/315/108 203/894/108 202/316/108
f 197/318/87 214/351/87 218/319/87
f 192/314/109 209/313/109 208/320/109
f 185/317/110 202/316/110 216/321/110
f 200/302/103 217/306/103 212/308/103
f 195/300/111 212/308/111 207/323/111
f 188/325/112 205/335/112 215/326/112
f 194/328/113 211/340/113 206/329/113
f 187/331/114 204/895/114 214/332/114
f 196/334/115 213/337/115 205/335/115
f 189/336/116 206/896/116 213/337/116
f 199/322/117 216/321/117 204/338/117
f 191/298/118 208/320/118 211/340/118
f 198/327/119 215/326/119 203/341/119
f 190/324/120 207/323/120 210/343/120
f 220/344/72 219/897/72 221/345/72
f 218/319/5 222/352/5 221/347/5
f 212/348/6 219/898/6 220/349/6
f 214/351/87 220/899/87 222/352/87
f 225/301/71 223/880/71 224/353/71
f 200/311/5 225/900/5 226/355/5
f 197/356/6 224/901/6 223/357/6
f 201/309/87 226/355/87 224/359/87
f 278/384/385 254/399/385 277/385/385
f 266/387/386 265/398/386 263/388/386
f 273/390/387 256/407/387 275/391/387
f 252/393/388 280/902/388 251/394/388
f 272/396/389 259/404/389 273/390/389
f 264/397/390 267/903/390 265/398/390
f 254/399/391 274/904/391 257/400/391
f 261/401/392 267/903/392 264/397/392
f 262/403/393 269/905/393 259/404/393
f 276/405/394 252/393/394 279/395/394
f 256/407/395 276/405/395 255/406/395
f 268/389/396 263/388/396 269/408/396
f 260/410/397 271/476/397 261/411/397
f 280/413/398 278/384/398 253/386/398
f 307/415/399 284/433/399 308/416/399
f 296/418/400 298/442/400 293/419/400
f 305/421/401 286/441/401 303/422/401
f 281/424/402 310/445/402 282/425/402
f 302/427/403 288/423/403 303/422/403
f 294/429/404 296/467/404 295/430/404
f 287/432/405 304/451/405 284/433/405
f 300/434/406 294/429/406 297/431/406
f 292/436/407 302/427/407 289/428/407
f 309/426/408 282/425/408 306/438/408
f 285/440/409 306/906/409 286/441/409
f 298/442/410 292/436/410 299/437/410
f 290/443/411 300/434/411 291/435/411
f 283/417/412 308/416/412 310/445/412
f 279/395/413 309/474/413 285/446/413
f 265/447/414 295/496/414 293/448/414
f 257/450/415 274/907/415 304/451/415
f 280/452/416 310/497/416 308/453/416
f 268/455/417 262/403/417 292/456/417
f 278/454/418 308/453/418 284/458/418
f 253/460/419 277/478/419 307/461/419
f 263/449/420 293/448/420 299/463/420
f 253/460/421 283/462/421 281/465/421
f 266/466/422 268/455/422 298/457/422
f 252/468/423 276/491/423 306/469/423
f 267/471/424 261/489/424 291/472/424
f 251/394/425 281/465/425 309/474/425
f 260/410/426 290/908/426 301/475/426
f 264/477/427 266/466/427 296/467/427
f 277/478/428 257/909/428 287/479/428
f 259/480/429 289/492/429 303/481/429
f 256/483/430 273/482/430 303/481/430
f 262/403/431 272/396/431 302/485/431
f 255/406/432 285/446/432 305/486/432
f 270/487/433 300/434/433 290/443/433
f 261/489/434 271/910/434 301/490/434
f 276/491/435 256/483/435 286/484/435
f 269/464/436 299/463/436 289/492/436
f 275/391/437 305/486/437 288/493/437
f 272/396/438 258/392/438 288/493/438
f 254/459/439 284/458/439 304/494/439
f 265/447/440 267/471/440 297/473/440
f 280/452/441 252/468/441 282/470/441
f 264/477/442 294/429/442 300/434/442
f 329/498/443 314/911/443 330/499/443
f 367/501/444 332/578/444 318/502/444
f 366/504/445 335/574/445 316/505/445
f 365/507/446 338/514/446 312/508/446
f 364/510/447 343/565/447 319/511/447
f 363/513/448 329/589/448 312/508/448
f 351/515/449 324/544/449 347/516/449
f 345/518/450 322/541/450 340/519/450
f 346/521/451 320/546/451 339/522/451
f 359/524/452 344/560/452 321/525/452
f 358/527/453 349/912/453 325/528/453
f 357/530/454 352/550/454 323/531/454
f 354/533/455 326/539/455 348/534/455
f 355/536/456 353/542/456 325/537/456
f 355/536/457 349/538/457 326/539/457
f 341/540/458 355/536/458 354/533/458
f 341/540/459 321/913/459 353/542/459
f 356/543/460 348/914/460 324/544/460
f 340/545/461 356/543/461 351/515/461
f 322/541/462 354/533/462 356/535/462
f 353/547/463 357/530/463 350/532/463
f 321/549/464 342/512/464 357/530/464
f 342/512/465 319/511/465 352/550/465
f 347/551/466 358/527/466 350/529/466
f 324/553/467 348/555/467 358/527/467
f 326/554/468 349/912/468 358/527/468
f 359/524/469 341/526/469 322/556/469
f 334/558/470 359/524/470 345/557/470
f 334/558/471 315/585/471 344/560/471
f 343/561/472 360/523/472 339/522/472
f 311/563/473 327/588/473 360/564/473
f 327/566/474 313/569/474 346/521/474
f 361/567/475 340/545/475 320/546/475
f 331/568/476 361/567/476 346/521/476
f 317/570/477 345/518/477 361/520/477
f 362/517/478 347/516/478 323/572/478
f 319/562/479 339/522/479 362/517/479
f 320/546/480 351/515/480 362/517/480
f 335/574/481 363/576/481 338/575/481
f 318/502/482 332/578/482 363/576/482
f 314/577/483 329/915/483 363/576/483
f 344/579/484 364/510/484 342/512/484
f 315/580/485 337/581/485 364/510/485
f 337/581/486 311/563/486 343/565/486
f 337/581/487 365/507/487 328/509/487
f 336/582/488 365/507/488 337/581/488
f 316/583/489 338/514/489 365/507/489
f 366/584/490 336/916/490 315/585/490
f 317/559/491 333/917/491 366/584/491
f 333/503/492 318/502/492 335/574/492
f 331/571/493 367/501/493 333/503/493
f 330/499/494 367/918/494 331/568/494
f 314/577/495 332/578/495 367/501/495
f 368/500/496 330/499/496 313/569/496
f 311/563/497 328/509/497 368/587/497
f 328/509/498 312/508/498 329/589/498
f 412/612/499 388/627/499 411/613/499
f 400/615/500 399/626/500 397/616/500
f 407/618/501 390/635/501 409/619/501
f 386/621/502 414/919/502 385/622/502
f 406/624/503 393/632/503 407/618/503
f 398/625/504 401/920/504 399/626/504
f 388/627/505 408/722/505 391/628/505
f 395/629/506 401/920/506 398/625/506
f 396/631/507 403/921/507 393/632/507
f 410/633/508 386/621/508 413/623/508
f 390/635/509 410/633/509 389/634/509
f 402/617/510 397/616/510 403/636/510
f 394/638/511 405/702/511 395/639/511
f 414/641/512 412/612/512 387/614/512
f 441/643/513 418/661/513 442/644/513
f 430/646/514 432/670/514 427/647/514
f 439/649/515 420/669/515 437/650/515
f 415/652/516 444/673/516 416/653/516
f 436/655/517 422/651/517 437/650/517
f 428/657/518 430/922/518 429/658/518
f 421/660/519 438/680/519 418/661/519
f 434/662/520 428/657/520 431/659/520
f 426/664/521 436/655/521 423/656/521
f 443/654/522 416/653/522 440/666/522
f 419/668/523 440/695/523 420/669/523
f 432/670/524 426/664/524 433/665/524
f 424/671/525 434/662/525 425/663/525
f 417/645/526 442/644/526 444/673/526
f 413/674/527 443/700/527 419/675/527
f 399/677/528 429/648/528 427/647/528
f 391/679/529 408/923/529 438/680/529
f 414/641/530 444/723/530 442/681/530
f 402/682/531 396/710/531 426/683/531
f 412/612/532 442/681/532 418/685/532
f 387/686/533 411/705/533 441/687/533
f 397/678/534 427/647/534 433/665/534
f 387/686/535 417/688/535 415/690/535
f 400/692/536 402/682/536 432/684/536
f 386/694/537 410/717/537 440/695/537
f 401/697/538 395/639/538 425/698/538
f 385/691/539 415/690/539 443/700/539
f 394/638/540 424/924/540 435/701/540
f 398/703/541 400/692/541 430/693/541
f 411/705/542 391/925/542 421/706/542
f 393/707/543 423/656/543 437/650/543
f 390/709/544 407/708/544 437/650/544
f 396/710/545 406/720/545 436/711/545
f 389/676/546 419/675/546 439/712/546
f 404/714/547 434/724/547 424/715/547
f 395/639/548 405/702/548 435/701/548
f 410/717/549 390/709/549 420/669/549
f 403/689/550 433/665/550 423/656/550
f 409/713/551 439/712/551 422/718/551
f 406/720/552 392/719/552 422/718/552
f 388/627/553 418/685/553 438/721/553
f 399/677/554 401/697/554 431/699/554
f 414/641/555 386/694/555 416/696/555
f 398/703/556 428/704/556 434/724/556
f 463/725/557 448/803/557 464/726/557
f 501/728/558 466/926/558 452/729/558
f 500/731/559 469/810/559 450/732/559
f 499/734/560 472/741/560 446/735/560
f 498/737/561 477/789/561 453/738/561
f 497/740/562 463/927/562 446/735/562
f 485/742/563 458/928/563 481/743/563
f 479/745/564 456/766/564 474/746/564
f 480/748/565 454/774/565 473/749/565
f 493/751/566 478/783/566 455/752/566
f 492/754/567 483/764/567 459/755/567
f 491/757/568 486/777/568 457/758/568
f 488/760/569 460/765/569 482/761/569
f 489/763/570 487/929/570 459/755/570
f 489/763/571 483/764/571 460/765/571
f 475/753/572 489/763/572 488/760/572
f 475/767/573 455/776/573 487/768/573
f 490/770/574 482/930/574 458/771/574
f 474/773/575 490/770/575 485/772/575
f 456/766/576 488/760/576 490/762/576
f 487/768/577 491/757/577 484/759/577
f 455/776/578 476/739/578 491/757/578
f 476/739/579 453/738/579 486/777/579
f 481/778/580 492/754/580 484/756/580
f 458/780/581 482/761/581 492/754/581
f 460/765/582 483/764/582 492/754/582
f 493/751/583 475/753/583 456/766/583
f 468/781/584 493/751/584 479/745/584
f 468/781/585 449/809/585 478/783/585
f 477/784/586 494/931/586 473/785/586
f 445/787/587 461/813/587 494/788/587
f 461/790/588 447/793/588 480/748/588
f 495/791/589 474/773/589 454/774/589
f 465/792/590 495/791/590 480/748/590
f 451/782/591 479/745/591 495/747/591
f 496/744/592 481/743/592 457/795/592
f 453/786/593 473/785/593 496/744/593
f 454/774/594 485/772/594 496/797/594
f 469/798/595 497/740/595 472/741/595
f 452/800/596 466/804/596 497/801/596
f 448/803/597 463/725/597 497/801/597
f 478/805/598 498/737/598 476/739/598
f 449/806/599 471/807/599 498/737/599
f 471/807/600 445/787/600 477/789/600
f 471/807/601 499/734/601 462/736/601
f 470/808/602 499/734/602 471/807/602
f 450/799/603 472/741/603 499/734/603
f 500/731/604 470/733/604 449/809/604
f 451/782/605 467/730/605 500/731/605
f 467/730/606 452/729/606 469/810/606
f 465/794/607 501/728/607 467/730/607
f 464/726/608 501/811/608 465/792/608
f 448/803/609 466/804/609 501/811/609
f 502/727/610 464/726/610 447/793/610
f 445/787/611 462/736/611 502/812/611
f 462/814/612 446/932/612 463/725/612
