# Blender 4.5.2 LTS
# www.blender.org
mtllib SalleGlass1.mtl
o Plane
v -5.392790 0.000000 5.392790
v 5.392790 0.000000 5.392790
v -5.392790 0.000000 -5.392790
v 5.392790 0.000000 -5.392790
vn -0.0000 1.0000 -0.0000
vt 1.000000 0.000000
vt 0.000000 1.000000
vt 0.000000 0.000000
vt 1.000000 1.000000
s 0
usemtl Material.004
f 2/1/1 3/2/1 1/3/1
f 2/1/1 4/4/1 3/2/1
o Plane.001
v -5.392790 8.000378 -5.392790
v 5.392790 8.000378 -5.392790
v -5.392790 8.000378 5.392790
v 5.392790 8.000378 5.392790
vn -0.0000 -1.0000 -0.0000
vt 1.000000 0.000000
vt 0.000000 1.000000
vt 0.000000 0.000000
vt 1.000000 1.000000
s 0
usemtl Material.007
f 6/5/2 7/6/2 5/7/2
f 6/5/2 8/8/2 7/6/2
o Plane.002
v -5.392790 -0.004902 -5.333030
v 5.392790 -0.004902 -5.333030
v -5.392790 7.995098 -5.333030
v 5.392790 7.995098 -5.333030
vn -0.0000 -0.0000 1.0000
vt 1.000000 0.000000
vt 0.000000 1.000000
vt 0.000000 0.000000
vt 1.000000 1.000000
s 0
usemtl Material.003
f 10/9/3 11/10/3 9/11/3
f 10/9/3 12/12/3 11/10/3
o Plane.003
v -5.369879 -0.004902 5.426111
v -5.369879 -0.004902 -5.359468
v -5.369878 7.995098 5.426111
v -5.369879 7.995098 -5.359468
vn 1.0000 -0.0000 -0.0000
vt 1.000000 0.000000
vt 0.000000 1.000000
vt 0.000000 0.000000
vt 1.000000 1.000000
s 0
usemtl Material.001
f 14/13/4 15/14/4 13/15/4
f 14/13/4 16/16/4 15/14/4
o Plane.004
v 5.395009 -0.004902 -5.359468
v 5.395008 -0.004902 5.426111
v 5.395008 7.995098 -5.359468
v 5.395008 7.995098 5.426111
vn -1.0000 -0.0000 -0.0000
vt 1.000000 0.000000
vt 0.000000 1.000000
vt 0.000000 0.000000
vt 1.000000 1.000000
s 0
usemtl Material.002
f 18/17/5 19/18/5 17/19/5
f 18/17/5 20/20/5 19/18/5
o Plane.005
v -2.174720 7.928411 -2.174720
v 2.174720 7.928411 -2.174720
v -2.174720 7.928411 2.174720
v 2.174720 7.928411 2.174720
vn -0.0000 -1.0000 -0.0000
vt 1.000000 0.000000
vt 0.000000 1.000000
vt 0.000000 0.000000
vt 1.000000 1.000000
s 0
usemtl Material.006
f 22/21/6 23/22/6 21/23/6
f 22/21/6 24/24/6 23/22/6
o Cube
v 0.130934 0.494535 3.487247
v 0.192271 0.581278 3.548584
v 0.069597 0.581278 3.548584
v 0.192271 4.021982 3.548584
v 0.130934 4.108726 3.487247
v 0.069597 4.021982 3.548584
v -2.302010 0.494535 1.054303
v -2.363348 0.581278 1.115640
v -2.363347 0.581278 0.992966
v -2.302010 4.108726 1.054303
v -2.363347 4.021982 0.992966
v -2.363348 4.021982 1.115640
v 2.563885 0.494535 1.054296
v 2.625223 0.581278 0.992959
v 2.625222 0.581278 1.115633
v 2.563885 4.108726 1.054296
v 2.625222 4.021982 1.115633
v 2.625223 4.021982 0.992959
v 0.130941 0.494535 -1.378648
v 0.069604 0.581278 -1.439985
v 0.192278 0.581278 -1.439986
v 0.130941 4.108726 -1.378648
v 0.192278 4.021982 -1.439986
v 0.069604 4.021982 -1.439985
vn -0.0000 -0.5774 0.8165
vn -0.0000 0.5774 0.8165
vn -0.8165 -0.5774 -0.0000
vn -0.8165 0.5774 -0.0000
vn 0.8165 -0.5774 -0.0000
vn 0.8165 0.5774 -0.0000
vn -0.0000 -0.5774 -0.8165
vn -0.0000 0.5774 -0.8165
vn -0.5000 -0.7071 0.5000
vn -0.0000 -0.0000 1.0000
vn -0.5000 0.7071 0.5000
vn -1.0000 -0.0000 -0.0000
vn -0.5000 -0.7071 -0.5000
vn -0.5000 0.7071 -0.5000
vn -0.0000 -0.0000 -1.0000
vn 0.5000 -0.7071 -0.5000
vn 0.5000 0.7071 -0.5000
vn 1.0000 -0.0000 -0.0000
vn 0.5000 -0.7071 0.5000
vn 0.5000 0.7071 0.5000
vn -0.0000 -1.0000 -0.0000
vn -0.7071 -0.0000 0.7071
vn 0.7071 -0.0000 0.7071
vn -0.0000 1.0000 -0.0000
vn -0.7071 -0.0000 -0.7071
vn 0.7071 -0.0000 -0.7071
vt 0.131000 0.744000
vt 0.131000 0.750000
vt 0.125000 0.744000
vt 0.619000 0.000000
vt 0.625000 0.006000
vt 0.619000 0.006000
vt 0.131000 0.506000
vt 0.125000 0.506000
vt 0.131000 0.500000
vt 0.625000 0.249954
vt 0.619000 0.255997
vt 0.619000 0.244000
vt 0.369000 0.744000
vt 0.380997 0.744000
vt 0.380595 0.755797
vt 0.630798 0.744405
vt 0.619000 0.756000
vt 0.619000 0.744003
vt 0.369000 0.506000
vt 0.380595 0.494202
vt 0.380997 0.506000
vt 0.630798 0.505595
vt 0.619000 0.505997
vt 0.619000 0.494000
vt 0.381000 0.006000
vt 0.381000 0.000000
vt 0.381000 0.256000
vt 0.625000 0.994000
vt 0.381000 0.244000
vt 0.381000 0.994000
vt 0.869000 0.506000
vt 0.619000 0.994000
vt 0.869000 0.744000
s 0
usemtl Material.008
f 25/25/7 26/26/7 27/27/7
f 28/28/8 29/29/8 30/30/8
f 31/31/9 32/32/9 33/33/9
f 34/34/10 35/35/10 36/36/10
f 37/37/11 38/38/11 39/39/11
f 40/40/12 41/41/12 42/42/12
f 43/43/13 44/44/13 45/45/13
f 46/46/14 47/47/14 48/48/14
f 25/25/15 32/32/15 31/31/15
f 28/28/16 27/49/16 26/50/16
f 34/34/17 30/30/17 29/29/17
f 33/51/18 36/36/18 35/35/18
f 31/31/19 44/44/19 43/43/19
f 46/46/20 35/35/20 34/34/20
f 45/45/21 48/48/21 47/47/21
f 43/43/22 38/38/22 37/37/22
f 40/40/23 47/47/23 46/46/23
f 39/39/24 42/42/24 41/41/24
f 37/37/25 26/26/25 25/25/25
f 29/52/26 41/41/26 40/40/26
f 43/43/27 25/25/27 31/31/27
f 30/30/28 32/53/28 27/49/28
f 41/41/29 26/54/29 39/39/29
f 34/55/30 40/40/30 46/46/30
f 35/35/31 44/44/31 33/51/31
f 47/47/32 38/38/32 45/45/32
f 25/25/15 27/27/15 32/32/15
f 28/28/16 30/30/16 27/49/16
f 34/34/17 36/36/17 30/30/17
f 33/51/18 32/53/18 36/36/18
f 31/31/19 33/33/19 44/44/19
f 46/46/20 48/48/20 35/35/20
f 45/45/21 44/44/21 48/48/21
f 43/43/22 45/45/22 38/38/22
f 40/40/23 42/42/23 47/47/23
f 39/39/24 38/38/24 42/42/24
f 37/37/25 39/39/25 26/26/25
f 29/52/26 28/56/26 41/41/26
f 43/43/27 37/37/27 25/25/27
f 30/30/28 36/36/28 32/53/28
f 41/41/29 28/56/29 26/54/29
f 34/55/30 29/57/30 40/40/30
f 35/35/31 48/48/31 44/44/31
f 47/47/32 42/42/32 38/38/32
