# Blender 4.5.2 LTS
# www.blender.org
mtllib SalleCheval.mtl
o LOW_POLY_piece_Knight_FINAL
v 1.387870 0.347728 -1.370160
v 1.678730 0.516428 0.027333
v 1.962750 0.281588 0.016130
v 1.351340 0.967468 -1.304020
v 1.187040 0.572988 -1.158360
v 1.016300 1.530138 -0.911906
v 1.911080 0.903068 0.045779
v 0.206035 2.157768 -1.003990
v 0.000000 1.550198 -1.332390
v 0.824140 2.143048 -0.695384
v 1.437270 1.481708 0.103240
v 0.000000 0.375118 -1.944390
v 1.878240 -0.056502 0.000000
v 1.328120 0.006788 -1.326610
v 1.328120 -0.119792 1.326610
v 1.387870 0.215458 1.402420
v 0.000000 0.436428 1.704150
v 0.000000 0.188058 1.976640
v 1.351340 0.838678 1.395580
v 1.187040 0.459858 1.213020
v 1.016300 1.433278 1.118390
v 0.000000 0.811998 1.954690
v 0.824140 2.048258 1.291380
v 0.000000 1.413218 1.538870
v 0.000000 -0.146002 1.876100
v 1.180330 2.095648 0.298000
v 0.206035 2.419298 -1.315690
v 0.000000 3.204988 -1.264880
v 0.202367 3.200378 -1.168130
v 0.000000 2.817388 1.689440
v 0.000000 2.028628 1.702860
v 0.000000 6.187128 0.471125
v 0.114621 6.383808 0.174802
v 0.000000 6.448658 0.159426
v 0.202367 2.938848 -0.856427
v 1.144480 2.883458 0.304654
v 0.601950 3.467028 1.022410
v 0.809468 2.835858 1.302440
v 0.000000 3.451068 1.356960
v 0.809468 2.924998 -0.566175
v 0.727236 3.513948 0.038943
v 0.601950 3.544088 -0.592959
v 0.473180 4.090228 -0.161622
v 0.117194 4.995518 -1.217750
v 0.110203 4.680528 -1.490750
v 0.117194 5.257038 -1.529451
v 0.000000 3.756738 1.130520
v 0.440810 3.857408 0.779437
v 0.000000 4.848218 0.908485
v 0.289936 5.189928 1.318719
v 0.000000 4.684038 1.281060
v 0.516426 5.494268 0.541433
v 0.348147 5.863188 0.953253
v 0.381586 5.380428 0.943561
v 0.114621 6.122278 0.486501
v 0.000000 6.096728 0.967750
v 0.087037 6.038338 0.964126
v 0.150488 3.556058 -0.843875
v 0.150488 3.817588 -1.155571
v 0.535007 4.696148 0.396102
v 0.000000 4.604218 0.669948
v 0.000000 4.452398 0.646025
v 0.519754 5.393638 0.231896
v 0.514990 4.936998 0.463603
v 0.133752 6.072688 -0.894825
v 0.124045 5.814658 -1.461081
v 0.133752 6.334208 -1.206521
v 0.000000 4.788898 0.776924
v 0.348147 5.135208 0.930630
v 0.468774 4.867628 -0.969500
v 0.575284 5.005378 -0.384036
v 0.521977 4.527228 -0.276071
v 0.458484 5.073258 0.694142
v 0.496180 4.494588 0.396896
v 0.468774 4.164008 0.610666
v 0.000000 5.992658 1.343489
v 0.072484 5.944748 1.341199
v 0.000000 4.303348 0.677699
v 0.000000 4.014028 0.938570
v 0.241484 5.147198 1.672510
v 0.000000 4.963488 1.726110
v 0.000000 4.856778 1.641659
v 0.000000 5.214048 1.674089
v 0.207882 5.214268 1.869909
v 0.000000 5.214268 1.869909
v 0.250622 5.214048 1.674089
v 0.203910 5.491108 1.902319
v 0.303622 5.247178 1.327279
v 0.000000 5.880248 1.761299
v 0.060371 5.842498 1.756689
v 0.220808 5.146798 1.734850
v 0.000000 5.147198 1.672510
v 0.000000 5.146798 1.734850
v 0.440810 4.343498 -0.915735
v 0.110203 4.418998 -1.179050
v 0.496180 5.384898 -0.878273
v 0.544965 5.524088 -0.260879
v 0.128748 6.325758 -0.031129
v 0.000000 5.556728 1.910339
v 0.050978 5.540318 1.908329
v 0.128748 6.587278 -0.342829
v 0.134460 5.391818 1.937319
v 0.135699 5.275388 1.925769
v 0.000000 5.429148 1.940619
v 0.033615 5.419808 1.939799
v 0.000000 5.275388 1.925769
v 0.524627 5.979218 0.110774
v 0.519583 5.818848 0.507161
v 0.241484 5.729248 1.742859
v 0.399423 6.263038 -0.559715
v 0.565262 6.285078 -0.982170
v 0.565262 6.336338 -1.005851
v 0.289936 5.801008 1.334349
v 0.403359 6.152828 -1.096771
v 0.565262 6.098448 -1.359921
v 0.393747 5.927828 -1.228951
v 0.000000 0.033008 -1.876110
v 0.000000 1.811728 -1.644090
v 0.000000 0.994138 -1.863130
v 0.000000 0.596418 -1.649490
v 0.000000 3.821578 -1.239210
v 0.000000 6.670497 -0.380650
v 0.000000 5.299668 -1.612201
v 0.000000 4.705698 -1.578521
v 0.000000 5.870738 -1.551441
v 0.000000 2.424198 -1.418560
v 0.124045 5.553138 -1.149381
v 0.000000 5.337408 1.960679
v 0.431368 5.554428 -0.878118
v 0.522965 5.810658 -0.277599
v 0.197922 5.652358 -1.035211
v 0.438070 6.143797 -0.040534
v 0.454585 5.920458 -0.586098
v 0.218719 6.066098 -0.847698
v 0.210203 6.278768 -0.102897
v 0.565262 6.061248 -1.300261
v 0.565262 6.255568 -1.288711
v 0.565262 6.200258 -1.189361
v 0.425202 5.965048 -0.969551
v 0.454286 6.110998 -1.014611
v 0.429924 6.058598 -0.865569
v 0.454353 6.154658 -0.907923
v 0.418378 6.100618 -0.643659
v 0.501648 5.872878 -1.114481
v 0.426348 5.723938 -0.866738
v 0.430499 6.113008 -0.313812
v 0.289345 6.202108 -0.354981
v 0.294620 6.061718 -0.846657
v 0.440730 5.965568 -0.673963
v 0.281738 5.788588 -0.970440
v 0.398448 6.019408 -0.745972
v 0.393930 6.082618 -0.591720
v 0.388940 5.892068 -0.848265
v 0.504746 6.188598 -0.513462
v 0.456060 6.055298 -1.058571
v 0.475402 5.591438 0.423709
v 0.475402 5.484878 0.143620
v 0.475402 5.853128 0.133162
v 0.475402 5.720448 0.428702
v 0.475402 5.605618 -0.161195
v 0.475402 5.740478 -0.168587
v 0.517396 5.623688 -0.117208
v 0.517396 5.703998 0.383481
v 0.517396 5.721428 -0.122566
v 0.517396 5.610898 0.379877
v 0.547646 5.627538 0.337825
v 0.517396 5.520698 0.142812
v 0.547646 5.552968 0.141837
v 0.547646 5.690318 0.340254
v 0.517396 5.816658 0.132525
v 0.547646 5.638828 -0.074917
v 0.547646 5.705148 -0.078553
v 0.547646 5.783778 0.132065
v 0.577971 5.666608 0.133021
v 0.000000 5.189928 1.318719
v 0.000000 5.247178 1.327279
v 0.000000 -0.056502 -0.000000
v 0.243940 5.453698 1.546129
v 0.171482 5.452618 1.434609
v 0.155549 5.444258 1.540809
v 0.169844 5.548018 1.422679
v 0.242048 5.547438 1.563749
v 0.153679 5.530998 1.557099
v 0.303403 5.633118 1.215119
v 0.274006 5.607748 1.411829
v 0.320977 5.473368 1.214609
v 0.247544 5.577658 1.633559
v 0.251280 5.410128 1.602129
v 0.081406 5.447048 1.432069
v 0.066837 5.505478 1.532319
v 0.068476 5.439858 1.520019
v 0.277389 5.423428 1.429899
v 0.288340 5.493778 1.299649
v 0.187564 5.561978 1.305339
v 0.197493 5.482738 1.305289
v 0.258885 5.565278 1.422859
v 0.101829 5.471568 1.327849
v 0.080166 5.519328 1.423029
v 0.260654 5.462218 1.435739
v 0.277209 5.579908 1.299629
v 0.134068 5.367288 1.347389
v 0.095006 5.530678 1.327999
v 0.064770 5.344258 1.462719
v 0.071715 5.348118 1.415479
v 0.120096 5.351108 1.416849
v 0.082685 5.361288 1.359509
v 0.111539 5.346628 1.473889
v -1.387870 0.347728 -1.370160
v -1.678730 0.516428 0.027333
v -1.187040 0.572988 -1.158360
v -1.351340 0.967468 -1.304020
v -1.911080 0.903068 0.045779
v -1.016300 1.530138 -0.911906
v -0.206035 2.157768 -1.003990
v -1.437270 1.481708 0.103240
v -0.824140 2.143048 -0.695384
v -1.878240 -0.056502 0.000000
v -1.328120 0.006788 -1.326610
v -1.328120 -0.119792 1.326610
v -1.962750 0.281588 0.016130
v -1.387870 0.215458 1.402420
v -1.187040 0.459858 1.213020
v -1.351340 0.838678 1.395580
v -1.016300 1.433278 1.118390
v -0.824140 2.048258 1.291380
v -1.180330 2.095648 0.298000
v -0.206035 2.419298 -1.315690
v -0.114621 6.383808 0.174802
v -0.114621 6.122278 0.486501
v -0.202367 2.938848 -0.856427
v -0.601950 3.467028 1.022410
v -1.144480 2.883458 0.304654
v -0.809468 2.835858 1.302440
v -0.727236 3.513948 0.038943
v -0.809468 2.924998 -0.566175
v -0.473180 4.090228 -0.161622
v -0.601950 3.544088 -0.592959
v -0.117194 4.995518 -1.217750
v -0.110203 4.680528 -1.490750
v -0.110203 4.418998 -1.179050
v -0.440810 3.857408 0.779437
v -0.289936 5.189928 1.318719
v -0.348147 5.135208 0.930630
v -0.516426 5.494268 0.541433
v -0.348147 5.863188 0.953253
v -0.519583 5.818848 0.507161
v -0.150488 3.556058 -0.843875
v -0.202367 3.200378 -1.168130
v -0.535007 4.696148 0.396102
v -0.519754 5.393638 0.231896
v -0.544965 5.524088 -0.260879
v -0.133752 6.072688 -0.894825
v -0.124045 5.814658 -1.461081
v -0.124045 5.553138 -1.149381
v -0.458484 5.073258 0.694142
v -0.575284 5.005378 -0.384036
v -0.468774 4.867628 -0.969500
v -0.521977 4.527228 -0.276071
v -0.381586 5.380428 0.943561
v -0.496180 4.494588 0.396896
v -0.468774 4.164008 0.610666
v -0.087037 6.038338 0.964126
v -0.241484 5.147198 1.672510
v -0.207882 5.214268 1.869909
v -0.250622 5.214048 1.674089
v -0.203910 5.491108 1.902319
v -0.241484 5.729248 1.742859
v -0.303622 5.247178 1.327279
v -0.072484 5.944748 1.341199
v -0.220808 5.146798 1.734850
v -0.440810 4.343498 -0.915735
v -0.150488 3.817588 -1.155571
v -0.496180 5.384898 -0.878273
v -0.128747 6.325758 -0.031129
v -0.060371 5.842498 1.756689
v -0.514990 4.936998 0.463603
v -0.128748 6.587278 -0.342829
v -0.134460 5.391818 1.937319
v -0.050977 5.540318 1.908329
v -0.135699 5.275388 1.925769
v -0.524627 5.979218 0.110774
v -0.399423 6.263038 -0.559715
v -0.565262 6.285078 -0.982170
v -0.504746 6.188598 -0.513462
v -0.289936 5.801008 1.334349
v -0.565262 6.098448 -1.359921
v -0.403359 6.152828 -1.096771
v -0.393747 5.927828 -1.228951
v -0.133752 6.334208 -1.206521
v 0.000000 6.418377 -1.322751
v -0.117194 5.257038 -1.529451
v -0.033615 5.419808 1.939799
v -0.431368 5.554428 -0.878118
v -0.522965 5.810658 -0.277599
v -0.454585 5.920458 -0.586098
v -0.197922 5.652358 -1.035211
v -0.438070 6.143797 -0.040534
v -0.210202 6.278768 -0.102897
v -0.218719 6.066098 -0.847698
v -0.565262 6.061248 -1.300261
v -0.565262 6.255568 -1.288711
v -0.565262 6.200258 -1.189361
v -0.565262 6.336338 -1.005851
v -0.454285 6.110998 -1.014611
v -0.425202 5.965048 -0.969551
v -0.429924 6.058598 -0.865569
v -0.454353 6.154658 -0.907923
v -0.418377 6.100618 -0.643659
v -0.501648 5.872878 -1.114481
v -0.426348 5.723938 -0.866738
v -0.430499 6.113008 -0.313812
v -0.289344 6.202108 -0.354981
v -0.281737 5.788588 -0.970440
v -0.398448 6.019408 -0.745972
v -0.393930 6.082618 -0.591720
v -0.294620 6.061718 -0.846657
v -0.388940 5.892068 -0.848265
v -0.456060 6.055298 -1.058571
v -0.440730 5.965568 -0.673963
v -0.475402 5.591438 0.423709
v -0.475402 5.484878 0.143620
v -0.475402 5.853128 0.133162
v -0.475402 5.720448 0.428702
v -0.475402 5.605618 -0.161195
v -0.475402 5.740478 -0.168587
v -0.517396 5.623688 -0.117208
v -0.517396 5.703998 0.383481
v -0.517396 5.610898 0.379877
v -0.517396 5.721428 -0.122566
v -0.517396 5.816658 0.132525
v -0.517396 5.520698 0.142812
v -0.547646 5.627538 0.337825
v -0.547646 5.552968 0.141837
v -0.547646 5.690318 0.340254
v -0.547646 5.783778 0.132065
v -0.547646 5.638828 -0.074917
v -0.547646 5.705148 -0.078553
v -0.577971 5.666608 0.133021
v -0.171482 5.452618 1.434609
v -0.243939 5.453698 1.546129
v -0.155549 5.444258 1.540809
v -0.169844 5.548018 1.422679
v -0.242048 5.547438 1.563749
v -0.258885 5.565278 1.422859
v -0.303403 5.633118 1.215119
v -0.274006 5.607748 1.411829
v -0.320977 5.473368 1.214609
v -0.277389 5.423428 1.429899
v -0.247544 5.577658 1.633559
v -0.251280 5.410128 1.602129
v -0.081406 5.447048 1.432069
v -0.066837 5.505478 1.532319
v -0.080166 5.519328 1.423029
v -0.187563 5.561978 1.305339
v -0.288340 5.493778 1.299649
v -0.197493 5.482738 1.305289
v -0.153679 5.530998 1.557099
v -0.277209 5.579908 1.299629
v -0.101829 5.471568 1.327849
v -0.095006 5.530678 1.327999
v -0.260654 5.462218 1.435739
v -0.134068 5.367288 1.347389
v -0.064769 5.344258 1.462719
v -0.068476 5.439858 1.520019
v -0.082684 5.361288 1.359509
v -0.120096 5.351108 1.416849
v -0.071715 5.348118 1.415479
v -0.111539 5.346628 1.473889
vn 0.6939 0.4931 0.5246
vn 0.5818 0.6570 -0.4794
vn 0.3685 0.8646 -0.3417
vn 0.3996 -0.9131 0.0813
vn 0.7072 -0.3728 -0.6007
vn 0.7881 0.5485 -0.2793
vn 0.8070 -0.3915 -0.4420
vn 0.6936 0.6431 -0.3245
vn 0.6902 0.5517 0.4683
vn 0.1940 -0.6829 -0.7043
vn -0.5660 0.6367 -0.5236
vn 0.9118 0.0265 0.4097
vn 0.8036 -0.5153 -0.2978
vn 0.3649 0.5197 -0.7725
vn 0.6712 0.3038 0.6762
vn 0.9364 0.3148 0.1550
vn 0.4498 -0.1842 -0.8739
vn -0.2636 0.9645 -0.0119
vn 0.5139 -0.8489 -0.1235
vn 0.3514 -0.0884 -0.9321
vn 0.8158 -0.1079 0.5681
vn 0.7472 -0.4751 0.4647
vn 0.8384 0.0868 -0.5381
vn 0.7330 0.5212 0.4371
vn 0.7918 0.5161 0.3267
vn 0.6002 0.6285 -0.4947
vn 0.3927 0.7856 0.4782
vn -0.5071 0.5048 0.6986
vn 0.0093 -0.6472 0.7622
vn 0.3975 0.8050 -0.4404
vn -0.3524 -0.7304 0.5852
vn 0.9354 -0.0008 -0.3535
vn -0.3253 0.2912 0.8997
vn -0.2389 -0.2309 0.9432
vn 0.8350 0.5264 -0.1602
vn -0.2795 0.8479 0.4506
vn -0.2127 -0.7125 0.6686
vn 0.8663 0.4446 -0.2278
vn -0.2261 0.5942 0.7719
vn -0.0438 -0.8423 0.5372
vn 0.9964 0.0809 0.0265
vn -0.5716 -0.1123 0.8128
vn 0.7677 -0.5474 0.3333
vn 0.7663 -0.0486 -0.6406
vn 0.7013 -0.4377 0.5626
vn 0.8399 -0.0555 0.5399
vn 0.7427 0.5318 -0.4070
vn 0.7037 0.5986 0.3826
vn 0.8250 0.0644 0.5614
vn 0.7675 0.2889 -0.5723
vn 0.4018 0.4709 0.7854
vn 0.2291 0.6898 -0.6868
vn 0.5798 -0.8132 -0.0498
vn -0.0420 -0.1503 -0.9878
vn -0.3224 0.4028 0.8566
vn 0.1516 -0.9352 0.3199
vn 0.4438 0.8920 0.0854
vn 0.1597 0.6410 -0.7507
vn -0.3932 0.5662 0.7244
vn 0.0845 -0.4345 0.8967
vn 0.8218 0.3377 0.4589
vn 0.5879 -0.7055 -0.3957
vn 0.4420 0.8932 -0.0827
vn 0.6638 0.5264 0.5313
vn 0.7499 -0.4522 0.4829
vn 0.4668 0.8531 -0.2332
vn -0.4126 0.3865 0.8248
vn 0.1068 -0.7300 0.6751
vn 0.9780 0.1652 -0.1276
vn 0.5452 0.7783 0.3114
vn 0.7906 -0.0657 -0.6088
vn 0.6693 0.4913 -0.5574
vn 0.8300 0.1556 0.5356
vn 0.8198 -0.5201 -0.2398
vn 0.8293 0.3159 -0.4609
vn 0.6049 0.7379 0.2993
vn 0.9446 0.2048 -0.2564
vn 0.5475 0.7529 -0.3651
vn 0.7502 -0.0512 -0.6593
vn 0.8250 0.5650 -0.0098
vn 0.8261 -0.5451 0.1431
vn -0.4748 0.6660 0.5754
vn 0.1039 -0.6317 0.7682
vn 0.9496 0.1752 -0.2598
vn 0.6488 0.3697 0.6651
vn 0.8381 -0.3402 0.4265
vn 0.6265 0.3180 -0.7116
vn 0.4331 -0.1054 0.8951
vn 0.3677 -0.8849 -0.2859
vn 0.4359 0.1051 -0.8939
vn 0.8865 0.0943 0.4530
vn 0.9013 -0.3930 -0.1824
vn 0.8774 0.4154 0.2401
vn -0.0458 0.1619 0.9857
vn 0.6004 0.0901 -0.7946
vn -0.3944 0.7944 -0.4620
vn 0.6634 0.0011 -0.7482
vn 0.7708 0.5610 0.3020
vn 0.8809 -0.4418 0.1700
vn -0.0682 -0.2418 0.9679
vn 0.1232 -0.9893 0.0784
vn 0.4442 0.8804 0.1662
vn 0.8149 0.5750 0.0721
vn 0.9714 -0.1685 0.1672
vn 0.9028 -0.3954 -0.1692
vn 0.8086 0.1047 -0.5789
vn 0.8530 0.4567 0.2525
vn 0.8466 -0.5028 -0.1745
vn 0.4362 0.3652 0.8224
vn -0.1208 -0.9816 0.1477
vn 0.8405 0.1139 -0.5297
vn 0.8285 -0.3367 0.4474
vn 0.9591 -0.2052 -0.1952
vn 0.9592 -0.0579 -0.2767
vn 0.4946 0.1705 0.8523
vn 0.8714 -0.4388 0.2192
vn 0.9552 0.0885 -0.2826
vn 0.9788 -0.0724 0.1914
vn 0.7966 -0.5950 0.1068
vn 0.8223 0.4068 -0.3978
vn 0.0819 0.1026 0.9913
vn 0.5865 0.1276 -0.7998
vn -0.4056 0.7986 -0.4446
vn -0.3245 0.4405 0.8370
vn 0.0361 -0.6578 0.7523
vn 0.3823 0.7848 -0.4878
vn 0.1620 -0.7370 0.6562
vn 0.1737 -0.9097 -0.3772
vn 0.4707 0.5124 0.7182
vn 0.2964 -0.0723 0.9523
vn -0.7318 -0.6556 -0.1860
vn -0.0000 -0.2254 -0.9743
vn 0.5671 0.1861 0.8023
vn 0.6346 -0.7724 0.0254
vn 0.7813 0.3923 -0.4856
vn 0.8563 -0.2648 -0.4433
vn 0.7386 0.5524 0.3864
vn 0.8498 -0.4895 0.1956
vn 0.3315 -0.8136 0.4777
vn 0.7507 0.0169 -0.6604
vn 0.8525 0.4919 0.1766
vn 0.0916 0.0781 0.9927
vn 0.5737 0.3011 -0.7617
vn -0.3778 0.8531 -0.3599
vn -0.6427 0.7587 -0.1064
vn -0.0000 0.0175 0.9998
vn 0.3583 0.3565 -0.8628
vn -0.3928 0.5730 0.7193
vn 0.8399 -0.4968 0.2186
vn 0.8608 0.3101 -0.4036
vn 0.9765 -0.1183 0.1802
vn 0.7532 -0.4551 -0.4749
vn 0.6704 0.1533 -0.7259
vn 0.8116 -0.2526 0.5268
vn 0.9554 -0.2867 -0.0715
vn 0.9893 0.0290 -0.1427
vn 0.8459 -0.0689 -0.5288
vn 0.8156 0.5784 -0.0165
vn 0.8166 -0.3317 0.4724
vn 0.8944 -0.2488 0.3717
vn 0.9565 0.0161 -0.2912
vn 0.9800 0.1609 -0.1170
vn 0.9725 -0.2279 0.0490
vn 0.7438 -0.5617 -0.3624
vn 0.8826 0.2241 -0.4132
vn -0.1300 0.0881 0.9876
vn 0.9127 -0.3977 -0.0941
vn 0.8717 0.3388 -0.3541
vn 0.7044 0.1487 0.6941
vn 0.7619 -0.6476 0.0129
vn 0.2994 0.4065 -0.8632
vn -0.6301 -0.2044 0.7491
vn 0.8651 -0.3747 0.3335
vn 0.7286 0.5896 0.3485
vn -0.0068 -0.6186 0.7857
vn 0.5150 0.7961 -0.3179
vn -0.5877 0.8017 -0.1087
vn 0.9509 -0.1140 0.2877
vn 0.8832 0.1599 -0.4408
vn 0.8232 0.5676 0.0105
vn 0.0473 -0.4974 0.8662
vn 0.7985 -0.3727 -0.4726
vn 0.9142 0.3872 -0.1194
vn 0.8099 0.2783 0.5163
vn 0.7837 -0.4178 0.4597
vn 0.7499 -0.0662 -0.6582
vn 0.0176 0.5445 0.8386
vn 0.1869 -0.9734 0.1324
vn 0.3116 0.9189 0.2417
vn -0.2481 -0.8830 0.3985
vn 0.6556 0.7401 -0.1496
vn -0.5872 0.8053 -0.0811
vn 0.8319 0.2234 0.5080
vn -0.8347 -0.5444 -0.0825
vn -0.0000 -0.8024 -0.5968
vn 0.7981 -0.5653 0.2083
vn 0.5297 0.8482 0.0090
vn -0.6714 0.3568 0.6495
vn 0.3074 0.7398 0.5986
vn 0.9420 -0.3343 0.0301
vn 0.3007 0.9471 0.1125
vn -0.1952 -0.0275 0.9804
vn 0.9337 0.2815 -0.2212
vn 0.1778 0.9785 0.1043
vn 0.6199 0.1514 -0.7700
vn 0.7406 0.2718 0.6145
vn 0.2445 -0.1115 0.9632
vn 0.9534 0.0376 -0.2995
vn 0.1524 -0.5691 -0.8080
vn 0.4178 0.5084 -0.7530
vn 0.2118 0.6969 0.6852
vn 0.8725 0.0719 -0.4833
vn 0.3259 0.8276 -0.4570
vn 0.2995 0.5317 0.7922
vn 0.8988 -0.0829 -0.4304
vn 0.3666 0.8650 -0.3425
vn 0.9595 0.1943 -0.2039
vn 0.1812 -0.2647 -0.9471
vn 0.4289 0.6897 -0.5833
vn -0.3992 -0.1115 -0.9101
vn -0.9681 -0.0249 0.2493
vn -0.3892 0.9179 0.0771
vn 0.6272 -0.2495 0.7378
vn 0.2214 0.8770 -0.4265
vn 0.3055 0.8725 0.3813
vn 0.8984 0.3073 -0.3138
vn 0.1972 -0.7817 -0.5916
vn -0.1964 -0.1235 -0.9727
vn 0.9273 0.3356 -0.1659
vn 0.4968 -0.5405 -0.6790
vn -0.3374 0.1322 -0.9320
vn 0.8236 0.2282 -0.5192
vn 0.9121 -0.0233 0.4094
vn 0.8583 -0.2449 -0.4510
vn 0.1384 0.8865 -0.4415
vn 0.9000 -0.3338 -0.2802
vn 0.2664 -0.5866 -0.7648
vn 0.3499 -0.9312 -0.1023
vn -0.5413 0.1020 -0.8346
vn 0.1439 0.8347 -0.5317
vn 0.3438 0.2401 -0.9078
vn 0.7777 0.2741 0.5657
vn 0.7577 -0.6196 0.2049
vn -0.1745 0.9640 -0.2006
vn 0.9203 -0.3885 0.0458
vn -0.6002 0.1569 -0.7843
vn 0.4013 -0.9040 0.1477
vn -0.6433 -0.1674 -0.7471
vn -0.0372 0.9251 -0.3779
vn 0.9117 0.2973 0.2836
vn 0.2873 -0.4675 -0.8360
vn 0.0514 0.4882 -0.8712
vn 0.9206 -0.0237 0.3898
vn 0.3905 -0.7859 -0.4793
vn 0.2078 0.1647 -0.9642
vn 0.4812 0.8230 0.3019
vn 0.5620 -0.1833 -0.8065
vn 0.4322 0.4559 -0.7780
vn 0.9312 -0.1944 0.3082
vn 0.4875 -0.4548 -0.7454
vn 0.3467 0.6081 -0.7141
vn 0.9323 -0.1365 0.3350
vn 0.4228 -0.5983 -0.6807
vn 0.0727 0.1155 -0.9906
vn 0.9373 -0.1677 0.3057
vn 0.4480 -0.1347 -0.8838
vn 0.1468 0.5142 -0.8450
vn 0.1899 0.4933 0.8489
vn 0.9456 -0.2568 0.1999
vn -0.0020 0.9664 -0.2569
vn 0.4647 0.8770 -0.1220
vn 0.4293 -0.8387 -0.3351
vn 0.1207 -0.1757 -0.9770
vn 0.7922 0.0161 -0.6101
vn 0.8394 0.4144 0.3517
vn 0.8433 -0.3855 0.3744
vn -0.8590 -0.4546 0.2357
vn 0.8622 -0.4901 0.1280
vn 0.1798 0.9826 0.0470
vn -0.7381 0.4369 0.5142
vn -0.8011 -0.4210 0.4255
vn 0.9979 0.0056 0.0651
vn -0.9043 0.2953 0.3083
vn 0.5052 -0.8387 0.2035
vn 0.6556 0.7530 0.0566
vn 0.9949 -0.0494 0.0878
vn -0.9511 -0.1163 0.2861
vn 0.5543 -0.8185 -0.1511
vn 0.8921 -0.4119 -0.1858
vn 0.8703 0.2754 -0.4083
vn 0.7522 0.6269 0.2031
vn -0.1113 0.4759 -0.8724
vn 0.8774 0.4610 -0.1330
vn 0.0617 -0.6602 -0.7486
vn -0.2836 0.4855 0.8270
vn 0.8335 0.1284 0.5374
vn 0.2327 0.9272 0.2937
vn 0.7383 -0.2940 -0.6070
vn 0.8922 0.4444 -0.0801
vn 0.9134 0.3827 0.1387
vn 0.1689 0.9804 0.1011
vn 0.7688 -0.1578 -0.6197
vn -0.4837 -0.3928 -0.7821
vn -0.8112 0.4583 -0.3632
vn 0.2679 0.9004 0.3427
vn 0.6086 0.4233 -0.6711
vn 0.8331 0.4515 0.3195
vn 0.5584 -0.8293 0.0217
vn 0.9567 -0.1847 -0.2252
vn 0.9567 0.1646 0.2402
vn 0.5588 -0.7928 0.2434
vn 0.9493 0.2310 -0.2133
vn 0.9364 0.2117 0.2799
vn 0.6733 -0.5406 0.5044
vn 0.9233 -0.3353 -0.1875
vn -0.0433 0.9572 -0.2860
vn -0.4424 0.1113 -0.8899
vn -0.4256 0.5796 0.6950
vn 0.9905 0.1304 0.0429
vn 0.5865 -0.5870 0.5581
vn 0.6732 -0.2457 -0.6974
vn 0.8078 0.0450 -0.5877
vn -0.1450 -0.9342 -0.3260
vn -0.0905 -0.3093 -0.9467
vn 0.9509 -0.1869 0.2468
vn 0.2449 -0.2818 -0.9277
vn 0.3806 0.7528 -0.5371
vn 0.9326 0.3250 0.1573
vn 0.8385 0.0088 0.5448
vn 0.6593 -0.0852 -0.7471
vn 0.7784 0.3751 0.5034
vn -0.0628 -0.1728 -0.9830
vn -0.9006 0.4103 0.1430
vn 0.9366 -0.0797 -0.3413
vn 0.8998 0.3625 0.2427
vn 0.8968 -0.2911 -0.3333
vn 0.0761 -0.7666 -0.6376
vn -0.9974 -0.0678 -0.0252
vn 0.3967 0.9159 0.0612
vn 0.5924 -0.1323 -0.7947
vn -0.0662 0.9885 -0.1363
vn 0.5106 -0.1351 0.8491
vn 0.9948 0.0760 -0.0684
vn -0.2248 -0.9707 0.0848
vn -0.1140 -0.5041 -0.8561
vn 0.8372 -0.4432 0.3205
vn 0.1811 -0.6701 0.7198
vn 0.8361 -0.5410 -0.0907
vn 0.1869 0.8582 0.4780
vn -0.3919 -0.1959 -0.8989
vn -0.7368 0.4090 0.5384
vn 0.9749 -0.0652 0.2127
vn 0.8140 -0.3587 0.4569
vn 0.9754 -0.2064 0.0769
vn 0.3817 0.7480 -0.5430
vn -0.8286 -0.4755 -0.2955
vn -0.8278 -0.2031 0.5230
vn 0.6756 0.1969 -0.7105
vn 0.0545 0.8678 0.4939
vn 0.3617 -0.2758 0.8906
vn 0.7996 0.2453 0.5481
vn 0.6862 -0.4050 0.6042
vn 0.8857 -0.4109 -0.2161
vn 0.8402 -0.0087 0.5422
vn 0.5852 -0.7854 0.2019
vn 0.8845 -0.2283 -0.4069
vn 0.5394 -0.5478 0.6395
vn 0.6038 -0.7231 -0.3355
vn 0.6870 -0.1635 -0.7081
vn 0.9916 -0.0421 -0.1222
vn 0.8166 0.5769 -0.0203
vn 0.6119 -0.2709 0.7431
vn 0.9069 0.2144 -0.3627
vn 0.6640 0.7469 0.0361
vn 0.9048 0.4193 -0.0744
vn 0.9552 0.1763 -0.2378
vn 0.7251 0.0608 -0.6860
vn 0.7539 0.6464 -0.1175
vn 0.8395 -0.5109 0.1850
vn 0.4268 -0.9031 0.0481
vn 0.5150 -0.5999 -0.6123
vn 0.9709 -0.1838 0.1538
vn 0.8516 0.5230 0.0347
vn 0.4672 0.3410 0.8157
vn 0.9439 0.2745 -0.1837
vn 0.8731 0.4869 0.0240
vn 0.9503 0.3112 -0.0115
vn 0.9451 -0.3263 0.0175
vn 0.7903 -0.3869 -0.4751
vn 0.9437 -0.2954 -0.1488
vn 0.8554 0.5121 0.0783
vn 0.7907 0.4700 0.3921
vn 0.8743 0.3772 0.3055
vn 0.9342 -0.3001 0.1927
vn 0.7434 -0.6646 0.0750
vn 0.9295 -0.3678 -0.0283
vn 0.9210 0.0685 0.3834
vn 0.8138 0.2786 0.5100
vn 0.8724 -0.0441 0.4868
vn 0.9492 -0.0051 -0.3147
vn 0.9082 0.1152 -0.4023
vn 0.9477 0.0929 -0.3055
vn -0.1189 -0.9553 -0.2707
vn 0.6213 -0.6771 -0.3943
vn 0.6989 -0.6981 -0.1558
vn 0.7508 0.0473 0.6588
vn 0.0485 -0.1399 0.9890
vn 0.7330 -0.0428 0.6788
vn 0.6413 0.6497 -0.4082
vn -0.0627 0.9673 -0.2457
vn 0.6528 0.7310 -0.1988
vn 0.6321 -0.6743 0.3817
vn -0.0961 -0.9665 0.2381
vn 0.6285 -0.7520 0.1988
vn 0.0518 0.9955 -0.0789
vn 0.6183 0.6380 0.4590
vn 0.6325 0.7125 0.3038
vn 0.1351 -0.3986 -0.9071
vn 0.7325 0.1220 -0.6698
vn 0.7608 -0.0959 -0.6419
vn 0.5427 -0.8053 -0.2387
vn 0.6235 0.0712 0.7786
vn 0.1658 -0.8186 0.5500
vn 0.2440 0.8928 0.3786
vn 0.4290 0.0560 0.9016
vn 0.7898 0.4386 -0.4287
vn 0.2213 -0.9155 -0.3361
vn 0.4964 -0.0227 -0.8678
vn 0.6548 -0.5669 0.4999
vn 0.5568 0.7984 0.2294
vn 0.9597 -0.1992 -0.1981
vn 0.1717 0.8301 -0.5305
vn 0.5289 -0.4332 -0.7298
vn 0.7246 0.6504 -0.2279
vn 0.8693 -0.4942 -0.0093
vn 0.6406 -0.5241 0.5612
vn 0.9272 0.3686 -0.0666
vn 0.6583 0.4914 0.5703
vn 0.9626 -0.2529 0.0973
vn 0.8301 -0.3786 -0.4094
vn 0.8345 0.2306 0.5004
vn 0.9608 0.2523 0.1151
vn 0.8825 -0.3437 0.3211
vn 0.8524 0.3357 -0.4010
vn 0.9578 -0.2666 -0.1074
vn 0.8787 0.3227 -0.3518
vn 0.8433 -0.3295 0.4246
vn 0.9631 0.2520 -0.0950
vn 0.8389 0.3745 0.3949
vn 0.8348 -0.2133 -0.5076
vn 0.9891 -0.0077 -0.1472
vn 0.9047 0.3110 0.2913
vn 0.9247 -0.1375 0.3551
vn 0.9888 -0.0059 0.1493
vn 0.9094 -0.2944 -0.2938
vn 0.9194 0.1426 -0.3664
vn -0.2815 0.9362 -0.2104
vn -0.0000 -0.4891 0.8722
vn 0.9997 0.0237 0.0029
vn -0.6002 -0.0227 0.7995
vn -0.0000 -0.9010 -0.4338
vn 0.9246 0.0563 -0.3768
vn -0.0699 -0.6545 -0.7528
vn 0.9553 0.2945 0.0281
vn -0.1084 -0.8603 0.4981
vn 0.7480 -0.3469 -0.5659
vn 0.2899 -0.0931 0.9525
vn -0.6196 -0.5113 -0.5956
vn -0.7889 -0.5244 -0.3203
vn 0.4709 -0.0056 -0.8822
vn 0.8523 -0.4022 0.3343
vn 0.2900 -0.5008 -0.8156
vn 0.8809 -0.0700 0.4681
vn -0.3816 -0.7202 0.5795
vn -0.7125 -0.6853 -0.1507
vn 0.9559 -0.0338 -0.2919
vn -0.5744 -0.5678 0.5896
vn -0.7031 0.6317 -0.3265
vn 0.3738 0.5303 0.7610
vn 0.5010 -0.1583 -0.8509
vn 0.1234 -0.1496 0.9810
vn -0.3951 -0.8488 -0.3512
vn 0.1196 0.4833 -0.8672
vn 0.9147 0.0869 0.3947
vn 0.7919 -0.5730 0.2112
vn 0.9917 0.0144 -0.1278
vn 0.9151 -0.2950 0.2750
vn 0.9006 0.2232 -0.3729
vn 0.8366 -0.0537 0.5451
vn 0.9968 -0.0628 0.0492
vn 0.7190 0.6882 -0.0967
vn 0.9840 0.0351 0.1744
vn 0.9962 0.0622 -0.0606
vn 0.8349 0.3373 0.4350
vn 0.7804 -0.5946 0.1934
vn 0.9347 0.0452 0.3525
vn 0.0432 -0.8171 -0.5749
vn 0.4569 0.6573 -0.5993
vn 0.8970 -0.2342 0.3749
vn 0.7889 0.3757 -0.4863
vn 0.7212 0.5406 0.4332
vn 0.9300 0.0524 0.3637
vn 0.7816 -0.5193 -0.3457
vn 0.9987 0.0029 0.0510
vn -0.7338 0.2388 0.6360
vn 0.1389 -0.9213 -0.3631
vn 0.2862 0.9068 -0.3095
vn 0.6609 -0.7031 0.2624
vn -0.6705 0.3414 -0.6587
vn 0.8437 0.3836 0.3755
vn 0.3834 0.3670 0.8475
vn -0.6341 -0.7004 -0.3277
vn 0.8440 0.1381 -0.5182
vn 0.0083 0.1841 0.9829
vn 0.5823 -0.7964 -0.1632
vn 0.9776 0.2037 0.0531
vn 0.8362 0.5463 -0.0474
vn 0.4150 -0.0604 0.9078
vn 0.6747 0.1562 -0.7213
vn 0.9192 -0.3570 -0.1661
vn 0.7241 0.1243 0.6784
vn 0.8515 -0.3848 0.3563
vn 0.8733 0.3248 -0.3630
vn 0.8311 0.4226 0.3616
vn 0.8707 -0.1500 0.4684
vn 0.9801 0.1700 -0.1024
vn 0.8482 -0.1074 0.5186
vn 0.9915 -0.0298 -0.1263
vn 0.7570 0.4169 0.5032
vn 0.9123 -0.4096 0.0035
vn 0.9108 0.4106 0.0431
vn 0.9487 0.2925 -0.1199
vn 0.8743 -0.3527 0.3335
vn 0.9374 -0.3483 -0.0057
vn -0.9150 0.3977 -0.0685
vn 0.2810 -0.4416 0.8521
vn 0.1686 0.7096 -0.6842
vn 0.7800 -0.5888 0.2119
vn -0.0063 0.8485 -0.5292
vn -0.6952 -0.7184 0.0243
vn 0.1345 0.0539 0.9895
vn -0.8013 -0.2941 -0.5209
vn 0.6584 -0.2704 -0.7024
vn 0.4731 -0.8807 -0.0214
vn -0.9220 0.3629 0.1350
vn 0.5974 0.7970 -0.0885
vn -0.9976 0.0324 -0.0611
vn 0.6488 -0.7311 -0.2111
vn 0.7437 0.6678 0.0303
vn 0.3889 -0.4756 0.7890
vn -0.9616 0.0971 -0.2568
vn 0.7693 0.3339 -0.5447
vn 0.9321 -0.3322 0.1446
vn 0.0733 0.6820 -0.7276
vn 0.0612 0.7367 0.6734
vn -0.7956 0.1007 -0.5974
vn -0.0521 -0.3794 0.9238
vn 0.8618 0.2247 -0.4547
vn -0.7032 -0.3250 -0.6324
vn 0.1322 0.0016 0.9912
vn 0.7675 -0.0097 -0.6410
vn 0.2621 -0.6192 -0.7402
vn -0.9379 0.1858 0.2930
vn 0.6864 0.4750 0.5507
vn -0.8446 -0.4981 -0.1963
vn 0.3459 0.1516 0.9260
vn 0.4355 0.8309 -0.3463
vn -0.6177 0.1336 0.7750
vn 0.6921 0.6762 0.2524
vn -0.0031 -0.7207 -0.6932
vn 0.9809 -0.1888 -0.0467
vn -0.0220 0.9898 -0.1404
vn 0.0101 -0.6120 0.7908
vn -0.5365 0.6316 0.5596
vn -0.5052 0.7209 -0.4744
vn -0.9828 -0.1797 -0.0436
vn -0.6953 -0.3921 -0.6024
vn -0.4832 -0.8540 0.1929
vn -0.8942 0.2220 0.3887
vn -0.6949 0.6409 -0.3261
vn -0.8916 -0.3944 -0.2224
vn -0.5672 0.6883 0.4522
vn 0.6104 0.5377 -0.5817
vn -0.4115 -0.6769 -0.6103
vn -0.3272 0.8157 0.4770
vn -0.3722 0.4898 -0.7884
vn -0.8535 -0.4986 -0.1516
vn -0.5563 0.5279 0.6418
vn -0.2750 0.8080 0.5211
vn 0.6615 0.3352 -0.6708
vn 0.0284 -0.6825 -0.7303
vn -0.3502 -0.0937 -0.9320
vn -0.5139 -0.8489 -0.1235
vn -0.8516 0.2813 0.4422
vn -0.8376 0.0809 -0.5402
vn -0.7730 -0.5102 0.3772
vn -0.7488 0.5271 0.4017
vn -0.6051 0.6235 -0.4950
vn -0.7370 0.5210 0.4306
vn -0.4448 0.7201 0.5326
vn -0.9310 0.3382 -0.1373
vn 0.5551 0.1191 0.8232
vn 0.5286 0.6417 0.5557
vn -0.9478 0.2595 -0.1852
vn 0.3958 -0.6203 0.6772
vn -0.3958 0.4954 0.7732
vn -0.9369 0.3419 -0.0734
vn 0.4026 -0.0895 0.9110
vn 0.1508 0.9265 0.3446
vn -0.9383 0.1740 -0.2988
vn 0.3425 -0.5743 0.7436
vn 0.0604 0.6935 0.7179
vn -0.9991 -0.0407 -0.0112
vn 0.0730 -0.8305 0.5522
vn 0.5641 -0.0684 0.8229
vn -0.7307 -0.1869 -0.6566
vn -0.7675 -0.5444 0.3385
vn -0.7746 -0.3362 0.5358
vn -0.7856 0.4722 -0.3999
vn -0.7972 -0.0369 0.6026
vn -0.7018 0.6038 0.3779
vn -0.7975 0.1855 -0.5741
vn -0.9416 -0.0076 0.3367
vn -0.4016 0.5299 0.7469
vn 0.1376 0.2583 -0.9562
vn -0.2586 -0.9382 -0.2300
vn -0.3916 0.9093 0.1410
vn -0.8000 -0.5999 -0.0093
vn 0.2657 0.4959 0.8267
vn -0.9160 0.3755 -0.1414
vn -0.9119 0.0145 -0.4102
vn -0.0418 0.1478 0.9881
vn 0.2858 0.8636 -0.4153
vn -0.5879 -0.7207 -0.3673
vn -0.8218 0.3377 0.4589
vn -0.4427 0.8552 -0.2693
vn -0.9281 -0.2975 -0.2239
vn -0.6594 0.5462 0.5165
vn -0.5645 0.7441 -0.3572
vn -0.8700 -0.4599 0.1776
vn 0.4101 0.4890 0.7699
vn -0.1296 0.9787 -0.1590
vn -0.8514 -0.1162 -0.5115
vn -0.8229 0.3371 0.4575
vn -0.6810 0.4590 -0.5705
vn -0.7820 -0.6093 -0.1312
vn -0.8175 0.0250 0.5754
vn -0.8524 0.0818 -0.5164
vn -0.9527 0.1943 -0.2339
vn -0.8073 0.3017 0.5072
vn -0.5529 0.6903 -0.4667
vn -0.7475 -0.6266 -0.2204
vn -0.8220 -0.1414 0.5517
vn -0.8079 0.4053 -0.4279
vn -0.9622 -0.2695 0.0397
vn 0.4799 0.3770 0.7922
vn -0.1107 0.9244 -0.3650
vn -0.8897 -0.1905 -0.4149
vn -0.6254 0.4176 0.6591
vn -0.3208 0.8392 -0.4391
vn -0.8150 0.4485 0.3669
vn -0.5588 -0.7049 -0.4368
vn -0.0979 -0.6437 0.7590
vn -0.9057 0.1577 0.3934
vn -0.9403 -0.1479 -0.3066
vn -0.8537 -0.3356 0.3983
vn 0.6630 0.5984 0.4498
vn -0.2975 0.3103 -0.9029
vn -0.5373 -0.3601 0.7627
vn -0.6855 -0.6833 -0.2513
vn -0.8082 -0.1220 0.5761
vn -0.5404 0.7953 -0.2748
vn -0.9724 0.1099 -0.2060
vn 0.0690 -0.2363 0.9692
vn -0.7535 0.6565 -0.0358
vn -0.8429 0.4908 -0.2205
vn -0.9881 -0.0807 -0.1308
vn -0.9661 -0.0260 0.2568
vn -0.8035 -0.3993 -0.4415
vn -0.8462 -0.2448 0.4733
vn -0.7987 0.4267 -0.4243
vn -0.9127 0.3867 0.1321
vn -0.0733 -0.9893 -0.1260
vn -0.0252 -0.5880 0.8085
vn -0.9610 -0.2200 -0.1674
vn -0.8376 -0.2898 0.4630
vn -0.9831 0.0112 -0.1826
vn -0.7717 0.5934 0.2288
vn -0.9983 0.0126 -0.0561
vn -0.9056 -0.1029 0.4114
vn -0.8418 -0.2007 -0.5011
vn -0.9765 -0.1167 0.1809
vn -0.8218 0.3851 -0.4199
vn 0.5914 0.7631 0.2606
vn -0.3012 0.3438 -0.8894
vn -0.4127 -0.1969 0.8893
vn -0.9785 -0.2009 -0.0469
vn 0.3366 0.4683 0.8169
vn -0.6289 0.6326 -0.4520
vn -0.9162 0.3981 0.0460
vn -0.1570 -0.7279 0.6675
vn -0.6470 0.5075 0.5691
vn -0.9586 -0.0731 0.2753
vn -0.1545 -0.6562 -0.7386
vn 0.4350 -0.7225 0.5373
vn -0.6660 0.6458 0.3733
vn -0.7793 0.2234 -0.5855
vn -0.7501 -0.6557 0.0865
vn -0.6375 -0.7693 0.0432
vn -0.5833 -0.0126 0.8121
vn -0.9054 0.3862 0.1765
vn -0.5987 -0.2817 -0.7498
vn -0.3566 -0.9186 0.1703
vn -0.4256 0.1187 0.8971
vn 0.6143 0.7505 0.2438
vn -0.3331 0.4716 -0.8165
vn -0.3966 -0.2054 0.8947
vn 0.1857 0.7620 -0.6204
vn -0.9997 0.0239 0.0002
vn 0.4269 0.9041 0.0173
vn -0.5477 -0.6555 0.5199
vn 0.3362 0.2875 0.8968
vn -0.1178 0.9138 -0.3888
vn -0.7461 -0.5281 -0.4055
vn -0.9772 -0.1095 0.1819
vn -0.6994 0.5428 -0.4649
vn -0.9551 -0.1831 -0.2331
vn -0.8175 -0.2139 0.5348
vn -0.9858 0.0185 -0.1669
vn -0.8311 -0.5010 0.2413
vn -0.8209 0.0084 0.5710
vn -0.5878 0.6874 -0.4266
vn -0.9805 -0.1180 -0.1569
vn -0.8930 -0.1869 0.4093
vn -0.9787 0.1517 -0.1386
vn -0.7393 -0.5894 -0.3256
vn -0.9732 -0.2242 0.0509
vn -0.9200 0.3783 -0.1026
vn -0.5647 -0.8093 0.1618
vn 0.1056 0.0006 0.9944
vn -0.0529 0.9939 -0.0970
vn -0.7288 -0.4937 0.4744
vn -0.7023 0.1893 0.6863
vn -0.2937 0.4729 -0.8308
vn 0.6301 -0.2044 0.7491
vn -0.0000 0.9311 0.3648
vn -0.3583 -0.8808 0.3094
vn 0.6769 0.5604 0.4772
vn -0.1935 0.9291 -0.3153
vn -0.3146 -0.6913 0.6505
vn -0.8995 -0.0389 -0.4351
vn -0.9425 -0.0920 0.3213
vn -0.7675 0.5669 0.2993
vn -0.5787 -0.6653 -0.4717
vn -0.0504 -0.5536 0.8313
vn -0.1460 0.7259 0.6721
vn -0.7874 -0.5765 -0.2184
vn -0.8099 0.2783 0.5163
vn -0.7502 -0.1280 -0.6487
vn -0.0885 0.6012 0.7942
vn -0.9494 0.1772 -0.2594
vn -0.1874 -0.8133 0.5509
vn 0.9518 0.2188 0.2150
vn -0.3313 0.9292 -0.1640
vn -0.2724 -0.8982 0.3450
vn -0.8319 0.2234 0.5080
vn -0.5132 -0.7985 -0.3147
vn 0.7553 -0.4381 0.4875
vn 0.0812 0.9956 0.0460
vn -0.5528 -0.7791 0.2956
vn 0.5897 -0.1910 0.7847
vn -0.2175 0.9298 0.2969
vn -0.6461 0.1983 -0.7371
vn -0.4523 0.2973 0.8408
vn 0.1618 -0.0609 0.9849
vn -0.6035 0.6940 -0.3926
vn -0.1765 -0.6442 0.7442
vn -0.9218 -0.0617 -0.3826
vn -0.3828 0.7599 0.5253
vn -0.3104 0.9504 -0.0208
vn -0.1863 -0.6005 -0.7776
vn -0.8643 0.2985 -0.4049
vn -0.3471 0.4838 -0.8034
vn 0.0189 0.9470 0.3208
vn -0.6364 0.2838 -0.7173
vn -0.2790 -0.0371 0.9596
vn 0.0391 0.8189 0.5727
vn -0.6741 0.1464 -0.7240
vn -0.2935 -0.0310 0.9554
vn -0.2190 -0.3108 -0.9249
vn -0.9595 0.1943 -0.2039
vn -0.3472 0.6793 -0.6465
vn 0.9714 -0.1831 0.1514
vn 0.3416 -0.0314 -0.9393
vn -0.0250 0.8230 -0.5675
vn -0.3285 0.8090 -0.4875
vn -0.7494 -0.3115 0.5843
vn -0.3974 0.7881 0.4701
vn -0.2313 -0.7875 -0.5712
vn -0.8984 0.3072 -0.3138
vn -0.1684 0.3644 -0.9159
vn -0.0471 -0.4614 -0.8859
vn -0.9062 0.3871 -0.1700
vn 0.0005 0.7125 -0.7016
vn -0.8237 0.2257 -0.5202
vn -0.7006 -0.6566 -0.2792
vn -0.7671 0.4197 0.4852
vn 0.3724 0.5409 -0.7541
vn -0.5098 -0.6736 -0.5351
vn -0.7745 0.6326 0.0054
vn 0.5563 0.0463 -0.8297
vn -0.8669 -0.4980 0.0231
vn -0.9962 -0.0869 0.0016
vn -0.1665 -0.6930 -0.7014
vn -0.7658 0.1796 0.6175
vn -0.0062 0.6908 -0.7230
vn 0.4438 0.6516 -0.6152
vn -0.8970 -0.4418 -0.0151
vn -0.4510 0.8123 0.3697
vn 0.6034 -0.0462 -0.7961
vn -0.7231 -0.6734 0.1536
vn -0.8809 0.0315 0.4722
vn -0.2873 -0.4675 -0.8360
vn -0.5561 0.8184 0.1447
vn -0.1516 0.5531 -0.8192
vn -0.3318 -0.7947 -0.5082
vn -0.1959 0.9170 -0.3475
vn -0.2078 0.1648 -0.9642
vn -0.1691 0.8963 -0.4099
vn -0.3420 -0.0580 -0.9379
vn -0.8100 0.0832 0.5806
vn -0.4071 -0.4350 -0.8032
vn -0.4303 0.9008 0.0580
vn -0.0764 0.2991 -0.9512
vn -0.4931 -0.6048 -0.6254
vn -0.4284 0.8932 -0.1364
vn -0.3266 0.4700 -0.8201
vn -0.5364 -0.1838 -0.8237
vn -0.4692 0.8188 0.3308
vn -0.4221 0.7815 -0.4594
vn 0.0330 0.6459 0.7627
vn -0.1127 0.5815 -0.8057
vn -0.3507 -0.1300 0.9274
vn -0.2662 0.9433 -0.1985
vn -0.1207 -0.1757 -0.9770
vn -0.9424 -0.3126 0.1192
vn -0.7899 -0.6013 -0.1207
vn -0.8389 0.2744 0.4700
vn -0.7624 0.6009 -0.2402
vn 0.9779 0.1794 0.1072
vn -0.2253 0.9732 0.0451
vn -0.2759 -0.9218 0.2723
vn 0.7381 0.4369 0.5142
vn -0.9941 -0.0924 0.0564
vn 0.3217 -0.9056 0.2764
vn 0.9163 -0.0823 0.3919
vn -0.7248 0.6859 0.0654
vn 0.2452 -0.9261 0.2866
vn -0.0000 0.8176 0.5758
vn -0.4398 -0.8788 -0.1850
vn 0.9511 -0.1163 0.2861
vn -0.7925 0.3389 0.5070
vn -0.9413 0.0888 -0.3258
vn -0.9687 -0.1634 -0.1866
vn -0.7810 0.6074 -0.1454
vn 0.1113 0.4760 -0.8724
vn -0.5655 -0.7476 -0.3481
vn 0.2977 0.9499 -0.0956
vn -0.9504 0.3077 -0.0449
vn -0.8201 -0.1662 0.5476
vn -0.8887 0.4426 -0.1199
vn -0.7383 -0.2940 -0.6070
vn -0.9481 0.2807 0.1494
vn -0.7688 -0.1578 -0.6197
vn -0.1092 0.9915 0.0707
vn 0.2951 -0.5873 -0.7537
vn 0.0115 0.0173 -0.9998
vn -0.5265 0.8133 0.2476
vn 0.8579 0.5083 0.0749
vn -0.8331 0.5527 -0.0227
vn -0.5584 -0.8011 -0.2157
vn -0.5951 0.5854 0.5506
vn -0.9567 0.2878 0.0445
vn -0.5588 -0.3470 -0.7532
vn -0.5584 -0.1314 0.8191
vn -0.6781 -0.4784 0.5580
vn -0.9495 0.2408 0.2014
vn -0.9744 -0.0494 -0.2195
vn 0.3786 0.8058 0.4552
vn 0.9374 -0.0735 0.3405
vn 0.0563 0.1794 -0.9822
vn -0.5966 -0.5143 0.6160
vn -0.9020 -0.1235 0.4136
vn -0.6694 -0.2625 -0.6950
vn 0.1450 -0.9342 -0.3260
vn -0.8330 -0.5441 0.1002
vn 0.1590 -0.3624 -0.9184
vn -0.3259 -0.3541 -0.8766
vn -0.9625 -0.0052 0.2711
vn -0.3806 0.7528 -0.5371
vn -0.8887 -0.4282 -0.1642
vn -0.9388 0.2972 0.1741
vn -0.6593 -0.0851 -0.7471
vn -0.0535 0.5193 0.8529
vn 0.3458 -0.1397 -0.9278
vn -0.0713 0.0022 -0.9975
vn -0.9426 -0.1247 -0.3099
vn -0.9317 -0.0929 0.3512
vn -0.7386 0.5795 0.3444
vn 0.5564 -0.7657 -0.3227
vn -0.1250 -0.7631 -0.6341
vn -0.2599 0.9626 0.0769
vn -0.8294 -0.2539 -0.4975
vn -0.3116 0.8148 0.4888
vn -0.0348 0.6738 -0.7381
vn 0.1665 -0.9809 0.1004
vn -0.8230 0.3206 -0.4690
vn 0.2117 -0.5202 -0.8274
vn -0.2069 -0.6025 0.7708
vn -0.8380 -0.4420 0.3199
vn -0.8192 -0.5673 -0.0847
vn -0.0225 0.6967 0.7170
vn 0.8751 -0.4802 0.0602
vn -0.3528 0.2753 -0.8943
vn -0.8219 -0.5292 0.2106
vn -0.9782 -0.0632 0.1977
vn -0.9742 -0.2122 0.0763
vn -0.0905 0.9108 0.4029
vn 0.9316 -0.3487 0.1023
vn 0.2549 -0.7342 -0.6292
vn -0.8868 -0.4110 0.2114
vn -0.1745 0.7053 0.6871
vn 0.0483 0.9987 0.0162
vn -0.6860 -0.4397 0.5797
vn -0.8801 0.2686 0.3914
vn -0.8346 -0.5193 -0.1841
vn -0.5755 -0.7741 0.2638
vn -0.8860 0.0254 0.4629
vn -0.8178 -0.3464 -0.4595
vn -0.6037 -0.7232 -0.3355
vn -0.5652 -0.5194 0.6409
vn -0.6274 -0.2271 -0.7449
vn -0.7768 -0.4443 0.4464
vn -0.5701 0.6485 0.5045
vn -0.9902 0.1392 0.0074
vn -0.6121 0.7029 -0.3623
vn -0.9172 0.2019 -0.3436
vn -0.9030 0.4235 -0.0718
vn -0.9121 0.3276 -0.2466
vn -0.7044 0.1226 -0.6992
vn -0.9094 0.1238 -0.3970
vn -0.7887 -0.5834 -0.1939
vn -0.4487 -0.8813 -0.1486
vn -0.7724 -0.1237 0.6229
vn -0.7812 -0.1575 0.6041
vn -0.7569 0.6131 0.2266
vn -0.9594 0.0458 0.2782
vn -0.8426 0.5321 -0.0829
vn -0.9317 0.3017 -0.2022
vn -0.9418 0.3360 -0.0088
vn -0.8247 -0.2740 -0.4947
vn -0.9460 -0.3237 0.0178
vn -0.9407 -0.3016 -0.1554
vn -0.7363 0.5862 0.3380
vn -0.8591 0.5059 0.0774
vn -0.9218 0.3710 0.1126
vn -0.7434 -0.6646 0.0750
vn -0.9348 -0.2989 0.1918
vn -0.9245 -0.3804 -0.0255
vn -0.8379 -0.0456 0.5439
vn -0.7513 0.2092 0.6259
vn -0.8427 0.1823 0.5065
vn -0.9082 0.1152 -0.4023
vn -0.9500 -0.0041 -0.3123
vn -0.9657 -0.0368 -0.2571
vn -0.6182 -0.6793 -0.3954
vn -0.0328 -0.9896 0.1398
vn -0.6249 -0.7690 -0.1345
vn -0.7527 0.0459 0.6568
vn -0.2943 -0.6414 0.7085
vn -0.2031 0.5043 0.8393
vn -0.7379 0.6148 -0.2785
vn -0.3644 0.8403 0.4013
vn -0.0141 0.4859 -0.8739
vn -0.7009 -0.6427 0.3092
vn -0.3768 -0.8165 -0.4374
vn -0.0061 -0.4701 0.8826
vn -0.6172 0.6388 0.4593
vn -0.3289 0.8760 -0.3528
vn -0.6354 0.7088 0.3063
vn -0.7672 0.1099 -0.6320
vn -0.2984 -0.6269 -0.7197
vn -0.7636 -0.0923 -0.6391
vn -0.8774 0.2126 0.4302
vn -0.5407 -0.8070 -0.2374
vn -0.3022 -0.5983 0.7421
vn -0.5649 0.8010 -0.1985
vn -0.7218 -0.1616 0.6729
vn -0.1464 0.9435 0.2971
vn -0.5541 -0.7953 0.2461
vn -0.7160 0.1362 -0.6847
vn -0.1533 -0.8102 -0.5657
vn -0.8725 -0.1977 -0.4468
vn -0.5550 0.7998 0.2284
vn -0.5255 0.3573 -0.7721
vn -0.7019 -0.5281 -0.4779
vn -0.8750 0.4840 -0.0044
vn -0.5191 0.3835 -0.7639
vn -0.9272 0.3685 -0.0666
vn -0.6406 -0.5241 0.5612
vn -0.6747 0.4953 0.5473
vn -0.9627 -0.2522 0.0981
vn -0.8845 0.3503 0.3083
vn -0.8278 -0.3866 -0.4066
vn -0.9607 0.2531 0.1142
vn -0.8524 0.3357 -0.4010
vn -0.7789 -0.0800 0.6220
vn -0.9577 -0.2673 -0.1064
vn -0.8433 -0.3295 0.4246
vn -0.8304 0.2122 -0.5151
vn -0.9632 0.2512 -0.0958
vn -0.9169 -0.3834 -0.1103
vn -0.8369 0.3815 0.3925
vn -0.9891 -0.0079 -0.1472
vn -0.9254 -0.1195 0.3596
vn -0.9047 0.3110 0.2913
vn -0.9888 -0.0056 0.1494
vn -0.9202 0.1214 -0.3722
vn -0.9094 -0.2944 -0.2938
vn -0.0509 0.9485 -0.3125
vn -0.9246 -0.3783 -0.0457
vn 0.1239 0.7170 0.6860
vn 0.5849 0.0461 0.8098
vn -0.9553 0.0437 -0.2925
vn 0.5874 -0.1385 0.7973
vn -0.5578 0.2207 0.8001
vn 0.2415 -0.6583 -0.7130
vn 0.1084 -0.8603 0.4981
vn -0.2207 -0.3301 -0.9178
vn 0.6410 -0.5124 -0.5714
vn -0.4709 -0.0896 0.8776
vn 0.8422 -0.5381 -0.0333
vn -0.0000 -0.4294 0.9031
vn -0.2899 -0.0020 -0.9571
vn -0.2594 -0.5003 -0.8261
vn 0.3577 -0.7208 0.5936
vn -0.9559 -0.0614 0.2873
vn 0.7165 -0.6866 -0.1233
vn 0.3293 -0.5754 0.7486
vn -0.8809 -0.0251 -0.4726
vn -0.3177 0.5222 0.7915
vn 0.6596 0.6406 -0.3931
vn -0.7267 -0.1445 -0.6716
vn -0.7869 0.0167 0.6168
vn 0.0714 -0.7550 -0.6518
vn 0.3378 -0.7340 0.5892
vn -0.7919 -0.5730 0.2112
vn -0.9193 0.1325 0.3705
vn -0.9779 0.2090 -0.0020
vn -0.8622 -0.0858 0.4993
vn -0.8291 0.5528 -0.0835
vn -0.9858 -0.0259 -0.1661
vn -0.7217 0.6758 -0.1501
vn -0.9968 -0.0627 0.0503
vn -0.9867 0.1372 0.0874
vn -0.9815 -0.1638 0.0990
vn -0.8322 0.2391 0.5003
vn -0.9851 0.0783 -0.1533
vn -0.9491 0.2268 0.2184
vn -0.0895 -0.3873 -0.9176
vn -0.4261 -0.4734 0.7710
vn -0.8783 -0.1346 0.4587
vn -0.7528 0.5720 -0.3257
vn -0.9801 -0.0740 0.1842
vn -0.8121 -0.2636 -0.5205
vn -0.9238 -0.0557 0.3789
vn -0.9989 -0.0033 0.0470
vn -0.6912 -0.6024 -0.3992
vn 0.7144 0.2952 0.6344
vn -0.6035 0.7269 -0.3277
vn -0.8340 -0.4518 0.3168
vn 0.3474 0.7449 -0.5696
vn 0.1072 -0.4399 -0.8916
vn -0.5149 0.4006 0.7580
vn 0.1338 -0.5593 -0.8181
vn 0.2461 -0.8271 0.5053
vn -0.0397 0.8932 0.4478
vn -0.6572 -0.1558 -0.7375
vn 0.1899 -0.3665 0.9108
vn -0.8779 0.4704 -0.0895
vn -0.7239 -0.5192 0.4542
vn -0.7394 0.3797 0.5560
vn -0.9017 0.4277 -0.0642
vn -0.9465 -0.2736 -0.1712
vn -0.8568 -0.3657 0.3635
vn -0.8098 -0.5798 0.0902
vn -0.7772 0.3420 0.5281
vn -0.7733 0.3499 -0.5288
vn -0.8413 0.0967 0.5319
vn -0.9779 0.1661 -0.1269
vn -0.9919 -0.0312 -0.1230
vn -0.8857 -0.4259 0.1847
vn -0.7819 0.3491 0.5165
vn -0.9244 0.3797 0.0371
vn -0.8273 -0.1479 -0.5419
vn -0.8221 -0.5427 0.1722
vn -0.7714 0.5139 0.3754
vn -0.1344 -0.4628 0.8762
vn 0.6853 0.5167 -0.5131
vn -0.2813 0.7132 -0.6421
vn -0.0733 0.8367 -0.5427
vn -0.7800 -0.5888 0.2119
vn 0.8320 -0.5546 0.0114
vn -0.9249 0.3788 -0.0320
vn 0.1441 -0.0508 -0.9883
vn 0.9307 0.0552 0.3616
vn -0.9558 0.0965 0.2776
vn 0.4782 0.8163 0.3240
vn 0.7609 -0.6439 0.0796
vn -0.2639 -0.9575 -0.1159
vn 0.9852 0.1580 -0.0671
vn -0.7437 0.6678 0.0303
vn -0.9241 -0.2598 0.2803
vn 0.1818 0.4023 -0.8973
vn 0.7745 -0.3673 0.5150
vn -0.9208 -0.2517 0.2981
vn -0.0323 0.9866 -0.1599
vn -0.4046 -0.5428 -0.7360
vn 0.1343 -0.3829 0.9140
vn 0.6810 0.1356 -0.7196
vn -0.6481 0.2675 -0.7130
vn -0.3082 0.0164 0.9512
vn 0.6405 -0.3157 -0.7001
vn -0.9980 -0.0363 -0.0520
vn -0.9095 -0.2065 -0.3609
vn 0.2582 0.6536 0.7114
vn 0.8115 -0.5543 -0.1851
vn 0.6610 -0.2251 -0.7158
vn -0.6718 0.6806 0.2924
vn 0.1077 -0.7210 0.6846
vn -0.6684 0.6528 0.3566
vn 0.6599 0.0481 0.7498
vn -0.0935 -0.5631 -0.8211
vn 0.0072 0.9694 -0.2454
vn -0.9809 -0.1888 -0.0467
vn -0.0101 -0.6120 0.7908
vn 0.5365 0.6316 0.5596
vn 0.7619 0.1926 0.6183
vn 0.4923 0.7328 -0.4697
vn 0.7618 -0.5205 0.3856
vn 0.7695 -0.4947 -0.4038
vn 0.9014 -0.2054 -0.3812
vn 0.8645 -0.0470 0.5005
vn 0.6375 0.1657 -0.7524
vn 0.6845 0.6697 -0.2881
vn 0.9536 -0.2380 -0.1844
vn -0.3967 0.0268 -0.9176
vn -0.1347 0.9809 -0.1401
vn 0.8960 -0.1113 0.4298
vn 0.9091 0.1979 -0.3667
vn 0.3438 0.8849 -0.3141
vn 0.7541 0.5396 0.3744
vn 0.8897 -0.1041 0.4444
vn -0.6155 0.2669 -0.7416
vn 0.8563 -0.3272 0.3995
vn 0.7332 -0.3470 -0.5848
vn 0.4344 0.1810 -0.8824
vn 0.7408 -0.2838 0.6088
vn 0.8332 -0.3613 -0.4186
vn 0.6462 0.6834 0.3397
vn 0.5293 0.6508 0.5443
vn 0.9586 -0.0940 -0.2687
vn 0.1293 0.9464 -0.2961
vn -0.5175 0.7103 0.4771
vn -0.0777 -0.2340 0.9691
vn 0.9742 -0.1277 -0.1861
vn -0.4056 -0.4438 0.7991
vn 0.8715 -0.4676 -0.1479
vn 0.9478 0.2595 -0.1852
vn -0.5852 0.1952 0.7871
vn 0.9379 -0.3413 -0.0620
vn 0.3103 0.9236 -0.2250
vn -0.4218 -0.2739 0.8643
vn 0.8993 -0.3762 -0.2231
vn 0.2707 0.9448 0.1844
vn -0.4165 -0.3226 0.8500
vn 0.8995 -0.4314 -0.0685
vn 0.3869 0.7795 0.4926
vn 0.7760 -0.5128 0.3672
vn 0.4765 -0.8388 -0.2634
vn 0.8683 0.4951 -0.0311
vn 0.4477 0.2687 0.8529
vn 0.9125 -0.3599 0.1944
vn 0.4672 0.8292 -0.3068
vn 0.8001 0.1645 0.5769
vn 0.8529 -0.4881 -0.1852
vn 0.5381 0.7804 -0.3185
vn -0.1376 0.2582 -0.9562
vn 0.8945 0.3457 0.2835
vn 0.1304 -0.9462 -0.2962
vn 0.1183 0.7557 0.6441
vn 0.0871 -0.6961 0.7127
vn 0.7949 -0.6067 -0.0068
vn 0.8496 0.1278 -0.5117
vn -0.0477 0.8489 -0.5264
vn 0.1114 0.1173 0.9868
vn 0.8220 0.5497 0.1489
vn 0.8350 -0.5359 0.1250
vn 0.5862 0.0741 -0.8068
vn 0.5815 0.8076 0.0979
vn 0.9324 0.0604 0.3563
vn 0.8826 -0.0781 -0.4636
vn -0.2361 0.8377 0.4925
vn -0.4434 0.2534 0.8598
vn 0.8798 -0.4459 0.1647
vn 0.4382 0.8908 -0.1201
vn 0.8599 0.1439 0.4898
vn 0.6809 0.2351 -0.6936
vn 0.8963 0.3035 0.3233
vn 0.8137 -0.0865 0.5748
vn 0.8824 -0.0424 -0.4686
vn 0.6257 0.7609 -0.1716
vn 0.8761 -0.3663 0.3134
vn 0.9601 0.2426 -0.1389
vn 0.7475 -0.6266 -0.2204
vn 0.8117 0.5365 -0.2310
vn 0.8272 0.3719 0.4213
vn -0.0268 0.9994 0.0207
vn -0.3018 0.2195 0.9278
vn 0.9663 -0.2560 0.0265
vn 0.5274 0.6440 0.5542
vn 0.9357 0.2883 0.2034
vn 0.8184 -0.0019 -0.5746
vn 0.7639 0.4358 0.4760
vn 0.0979 -0.6437 0.7590
vn 0.2654 -0.9105 -0.3170
vn 0.9057 0.1577 0.3934
vn 0.7909 -0.2546 0.5565
vn 0.9441 -0.0630 -0.3235
vn -0.7164 0.6868 0.1232
vn 0.6302 -0.3934 0.6694
vn 0.1776 0.3764 -0.9093
vn 0.6855 -0.6833 -0.2513
vn 0.5354 0.8142 -0.2247
vn 0.7954 0.0083 0.6061
vn 0.1208 0.2147 0.9692
vn 0.0255 -0.4965 0.8677
vn 0.9733 0.0932 -0.2098
vn 0.8422 0.4960 -0.2115
vn 0.9732 -0.1201 0.1960
vn 0.9840 0.0808 -0.1589
vn 0.8035 -0.3993 -0.4416
vn 0.8041 0.5822 -0.1203
vn 0.8519 0.1666 0.4965
vn 0.8728 0.4238 0.2420
vn -0.0644 -0.7313 0.6790
vn 0.0734 -0.9893 -0.1261
vn 0.8855 0.1968 0.4208
vn 0.7946 -0.5693 -0.2108
vn 0.9676 0.0014 -0.2524
vn 0.7121 0.5714 0.4080
vn 0.9056 -0.1029 0.4114
vn 0.9983 0.0125 -0.0561
vn 0.9981 0.0542 0.0287
vn 0.9818 -0.1737 0.0762
vn 0.8560 -0.0023 -0.5170
vn -0.3973 0.4875 0.7775
vn 0.8707 -0.3568 0.3384
vn 0.1836 0.4234 -0.8871
vn -0.2849 0.7700 0.5709
vn -0.1723 0.1681 0.9706
vn 0.9755 -0.2174 -0.0335
vn 0.3840 -0.7281 0.5679
vn 0.1406 -0.9548 -0.2619
vn 0.9412 0.3224 -0.1005
vn 0.8865 -0.0729 0.4570
vn -0.6245 -0.7228 0.2961
vn -0.3452 -0.6562 -0.6711
vn 0.6403 0.5931 0.4881
vn 0.6705 -0.5868 0.4540
vn 0.7296 -0.5555 -0.3988
vn 0.6375 -0.7693 0.0433
vn 0.8966 -0.0770 -0.4361
vn 0.5833 -0.0125 0.8121
vn 0.4714 -0.6491 0.5971
vn 0.4343 -0.8953 -0.0987
vn 0.9180 0.3731 -0.1346
vn -0.4029 0.4619 0.7901
vn 0.8664 -0.3695 0.3359
vn 0.2407 0.5321 -0.8117
vn -0.1857 0.7620 -0.6204
vn -0.4216 0.9038 0.0736
vn 0.9621 0.0222 0.2718
vn 0.3001 0.9388 0.1689
vn 0.1314 -0.1570 0.9788
vn 0.9512 0.1630 -0.2621
vn 0.9813 -0.0642 0.1813
vn 0.9717 -0.1789 0.1544
vn 0.8033 0.0680 -0.5917
vn 0.8595 0.2247 0.4592
vn 0.7641 -0.6435 0.0455
vn 0.9612 -0.0944 -0.2591
vn 0.8383 -0.5251 0.1467
vn 0.5878 0.6874 -0.4266
vn 0.8209 0.0084 0.5710
vn 0.8671 0.1915 0.4598
vn 0.9820 -0.0421 -0.1842
vn 0.9533 0.2715 -0.1323
vn 0.9868 0.0704 0.1459
vn 0.9861 -0.1629 0.0334
vn 0.8613 0.3212 -0.3938
vn 0.3069 0.4704 0.8274
vn 0.0213 -0.4348 0.9003
vn 0.9458 0.2589 -0.1960
vn 0.7239 0.6359 -0.2675
vn 0.7656 -0.1848 0.6162
vn 0.7540 0.0425 -0.6555
vn -0.5524 -0.2370 0.7992
vn 0.7948 -0.4761 0.3764
vn 0.0870 0.9537 -0.2878
vn 0.9430 -0.2376 0.2331
vn 0.9696 -0.2448 -0.0006
vn 0.8642 0.4046 -0.2990
vn 0.2810 -0.3589 0.8901
vn 0.2044 -0.9775 0.0523
vn 0.9614 0.2341 -0.1449
vn 0.8104 0.5842 0.0448
vn 0.8547 -0.2887 0.4315
vn 0.7876 -0.4137 -0.4567
vn 0.2589 0.6758 0.6901
vn -0.0625 -0.6811 0.7295
vn 0.5543 -0.8254 -0.1075
vn -0.8563 -0.3828 0.3467
vn 0.8511 -0.4926 0.1818
vn 0.0965 0.9840 -0.1498
vn 0.9745 -0.1513 0.1656
vn -0.6353 -0.1406 0.7594
vn 0.5132 -0.7985 -0.3147
vn 0.2132 -0.9076 0.3616
vn 0.7985 0.5817 -0.1550
vn -0.4611 0.8788 0.1232
vn 0.2175 0.9298 0.2969
vn 0.5099 0.2646 0.8185
vn 0.7809 0.0529 -0.6224
vn -0.3524 0.5442 0.7614
vn 0.6635 -0.5472 0.5103
vn 0.3613 0.8526 -0.3776
vn 0.9218 -0.0617 -0.3826
vn 0.3104 0.9504 -0.0208
vn 0.4094 0.7434 0.5288
vn 0.6786 0.4831 -0.5532
vn 0.7297 -0.5687 -0.3795
vn -0.0474 0.0487 -0.9977
vn -0.0189 0.9470 0.3208
vn 0.7655 -0.2638 0.5869
vn 0.4225 0.4460 -0.7890
vn 0.0291 0.7473 0.6639
vn 0.7752 -0.2559 0.5776
vn 0.4436 0.3333 -0.8320
vn 0.6832 0.6351 -0.3603
vn 0.7632 -0.4430 -0.4705
vn 0.0813 0.2378 -0.9679
vn -0.2300 0.2602 -0.9378
vn -0.9364 -0.2596 0.2360
vn -0.7384 0.6163 0.2737
vn 0.1607 0.0213 0.9868
vn 0.7061 0.0978 -0.7014
vn -0.1073 0.9876 0.1150
vn 0.4635 0.5940 -0.6576
vn 0.6873 -0.6580 -0.3077
vn -0.0607 -0.2313 -0.9710
vn 0.5245 0.7873 -0.3241
vn 0.8103 -0.5146 -0.2802
vn 0.0103 -0.4331 -0.9013
vn 0.8162 0.0917 -0.5704
vn 0.8040 0.2310 0.5479
vn 0.8655 -0.4441 0.2318
vn -0.3123 0.6361 -0.7056
vn 0.9151 0.4019 0.0321
vn 0.4721 -0.6840 -0.5561
vn 0.9665 -0.2561 0.0157
vn -0.4199 -0.1730 -0.8909
vn 0.3127 0.7284 -0.6096
vn 0.1711 -0.6179 -0.7674
vn 0.2695 0.8752 0.4019
vn 0.5735 -0.5972 0.5608
vn -0.4350 0.7041 -0.5612
vn 0.8205 0.5157 0.2464
vn 0.0532 -0.7428 -0.6674
vn 0.9223 -0.3791 0.0758
vn -0.4098 -0.4677 -0.7832
vn -0.4763 0.1722 -0.8622
vn 0.2516 0.9678 0.0034
vn 0.0762 -0.9904 -0.1153
vn -0.0188 -0.1329 -0.9910
vn 0.1753 0.9170 -0.3583
vn 0.2067 -0.9718 0.1132
vn 0.3099 -0.7914 -0.5269
vn 0.3999 0.8777 0.2640
vn 0.4578 0.4383 0.7735
vn 0.2601 0.0052 -0.9656
vn 0.3859 0.9222 0.0271
vn 0.2463 -0.9073 -0.3409
vn 0.3453 -0.4037 -0.8472
vn 0.3685 0.9114 -0.1830
vn 0.2015 -0.9661 -0.1612
vn 0.0136 -0.1154 -0.9932
vn 0.4516 0.8323 0.3215
vn 0.8804 -0.4687 0.0726
vn 0.2591 0.3860 -0.8854
vn -0.1751 0.9735 0.1469
vn 0.8170 -0.2141 0.5354
vn 0.3445 0.4640 -0.8161
vn 0.7889 -0.5295 -0.3118
vn 0.7624 0.6009 -0.2402
vn 0.8341 -0.1963 0.5155
vn 0.7925 0.3389 0.5070
vn 0.9990 -0.0304 0.0340
vn 0.9401 0.1051 -0.3243
vn -0.0693 0.1568 -0.9852
vn 0.3165 0.7161 -0.6222
vn 0.9740 0.0881 -0.2087
vn -0.2977 0.9499 -0.0956
vn 0.4068 0.0723 0.9107
vn 0.9469 0.3103 -0.0845
vn 0.8949 -0.4419 0.0617
vn 0.8107 0.2888 -0.5093
vn 0.9082 0.4176 -0.0298
vn -0.2146 0.9502 -0.2257
vn 0.6547 0.7283 -0.2023
vn 0.5486 -0.2669 -0.7924
vn 0.0166 0.0107 -0.9998
vn -0.6987 0.5715 0.4302
vn 0.5265 0.8133 0.2476
vn 0.8331 0.5527 -0.0228
vn 0.5951 0.2996 0.7457
vn 0.5584 -0.7649 -0.3212
vn 0.9567 0.2103 -0.2015
vn 0.5584 -0.3595 0.7477
vn 0.5588 -0.4700 -0.6833
vn 0.9706 0.2403 0.0117
vn 0.6897 -0.3238 0.6477
vn 0.7174 -0.6930 0.0717
vn -0.3062 0.8664 0.3945
vn -0.0563 0.1794 -0.9822
vn -0.9460 -0.2076 -0.2491
vn 0.9750 -0.0494 -0.2166
vn 0.7347 -0.1366 0.6645
vn 0.6241 -0.7436 -0.2398
vn 0.7454 0.0571 -0.6642
vn -0.0028 -0.9542 0.2992
vn 0.2328 -0.3988 -0.8870
vn 0.9023 0.3493 0.2527
vn 0.3417 -0.8986 0.2754
vn 0.1269 0.0664 -0.9897
vn 0.9085 0.3352 -0.2494
vn 0.9507 0.0211 0.3093
vn 0.8201 -0.1750 -0.5448
vn 0.0826 0.5172 0.8519
vn 0.1468 -0.0000 -0.9892
vn -0.9872 0.1584 -0.0192
vn 0.9473 -0.1536 -0.2810
vn 0.7386 0.5795 0.3445
vn 0.9266 -0.2745 0.2570
vn 0.7064 -0.5059 -0.4950
vn -0.2784 -0.6997 -0.6579
vn -0.1049 0.8906 0.4425
vn 0.9188 -0.2814 -0.2768
vn 0.0348 0.6738 -0.7381
vn 0.0816 0.9391 0.3338
vn 0.5559 0.4373 -0.7070
vn 0.5281 -0.7904 0.3103
vn -0.5330 -0.8317 -0.1559
vn 0.9430 -0.2858 0.1707
vn 0.8374 -0.3164 0.4458
vn 0.4919 -0.6823 -0.5408
vn -0.1801 0.5095 0.8414
vn 0.1593 0.0338 -0.9866
vn -0.8751 -0.4802 0.0603
vn 0.9931 -0.0989 0.0625
vn 0.8038 -0.2495 0.5400
vn 0.8337 -0.5366 0.1305
vn 0.1988 0.9706 0.1358
vn 0.0550 0.1267 -0.9904
vn -0.9424 -0.2902 0.1665
vn 0.9566 -0.2231 -0.1875
vn 0.3943 0.9007 -0.1824
vn 0.1745 0.7053 0.6871
vn 0.9987 0.0268 -0.0439
vn 0.5119 -0.2199 0.8304
vn 0.6977 -0.5217 0.4910
vn 0.9982 -0.0242 -0.0555
vn 0.7418 -0.4513 0.4961
vn 0.7192 -0.6932 -0.0474
vn 0.9339 -0.0858 0.3472
vn 0.5458 -0.8261 0.1401
vn 0.7150 -0.5973 -0.3634
vn 0.8372 -0.4470 0.3151
vn 0.9725 0.2316 0.0239
vn 0.5483 0.6227 0.5583
vn 0.9309 0.3431 0.1253
vn 0.6966 0.1626 -0.6988
vn 0.7814 0.5882 0.2087
vn 0.9163 0.3201 -0.2407
vn 0.9061 0.1262 -0.4037
vn 0.6617 0.4006 -0.6338
vn 0.8195 -0.5524 -0.1524
vn 0.7379 -0.1522 0.6575
vn 0.4486 -0.8813 -0.1486
vn 0.8007 -0.1872 0.5690
vn 0.9646 0.0736 0.2534
vn 0.7371 0.6182 0.2729
vn 0.9703 0.2401 -0.0307
vn 0.9245 0.3108 -0.2204
vn 0.9239 0.3610 0.1270
vn 0.9626 -0.2319 -0.1399
vn 0.8008 -0.5771 0.1605
vn 0.8347 -0.2560 -0.4876
vn 0.8618 0.4835 0.1536
vn 0.7047 0.7085 0.0386
vn 0.7669 0.5106 0.3888
vn 0.9414 -0.3020 0.1502
vn 0.8651 -0.4097 0.2895
vn 0.8123 -0.5629 -0.1526
vn 0.8392 -0.0452 0.5420
vn 0.9087 0.0073 0.4173
vn 0.7172 0.1517 0.6802
vn 0.9058 -0.0520 -0.4205
vn 0.7523 -0.3870 -0.5332
vn 0.8776 0.0761 -0.4734
vn 0.3706 -0.8209 0.4345
vn 0.1895 -0.2747 -0.9427
vn 0.6739 -0.6490 -0.3530
vn 0.7783 0.0022 0.6279
vn 0.2031 0.5043 0.8393
vn 0.3610 -0.6819 0.6362
vn 0.7357 0.6135 -0.2872
vn 0.3226 0.2006 -0.9250
vn 0.3991 0.8164 0.4174
vn 0.6890 -0.6445 0.3316
vn -0.2576 -0.8861 0.3855
vn 0.3768 -0.8165 -0.4373
vn 0.4152 0.8195 -0.3951
vn -0.2409 0.9326 0.2689
vn 0.6518 0.6164 0.4419
vn 0.4474 -0.7005 -0.5561
vn 0.2159 0.5170 -0.8283
vn 0.7888 0.0917 -0.6078
vn 0.2901 -0.7717 0.5660
vn 0.6724 -0.5439 -0.5021
vn 0.4364 -0.0862 0.8956
vn 0.5649 0.8009 -0.1985
vn 0.3135 0.5452 0.7775
vn 0.5526 -0.0480 0.8320
vn 0.5541 -0.7953 0.2461
vn 0.2985 -0.5815 -0.7568
vn 0.9290 0.2101 -0.3046
vn 0.3169 0.7605 -0.5668
vn 0.6786 0.5573 0.4784
vn 0.5231 0.0289 -0.8518
vn 0.6972 -0.5282 -0.4846
vn 0.5191 0.3835 -0.7639
vn 0.9323 0.3517 0.0845
vn 0.4470 -0.2985 0.8433
vn 0.7465 -0.6455 0.1617
vn 0.7249 0.6494 0.2298
vn 0.0179 0.9489 -0.3152
vn -0.5837 0.7680 0.2635
vn 0.5187 -0.4700 0.7142
vn -0.0510 0.4816 0.8749
vn -0.5874 -0.1385 0.7973
vn 0.9368 -0.1412 -0.3202
vn -0.5546 -0.6807 -0.4787
vn 0.8334 -0.0210 -0.5522
vn 0.5578 0.2207 0.8001
vn -0.2270 0.7051 -0.6717
vn -0.3734 0.3829 0.8450
vn 0.7830 0.6155 0.0895
vn 0.7869 0.0167 0.6168
vn -0.3378 -0.7340 0.5892
vn -0.0034 -0.7396 -0.6730
vn 0.9604 0.2547 0.1134
vn 0.6725 -0.4228 0.6074
vn 0.8717 -0.3864 -0.3014
vn 0.8622 -0.0858 0.4993
vn 0.9662 -0.2544 -0.0424
vn 0.8291 0.5528 -0.0835
vn 0.9932 0.0407 0.1087
vn 0.7712 -0.6269 -0.1105
vn 0.7124 0.6988 0.0641
vn 0.9867 -0.1498 0.0628
vn 0.9851 0.0783 -0.1533
vn 0.8322 0.2391 0.5003
vn 0.9491 0.2268 0.2184
vn 0.4261 -0.4733 0.7710
vn 0.0906 -0.2018 -0.9752
vn 0.8649 -0.0093 0.5019
vn 0.9951 -0.0561 0.0820
vn 0.7344 0.6384 -0.2305
vn 0.9759 0.2178 0.0094
vn 0.7559 -0.2456 0.6069
vn 0.8171 -0.1974 -0.5417
vn -0.3374 0.7188 0.6078
vn 0.0048 -0.6893 0.7244
vn 0.7722 -0.4896 -0.4050
vn 0.9078 0.0561 0.4156
vn -0.2642 -0.3797 -0.8866
vn -0.2843 0.7775 -0.5609
vn 0.8472 0.5304 0.0318
vn -0.5268 -0.8447 0.0942
vn -0.1338 -0.5593 -0.8181
vn 0.0397 0.8933 0.4478
vn -0.0650 -0.8585 0.5087
vn 0.6572 -0.1558 -0.7375
vn 0.9032 0.4163 -0.1049
vn 0.7394 0.3797 0.5560
vn 0.7897 -0.5508 0.2703
vn 0.8207 -0.5482 0.1610
vn 0.7602 0.1970 -0.6191
vn 0.5862 -0.2725 0.7629
vn 0.8738 -0.4680 -0.1322
vn 0.7354 0.4866 -0.4715
vn 0.7772 0.3420 0.5281
vn 0.9740 0.1451 -0.1738
vn 0.7377 0.2899 0.6098
vn 0.8152 -0.5789 -0.0173
vn 0.7021 0.6639 0.2575
vn 0.7406 -0.6442 0.1910
vn 0.7799 0.1902 -0.5963
vn 0.8366 -0.1188 -0.5348
vn 0.7714 0.5138 0.3754
vn 0.8567 -0.4063 0.3178
vn -0.3476 0.5979 -0.7223
vn -0.7131 0.4115 0.5676
vn 0.9516 -0.2319 0.2015
vn 0.0618 -0.8970 0.4377
vn 0.8693 0.2606 -0.4199
vn -0.8858 0.4002 -0.2350
vn 0.8346 0.3157 0.4514
vn -0.3065 0.2157 0.9271
vn -0.1441 -0.0508 -0.9883
vn 0.9594 -0.1662 0.2278
vn -0.1256 -0.9790 0.1603
vn -0.3034 0.8758 0.3754
vn -0.7714 0.6230 -0.1296
vn -0.9178 -0.3701 -0.1440
vn 0.9526 0.0312 -0.3026
vn 0.9241 -0.2598 0.2803
vn -0.7746 -0.3672 0.5150
vn -0.5278 0.2832 -0.8008
vn 0.9208 -0.2516 0.2981
vn 0.4046 -0.5428 -0.7360
vn -0.0116 0.9870 0.1605
vn -0.0785 0.2304 -0.9699
vn -0.5981 -0.4882 0.6355
vn 0.7004 -0.2705 0.6606
vn -0.1007 -0.2627 -0.9596
vn -0.8827 -0.0666 0.4652
vn 0.8116 0.0755 0.5793
vn 0.9095 -0.2065 -0.3609
vn -0.9132 -0.3922 -0.1105
vn -0.1659 0.6587 0.7339
vn -0.6995 -0.2894 -0.6534
vn -0.0358 -0.5610 0.8270
vn 0.6901 0.6995 0.1855
vn -0.8668 -0.4620 0.1877
vn 0.0893 0.4052 0.9098
vn 0.6651 0.4491 -0.5966
vn 0.9458 -0.3179 0.0669
vn 0.2634 0.6988 -0.6650
vn -0.2101 0.6482 0.7319
vn -0.6940 0.4931 0.5246
vn -0.3583 0.8998 -0.2490
vn -0.6731 0.5937 -0.4409
vn -0.8529 -0.2178 -0.4744
vn -0.7683 -0.5006 -0.3988
vn -0.7850 -0.4826 0.3884
vn -0.6844 0.6679 -0.2925
vn -0.7065 0.1083 -0.6994
vn -0.8293 0.0193 0.5584
vn 0.2393 0.9478 -0.2106
vn 0.2666 -0.1651 -0.9496
vn -0.9842 -0.1343 -0.1156
vn -0.3345 0.8657 -0.3725
vn -0.7538 0.3916 -0.5277
vn -0.8772 -0.0448 0.4780
vn -0.8810 0.4028 0.2479
vn 0.2636 0.9646 -0.0119
vn 0.2197 -0.0388 -0.9748
vn -0.4228 0.1513 -0.8935
vn -0.7385 -0.2406 -0.6299
vn -0.8563 -0.3273 0.3995
vn -0.6614 0.6859 0.3034
vn -0.8192 -0.3996 -0.4114
vn -0.7382 -0.3012 0.6036
vn -0.1482 0.9372 -0.3157
vn -0.8273 -0.2428 0.5066
vn -0.5159 0.6627 0.5428
vn -0.7059 0.6145 -0.3522
vn -0.9325 0.0442 -0.3583
vn 0.6844 0.3174 0.6564
vn -0.0122 0.8123 0.5831
vn -0.4319 -0.8721 -0.2301
vn 0.3998 -0.4063 0.8216
vn -0.6299 0.7426 -0.2277
vn -0.4592 -0.7769 0.4308
vn 0.6087 0.2660 0.7475
vn -0.6411 0.7658 -0.0506
vn -0.4301 -0.8942 -0.1239
vn 0.4209 -0.1776 0.8896
vn -0.9213 0.3619 0.1426
vn -0.4754 -0.8794 -0.0253
vn 0.4178 -0.3165 0.8516
vn -0.8500 0.0915 -0.5188
vn -0.3717 -0.9202 -0.1223
vn -0.7766 -0.5113 0.3679
vn -0.5462 0.7571 -0.3583
vn -0.8017 -0.3749 0.4656
vn -0.4284 0.2924 0.8550
vn -0.6152 0.6462 -0.4516
vn -0.8111 -0.5847 -0.0171
vn -0.8385 0.0396 0.5435
vn -0.2291 0.6898 -0.6868
vn 0.1023 -0.0319 -0.9942
vn -0.9271 -0.3075 0.2144
vn -0.9949 0.0178 -0.0992
vn 0.1052 -0.5836 0.8052
vn -0.2374 0.7738 0.5873
vn -0.1903 0.6294 -0.7534
vn -0.9198 -0.2861 0.2686
vn 0.3949 0.8082 0.4369
vn -0.5866 -0.0186 -0.8097
vn -0.8354 -0.5487 0.0328
vn -0.8220 0.5497 0.1489
vn -0.6468 0.2977 -0.7021
vn -0.8780 0.1106 0.4656
vn -0.5890 0.8060 0.0594
vn -0.9555 0.1564 -0.2501
vn -0.2760 -0.3967 0.8755
vn 0.1656 0.8919 0.4208
vn -0.7099 0.1496 -0.6883
vn -0.9332 -0.3591 -0.0099
vn -0.5686 0.7492 0.3397
vn -0.8809 -0.1411 -0.4518
vn -0.8060 -0.0332 0.5910
vn -0.8431 0.2177 0.4917
vn -0.9671 0.2105 -0.1430
vn -0.8686 -0.3378 0.3624
vn -0.6246 0.6952 0.3557
vn -0.7502 -0.0512 -0.6593
vn -0.8306 -0.3986 0.3889
vn -0.8270 0.5003 0.2562
vn -0.8510 0.3267 -0.4111
vn -0.3292 -0.2071 0.9213
vn 0.4256 0.7901 0.4411
vn -0.6496 0.3676 -0.6655
vn -0.9267 0.2985 0.2281
vn -0.4955 0.7398 0.4553
vn -0.5192 0.0687 0.8519
vn -0.8628 0.5030 -0.0511
vn -0.3849 -0.7324 -0.5616
vn -0.8865 0.0943 0.4530
vn -0.8774 0.4154 0.2401
vn -0.8758 -0.4731 -0.0960
vn 0.0062 0.1339 0.9910
vn -0.1035 0.5367 -0.8374
vn -0.9283 -0.2432 -0.2813
vn -0.6634 0.0011 -0.7482
vn -0.8809 -0.4418 0.1700
vn -0.7696 0.5297 0.3566
vn -0.8923 0.4437 -0.0829
vn -0.1788 -0.6366 0.7502
vn -0.1470 0.2378 0.9601
vn -0.8164 0.5744 0.0603
vn -0.9121 -0.0075 -0.4100
vn -0.9689 -0.1632 0.1859
vn -0.8086 0.1047 -0.5789
vn -0.8539 -0.3871 0.3478
vn -0.8528 0.2821 0.4395
vn -0.6061 0.4310 0.6685
vn -0.6882 -0.0930 -0.7196
vn 0.1208 -0.9816 0.1476
vn -0.9667 -0.0164 -0.2554
vn -0.8104 -0.5732 -0.1208
vn -0.8810 0.2736 0.3859
vn -0.5355 0.2645 0.8020
vn -0.9552 0.0885 -0.2826
vn -0.8714 -0.4388 0.2192
vn -0.8726 0.1776 -0.4550
vn -0.9824 -0.1643 0.0888
vn -0.9768 -0.0987 0.1898
vn -0.0003 0.1583 0.9874
vn -0.0854 0.5716 -0.8161
vn -0.9303 -0.2476 -0.2708
vn -0.8519 0.3783 -0.3621
vn -0.1105 -0.0186 0.9937
vn 0.2402 0.8138 0.5292
vn -0.9273 0.3624 0.0932
vn -0.1406 -0.9548 -0.2619
vn -0.4195 -0.6945 0.5845
vn -0.4899 -0.0724 0.8688
vn -0.9745 -0.2243 0.0003
vn 0.5531 -0.6560 -0.5136
vn -0.5866 0.3661 0.7224
vn -0.6319 0.7441 0.2170
vn -0.6893 -0.6899 -0.2210
vn -0.8563 -0.2648 -0.4433
vn -0.8498 -0.4895 0.1956
vn -0.7386 0.5524 0.3864
vn -0.8886 0.3299 -0.3188
vn -0.4229 -0.9058 -0.0251
vn -0.2955 -0.8682 0.3987
vn -0.0292 0.1185 0.9925
vn -0.1706 0.6089 -0.7747
vn -0.9681 -0.0937 -0.2326
vn 0.6427 0.7587 -0.1064
vn -0.8651 0.3533 -0.3561
vn -0.9621 0.0222 0.2718
vn -0.9815 -0.0108 -0.1912
vn -0.0900 -0.1297 0.9875
vn 0.3400 0.6903 0.6386
vn -0.8008 0.0440 -0.5973
vn -0.9650 -0.2552 0.0606
vn -0.9862 -0.0218 0.1643
vn -0.9686 0.0020 -0.2488
vn -0.7730 -0.6236 0.1164
vn -0.8594 0.3028 0.4120
vn -0.8506 -0.5212 -0.0697
vn -0.8323 -0.4423 0.3342
vn -0.8156 0.5784 -0.0165
vn -0.9536 0.0469 -0.2974
vn -0.9847 -0.0548 -0.1656
vn -0.8641 0.2232 0.4512
vn -0.8621 0.3107 -0.4002
vn -0.9742 -0.1283 0.1855
vn -0.9868 0.1000 0.1273
vn -0.9646 0.1519 -0.2156
vn -0.0078 -0.4171 0.9088
vn 0.1006 0.0361 0.9943
vn -0.7622 -0.1055 -0.6387
vn -0.7767 -0.3087 0.5491
vn -0.7344 0.5606 -0.3825
vn 0.0827 -0.6034 0.7932
vn 0.0607 0.9552 -0.2896
vn -0.9969 0.0608 -0.0494
vn -0.8602 0.3362 -0.3834
vn -0.9696 -0.2448 -0.0006
vn -0.9496 -0.1695 0.2637
vn -0.9588 0.1653 -0.2308
vn -0.0091 -0.9661 0.2581
vn -0.1294 -0.5008 0.8558
vn -0.7872 -0.2438 -0.5665
vn -0.8523 0.1082 0.5117
vn -0.8104 0.5842 0.0448
vn 0.1214 0.3735 0.9196
vn -0.3116 0.9189 0.2418
vn -0.3956 -0.9184 -0.0079
vn 0.3625 -0.8422 0.3991
vn -0.0383 0.9823 -0.1833
vn -0.9993 0.0368 -0.0074
vn -0.0000 0.5680 0.8230
vn -0.9949 -0.0680 0.0744
vn 0.8348 -0.5444 -0.0825
vn 0.7914 0.5657 0.2316
vn -0.9908 -0.1354 0.0047
vn 0.0672 -0.9182 0.3904
vn -0.3074 0.7398 0.5986
vn -0.2307 0.9389 0.2553
vn -0.9522 -0.2707 -0.1416
vn -0.0598 -0.1384 0.9886
vn 0.4165 0.8465 0.3317
vn -0.9893 -0.1424 0.0329
vn -0.6199 0.1515 -0.7700
vn -0.3698 -0.4547 0.8103
vn -0.7681 0.4330 0.4717
vn 0.0566 -0.0320 -0.9979
vn -0.7297 -0.5688 -0.3796
vn -0.4984 0.5382 -0.6797
vn -0.2118 0.6969 0.6852
vn 0.1476 0.9734 0.1751
vn -0.9924 -0.1190 -0.0323
vn -0.2332 0.5791 0.7812
vn -0.3666 0.8650 -0.3425
vn -0.9713 -0.2330 -0.0475
vn -0.0710 0.1566 -0.9851
vn -0.9288 -0.1973 -0.3135
vn -0.6832 0.6351 -0.3603
vn 0.8351 0.4367 0.3347
vn 0.8182 -0.5695 -0.0786
vn 0.2233 0.3185 -0.9213
vn 0.0770 0.9967 -0.0236
vn -0.9692 -0.2014 -0.1416
vn -0.2688 -0.0468 0.9621
vn 0.0684 -0.3270 -0.9425
vn -0.8814 -0.3923 -0.2632
vn -0.4635 0.5940 -0.6576
vn 0.1869 -0.0031 -0.9824
vn -0.8103 -0.5146 -0.2802
vn -0.4881 0.8024 -0.3434
vn -0.8763 0.3069 -0.3713
vn -0.8792 -0.2614 -0.3985
vn -0.8770 -0.3976 0.2699
vn -0.0510 0.8724 -0.4861
vn 0.3242 0.0076 -0.9460
vn -0.9209 -0.2883 -0.2622
vn 0.0154 0.6788 -0.7342
vn 0.4199 -0.1730 -0.8909
vn -0.9917 -0.1286 0.0006
vn -0.2866 0.0366 -0.9573
vn -0.7577 -0.6196 0.2049
vn -0.7871 0.5425 0.2936
vn 0.2586 0.9268 -0.2724
vn 0.4068 -0.0638 -0.9113
vn -0.9256 -0.0450 0.3759
vn -0.0366 0.5296 -0.8475
vn 0.3728 -0.6304 -0.6808
vn -0.9605 -0.2758 0.0357
vn 0.0188 -0.1329 -0.9910
vn -0.9183 -0.0499 0.3928
vn -0.1325 0.9892 -0.0620
vn 0.0231 -0.4392 -0.8981
vn -0.8921 -0.2974 0.3402
vn -0.0586 0.8989 -0.4342
vn -0.4208 0.8618 0.2833
vn -0.0007 0.8389 -0.5443
vn -0.9531 -0.2736 -0.1291
vn -0.0921 0.0744 -0.9930
vn -0.9114 -0.3368 0.2364
vn -0.1865 0.9748 -0.1222
vn -0.2886 -0.5556 -0.7797
vn -0.9014 -0.3284 0.2824
vn -0.1855 0.9326 -0.3096
vn -0.4611 -0.1397 -0.8763
vn -0.5201 -0.7296 -0.4441
vn -0.2559 0.9548 0.1512
vn -0.2832 0.4454 0.8493
vn -0.2544 0.8874 -0.3846
vn -0.3421 0.4653 -0.8164
vn -0.7892 -0.3221 -0.5228
vn -0.8385 -0.5431 0.0438
vn -0.8384 0.5358 0.0998
vn -0.8921 -0.4119 -0.1858
vn -0.7148 0.6826 0.1522
vn -0.8726 0.2710 -0.4063
vn -0.9663 0.1797 -0.1845
vn -0.2672 0.6875 -0.6753
vn 0.0693 0.1568 -0.9852
vn 0.2836 0.4855 0.8270
vn -0.2327 0.9272 0.2937
vn -0.8227 0.1218 0.5552
vn -0.9034 0.4273 -0.0368
vn -0.8107 0.2888 -0.5093
vn -0.8949 -0.4419 0.0617
vn -0.5485 -0.2669 -0.7924
vn -0.5400 0.7955 -0.2749
vn 0.5059 0.4962 -0.7056
vn 0.7640 0.6101 0.2100
vn -0.6459 0.4215 -0.6366
vn -0.2679 0.9004 0.3427
vn -0.8331 0.4515 0.3195
vn -0.9567 -0.0119 -0.2910
vn -0.5584 -0.7510 0.3524
vn -0.9567 0.1360 0.2575
vn -0.9493 0.0905 -0.3011
vn -0.5588 -0.7790 -0.2844
vn -0.6986 -0.6979 0.1577
vn -0.7064 -0.1222 0.6972
vn -0.9747 0.2229 -0.0186
vn 0.0500 0.9847 -0.1669
vn 0.6310 0.3751 0.6790
vn 0.7145 -0.0973 -0.6928
vn -0.6001 -0.7946 -0.0920
vn -0.7491 -0.0722 0.6585
vn -0.9933 0.1007 -0.0562
vn -0.2328 -0.3988 -0.8870
vn -0.1336 -0.9226 0.3619
vn -0.8283 0.0346 -0.5592
vn -0.1258 0.0117 -0.9920
vn -0.7210 -0.4008 0.5653
vn -0.8217 0.5341 0.1989
vn -0.8041 -0.1065 -0.5848
vn -0.9013 0.2733 0.3361
vn -0.9039 0.4276 0.0094
vn -0.5769 0.4401 0.6881
vn 0.1637 0.5563 0.8147
vn -0.0040 -0.1773 -0.9842
vn -0.9254 0.0687 -0.3727
vn -0.9592 -0.2375 0.1533
vn -0.8965 0.3817 0.2248
vn 0.1964 0.8794 0.4337
vn 0.9330 0.0196 -0.3593
vn -0.8579 -0.3176 -0.4040
vn -0.4917 -0.0730 -0.8677
vn 0.1173 0.2888 0.9502
vn 0.0161 0.9852 0.1708
vn 0.4635 -0.8848 -0.0480
vn 0.1195 -0.8878 0.4444
vn -0.3720 0.4762 -0.7968
vn -0.4834 -0.6989 -0.5272
vn -0.7846 -0.4526 0.4238
vn -0.9457 -0.2820 0.1618
vn -0.2160 0.6348 -0.7419
vn 0.7755 0.3541 0.5227
vn 0.3919 -0.1959 -0.8989
vn -0.8938 -0.4370 -0.1010
vn -0.8247 -0.1557 0.5437
vn -0.9927 -0.1102 0.0491
vn -0.3431 0.8825 -0.3216
vn 0.5896 0.6957 0.4102
vn 0.7987 -0.4640 -0.3831
vn -0.8170 0.0560 -0.5738
vn -0.3617 -0.2758 0.8906
vn -0.0545 0.8678 0.4939
vn -0.7562 -0.5710 0.3195
vn -0.5119 -0.2199 0.8304
vn -0.9944 -0.0480 -0.0940
vn -0.6539 -0.7559 0.0303
vn -0.6701 -0.5577 0.4898
vn -0.9877 -0.0732 -0.1381
vn -0.7150 -0.5973 -0.3634
vn -0.5941 -0.7756 0.2134
vn -0.9825 -0.0208 0.1849
vn -0.9810 -0.1828 -0.0647
vn -0.6119 -0.2709 0.7431
vn -0.8565 0.5079 -0.0915
vn -0.6941 0.7130 0.0996
vn -0.6416 0.2571 -0.7226
vn -0.8957 0.4183 0.1509
vn -0.9511 0.2124 -0.2241
vn -0.7294 0.6636 -0.1659
vn -0.7899 -0.0648 -0.6098
vn -0.8545 -0.4958 0.1548
vn -0.6784 -0.4420 -0.5869
vn -0.4268 -0.9031 0.0481
vn -0.9420 -0.2303 0.2441
vn -0.4694 0.4273 0.7727
vn -0.8756 0.4830 -0.0059
vn -0.9112 0.3967 0.1107
vn -0.9245 0.3108 -0.2204
vn -0.9611 0.2373 -0.1414
vn -0.8506 -0.2221 -0.4766
vn -0.8008 -0.5771 0.1605
vn -0.9606 -0.2316 -0.1539
vn -0.7458 0.5390 0.3915
vn -0.7340 0.6792 0.0047
vn -0.8574 0.4731 0.2024
vn -0.8123 -0.5629 -0.1526
vn -0.8724 -0.3890 0.2959
vn -0.9421 -0.3035 0.1426
vn -0.9204 0.0620 0.3861
vn -0.8622 -0.0359 0.5054
vn -0.8506 0.2984 0.4329
vn -0.8776 0.0761 -0.4734
vn -0.7174 -0.3337 -0.6115
vn -0.9044 -0.0428 -0.4245
vn -0.6577 -0.6557 -0.3709
vn 0.2252 -0.7544 -0.6166
vn -0.4027 -0.7987 0.4471
vn -0.7255 0.0552 0.6860
vn -0.7285 -0.0448 0.6835
vn -0.0600 0.1441 0.9878
vn -0.6425 0.6489 -0.4077
vn -0.6498 0.7339 -0.1980
vn -0.0066 0.7540 -0.6568
vn -0.6356 -0.6720 0.3802
vn -0.6782 -0.7013 0.2195
vn 0.0961 -0.9665 0.2381
vn -0.6450 0.6203 0.4463
vn 0.2079 0.7343 0.6462
vn -0.4455 0.7979 -0.4061
vn -0.8234 0.0233 -0.5670
vn -0.0540 0.1756 -0.9830
vn -0.5288 -0.7078 -0.4685
vn -0.4910 -0.0368 0.8704
vn -0.6724 -0.5439 -0.5021
vn -0.3016 -0.7513 0.5870
vn -0.2440 0.8928 0.3786
vn -0.8883 0.2961 -0.3512
vn -0.4583 0.0299 0.8883
vn -0.2213 -0.9155 -0.3361
vn -0.7845 -0.4147 0.4611
vn -0.4475 -0.0648 -0.8919
vn -0.4935 0.0548 -0.8680
vn -0.5320 0.7096 0.4619
vn -0.3282 0.7414 -0.5854
vn -0.5373 -0.4437 -0.7173
vn -0.9637 -0.2424 0.1115
vn -0.6510 0.6814 -0.3345
vn -0.7249 0.6494 0.2298
vn -0.5941 -0.7121 0.3741
vn -0.4470 -0.2985 0.8433
vn 0.2469 0.9395 -0.2375
vn -0.0000 0.1436 -0.9896
vn -0.5187 -0.4700 0.7142
vn 0.6078 -0.1116 0.7862
vn -0.0000 0.9707 -0.2401
vn -0.9368 -0.1412 -0.3202
vn -0.0000 0.2036 0.9791
vn -0.5478 0.0062 -0.8366
vn 0.6544 -0.6988 -0.2888
vn -0.7733 0.6092 0.1755
vn 0.8411 0.3589 0.4046
vn 0.1659 0.7123 -0.6819
vn -0.1234 -0.1497 0.9810
vn -0.7671 0.5528 -0.3254
vn 0.4359 -0.8687 -0.2351
vn -0.8717 -0.3864 -0.3014
vn -0.6673 -0.3575 0.6533
vn -0.9701 0.2385 0.0450
vn -0.9151 -0.2950 0.2750
vn -0.8366 -0.0537 0.5451
vn -0.9006 0.2232 -0.3729
vn -0.7145 0.6996 0.0086
vn -0.7789 -0.5230 -0.3462
vn -0.9933 0.0485 0.1051
vn -0.9986 -0.0067 -0.0517
vn -0.7511 -0.5788 0.3175
vn -0.8349 0.3373 0.4350
vn -0.9347 0.0452 0.3525
vn -0.4569 0.6574 -0.5993
vn -0.0098 -0.9369 -0.3495
vn -0.9449 -0.3117 0.0999
vn -0.7212 0.5406 0.4332
vn -0.8046 0.2476 -0.5397
vn -0.8287 0.0759 -0.5545
vn -0.7559 -0.2456 0.6069
vn -0.9363 0.1191 0.3305
vn -0.9040 0.0903 -0.4180
vn 0.4895 -0.4397 0.7531
vn 0.2734 0.7489 0.6036
vn -0.2483 -0.9479 0.1997
vn -0.6732 0.6140 0.4121
vn 0.6879 0.2742 -0.6720
vn 0.1278 0.2579 0.9577
vn -0.8440 0.1381 -0.5183
vn 0.6341 -0.7004 -0.3278
vn -0.0083 0.1841 0.9829
vn -0.9776 0.2037 0.0531
vn -0.5823 -0.7964 -0.1632
vn -0.7277 0.6658 0.1650
vn -0.8088 -0.4450 -0.3844
vn -0.4050 -0.0390 0.9135
vn -0.6308 -0.1360 0.7639
vn -0.7602 0.1970 -0.6190
vn -0.8946 -0.4239 -0.1414
vn -0.9210 -0.1875 -0.3416
vn -0.8528 -0.1222 0.5077
vn -0.8311 0.4226 0.3616
vn -0.8204 -0.5706 0.0373
vn -0.7235 0.4436 0.5289
vn -0.9724 0.1218 -0.1990
vn -0.7899 0.1629 -0.5912
vn -0.4886 -0.3036 0.8180
vn -0.7217 0.5312 0.4439
vn -0.9192 0.1580 -0.3606
vn -0.9367 -0.3502 -0.0051
vn -0.8572 -0.4049 0.3182
vn -0.8416 -0.2963 0.4515
vn 0.7697 0.4243 0.4770
vn 0.0575 0.6388 -0.7672
vn 0.8080 0.5181 -0.2807
vn -0.9082 0.1342 -0.3964
vn -0.0618 -0.8970 0.4377
vn -0.4761 0.1719 0.8624
vn -0.6584 -0.2704 -0.7024
vn 0.8013 -0.2942 -0.5209
vn -0.6969 -0.7145 0.0620
vn -0.5974 0.7970 -0.0885
vn 0.9644 0.2440 0.1024
vn -0.9115 -0.2980 -0.2835
vn 0.1190 -0.9415 -0.3153
vn 0.5997 0.7810 -0.1745
vn -0.3889 -0.4756 0.7890
vn -0.4073 0.2478 -0.8790
vn 0.7347 0.2037 -0.6471
vn -0.9321 -0.3322 0.1446
vn 0.0029 0.4533 0.8914
vn -0.0568 0.2868 -0.9563
vn -0.5975 -0.2959 0.7452
vn 0.6818 -0.4760 0.5554
vn -0.0545 0.2389 -0.9695
vn -0.9208 0.0963 0.3780
vn 0.9714 -0.0561 0.2306
vn 0.0075 -0.2562 -0.9666
vn -0.2621 -0.6192 -0.7402
vn -0.2384 0.7484 0.6189
vn 0.9776 0.0505 0.2045
vn 0.8360 -0.4896 -0.2477
vn -0.4462 0.8888 -0.1041
vn -0.2930 0.0543 0.9546
vn -0.6952 0.5295 -0.4861
vn 0.0375 0.1790 0.9831
vn 0.8684 -0.4733 0.1480
vn 0.1861 0.7349 0.6522
vn -0.2389 0.8992 -0.3665
vn -0.9458 -0.3179 0.0669
s 0
usemtl mat0
f 1//1 2//2 3//3
f 4//4 2//5 5//6
f 6//7 7//8 4//9
f 8//10 6//11 9//12
f 10//13 11//14 6//15
f 12//16 5//17 1//18
f 1//19 13//20 14//21
f 3//22 15//23 13//24
f 2//25 16//26 3//27
f 16//28 17//29 18//30
f 19//31 17//32 20//33
f 21//34 22//35 19//36
f 23//37 24//38 21//39
f 16//40 25//41 15//42
f 7//43 20//44 2//45
f 11//46 19//47 7//48
f 26//49 21//50 11//51
f 27//52 28//53 29//54
f 23//55 30//56 31//57
f 32//58 33//59 34//60
f 27//61 35//62 8//63
f 36//64 37//65 38//66
f 38//67 39//68 30//69
f 40//70 41//71 36//72
f 26//73 38//74 23//75
f 42//76 43//77 41//78
f 44//79 45//80 46//81
f 37//82 47//83 39//84
f 41//85 48//86 37//87
f 49//88 50//89 51//90
f 52//91 53//92 54//93
f 55//94 56//95 57//96
f 58//97 29//98 59//99
f 60//100 61//101 62//102
f 60//103 63//104 64//105
f 65//106 66//107 67//108
f 68//109 69//110 49//111
f 70//112 71//113 72//114
f 73//115 54//116 69//117
f 72//118 74//119 75//120
f 57//121 76//122 77//123
f 75//124 78//125 79//126
f 80//127 81//128 82//129
f 83//130 84//131 85//132
f 86//133 87//134 84//135
f 88//136 69//137 54//138
f 50//139 82//140 51//141
f 77//142 89//143 90//144
f 91//145 92//146 93//147
f 48//148 79//149 47//150
f 43//151 75//152 48//153
f 94//154 72//155 43//156
f 95//157 59//158 45//159
f 96//160 97//161 71//162
f 71//163 60//164 74//165
f 74//166 62//167 78//168
f 98//169 33//170 55//171
f 91//172 93//173 81//174
f 90//175 99//176 100//177
f 63//178 73//179 64//180
f 64//181 68//182 61//183
f 65//184 101//185 98//186
f 84//187 102//188 103//189
f 100//190 104//191 105//192
f 85//193 103//194 106//195
f 100//196 102//197 87//198
f 107//199 55//200 108//201
f 109//202 100//203 87//204
f 110//205 111//206 112//207
f 95//208 70//209 94//210
f 113//211 90//212 109//213
f 53//214 77//215 113//216
f 44//217 96//218 70//219
f 114//220 115//221 116//222
f 55//223 53//224 108//225
f 58//226 94//227 42//228
f 35//229 42//230 40//231
f 26//232 40//233 36//234
f 10//235 35//236 40//237
f 12//238 14//239 117//240
f 8//241 118//242 27//243
f 4//244 9//245 6//246
f 119//247 5//248 120//249
f 28//250 59//251 29//252
f 121//253 45//254 59//255
f 67//256 122//257 101//258
f 123//259 66//260 46//261
f 124//262 46//263 45//264
f 125//265 67//266 66//267
f 101//268 34//269 33//270
f 118//271 126//272 27//273
f 127//274 46//275 66//276
f 105//277 104//278 128//279
f 103//280 102//281 128//282
f 102//283 105//284 128//285
f 106//286 103//287 128//288
f 129//289 130//290 96//291
f 129//292 127//293 131//294
f 132//295 98//296 107//297
f 132//298 130//299 133//300
f 131//301 65//302 134//303
f 135//304 65//305 98//306
f 136//307 137//308 138//309
f 138//310 112//311 111//312
f 139//313 140//314 141//315
f 114//316 112//317 137//318
f 141//319 142//320 143//321
f 116//322 136//323 144//324
f 131//325 145//326 129//327
f 133//328 146//329 132//330
f 134//331 147//332 148//333
f 133//334 145//335 149//336
f 134//337 150//338 131//339
f 135//340 146//341 147//342
f 150//343 144//344 145//345
f 151//346 143//347 152//348
f 148//349 110//350 114//351
f 153//352 141//353 151//354
f 150//355 114//356 116//357
f 147//358 154//359 110//360
f 155//361 138//362 140//363
f 140//364 111//365 142//366
f 142//367 154//368 143//369
f 155//370 144//371 136//372
f 152//373 149//374 151//375
f 153//376 149//377 145//378
f 152//379 154//380 146//381
f 139//382 145//383 144//384
f 156//385 63//386 157//387
f 158//388 108//389 159//390
f 157//391 97//392 160//393
f 161//394 107//395 158//396
f 161//397 97//398 130//399
f 159//400 52//401 156//402
f 162//403 157//404 160//405
f 156//406 163//407 159//408
f 158//409 164//410 161//411
f 157//412 165//413 156//414
f 163//415 158//416 159//417
f 164//418 160//419 161//420
f 166//421 167//422 168//423
f 169//424 170//425 163//426
f 171//427 167//428 162//429
f 172//430 170//431 173//432
f 172//433 162//434 164//435
f 169//436 165//437 166//438
f 174//439 166//440 168//441
f 174//442 173//443 169//444
f 174//445 168//446 171//447
f 174//448 172//449 173//450
f 174//451 171//452 172//453
f 174//454 169//455 166//456
f 80//457 175//458 92//459
f 50//460 176//461 175//462
f 86//463 176//464 88//465
f 25//466 177//467 15//468
f 14//469 177//470 117//471
f 15//472 177//473 13//474
f 13//475 177//476 14//477
f 178//478 179//479 180//480
f 181//481 182//482 183//483
f 184//484 113//485 185//486
f 186//487 88//488 54//489
f 187//490 86//491 188//492
f 184//493 54//494 53//495
f 189//496 190//497 191//498
f 192//499 86//500 88//501
f 185//502 109//503 187//504
f 193//505 194//506 195//507
f 183//508 178//509 180//510
f 194//511 196//512 181//513
f 197//514 198//515 189//516
f 192//517 193//518 199//519
f 185//520 200//521 184//522
f 200//523 186//524 184//525
f 188//526 182//527 187//528
f 192//529 178//530 188//531
f 182//532 185//533 187//534
f 199//535 195//536 179//537
f 197//538 201//539 195//540
f 202//541 181//542 198//543
f 190//544 180//545 191//546
f 195//547 202//548 197//549
f 198//550 183//551 190//552
f 189//553 203//554 204//555
f 205//556 206//557 204//558
f 207//559 204//560 203//561
f 191//562 207//563 203//564
f 179//565 201//566 205//567
f 179//568 207//569 180//570
f 189//571 206//572 197//573
f 208//574 209//575 210//576
f 209//577 211//578 210//579
f 212//580 213//581 211//582
f 213//583 214//584 9//585
f 215//586 216//587 213//588
f 12//589 210//590 120//591
f 217//592 208//593 218//594
f 219//595 220//596 217//597
f 221//598 209//599 220//600
f 18//601 222//602 221//603
f 17//604 223//605 222//606
f 22//607 224//608 223//609
f 24//610 225//611 224//612
f 25//613 221//614 219//615
f 222//616 212//617 209//618
f 223//619 215//620 212//621
f 224//622 226//623 215//624
f 227//625 28//626 126//627
f 30//628 225//629 31//630
f 32//631 228//632 229//633
f 230//634 227//635 214//636
f 231//637 232//638 233//639
f 39//640 233//641 30//642
f 234//643 235//644 232//645
f 233//646 226//647 225//648
f 236//649 237//650 234//651
f 238//652 239//653 240//654
f 47//655 231//656 39//657
f 241//658 234//659 231//660
f 49//661 242//662 243//663
f 244//664 245//665 246//666
f 229//667 56//668 32//669
f 247//670 248//671 230//672
f 61//673 249//674 62//675
f 249//676 250//677 251//678
f 252//679 253//680 254//681
f 68//682 243//683 255//684
f 256//685 257//686 258//687
f 255//688 259//689 244//690
f 260//691 258//692 261//693
f 262//694 76//695 56//696
f 78//697 261//698 79//699
f 81//700 263//701 82//702
f 83//703 264//704 265//705
f 265//706 266//707 267//708
f 268//709 243//710 242//711
f 82//712 242//713 51//714
f 269//715 89//716 76//717
f 270//718 92//719 263//720
f 79//721 241//722 47//723
f 261//724 236//725 241//726
f 258//727 271//728 236//729
f 240//730 272//731 247//732
f 251//733 273//734 256//735
f 249//736 256//737 260//738
f 62//739 260//740 78//741
f 228//742 274//743 229//744
f 270//745 81//746 93//747
f 275//748 99//749 89//750
f 255//751 250//752 276//753
f 68//754 276//755 61//756
f 277//757 252//758 274//759
f 264//760 278//761 266//762
f 279//763 104//764 99//765
f 85//766 280//767 264//768
f 278//769 279//770 266//771
f 281//772 229//773 274//774
f 267//775 279//776 275//777
f 282//778 283//779 284//780
f 257//781 240//782 271//783
f 285//784 275//785 269//786
f 245//787 269//788 262//789
f 273//790 238//791 257//792
f 286//793 287//794 288//795
f 245//796 229//797 246//798
f 271//799 247//800 237//801
f 237//802 230//803 235//804
f 226//805 235//806 216//807
f 216//808 230//809 214//810
f 218//811 12//812 117//813
f 214//814 118//815 9//816
f 211//817 9//818 119//819
f 210//820 119//821 120//822
f 272//823 28//824 248//825
f 239//826 121//827 272//828
f 289//829 122//830 290//831
f 253//832 123//833 291//834
f 291//835 124//836 239//837
f 289//838 125//839 253//840
f 277//841 34//842 122//843
f 118//844 227//845 126//846
f 254//847 291//848 238//849
f 292//850 128//851 104//852
f 280//853 128//854 278//855
f 278//856 128//857 292//858
f 106//859 128//860 280//861
f 293//862 294//863 295//864
f 254//865 293//866 296//867
f 297//868 274//869 298//870
f 294//871 297//872 295//873
f 252//874 296//875 299//876
f 298//877 252//878 299//879
f 300//880 301//881 286//882
f 302//883 303//884 301//885
f 304//886 305//887 306//888
f 287//889 303//890 282//891
f 307//892 306//893 308//894
f 300//895 288//896 309//897
f 310//898 296//899 293//900
f 311//901 295//902 297//903
f 299//904 312//905 298//906
f 295//907 310//908 293//909
f 313//910 299//911 296//912
f 298//913 311//914 297//915
f 309//916 313//917 310//918
f 308//919 314//920 315//921
f 316//922 282//923 312//924
f 306//925 317//926 314//927
f 313//928 287//929 316//930
f 312//931 284//932 311//933
f 302//934 318//935 304//936
f 283//937 304//938 307//939
f 284//940 307//941 308//942
f 318//943 309//944 305//945
f 319//946 315//947 314//948
f 317//949 319//950 314//951
f 315//952 284//953 308//954
f 305//955 310//956 317//957
f 250//958 320//959 321//960
f 246//961 322//962 323//963
f 251//964 321//965 324//966
f 281//967 325//968 322//969
f 325//970 251//971 324//972
f 244//973 323//974 320//975
f 321//976 326//977 324//978
f 320//979 327//980 328//981
f 322//982 329//983 330//984
f 321//985 328//986 331//987
f 322//988 327//989 323//990
f 324//991 329//992 325//993
f 331//994 332//995 333//996
f 334//997 330//998 335//999
f 336//1000 331//1001 333//1002
f 330//1003 337//1004 335//1005
f 337//1006 326//1007 336//1008
f 328//1009 334//1010 332//1011
f 338//1012 333//1013 332//1014
f 338//1015 334//1016 335//1017
f 338//1018 336//1019 333//1020
f 338//1021 335//1022 337//1023
f 338//1024 337//1025 336//1026
f 338//1027 332//1028 334//1029
f 263//1030 175//1031 242//1032
f 242//1033 176//1034 268//1035
f 176//1036 265//1037 268//1038
f 25//1039 219//1040 177//1041
f 218//1042 117//1043 177//1044
f 219//1045 217//1046 177//1047
f 217//1048 218//1049 177//1050
f 339//1051 340//1052 341//1053
f 342//1054 343//1055 344//1056
f 285//1057 345//1058 346//1059
f 347//1060 268//1061 348//1062
f 265//1063 349//1064 350//1065
f 345//1066 259//1067 347//1068
f 351//1069 352//1070 353//1071
f 348//1072 265//1073 350//1074
f 267//1075 346//1076 349//1077
f 354//1078 355//1079 356//1080
f 357//1081 340//1082 343//1083
f 354//1084 344//1085 358//1086
f 359//1087 353//1088 360//1089
f 348//1090 355//1091 347//1092
f 358//1093 346//1094 345//1095
f 358//1096 347//1097 355//1098
f 343//1099 350//1100 349//1101
f 340//1102 348//1103 350//1104
f 343//1105 346//1106 344//1107
f 356//1108 361//1109 339//1110
f 362//1111 359//1112 356//1113
f 360//1114 342//1115 354//1116
f 352//1117 341//1118 357//1119
f 360//1120 356//1121 359//1122
f 353//1123 357//1124 342//1125
f 351//1126 363//1127 364//1128
f 365//1129 366//1130 367//1131
f 367//1132 368//1133 363//1134
f 364//1135 368//1136 341//1137
f 339//1138 362//1139 356//1140
f 368//1141 339//1142 341//1143
f 365//1144 351//1145 359//1146
f 1//1147 5//1148 2//1149
f 4//1150 7//1151 2//1152
f 6//1153 11//1154 7//1155
f 8//1156 10//1157 6//1158
f 10//1159 26//1160 11//1161
f 12//1162 120//1163 5//1164
f 1//1165 3//1166 13//1167
f 3//1168 16//1169 15//1170
f 2//1171 20//1172 16//1173
f 16//1174 20//1175 17//1176
f 19//1177 22//1178 17//1179
f 21//1180 24//1181 22//1182
f 23//1183 31//1184 24//1185
f 16//1186 18//1187 25//1188
f 7//1189 19//1190 20//1191
f 11//1192 21//1193 19//1194
f 26//1195 23//1196 21//1197
f 27//1198 126//1199 28//1200
f 23//1201 38//1202 30//1203
f 32//1204 55//1205 33//1206
f 27//1207 29//1208 35//1209
f 36//1210 41//1211 37//1212
f 38//1213 37//1214 39//1215
f 40//1216 42//1217 41//1218
f 26//1219 36//1220 38//1221
f 42//1222 94//1223 43//1224
f 44//1225 95//1226 45//1227
f 37//1228 48//1229 47//1230
f 41//1231 43//1232 48//1233
f 49//1234 69//1235 50//1236
f 52//1237 108//1238 53//1239
f 55//1240 32//1241 56//1242
f 58//1243 35//1244 29//1245
f 60//1246 64//1247 61//1248
f 60//1249 97//1250 63//1251
f 65//1252 127//1253 66//1254
f 68//1255 73//1256 69//1257
f 70//1258 96//1259 71//1260
f 73//1261 52//1262 54//1263
f 72//1264 71//1265 74//1266
f 57//1267 56//1268 76//1269
f 75//1270 74//1271 78//1272
f 80//1273 91//1274 81//1275
f 83//1276 86//1277 84//1278
f 86//1279 109//1280 87//1281
f 88//1282 50//1283 69//1284
f 50//1285 80//1286 82//1287
f 77//1288 76//1289 89//1290
f 91//1291 80//1292 92//1293
f 48//1294 75//1295 79//1296
f 43//1297 72//1298 75//1299
f 94//1300 70//1301 72//1302
f 95//1303 58//1304 59//1305
f 96//1306 130//1307 97//1308
f 71//1309 97//1310 60//1311
f 74//1312 60//1313 62//1314
f 98//1315 101//1316 33//1317
f 90//1318 89//1319 99//1320
f 63//1321 52//1322 73//1323
f 64//1324 73//1325 68//1326
f 65//1327 67//1328 101//1329
f 84//1330 87//1331 102//1332
f 100//1333 99//1334 104//1335
f 85//1336 84//1337 103//1338
f 100//1339 105//1340 102//1341
f 107//1342 98//1343 55//1344
f 109//1345 90//1346 100//1347
f 110//1348 154//1349 111//1350
f 95//1351 44//1352 70//1353
f 113//1354 77//1355 90//1356
f 53//1357 57//1358 77//1359
f 44//1360 127//1361 96//1362
f 114//1363 137//1364 115//1365
f 55//1366 57//1367 53//1368
f 58//1369 95//1370 94//1371
f 35//1372 58//1373 42//1374
f 26//1375 10//1376 40//1377
f 10//1378 8//1379 35//1380
f 12//1381 1//1382 14//1383
f 8//1384 9//1385 118//1386
f 4//1387 119//1388 9//1389
f 119//1390 4//1391 5//1392
f 28//1393 121//1394 59//1395
f 121//1396 124//1397 45//1398
f 67//1399 290//1400 122//1401
f 123//1402 125//1403 66//1404
f 124//1405 123//1406 46//1407
f 125//1408 290//1409 67//1410
f 101//1411 122//1412 34//1413
f 127//1414 44//1415 46//1416
f 129//1417 133//1418 130//1419
f 129//1420 96//1421 127//1422
f 132//1423 135//1424 98//1425
f 132//1426 107//1427 130//1428
f 131//1429 127//1430 65//1431
f 135//1432 134//1433 65//1434
f 136//1435 115//1436 137//1437
f 138//1438 137//1439 112//1440
f 139//1441 155//1442 140//1443
f 114//1444 110//1445 112//1446
f 141//1447 140//1448 142//1449
f 116//1450 115//1451 136//1452
f 131//1453 150//1454 145//1455
f 133//1456 149//1457 146//1458
f 134//1459 135//1460 147//1461
f 133//1462 129//1463 145//1464
f 134//1465 148//1466 150//1467
f 135//1468 132//1469 146//1470
f 150//1471 116//1472 144//1473
f 151//1474 141//1475 143//1476
f 148//1477 147//1478 110//1479
f 153//1480 139//1481 141//1482
f 150//1483 148//1484 114//1485
f 147//1486 146//1487 154//1488
f 155//1489 136//1490 138//1491
f 140//1492 138//1493 111//1494
f 142//1495 111//1496 154//1497
f 155//1498 139//1499 144//1500
f 152//1501 146//1502 149//1503
f 153//1504 151//1505 149//1506
f 152//1507 143//1508 154//1509
f 139//1510 153//1511 145//1512
f 156//1513 52//1514 63//1515
f 158//1516 107//1517 108//1518
f 157//1519 63//1520 97//1521
f 161//1522 130//1523 107//1524
f 161//1525 160//1526 97//1527
f 159//1528 108//1529 52//1530
f 162//1531 167//1532 157//1533
f 156//1534 165//1535 163//1536
f 158//1537 170//1538 164//1539
f 157//1540 167//1541 165//1542
f 163//1543 170//1544 158//1545
f 164//1546 162//1547 160//1548
f 166//1549 165//1550 167//1551
f 169//1552 173//1553 170//1554
f 171//1555 168//1556 167//1557
f 172//1558 164//1559 170//1560
f 172//1561 171//1562 162//1563
f 169//1564 163//1565 165//1566
f 80//1567 50//1568 175//1569
f 50//1570 88//1571 176//1572
f 86//1573 83//1574 176//1575
f 178//1576 199//1577 179//1578
f 181//1579 196//1580 182//1581
f 184//1582 53//1583 113//1584
f 186//1585 192//1586 88//1587
f 187//1588 109//1589 86//1590
f 184//1591 186//1592 54//1593
f 189//1594 198//1595 190//1596
f 192//1597 188//1598 86//1599
f 185//1600 113//1601 109//1602
f 193//1603 200//1604 194//1605
f 183//1606 182//1607 178//1608
f 194//1609 200//1610 196//1611
f 197//1612 202//1613 198//1614
f 192//1615 186//1616 193//1617
f 185//1618 196//1619 200//1620
f 200//1621 193//1622 186//1623
f 188//1624 178//1625 182//1626
f 192//1627 199//1628 178//1629
f 182//1630 196//1631 185//1632
f 199//1633 193//1634 195//1635
f 197//1636 206//1637 201//1638
f 202//1639 194//1640 181//1641
f 190//1642 183//1643 180//1644
f 195//1645 194//1646 202//1647
f 198//1648 181//1649 183//1650
f 189//1651 191//1652 203//1653
f 205//1654 201//1655 206//1656
f 207//1657 205//1658 204//1659
f 191//1660 180//1661 207//1662
f 179//1663 195//1664 201//1665
f 179//1666 205//1667 207//1668
f 189//1669 204//1670 206//1671
f 208//1672 220//1673 209//1674
f 209//1675 212//1676 211//1677
f 212//1678 215//1679 213//1680
f 213//1681 216//1682 214//1683
f 215//1684 226//1685 216//1686
f 12//1687 208//1688 210//1689
f 217//1690 220//1691 208//1692
f 219//1693 221//1694 220//1695
f 221//1696 222//1697 209//1698
f 18//1699 17//1700 222//1701
f 17//1702 22//1703 223//1704
f 22//1705 24//1706 224//1707
f 24//1708 31//1709 225//1710
f 25//1711 18//1712 221//1713
f 222//1714 223//1715 212//1716
f 223//1717 224//1718 215//1719
f 224//1720 225//1721 226//1722
f 227//1723 248//1724 28//1725
f 30//1726 233//1727 225//1728
f 32//1729 34//1730 228//1731
f 230//1732 248//1733 227//1734
f 231//1735 234//1736 232//1737
f 39//1738 231//1739 233//1740
f 234//1741 237//1742 235//1743
f 233//1744 232//1745 226//1746
f 236//1747 271//1748 237//1749
f 238//1750 291//1751 239//1752
f 47//1753 241//1754 231//1755
f 241//1756 236//1757 234//1758
f 49//1759 51//1760 242//1761
f 244//1762 259//1763 245//1764
f 229//1765 262//1766 56//1767
f 247//1768 272//1769 248//1770
f 61//1771 276//1772 249//1773
f 249//1774 276//1775 250//1776
f 252//1777 289//1778 253//1779
f 68//1780 49//1781 243//1782
f 256//1783 273//1784 257//1785
f 255//1786 243//1787 259//1788
f 260//1789 256//1790 258//1791
f 262//1792 269//1793 76//1794
f 78//1795 260//1796 261//1797
f 81//1798 270//1799 263//1800
f 83//1801 85//1802 264//1803
f 265//1804 264//1805 266//1806
f 268//1807 259//1808 243//1809
f 82//1810 263//1811 242//1812
f 269//1813 275//1814 89//1815
f 270//1816 93//1817 92//1818
f 79//1819 261//1820 241//1821
f 261//1822 258//1823 236//1824
f 258//1825 257//1826 271//1827
f 240//1828 239//1829 272//1830
f 251//1831 294//1832 273//1833
f 249//1834 251//1835 256//1836
f 62//1837 249//1838 260//1839
f 228//1840 277//1841 274//1842
f 275//1843 279//1844 99//1845
f 255//1846 244//1847 250//1848
f 68//1849 255//1850 276//1851
f 277//1852 289//1853 252//1854
f 264//1855 280//1856 278//1857
f 279//1858 292//1859 104//1860
f 85//1861 106//1862 280//1863
f 278//1864 292//1865 279//1866
f 281//1867 246//1868 229//1869
f 267//1870 266//1871 279//1872
f 282//1873 303//1874 283//1875
f 257//1876 238//1877 240//1878
f 285//1879 267//1880 275//1881
f 245//1882 285//1883 269//1884
f 273//1885 254//1886 238//1887
f 286//1888 301//1889 287//1890
f 245//1891 262//1892 229//1893
f 271//1894 240//1895 247//1896
f 237//1897 247//1898 230//1899
f 226//1900 232//1901 235//1902
f 216//1903 235//1904 230//1905
f 218//1906 208//1907 12//1908
f 214//1909 227//1910 118//1911
f 211//1912 213//1913 9//1914
f 210//1915 211//1916 119//1917
f 272//1918 121//1919 28//1920
f 239//1921 124//1922 121//1923
f 289//1924 277//1925 122//1926
f 253//1927 125//1928 123//1929
f 291//1930 123//1931 124//1932
f 289//1933 290//1934 125//1935
f 277//1936 228//1937 34//1938
f 254//1939 253//1940 291//1941
f 293//1942 273//1943 294//1944
f 254//1945 273//1946 293//1947
f 297//1948 281//1949 274//1950
f 294//1951 281//1952 297//1953
f 252//1954 254//1955 296//1956
f 298//1957 274//1958 252//1959
f 300//1960 302//1961 301//1962
f 302//1963 283//1964 303//1965
f 304//1966 318//1967 305//1968
f 287//1969 301//1970 303//1971
f 307//1972 304//1973 306//1974
f 300//1975 286//1976 288//1977
f 310//1978 313//1979 296//1980
f 311//1981 319//1982 295//1983
f 299//1984 316//1985 312//1986
f 295//1987 319//1988 310//1989
f 313//1990 316//1991 299//1992
f 298//1993 312//1994 311//1995
f 309//1996 288//1997 313//1998
f 308//1999 306//2000 314//2001
f 316//2002 287//2003 282//2004
f 306//2005 305//2006 317//2007
f 313//2008 288//2009 287//2010
f 312//2011 282//2012 284//2013
f 302//2014 300//2015 318//2016
f 283//2017 302//2018 304//2019
f 284//2020 283//2021 307//2022
f 318//2023 300//2024 309//2025
f 319//2026 311//2027 315//2028
f 317//2029 310//2030 319//2031
f 315//2032 311//2033 284//2034
f 305//2035 309//2036 310//2037
f 250//2038 244//2039 320//2040
f 246//2041 281//2042 322//2043
f 251//2044 250//2045 321//2046
f 281//2047 294//2048 325//2049
f 325//2050 294//2051 251//2052
f 244//2053 246//2054 323//2055
f 321//2056 331//2057 326//2058
f 320//2059 323//2060 327//2061
f 322//2062 325//2063 329//2064
f 321//2065 320//2066 328//2067
f 322//2068 330//2069 327//2070
f 324//2071 326//2072 329//2073
f 331//2074 328//2075 332//2076
f 334//2077 327//2078 330//2079
f 336//2080 326//2081 331//2082
f 330//2083 329//2084 337//2085
f 337//2086 329//2087 326//2088
f 328//2089 327//2090 334//2091
f 263//2092 92//2093 175//2094
f 242//2095 175//2096 176//2097
f 176//2098 83//2099 265//2100
f 339//2101 361//2102 340//2103
f 342//2104 357//2105 343//2106
f 285//2107 245//2108 345//2109
f 347//2110 259//2111 268//2112
f 265//2113 267//2114 349//2115
f 345//2116 245//2117 259//2118
f 351//2119 364//2120 352//2121
f 348//2122 268//2123 265//2124
f 267//2125 285//2126 346//2127
f 354//2128 358//2129 355//2130
f 357//2131 341//2132 340//2133
f 354//2134 342//2135 344//2136
f 359//2137 351//2138 353//2139
f 348//2140 361//2141 355//2142
f 358//2143 344//2144 346//2145
f 358//2146 345//2147 347//2148
f 343//2149 340//2150 350//2151
f 340//2152 361//2153 348//2154
f 343//2155 349//2156 346//2157
f 356//2158 355//2159 361//2160
f 362//2161 365//2162 359//2163
f 360//2164 353//2165 342//2166
f 352//2167 364//2168 341//2169
f 360//2170 354//2171 356//2172
f 353//2173 352//2174 357//2175
f 351//2176 367//2177 363//2178
f 365//2179 362//2180 366//2181
f 367//2182 366//2183 368//2184
f 364//2185 363//2186 368//2187
f 339//2188 366//2189 362//2190
f 368//2191 366//2192 339//2193
f 365//2194 367//2195 351//2196
o Plane
v -5.392790 0.000000 5.392790
v 5.392790 0.000000 5.392790
v -5.392790 0.000000 -5.392790
v 5.392790 0.000000 -5.392790
vn -0.0000 1.0000 -0.0000
vt 0.000000 0.000000
vt 1.000000 0.000000
vt 1.000000 1.000000
vt 0.000000 1.000000
s 0
usemtl Material.004
f 369/1/2197 370/2/2197 372/3/2197 371/4/2197
o Plane.001
v -5.392790 8.000378 -5.392790
v 5.392790 8.000378 -5.392790
v -5.392790 8.000378 5.392790
v 5.392790 8.000378 5.392790
vn -0.0000 -1.0000 -0.0000
vt 0.000000 0.000000
vt 1.000000 0.000000
vt 1.000000 1.000000
vt 0.000000 1.000000
s 0
usemtl Material.007
f 373/5/2198 374/6/2198 376/7/2198 375/8/2198
o Plane.002
v -5.392790 -0.004902 -5.333030
v 5.392790 -0.004902 -5.333030
v -5.392790 7.995098 -5.333030
v 5.392790 7.995098 -5.333030
vn -0.0000 -0.0000 1.0000
vt 0.000000 0.000000
vt 1.000000 0.000000
vt 1.000000 1.000000
vt 0.000000 1.000000
s 0
usemtl Material.003
f 377/9/2199 378/10/2199 380/11/2199 379/12/2199
o Plane.003
v -5.369879 -0.004902 5.426111
v -5.369879 -0.004902 -5.359468
v -5.369878 7.995098 5.426111
v -5.369879 7.995098 -5.359468
vn 1.0000 -0.0000 -0.0000
vt 0.000000 0.000000
vt 1.000000 0.000000
vt 1.000000 1.000000
vt 0.000000 1.000000
s 0
usemtl Material.001
f 381/13/2200 382/14/2200 384/15/2200 383/16/2200
o Plane.004
v 5.395009 -0.004902 -5.359468
v 5.395008 -0.004902 5.426111
v 5.395008 7.995098 -5.359468
v 5.395008 7.995098 5.426111
vn -1.0000 -0.0000 -0.0000
vt 0.000000 0.000000
vt 1.000000 0.000000
vt 1.000000 1.000000
vt 0.000000 1.000000
s 0
usemtl Material.002
f 385/17/2201 386/18/2201 388/19/2201 387/20/2201
o Plane.005
v -2.174720 7.928411 -2.174720
v 2.174720 7.928411 -2.174720
v -2.174720 7.928411 2.174720
v 2.174720 7.928411 2.174720
vn -0.0000 -1.0000 -0.0000
vt 0.000000 0.000000
vt 1.000000 0.000000
vt 1.000000 1.000000
vt 0.000000 1.000000
s 0
usemtl Material.006
f 389/21/2202 390/22/2202 392/23/2202 391/24/2202
o Cube
v -0.160978 0.278784 6.941348
v -0.160978 2.278784 6.941348
v -1.575191 0.278784 5.527134
v -1.575191 2.278784 5.527134
v 1.253236 0.278784 5.527134
v 1.253236 2.278784 5.527134
v -0.160978 0.278784 4.112921
v -0.160978 2.278784 4.112921
vn -0.7071 -0.0000 0.7071
vn -0.7071 -0.0000 -0.7071
vn 0.7071 -0.0000 -0.7071
vn 0.7071 -0.0000 0.7071
vn -0.0000 -1.0000 -0.0000
vn -0.0000 1.0000 -0.0000
vt 0.375000 0.000000
vt 0.625000 0.000000
vt 0.625000 0.250000
vt 0.375000 0.250000
vt 0.625000 0.500000
vt 0.375000 0.500000
vt 0.625000 0.750000
vt 0.375000 0.750000
vt 0.625000 1.000000
vt 0.375000 1.000000
vt 0.125000 0.500000
vt 0.125000 0.750000
vt 0.875000 0.500000
vt 0.875000 0.750000
s 0
usemtl Material.008
f 393/25/2203 394/26/2203 396/27/2203 395/28/2203
f 395/28/2204 396/27/2204 400/29/2204 399/30/2204
f 399/30/2205 400/29/2205 398/31/2205 397/32/2205
f 397/32/2206 398/31/2206 394/33/2206 393/34/2206
f 395/35/2207 399/30/2207 397/32/2207 393/36/2207
f 400/29/2208 396/37/2208 394/38/2208 398/31/2208
